<?xml version="1.0" encoding="UTF-8" standalone="no"?>
<!DOCTYPE svg PUBLIC "-//W3C//DTD SVG 1.1//EN"
 "http://www.w3.org/Graphics/SVG/1.1/DTD/svg11.dtd">
<!-- Generated by graphviz version 13.1.2 (20250808.2320)
 -->
<!-- Title: TFSD8 Pages: 1 -->
<svg width="958pt" height="866pt"
 viewBox="0.00 0.00 958.00 866.00" xmlns="http://www.w3.org/2000/svg" xmlns:xlink="http://www.w3.org/1999/xlink">
<g id="graph0" class="graph" transform="scale(1 1) rotate(0) translate(4 862.25)">
<title>TFSD8</title>
<polygon fill="white" stroke="none" points="-4,4 -4,-862.25 954,-862.25 954,4 -4,4"/>
<text xml:space="preserve" text-anchor="middle" x="475" y="-831.45" font-family="Times New Roman,serif" font-size="24.00">TFSD8 (Time Feedback Sigma&#45;Delta) — Block Diagram</text>
<g id="clust1" class="cluster">
<title>cluster_io</title>
<path fill="none" stroke="#bbbbbb" stroke-dasharray="5,2" d="M443,-261C443,-261 679,-261 679,-261 685,-261 691,-267 691,-273 691,-273 691,-333.5 691,-333.5 691,-339.5 685,-345.5 679,-345.5 679,-345.5 443,-345.5 443,-345.5 437,-345.5 431,-339.5 431,-333.5 431,-333.5 431,-273 431,-273 431,-267 437,-261 443,-261"/>
<text xml:space="preserve" text-anchor="middle" x="561" y="-324.4" font-family="Times New Roman,serif" font-size="18.00">I/O</text>
</g>
<g id="clust2" class="cluster">
<title>cluster_front</title>
<path fill="none" stroke="#bbbbbb" stroke-dasharray="5,2" d="M20,-261C20,-261 275,-261 275,-261 281,-261 287,-267 287,-273 287,-273 287,-544.75 287,-544.75 287,-550.75 281,-556.75 275,-556.75 275,-556.75 20,-556.75 20,-556.75 14,-556.75 8,-550.75 8,-544.75 8,-544.75 8,-273 8,-273 8,-267 14,-261 20,-261"/>
<text xml:space="preserve" text-anchor="middle" x="147.5" y="-535.65" font-family="Times New Roman,serif" font-size="18.00">Front&#45;End (Scaling &amp; Quantization)</text>
</g>
<g id="clust3" class="cluster">
<title>cluster_residual</title>
<path fill="none" stroke="#bbbbbb" stroke-dasharray="5,2" d="M137,-8C137,-8 306,-8 306,-8 312,-8 318,-14 318,-20 318,-20 318,-230 318,-230 318,-236 312,-242 306,-242 306,-242 137,-242 137,-242 131,-242 125,-236 125,-230 125,-230 125,-20 125,-20 125,-14 131,-8 137,-8"/>
<text xml:space="preserve" text-anchor="middle" x="221.5" y="-220.9" font-family="Times New Roman,serif" font-size="18.00">Residual Feedback Core</text>
</g>
<g id="clust6" class="cluster">
<title>cluster_monitor</title>
<path fill="none" stroke="#bbbbbb" stroke-dasharray="5,2" d="M267,-575.75C267,-575.75 471,-575.75 471,-575.75 477,-575.75 483,-581.75 483,-587.75 483,-587.75 483,-803.25 483,-803.25 483,-809.25 477,-815.25 471,-815.25 471,-815.25 267,-815.25 267,-815.25 261,-815.25 255,-809.25 255,-803.25 255,-803.25 255,-587.75 255,-587.75 255,-581.75 261,-575.75 267,-575.75"/>
<text xml:space="preserve" text-anchor="middle" x="369" y="-794.15" font-family="Times New Roman,serif" font-size="18.00">Monitor &amp; Control</text>
</g>
<!-- Input -->
<g id="node1" class="node">
<title>Input</title>
<path fill="#e8f0fe" stroke="#555555" d="M520.62,-308.5C520.62,-308.5 451.38,-308.5 451.38,-308.5 445.38,-308.5 439.38,-302.5 439.38,-296.5 439.38,-296.5 439.38,-281 439.38,-281 439.38,-275 445.38,-269 451.38,-269 451.38,-269 520.62,-269 520.62,-269 526.62,-269 532.62,-275 532.62,-281 532.62,-281 532.62,-296.5 532.62,-296.5 532.62,-302.5 526.62,-308.5 520.62,-308.5"/>
<text xml:space="preserve" text-anchor="middle" x="486" y="-291.2" font-family="Arial" font-size="14.00">Input Tensor</text>
<text xml:space="preserve" text-anchor="middle" x="486" y="-275.45" font-family="Arial" font-size="14.00">(FP32/FP16)</text>
</g>
<!-- ScaleGuard -->
<g id="node3" class="node">
<title>ScaleGuard</title>
<path fill="#fff7e6" stroke="#555555" d="M265.75,-519.75C265.75,-519.75 128.25,-519.75 128.25,-519.75 122.25,-519.75 116.25,-513.75 116.25,-507.75 116.25,-507.75 116.25,-476.5 116.25,-476.5 116.25,-470.5 122.25,-464.5 128.25,-464.5 128.25,-464.5 265.75,-464.5 265.75,-464.5 271.75,-464.5 277.75,-470.5 277.75,-476.5 277.75,-476.5 277.75,-507.75 277.75,-507.75 277.75,-513.75 271.75,-519.75 265.75,-519.75"/>
<text xml:space="preserve" text-anchor="middle" x="197" y="-502.45" font-family="Arial" font-size="14.00">ScaleGuard</text>
<text xml:space="preserve" text-anchor="middle" x="197" y="-486.7" font-family="Arial" font-size="14.00">• dynamic scale / clip</text>
<text xml:space="preserve" text-anchor="middle" x="197" y="-470.95" font-family="Arial" font-size="14.00">• per&#45;tensor/per&#45;channel</text>
</g>
<!-- Input&#45;&gt;ScaleGuard -->
<g id="edge1" class="edge">
<title>Input&#45;&gt;ScaleGuard</title>
<path fill="none" stroke="#444444" d="M441.73,-308.99C408.82,-324.18 363.48,-347.02 327,-372.5 290.67,-397.88 253.78,-432.58 228.62,-457.89"/>
<polygon fill="#444444" stroke="#444444" points="226.85,-455.7 223.23,-463.36 230.84,-459.63 226.85,-455.7"/>
</g>
<!-- Output -->
<g id="node2" class="node">
<title>Output</title>
<path fill="#e8f0fe" stroke="#555555" d="M671.12,-308.5C671.12,-308.5 562.88,-308.5 562.88,-308.5 556.88,-308.5 550.88,-302.5 550.88,-296.5 550.88,-296.5 550.88,-281 550.88,-281 550.88,-275 556.88,-269 562.88,-269 562.88,-269 671.12,-269 671.12,-269 677.12,-269 683.12,-275 683.12,-281 683.12,-281 683.12,-296.5 683.12,-296.5 683.12,-302.5 677.12,-308.5 671.12,-308.5"/>
<text xml:space="preserve" text-anchor="middle" x="617" y="-291.2" font-family="Arial" font-size="14.00">Output Tensor</text>
<text xml:space="preserve" text-anchor="middle" x="617" y="-275.45" font-family="Arial" font-size="14.00">(GEMM/Conv/Attn)</text>
</g>
<!-- FormatSel -->
<g id="node4" class="node">
<title>FormatSel</title>
<path fill="#fff7e6" stroke="#555555" d="M230.38,-412C230.38,-412 153.62,-412 153.62,-412 147.62,-412 141.62,-406 141.62,-400 141.62,-400 141.62,-384.5 141.62,-384.5 141.62,-378.5 147.62,-372.5 153.62,-372.5 153.62,-372.5 230.38,-372.5 230.38,-372.5 236.38,-372.5 242.38,-378.5 242.38,-384.5 242.38,-384.5 242.38,-400 242.38,-400 242.38,-406 236.38,-412 230.38,-412"/>
<text xml:space="preserve" text-anchor="middle" x="192" y="-394.7" font-family="Arial" font-size="14.00">Format Select</text>
<text xml:space="preserve" text-anchor="middle" x="192" y="-378.95" font-family="Arial" font-size="14.00">E4M3 / E5M2</text>
</g>
<!-- ScaleGuard&#45;&gt;FormatSel -->
<g id="edge2" class="edge">
<title>ScaleGuard&#45;&gt;FormatSel</title>
<path fill="none" stroke="#444444" d="M195.62,-464.12C194.95,-450.92 194.13,-435.03 193.45,-421.64"/>
<polygon fill="#444444" stroke="#444444" points="196.26,-421.77 193.06,-413.92 190.67,-422.06 196.26,-421.77"/>
</g>
<!-- Quant -->
<g id="node5" class="node">
<title>Quant</title>
<path fill="#fff7e6" stroke="#555555" d="M237.12,-308.5C237.12,-308.5 170.88,-308.5 170.88,-308.5 164.88,-308.5 158.88,-302.5 158.88,-296.5 158.88,-296.5 158.88,-281 158.88,-281 158.88,-275 164.88,-269 170.88,-269 170.88,-269 237.12,-269 237.12,-269 243.12,-269 249.12,-275 249.12,-281 249.12,-281 249.12,-296.5 249.12,-296.5 249.12,-302.5 243.12,-308.5 237.12,-308.5"/>
<text xml:space="preserve" text-anchor="middle" x="204" y="-291.2" font-family="Arial" font-size="14.00">Quantizer</text>
<text xml:space="preserve" text-anchor="middle" x="204" y="-275.45" font-family="Arial" font-size="14.00">(FP8 / INT8)</text>
</g>
<!-- FormatSel&#45;&gt;Quant -->
<g id="edge3" class="edge">
<title>FormatSel&#45;&gt;Quant</title>
<path fill="none" stroke="#444444" d="M194.26,-372.16C196.07,-356.85 198.63,-335.14 200.68,-317.84"/>
<polygon fill="#444444" stroke="#444444" points="203.42,-318.53 201.58,-310.26 197.86,-317.87 203.42,-318.53"/>
</g>
<!-- Dequant -->
<g id="node6" class="node">
<title>Dequant</title>
<path fill="#f0fff4" stroke="#555555" d="M259.5,-205C259.5,-205 162.5,-205 162.5,-205 156.5,-205 150.5,-199 150.5,-193 150.5,-193 150.5,-181 150.5,-181 150.5,-175 156.5,-169 162.5,-169 162.5,-169 259.5,-169 259.5,-169 265.5,-169 271.5,-175 271.5,-181 271.5,-181 271.5,-193 271.5,-193 271.5,-199 265.5,-205 259.5,-205"/>
<text xml:space="preserve" text-anchor="middle" x="211" y="-181.57" font-family="Arial" font-size="14.00">Dequant (approx)</text>
</g>
<!-- Quant&#45;&gt;Dequant -->
<g id="edge4" class="edge">
<title>Quant&#45;&gt;Dequant</title>
<path fill="none" stroke="#444444" d="M205.35,-268.52C206.43,-253.18 207.94,-231.54 209.14,-214.56"/>
<polygon fill="#444444" stroke="#444444" points="211.92,-214.86 209.69,-206.69 206.34,-214.47 211.92,-214.86"/>
</g>
<!-- Sub -->
<g id="node7" class="node">
<title>Sub</title>
<path fill="#f0fff4" stroke="#555555" d="M260,-132C260,-132 178,-132 178,-132 172,-132 166,-126 166,-120 166,-120 166,-104.5 166,-104.5 166,-98.5 172,-92.5 178,-92.5 178,-92.5 260,-92.5 260,-92.5 266,-92.5 272,-98.5 272,-104.5 272,-104.5 272,-120 272,-120 272,-126 266,-132 260,-132"/>
<text xml:space="preserve" text-anchor="middle" x="219" y="-114.7" font-family="Arial" font-size="14.00">Subtract</text>
<text xml:space="preserve" text-anchor="middle" x="219" y="-98.95" font-family="Arial" font-size="14.00">residual = d &#45; d̂</text>
</g>
<!-- Dequant&#45;&gt;Sub -->
<g id="edge5" class="edge">
<title>Dequant&#45;&gt;Sub</title>
<path fill="none" stroke="#444444" d="M212.9,-168.76C213.79,-160.65 214.87,-150.77 215.88,-141.6"/>
<polygon fill="#444444" stroke="#444444" points="218.64,-142.18 216.73,-133.92 213.07,-141.57 218.64,-142.18"/>
</g>
<!-- Accum -->
<g id="node8" class="node">
<title>Accum</title>
<path fill="#f0fff4" stroke="#555555" d="M289.62,-55.5C289.62,-55.5 166.38,-55.5 166.38,-55.5 160.38,-55.5 154.38,-49.5 154.38,-43.5 154.38,-43.5 154.38,-28 154.38,-28 154.38,-22 160.38,-16 166.38,-16 166.38,-16 289.62,-16 289.62,-16 295.62,-16 301.62,-22 301.62,-28 301.62,-28 301.62,-43.5 301.62,-43.5 301.62,-49.5 295.62,-55.5 289.62,-55.5"/>
<text xml:space="preserve" text-anchor="middle" x="228" y="-38.2" font-family="Arial" font-size="14.00">Residual Accumulator</text>
<text xml:space="preserve" text-anchor="middle" x="228" y="-22.45" font-family="Arial" font-size="14.00">(BF16/FP32)</text>
</g>
<!-- Sub&#45;&gt;Accum -->
<g id="edge6" class="edge">
<title>Sub&#45;&gt;Accum</title>
<path fill="none" stroke="#444444" d="M221.32,-92.06C222.3,-83.9 223.48,-74.2 224.56,-65.22"/>
<polygon fill="#444444" stroke="#444444" points="227.33,-65.65 225.51,-57.37 221.77,-64.98 227.33,-65.65"/>
</g>
<!-- Debounce -->
<g id="node9" class="node">
<title>Debounce</title>
<path fill="#fef6ff" stroke="#555555" d="M361.75,-511.88C361.75,-511.88 308.25,-511.88 308.25,-511.88 302.25,-511.88 296.25,-505.88 296.25,-499.88 296.25,-499.88 296.25,-484.38 296.25,-484.38 296.25,-478.38 302.25,-472.38 308.25,-472.38 308.25,-472.38 361.75,-472.38 361.75,-472.38 367.75,-472.38 373.75,-478.38 373.75,-484.38 373.75,-484.38 373.75,-499.88 373.75,-499.88 373.75,-505.88 367.75,-511.88 361.75,-511.88"/>
<text xml:space="preserve" text-anchor="middle" x="335" y="-494.57" font-family="Arial" font-size="14.00">Debounce</text>
<text xml:space="preserve" text-anchor="middle" x="335" y="-478.82" font-family="Arial" font-size="14.00">T_silence</text>
</g>
<!-- Accum&#45;&gt;Debounce -->
<g id="edge7" class="edge">
<title>Accum&#45;&gt;Debounce</title>
<path fill="none" stroke="#444444" d="M268,-55.78C288,-68.33 308,-86.96 308,-111.25 308,-393.25 308,-393.25 308,-393.25 308,-417.49 315.79,-443.92 323,-463.21"/>
<polygon fill="#444444" stroke="#444444" points="320.39,-464.21 325.91,-470.65 325.6,-462.17 320.39,-464.21"/>
</g>
<!-- EmitGate -->
<g id="node10" class="node">
<title>EmitGate</title>
<path fill="#fef6ff" stroke="#555555" d="M401.75,-412C401.75,-412 348.25,-412 348.25,-412 342.25,-412 336.25,-406 336.25,-400 336.25,-400 336.25,-384.5 336.25,-384.5 336.25,-378.5 342.25,-372.5 348.25,-372.5 348.25,-372.5 401.75,-372.5 401.75,-372.5 407.75,-372.5 413.75,-378.5 413.75,-384.5 413.75,-384.5 413.75,-400 413.75,-400 413.75,-406 407.75,-412 401.75,-412"/>
<text xml:space="preserve" text-anchor="middle" x="375" y="-394.7" font-family="Arial" font-size="14.00">Emit Gate</text>
<text xml:space="preserve" text-anchor="middle" x="375" y="-378.95" font-family="Arial" font-size="14.00">T_emit</text>
</g>
<!-- Debounce&#45;&gt;EmitGate -->
<g id="edge8" class="edge">
<title>Debounce&#45;&gt;EmitGate</title>
<path fill="none" stroke="#444444" d="M342.71,-472.25C348.65,-457.72 356.95,-437.42 363.64,-421.04"/>
<polygon fill="#444444" stroke="#444444" points="366.17,-422.26 366.6,-413.8 360.98,-420.14 366.17,-422.26"/>
</g>
<!-- Refractory -->
<g id="node11" class="node">
<title>Refractory</title>
<path fill="#fef6ff" stroke="#555555" d="M554.38,-511.88C554.38,-511.88 489.62,-511.88 489.62,-511.88 483.62,-511.88 477.62,-505.88 477.62,-499.88 477.62,-499.88 477.62,-484.38 477.62,-484.38 477.62,-478.38 483.62,-472.38 489.62,-472.38 489.62,-472.38 554.38,-472.38 554.38,-472.38 560.38,-472.38 566.38,-478.38 566.38,-484.38 566.38,-484.38 566.38,-499.88 566.38,-499.88 566.38,-505.88 560.38,-511.88 554.38,-511.88"/>
<text xml:space="preserve" text-anchor="middle" x="522" y="-494.57" font-family="Arial" font-size="14.00">Refractory</text>
<text xml:space="preserve" text-anchor="middle" x="522" y="-478.82" font-family="Arial" font-size="14.00">T_refractory</text>
</g>
<!-- EmitGate&#45;&gt;Refractory -->
<g id="edge9" class="edge">
<title>EmitGate&#45;&gt;Refractory</title>
<path fill="none" stroke="#444444" d="M403.87,-412.47C427.22,-428.02 460.23,-450 485.42,-466.77"/>
<polygon fill="#444444" stroke="#444444" points="483.84,-469.08 492.05,-471.18 486.94,-464.42 483.84,-469.08"/>
</g>
<!-- PulseGEMM -->
<g id="node12" class="node">
<title>PulseGEMM</title>
<path fill="#e6fffb" stroke="#555555" d="M599.75,-412C599.75,-412 444.25,-412 444.25,-412 438.25,-412 432.25,-406 432.25,-400 432.25,-400 432.25,-384.5 432.25,-384.5 432.25,-378.5 438.25,-372.5 444.25,-372.5 444.25,-372.5 599.75,-372.5 599.75,-372.5 605.75,-372.5 611.75,-378.5 611.75,-384.5 611.75,-384.5 611.75,-400 611.75,-400 611.75,-406 605.75,-412 599.75,-412"/>
<text xml:space="preserve" text-anchor="middle" x="522" y="-394.7" font-family="Arial" font-size="14.00">PulseGEMM</text>
<text xml:space="preserve" text-anchor="middle" x="522" y="-378.95" font-family="Arial" font-size="14.00">(GEMM with event stream)</text>
</g>
<!-- Refractory&#45;&gt;PulseGEMM -->
<g id="edge10" class="edge">
<title>Refractory&#45;&gt;PulseGEMM</title>
<path fill="none" stroke="#444444" d="M522,-472.25C522,-457.86 522,-437.8 522,-421.49"/>
<polygon fill="#444444" stroke="#444444" points="524.8,-421.91 522,-413.91 519.2,-421.91 524.8,-421.91"/>
<text xml:space="preserve" text-anchor="middle" x="589.12" y="-433.2" font-family="Times New Roman,serif" font-size="14.00">event stream (±1 pulses)</text>
</g>
<!-- GateConv -->
<g id="node13" class="node">
<title>GateConv</title>
<path fill="#e6fffb" stroke="#555555" d="M784.38,-412C784.38,-412 641.62,-412 641.62,-412 635.62,-412 629.62,-406 629.62,-400 629.62,-400 629.62,-384.5 629.62,-384.5 629.62,-378.5 635.62,-372.5 641.62,-372.5 641.62,-372.5 784.38,-372.5 784.38,-372.5 790.38,-372.5 796.38,-378.5 796.38,-384.5 796.38,-384.5 796.38,-400 796.38,-400 796.38,-406 790.38,-412 784.38,-412"/>
<text xml:space="preserve" text-anchor="middle" x="713" y="-394.7" font-family="Arial" font-size="14.00">GateConv</text>
<text xml:space="preserve" text-anchor="middle" x="713" y="-378.95" font-family="Arial" font-size="14.00">(Conv with event stream)</text>
</g>
<!-- Refractory&#45;&gt;GateConv -->
<g id="edge11" class="edge">
<title>Refractory&#45;&gt;GateConv</title>
<path fill="none" stroke="#444444" d="M566.87,-482.32C595.05,-475.46 631.35,-464.08 660,-446.5 671.81,-439.26 682.94,-428.86 691.93,-419.17"/>
<polygon fill="#444444" stroke="#444444" points="693.82,-421.25 697.06,-413.42 689.65,-417.52 693.82,-421.25"/>
<text xml:space="preserve" text-anchor="middle" x="715.92" y="-433.2" font-family="Times New Roman,serif" font-size="14.00">event stream</text>
</g>
<!-- Attention -->
<g id="node14" class="node">
<title>Attention</title>
<path fill="#e6fffb" stroke="#555555" d="M938,-412C938,-412 826,-412 826,-412 820,-412 814,-406 814,-400 814,-400 814,-384.5 814,-384.5 814,-378.5 820,-372.5 826,-372.5 826,-372.5 938,-372.5 938,-372.5 944,-372.5 950,-378.5 950,-384.5 950,-384.5 950,-400 950,-400 950,-406 944,-412 938,-412"/>
<text xml:space="preserve" text-anchor="middle" x="882" y="-394.7" font-family="Arial" font-size="14.00">PulseAttn</text>
<text xml:space="preserve" text-anchor="middle" x="882" y="-378.95" font-family="Arial" font-size="14.00">(Attention w/ gating)</text>
</g>
<!-- Refractory&#45;&gt;Attention -->
<g id="edge12" class="edge">
<title>Refractory&#45;&gt;Attention</title>
<path fill="none" stroke="#444444" d="M566.46,-485.42C613.84,-478.69 690.73,-465.9 755,-446.5 781.59,-438.48 810.19,-426.77 833.51,-416.38"/>
<polygon fill="#444444" stroke="#444444" points="834.66,-418.93 840.8,-413.09 832.35,-413.83 834.66,-418.93"/>
<text xml:space="preserve" text-anchor="middle" x="836.19" y="-433.2" font-family="Times New Roman,serif" font-size="14.00">event stream</text>
</g>
<!-- PulseGEMM&#45;&gt;Output -->
<g id="edge13" class="edge">
<title>PulseGEMM&#45;&gt;Output</title>
<path fill="none" stroke="#444444" d="M539.87,-372.16C554.86,-356.14 576.42,-333.11 592.93,-315.47"/>
<polygon fill="#444444" stroke="#444444" points="594.75,-317.61 598.18,-309.86 590.67,-313.79 594.75,-317.61"/>
</g>
<!-- GateConv&#45;&gt;Output -->
<g id="edge14" class="edge">
<title>GateConv&#45;&gt;Output</title>
<path fill="none" stroke="#444444" d="M694.94,-372.16C679.79,-356.14 658.01,-333.11 641.32,-315.47"/>
<polygon fill="#444444" stroke="#444444" points="643.55,-313.74 636.02,-309.86 639.48,-317.59 643.55,-313.74"/>
</g>
<!-- Attention&#45;&gt;Output -->
<g id="edge15" class="edge">
<title>Attention&#45;&gt;Output</title>
<path fill="none" stroke="#444444" d="M831.84,-372.04C787.44,-355.03 722.59,-330.19 675.77,-312.26"/>
<polygon fill="#444444" stroke="#444444" points="676.84,-309.67 668.36,-309.42 674.83,-314.9 676.84,-309.67"/>
</g>
<!-- Stats -->
<g id="node15" class="node">
<title>Stats</title>
<path fill="#f5f5f5" stroke="#555555" d="M425.75,-778.25C425.75,-778.25 312.25,-778.25 312.25,-778.25 306.25,-778.25 300.25,-772.25 300.25,-766.25 300.25,-766.25 300.25,-719.25 300.25,-719.25 300.25,-713.25 306.25,-707.25 312.25,-707.25 312.25,-707.25 425.75,-707.25 425.75,-707.25 431.75,-707.25 437.75,-713.25 437.75,-719.25 437.75,-719.25 437.75,-766.25 437.75,-766.25 437.75,-772.25 431.75,-778.25 425.75,-778.25"/>
<text xml:space="preserve" text-anchor="middle" x="369" y="-760.95" font-family="Arial" font-size="14.00">Stats/Telemetry</text>
<text xml:space="preserve" text-anchor="middle" x="369" y="-745.2" font-family="Arial" font-size="14.00">• event rate</text>
<text xml:space="preserve" text-anchor="middle" x="369" y="-729.45" font-family="Arial" font-size="14.00">• overflow/underflow</text>
<text xml:space="preserve" text-anchor="middle" x="369" y="-713.7" font-family="Arial" font-size="14.00">• scale update</text>
</g>
<!-- Params -->
<g id="node16" class="node">
<title>Params</title>
<path fill="#f5f5f5" stroke="#555555" d="M463.25,-654.75C463.25,-654.75 274.75,-654.75 274.75,-654.75 268.75,-654.75 262.75,-648.75 262.75,-642.75 262.75,-642.75 262.75,-595.75 262.75,-595.75 262.75,-589.75 268.75,-583.75 274.75,-583.75 274.75,-583.75 463.25,-583.75 463.25,-583.75 469.25,-583.75 475.25,-589.75 475.25,-595.75 475.25,-595.75 475.25,-642.75 475.25,-642.75 475.25,-648.75 469.25,-654.75 463.25,-654.75"/>
<text xml:space="preserve" text-anchor="middle" x="369" y="-637.45" font-family="Arial" font-size="14.00">Params</text>
<text xml:space="preserve" text-anchor="middle" x="369" y="-621.7" font-family="Arial" font-size="14.00">{T_silence, T_emit, T_refractory}</text>
<text xml:space="preserve" text-anchor="middle" x="369" y="-605.95" font-family="Arial" font-size="14.00">{E4M3/E5M2, W8A8}</text>
<text xml:space="preserve" text-anchor="middle" x="369" y="-590.2" font-family="Arial" font-size="14.00">{BF16/FP32 accum}</text>
</g>
<!-- Stats&#45;&gt;Params -->
<g id="edge20" class="edge">
<title>Stats&#45;&gt;Params</title>
<path fill="none" stroke="#444444" stroke-dasharray="5,2" d="M369,-706.93C369,-693.71 369,-678.48 369,-664.51"/>
<polygon fill="#444444" stroke="#444444" points="371.8,-664.59 369,-656.59 366.2,-664.59 371.8,-664.59"/>
<text xml:space="preserve" text-anchor="middle" x="403.5" y="-675.95" font-family="Times New Roman,serif" font-size="14.00">adapt/update</text>
</g>
<!-- Params&#45;&gt;ScaleGuard -->
<g id="edge16" class="edge">
<title>Params&#45;&gt;ScaleGuard</title>
<path fill="none" stroke="#444444" stroke-dasharray="5,2" d="M321.09,-583.4C296.24,-565.32 266.08,-543.38 241.72,-525.66"/>
<polygon fill="#444444" stroke="#444444" points="243.37,-523.39 235.25,-520.95 240.07,-527.92 243.37,-523.39"/>
</g>
<!-- Params&#45;&gt;Debounce -->
<g id="edge17" class="edge">
<title>Params&#45;&gt;Debounce</title>
<path fill="none" stroke="#444444" stroke-dasharray="5,2" d="M359.53,-583.4C354.21,-563.81 347.65,-539.69 342.66,-521.31"/>
<polygon fill="#444444" stroke="#444444" points="345.4,-520.73 340.6,-513.74 340,-522.19 345.4,-520.73"/>
</g>
<!-- Params&#45;&gt;EmitGate -->
<g id="edge18" class="edge">
<title>Params&#45;&gt;EmitGate</title>
<path fill="none" stroke="#444444" stroke-dasharray="5,2" d="M378.37,-583.36C380.29,-574.73 382.02,-565.46 383,-556.75 388.29,-509.66 383.3,-454.54 379.17,-421.84"/>
<polygon fill="#444444" stroke="#444444" points="381.95,-421.51 378.13,-413.94 376.4,-422.24 381.95,-421.51"/>
</g>
<!-- Params&#45;&gt;Refractory -->
<g id="edge19" class="edge">
<title>Params&#45;&gt;Refractory</title>
<path fill="none" stroke="#444444" stroke-dasharray="5,2" d="M411.62,-583.4C436.99,-562.65 468.59,-536.8 491.47,-518.09"/>
<polygon fill="#444444" stroke="#444444" points="492.99,-520.47 497.41,-513.24 489.44,-516.14 492.99,-520.47"/>
</g>
</g>
</svg>
