<?xml version="1.0" encoding="UTF-8" standalone="no"?>
<!DOCTYPE svg PUBLIC "-//W3C//DTD SVG 1.1//EN"
 "http://www.w3.org/Graphics/SVG/1.1/DTD/svg11.dtd">
<!-- Generated by graphviz version 2.43.0 (0)
 -->
<!-- Title: UE8M0_TPU_TOP_V02 Pages: 1 -->
<svg width="1337pt" height="941pt"
 viewBox="0.00 0.00 1337.00 941.00" xmlns="http://www.w3.org/2000/svg" xmlns:xlink="http://www.w3.org/1999/xlink">
<g id="graph0" class="graph" transform="scale(1 1) rotate(0) translate(4 937)">
<title>UE8M0_TPU_TOP_V02</title>
<polygon fill="white" stroke="transparent" points="-4,4 -4,-937 1333,-937 1333,4 -4,4"/>
<text text-anchor="middle" x="664.5" y="-914.6" font-family="Helvetica,sans-Serif" font-size="18.00">UE8M0&#45;TPU SoC Top v0.2 (DDR/HBM + KV/Tensor&#45;Cache)</text>
<g id="clust2" class="cluster">
<title>cluster_mem</title>
<polygon fill="none" stroke="#ffdab9" points="795,-585 795,-667 1321,-667 1321,-585 795,-585"/>
<text text-anchor="middle" x="1058" y="-648.6" font-family="Helvetica,sans-Serif" font-size="18.00">External Memory</text>
</g>
<g id="clust1" class="cluster">
<title>cluster_host</title>
<polygon fill="none" stroke="#ffcccc" points="8,-585 8,-897 222,-897 222,-585 8,-585"/>
<text text-anchor="middle" x="115" y="-878.6" font-family="Helvetica,sans-Serif" font-size="18.00">Host</text>
</g>
<g id="clust3" class="cluster">
<title>cluster_cache</title>
<polygon fill="none" stroke="#fff0b3" points="454,-468 454,-550 1009,-550 1009,-468 454,-468"/>
<text text-anchor="middle" x="731.5" y="-531.6" font-family="Helvetica,sans-Serif" font-size="18.00">Front&#45;side Caches</text>
</g>
<g id="clust4" class="cluster">
<title>cluster_spm</title>
<polygon fill="none" stroke="#dff7e7" points="437,-353 437,-433 795,-433 795,-353 437,-353"/>
<text text-anchor="middle" x="616" y="-414.6" font-family="Helvetica,sans-Serif" font-size="18.00">On&#45;chip Scratchpad</text>
</g>
<g id="clust5" class="cluster">
<title>cluster_codec</title>
<polygon fill="none" stroke="#e6e6e6" points="844,-353 844,-433 1278,-433 1278,-353 844,-353"/>
<text text-anchor="middle" x="1061" y="-414.6" font-family="Helvetica,sans-Serif" font-size="18.00">UE8M0 Codec Cluster</text>
</g>
<g id="clust6" class="cluster">
<title>cluster_tiles</title>
<polygon fill="none" stroke="#cce5ff" points="478,-238 478,-318 1134,-318 1134,-238 478,-238"/>
<text text-anchor="middle" x="806" y="-299.6" font-family="Helvetica,sans-Serif" font-size="18.00">Tensor Core Tiles</text>
</g>
<g id="clust7" class="cluster">
<title>cluster_post</title>
<polygon fill="none" stroke="#e0e0ff" points="753,-8 753,-203 981,-203 981,-8 753,-8"/>
<text text-anchor="middle" x="867" y="-184.6" font-family="Helvetica,sans-Serif" font-size="18.00">Post Ops</text>
</g>
<!-- pcie -->
<g id="node1" class="node">
<title>pcie</title>
<path fill="#eaf3ff" stroke="#2c6ebb" d="M202,-861C202,-861 142,-861 142,-861 136,-861 130,-855 130,-849 130,-849 130,-837 130,-837 130,-831 136,-825 142,-825 142,-825 202,-825 202,-825 208,-825 214,-831 214,-837 214,-837 214,-849 214,-849 214,-855 208,-861 202,-861"/>
<text text-anchor="middle" x="172" y="-839.3" font-family="Times,serif" font-size="14.00">PCIe/CXL</text>
</g>
<!-- dma -->
<g id="node2" class="node">
<title>dma</title>
<path fill="#eaf3ff" stroke="#2c6ebb" d="M202,-746C202,-746 124,-746 124,-746 118,-746 112,-740 112,-734 112,-734 112,-722 112,-722 112,-716 118,-710 124,-710 124,-710 202,-710 202,-710 208,-710 214,-716 214,-722 214,-722 214,-734 214,-734 214,-740 208,-746 202,-746"/>
<text text-anchor="middle" x="163" y="-724.3" font-family="Times,serif" font-size="14.00">DMA/Queue</text>
</g>
<!-- pcie&#45;&gt;dma -->
<g id="edge1" class="edge">
<title>pcie&#45;&gt;dma</title>
<path fill="none" stroke="black" d="M172,-824.78C172,-824.78 172,-756.14 172,-756.14"/>
<polygon fill="black" stroke="black" points="175.5,-756.14 172,-746.14 168.5,-756.14 175.5,-756.14"/>
</g>
<!-- kv -->
<g id="node7" class="node">
<title>kv</title>
<path fill="#eaf3ff" stroke="#2c6ebb" d="M672.5,-513C672.5,-513 473.5,-513 473.5,-513 467.5,-513 461.5,-507 461.5,-501 461.5,-501 461.5,-489 461.5,-489 461.5,-483 467.5,-477 473.5,-477 473.5,-477 672.5,-477 672.5,-477 678.5,-477 684.5,-483 684.5,-489 684.5,-489 684.5,-501 684.5,-501 684.5,-507 678.5,-513 672.5,-513"/>
<text text-anchor="middle" x="573" y="-491.3" font-family="Times,serif" font-size="14.00">KV&#45;Cache per&#45;chan 16–32MB</text>
</g>
<!-- pcie&#45;&gt;kv -->
<g id="edge3" class="edge">
<title>pcie&#45;&gt;kv</title>
<path fill="none" stroke="black" d="M214.09,-837C309.86,-837 535.83,-837 535.83,-837 535.83,-837 535.83,-523.39 535.83,-523.39"/>
<polygon fill="black" stroke="black" points="539.33,-523.39 535.83,-513.39 532.33,-523.39 539.33,-523.39"/>
</g>
<!-- tcache -->
<g id="node8" class="node">
<title>tcache</title>
<path fill="#eaf3ff" stroke="#2c6ebb" d="M988.5,-514C988.5,-514 761.5,-514 761.5,-514 755.5,-514 749.5,-508 749.5,-502 749.5,-502 749.5,-488 749.5,-488 749.5,-482 755.5,-476 761.5,-476 761.5,-476 988.5,-476 988.5,-476 994.5,-476 1000.5,-482 1000.5,-488 1000.5,-488 1000.5,-502 1000.5,-502 1000.5,-508 994.5,-514 988.5,-514"/>
<text text-anchor="middle" x="875" y="-498.8" font-family="Times,serif" font-size="14.00">Tensor&#45;Cache per&#45;chan 16–32MB</text>
<text text-anchor="middle" x="875" y="-483.8" font-family="Times,serif" font-size="14.00">(prefetch/stream)</text>
</g>
<!-- pcie&#45;&gt;tcache -->
<g id="edge4" class="edge">
<title>pcie&#45;&gt;tcache</title>
<path fill="none" stroke="black" d="M214.45,-849C353.99,-849 789.62,-849 789.62,-849 789.62,-849 789.62,-524.03 789.62,-524.03"/>
<polygon fill="black" stroke="black" points="793.13,-524.03 789.62,-514.03 786.13,-524.03 793.13,-524.03"/>
</g>
<!-- rv -->
<g id="node3" class="node">
<title>rv</title>
<path fill="#eaf3ff" stroke="#2c6ebb" d="M201.5,-631C201.5,-631 28.5,-631 28.5,-631 22.5,-631 16.5,-625 16.5,-619 16.5,-619 16.5,-605 16.5,-605 16.5,-599 22.5,-593 28.5,-593 28.5,-593 201.5,-593 201.5,-593 207.5,-593 213.5,-599 213.5,-605 213.5,-605 213.5,-619 213.5,-619 213.5,-625 207.5,-631 201.5,-631"/>
<text text-anchor="middle" x="115" y="-615.8" font-family="Times,serif" font-size="14.00">RISC&#45;V Cores</text>
<text text-anchor="middle" x="115" y="-600.8" font-family="Times,serif" font-size="14.00">(RV64GCV + AME hooks)</text>
</g>
<!-- dma&#45;&gt;rv -->
<g id="edge2" class="edge">
<title>dma&#45;&gt;rv</title>
<path fill="none" stroke="black" d="M162.75,-709.88C162.75,-709.88 162.75,-641.16 162.75,-641.16"/>
<polygon fill="black" stroke="black" points="166.25,-641.16 162.75,-631.16 159.25,-641.16 166.25,-641.16"/>
</g>
<!-- dma&#45;&gt;kv -->
<g id="edge5" class="edge">
<title>dma&#45;&gt;kv</title>
<path fill="none" stroke="black" d="M214.35,-722C308.38,-722 498.67,-722 498.67,-722 498.67,-722 498.67,-523.19 498.67,-523.19"/>
<polygon fill="black" stroke="black" points="502.17,-523.19 498.67,-513.19 495.17,-523.19 502.17,-523.19"/>
</g>
<!-- dma&#45;&gt;tcache -->
<g id="edge6" class="edge">
<title>dma&#45;&gt;tcache</title>
<path fill="none" stroke="black" d="M214.23,-734C361.62,-734 776.25,-734 776.25,-734 776.25,-734 776.25,-524.15 776.25,-524.15"/>
<polygon fill="black" stroke="black" points="779.75,-524.15 776.25,-514.15 772.75,-524.15 779.75,-524.15"/>
</g>
<!-- rv&#45;&gt;kv -->
<g id="edge7" class="edge">
<title>rv&#45;&gt;kv</title>
<path fill="none" stroke="black" d="M115,-592.94C115,-559.79 115,-495 115,-495 115,-495 451.25,-495 451.25,-495"/>
<polygon fill="black" stroke="black" points="451.25,-498.5 461.25,-495 451.25,-491.5 451.25,-498.5"/>
</g>
<!-- rv&#45;&gt;tcache -->
<g id="edge8" class="edge">
<title>rv&#45;&gt;tcache</title>
<path fill="none" stroke="black" d="M213.75,-618C395.12,-618 762.88,-618 762.88,-618 762.88,-618 762.88,-524.22 762.88,-524.22"/>
<polygon fill="black" stroke="black" points="766.38,-524.22 762.88,-514.22 759.38,-524.22 766.38,-524.22"/>
</g>
<!-- ddr -->
<g id="node4" class="node">
<title>ddr</title>
<path fill="#eaf3ff" stroke="#2c6ebb" d="M933,-631C933,-631 815,-631 815,-631 809,-631 803,-625 803,-619 803,-619 803,-605 803,-605 803,-599 809,-593 815,-593 815,-593 933,-593 933,-593 939,-593 945,-599 945,-605 945,-605 945,-619 945,-619 945,-625 939,-631 933,-631"/>
<text text-anchor="middle" x="874" y="-615.8" font-family="Times,serif" font-size="14.00">DDR5 RDIMM x8</text>
<text text-anchor="middle" x="874" y="-600.8" font-family="Times,serif" font-size="14.00">(512b, up to 2TB)</text>
</g>
<!-- ddr&#45;&gt;kv -->
<g id="edge11" class="edge">
<title>ddr&#45;&gt;kv</title>
<path fill="none" stroke="black" d="M802.67,-605C713.66,-605 573,-605 573,-605 573,-605 573,-523.16 573,-523.16"/>
<polygon fill="black" stroke="black" points="576.5,-523.16 573,-513.16 569.5,-523.16 576.5,-523.16"/>
</g>
<!-- ddr&#45;&gt;tcache -->
<g id="edge12" class="edge">
<title>ddr&#45;&gt;tcache</title>
<path fill="none" stroke="black" d="M874,-592.94C874,-592.94 874,-524.05 874,-524.05"/>
<polygon fill="black" stroke="black" points="877.5,-524.05 874,-514.05 870.5,-524.05 877.5,-524.05"/>
</g>
<!-- lpddr -->
<g id="node5" class="node">
<title>lpddr</title>
<path fill="#eaf3ff" stroke="#2c6ebb" d="M1301,-630C1301,-630 1203,-630 1203,-630 1197,-630 1191,-624 1191,-618 1191,-618 1191,-606 1191,-606 1191,-600 1197,-594 1203,-594 1203,-594 1301,-594 1301,-594 1307,-594 1313,-600 1313,-606 1313,-606 1313,-618 1313,-618 1313,-624 1307,-630 1301,-630"/>
<text text-anchor="middle" x="1252" y="-608.3" font-family="Times,serif" font-size="14.00">LPDDR5X (Alt)</text>
</g>
<!-- lpddr&#45;&gt;kv -->
<g id="edge13" class="edge">
<title>lpddr&#45;&gt;kv</title>
<path fill="none" stroke="black" d="M1219.33,-593.83C1219.33,-572.5 1219.33,-540 1219.33,-540 1219.33,-540 647.33,-540 647.33,-540 647.33,-540 647.33,-523.04 647.33,-523.04"/>
<polygon fill="black" stroke="black" points="650.83,-523.04 647.33,-513.04 643.83,-523.04 650.83,-523.04"/>
</g>
<!-- lpddr&#45;&gt;tcache -->
<g id="edge14" class="edge">
<title>lpddr&#45;&gt;tcache</title>
<path fill="none" stroke="black" d="M1244.67,-593.98C1244.67,-561.16 1244.67,-495 1244.67,-495 1244.67,-495 1010.67,-495 1010.67,-495"/>
<polygon fill="black" stroke="black" points="1010.67,-491.5 1000.67,-495 1010.67,-498.5 1010.67,-491.5"/>
</g>
<!-- hbm -->
<g id="node6" class="node">
<title>hbm</title>
<path fill="#eaf3ff" stroke="#2c6ebb" d="M1114,-631C1114,-631 1022,-631 1022,-631 1016,-631 1010,-625 1010,-619 1010,-619 1010,-605 1010,-605 1010,-599 1016,-593 1022,-593 1022,-593 1114,-593 1114,-593 1120,-593 1126,-599 1126,-605 1126,-605 1126,-619 1126,-619 1126,-625 1120,-631 1114,-631"/>
<text text-anchor="middle" x="1068" y="-615.8" font-family="Times,serif" font-size="14.00">HBM (Option)</text>
<text text-anchor="middle" x="1068" y="-600.8" font-family="Times,serif" font-size="14.00">&gt;=3.5–7 TB/s</text>
</g>
<!-- hbm&#45;&gt;kv -->
<g id="edge15" class="edge">
<title>hbm&#45;&gt;kv</title>
<path fill="none" stroke="black" d="M1068,-592.76C1068,-580.15 1068,-566 1068,-566 1068,-566 610.17,-566 610.17,-566 610.17,-566 610.17,-523.28 610.17,-523.28"/>
<polygon fill="black" stroke="black" points="613.67,-523.28 610.17,-513.28 606.67,-523.28 613.67,-523.28"/>
</g>
<!-- hbm&#45;&gt;tcache -->
<g id="edge16" class="edge">
<title>hbm&#45;&gt;tcache</title>
<path fill="none" stroke="black" d="M1009.85,-612C990.02,-612 972.75,-612 972.75,-612 972.75,-612 972.75,-524.06 972.75,-524.06"/>
<polygon fill="black" stroke="black" points="976.25,-524.06 972.75,-514.06 969.25,-524.06 976.25,-524.06"/>
</g>
<!-- spm -->
<g id="node9" class="node">
<title>spm</title>
<path fill="#eaf3ff" stroke="#2c6ebb" d="M774.5,-397C774.5,-397 457.5,-397 457.5,-397 451.5,-397 445.5,-391 445.5,-385 445.5,-385 445.5,-373 445.5,-373 445.5,-367 451.5,-361 457.5,-361 457.5,-361 774.5,-361 774.5,-361 780.5,-361 786.5,-367 786.5,-373 786.5,-373 786.5,-385 786.5,-385 786.5,-391 780.5,-397 774.5,-397"/>
<text text-anchor="middle" x="616" y="-375.3" font-family="Times,serif" font-size="14.00">SPM Banks (multi&#45;bank, ping&#45;pong, crossbar)</text>
</g>
<!-- kv&#45;&gt;spm -->
<g id="edge9" class="edge">
<title>kv&#45;&gt;spm</title>
<path fill="none" stroke="black" d="M573,-476.88C573,-476.88 573,-407.38 573,-407.38"/>
<polygon fill="black" stroke="black" points="576.5,-407.38 573,-397.38 569.5,-407.38 576.5,-407.38"/>
</g>
<!-- tcache&#45;&gt;spm -->
<g id="edge10" class="edge">
<title>tcache&#45;&gt;spm</title>
<path fill="none" stroke="black" d="M768,-475.84C768,-475.84 768,-407.04 768,-407.04"/>
<polygon fill="black" stroke="black" points="771.5,-407.04 768,-397.04 764.5,-407.04 771.5,-407.04"/>
</g>
<!-- tile0 -->
<g id="node13" class="node">
<title>tile0</title>
<path fill="#eaf3ff" stroke="#2c6ebb" d="M1113.5,-282C1113.5,-282 1008.5,-282 1008.5,-282 1002.5,-282 996.5,-276 996.5,-270 996.5,-270 996.5,-258 996.5,-258 996.5,-252 1002.5,-246 1008.5,-246 1008.5,-246 1113.5,-246 1113.5,-246 1119.5,-246 1125.5,-252 1125.5,-258 1125.5,-258 1125.5,-270 1125.5,-270 1125.5,-276 1119.5,-282 1113.5,-282"/>
<text text-anchor="middle" x="1061" y="-260.3" font-family="Times,serif" font-size="14.00">Tile[0] 128x128</text>
</g>
<!-- spm&#45;&gt;tile0 -->
<g id="edge20" class="edge">
<title>spm&#45;&gt;tile0</title>
<path fill="none" stroke="black" d="M767.38,-360.97C767.38,-343.94 767.38,-321 767.38,-321 767.38,-321 1039.5,-321 1039.5,-321 1039.5,-321 1039.5,-292.04 1039.5,-292.04"/>
<polygon fill="black" stroke="black" points="1043,-292.04 1039.5,-282.04 1036,-292.04 1043,-292.04"/>
</g>
<!-- tile1 -->
<g id="node14" class="node">
<title>tile1</title>
<path fill="#eaf3ff" stroke="#2c6ebb" d="M919.5,-282C919.5,-282 814.5,-282 814.5,-282 808.5,-282 802.5,-276 802.5,-270 802.5,-270 802.5,-258 802.5,-258 802.5,-252 808.5,-246 814.5,-246 814.5,-246 919.5,-246 919.5,-246 925.5,-246 931.5,-252 931.5,-258 931.5,-258 931.5,-270 931.5,-270 931.5,-276 925.5,-282 919.5,-282"/>
<text text-anchor="middle" x="867" y="-260.3" font-family="Times,serif" font-size="14.00">Tile[1] 128x128</text>
</g>
<!-- spm&#45;&gt;tile1 -->
<g id="edge21" class="edge">
<title>spm&#45;&gt;tile1</title>
<path fill="none" stroke="black" d="M780.12,-360.51C780.12,-329.41 780.12,-270 780.12,-270 780.12,-270 792.5,-270 792.5,-270"/>
<polygon fill="black" stroke="black" points="792.5,-273.5 802.5,-270 792.5,-266.5 792.5,-273.5"/>
</g>
<!-- dots -->
<g id="node15" class="node">
<title>dots</title>
<path fill="#eaf3ff" stroke="#2c6ebb" d="M725,-282C725,-282 695,-282 695,-282 689,-282 683,-276 683,-270 683,-270 683,-258 683,-258 683,-252 689,-246 695,-246 695,-246 725,-246 725,-246 731,-246 737,-252 737,-258 737,-258 737,-270 737,-270 737,-276 731,-282 725,-282"/>
<text text-anchor="middle" x="710" y="-260.3" font-family="Times,serif" font-size="14.00">...</text>
</g>
<!-- spm&#45;&gt;dots -->
<g id="edge22" class="edge">
<title>spm&#45;&gt;dots</title>
<path fill="none" stroke="black" d="M710,-360.78C710,-360.78 710,-292.14 710,-292.14"/>
<polygon fill="black" stroke="black" points="713.5,-292.14 710,-282.14 706.5,-292.14 713.5,-292.14"/>
</g>
<!-- tileN -->
<g id="node16" class="node">
<title>tileN</title>
<path fill="#eaf3ff" stroke="#2c6ebb" d="M606,-282C606,-282 498,-282 498,-282 492,-282 486,-276 486,-270 486,-270 486,-258 486,-258 486,-252 492,-246 498,-246 498,-246 606,-246 606,-246 612,-246 618,-252 618,-258 618,-258 618,-270 618,-270 618,-276 612,-282 606,-282"/>
<text text-anchor="middle" x="552" y="-260.3" font-family="Times,serif" font-size="14.00">Tile[N] 128x128</text>
</g>
<!-- spm&#45;&gt;tileN -->
<g id="edge23" class="edge">
<title>spm&#45;&gt;tileN</title>
<path fill="none" stroke="black" d="M552,-360.78C552,-360.78 552,-292.14 552,-292.14"/>
<polygon fill="black" stroke="black" points="555.5,-292.14 552,-282.14 548.5,-292.14 555.5,-292.14"/>
</g>
<!-- enc -->
<g id="node10" class="node">
<title>enc</title>
<path fill="#eaf3ff" stroke="#2c6ebb" d="M916,-397C916,-397 864,-397 864,-397 858,-397 852,-391 852,-385 852,-385 852,-373 852,-373 852,-367 858,-361 864,-361 864,-361 916,-361 916,-361 922,-361 928,-367 928,-373 928,-373 928,-385 928,-385 928,-391 922,-397 916,-397"/>
<text text-anchor="middle" x="890" y="-375.3" font-family="Times,serif" font-size="14.00">Encoder</text>
</g>
<!-- enc&#45;&gt;spm -->
<g id="edge17" class="edge">
<title>enc&#45;&gt;spm</title>
<path fill="none" stroke="black" d="M851.9,-379C851.9,-379 796.58,-379 796.58,-379"/>
<polygon fill="black" stroke="black" points="796.58,-375.5 786.58,-379 796.58,-382.5 796.58,-375.5"/>
</g>
<!-- dec -->
<g id="node11" class="node">
<title>dec</title>
<path fill="#eaf3ff" stroke="#2c6ebb" d="M1258,-397C1258,-397 1206,-397 1206,-397 1200,-397 1194,-391 1194,-385 1194,-385 1194,-373 1194,-373 1194,-367 1200,-361 1206,-361 1206,-361 1258,-361 1258,-361 1264,-361 1270,-367 1270,-373 1270,-373 1270,-385 1270,-385 1270,-391 1264,-397 1258,-397"/>
<text text-anchor="middle" x="1232" y="-375.3" font-family="Times,serif" font-size="14.00">Decoder</text>
</g>
<!-- scale -->
<g id="node12" class="node">
<title>scale</title>
<path fill="#eaf3ff" stroke="#2c6ebb" d="M1116.5,-397C1116.5,-397 1005.5,-397 1005.5,-397 999.5,-397 993.5,-391 993.5,-385 993.5,-385 993.5,-373 993.5,-373 993.5,-367 999.5,-361 1005.5,-361 1005.5,-361 1116.5,-361 1116.5,-361 1122.5,-361 1128.5,-367 1128.5,-373 1128.5,-373 1128.5,-385 1128.5,-385 1128.5,-391 1122.5,-397 1116.5,-397"/>
<text text-anchor="middle" x="1061" y="-375.3" font-family="Times,serif" font-size="14.00">Scale Sync/Calib</text>
</g>
<!-- scale&#45;&gt;tile0 -->
<g id="edge18" class="edge">
<title>scale&#45;&gt;tile0</title>
<path fill="none" stroke="black" d="M1082.5,-360.78C1082.5,-360.78 1082.5,-292.14 1082.5,-292.14"/>
<polygon fill="black" stroke="black" points="1086,-292.14 1082.5,-282.14 1079,-292.14 1086,-292.14"/>
</g>
<!-- scale&#45;&gt;tile1 -->
<g id="edge19" class="edge">
<title>scale&#45;&gt;tile1</title>
<path fill="none" stroke="black" d="M993.38,-379C968.07,-379 945.33,-379 945.33,-379 945.33,-379 945.33,-270 945.33,-270 945.33,-270 941.69,-270 941.69,-270"/>
<polygon fill="black" stroke="black" points="941.69,-266.5 931.69,-270 941.69,-273.5 941.69,-266.5"/>
</g>
<!-- act -->
<g id="node17" class="node">
<title>act</title>
<path fill="#eaf3ff" stroke="#2c6ebb" d="M961,-167C961,-167 773,-167 773,-167 767,-167 761,-161 761,-155 761,-155 761,-143 761,-143 761,-137 767,-131 773,-131 773,-131 961,-131 961,-131 967,-131 973,-137 973,-143 973,-143 973,-155 973,-155 973,-161 967,-167 961,-167"/>
<text text-anchor="middle" x="867" y="-145.3" font-family="Times,serif" font-size="14.00">Activation/ReLU/GELU LUT</text>
</g>
<!-- tile0&#45;&gt;act -->
<g id="edge24" class="edge">
<title>tile0&#45;&gt;act</title>
<path fill="none" stroke="black" d="M996.22,-258C976.14,-258 959.17,-258 959.17,-258 959.17,-258 959.17,-177.49 959.17,-177.49"/>
<polygon fill="black" stroke="black" points="962.67,-177.49 959.17,-167.49 955.67,-177.49 962.67,-177.49"/>
</g>
<!-- tile1&#45;&gt;act -->
<g id="edge25" class="edge">
<title>tile1&#45;&gt;act</title>
<path fill="none" stroke="black" d="M867,-245.78C867,-245.78 867,-177.14 867,-177.14"/>
<polygon fill="black" stroke="black" points="870.5,-177.14 867,-167.14 863.5,-177.14 870.5,-177.14"/>
</g>
<!-- dots&#45;&gt;act -->
<g id="edge26" class="edge">
<title>dots&#45;&gt;act</title>
<path fill="none" stroke="black" d="M737.04,-258C754.41,-258 773.75,-258 773.75,-258 773.75,-258 773.75,-177.49 773.75,-177.49"/>
<polygon fill="black" stroke="black" points="777.25,-177.49 773.75,-167.49 770.25,-177.49 777.25,-177.49"/>
</g>
<!-- tileN&#45;&gt;act -->
<g id="edge27" class="edge">
<title>tileN&#45;&gt;act</title>
<path fill="none" stroke="black" d="M552,-245.78C552,-213.35 552,-149 552,-149 552,-149 750.79,-149 750.79,-149"/>
<polygon fill="black" stroke="black" points="750.79,-152.5 760.79,-149 750.79,-145.5 750.79,-152.5"/>
</g>
<!-- norm -->
<g id="node18" class="node">
<title>norm</title>
<path fill="#eaf3ff" stroke="#2c6ebb" d="M944,-52C944,-52 822,-52 822,-52 816,-52 810,-46 810,-40 810,-40 810,-28 810,-28 810,-22 816,-16 822,-16 822,-16 944,-16 944,-16 950,-16 956,-22 956,-28 956,-28 956,-40 956,-40 956,-46 950,-52 944,-52"/>
<text text-anchor="middle" x="883" y="-30.3" font-family="Times,serif" font-size="14.00">Layer/GroupNorm</text>
</g>
<!-- act&#45;&gt;norm -->
<g id="edge28" class="edge">
<title>act&#45;&gt;norm</title>
<path fill="none" stroke="black" d="M883,-130.78C883,-130.78 883,-62.14 883,-62.14"/>
<polygon fill="black" stroke="black" points="886.5,-62.14 883,-52.14 879.5,-62.14 886.5,-62.14"/>
</g>
<!-- norm&#45;&gt;dec -->
<g id="edge29" class="edge">
<title>norm&#45;&gt;dec</title>
<path fill="none" stroke="black" d="M956.16,-34C1058.5,-34 1232,-34 1232,-34 1232,-34 1232,-350.94 1232,-350.94"/>
<polygon fill="black" stroke="black" points="1228.5,-350.94 1232,-360.94 1235.5,-350.94 1228.5,-350.94"/>
</g>
</g>
</svg>
