<?xml version="1.0" encoding="UTF-8" standalone="no"?>
<!DOCTYPE svg PUBLIC "-//W3C//DTD SVG 1.1//EN"
 "http://www.w3.org/Graphics/SVG/1.1/DTD/svg11.dtd">
<!-- Generated by graphviz version 13.1.2 (20250808.2320)
 -->
<!-- Title: TFUSIONTENSOR_DFLOW Pages: 1 -->
<svg width="412pt" height="458pt"
 viewBox="0.00 0.00 412.00 458.00" xmlns="http://www.w3.org/2000/svg" xmlns:xlink="http://www.w3.org/1999/xlink">
<g id="graph0" class="graph" transform="scale(1 1) rotate(0) translate(4 454)">
<title>TFUSIONTENSOR_DFLOW</title>
<polygon fill="white" stroke="none" points="-4,4 -4,-454 408,-454 408,4 -4,4"/>
<text xml:space="preserve" text-anchor="middle" x="202" y="-428.9" font-family="Helvetica,sans-Serif" font-size="18.00">TFusionTensor v0.2 — Data Flow View</text>
<g id="clust1" class="cluster">
<title>cluster_mem</title>
<polygon fill="none" stroke="#ffcccc" points="16,-332 16,-413 293,-413 293,-332 16,-332"/>
<text xml:space="preserve" text-anchor="middle" x="154.5" y="-391.9" font-family="Helvetica,sans-Serif" font-size="18.00">Sources</text>
</g>
<g id="clust2" class="cluster">
<title>cluster_cache</title>
<polygon fill="none" stroke="#fff0b3" points="74,-224 74,-305 268,-305 268,-224 74,-224"/>
<text xml:space="preserve" text-anchor="middle" x="171" y="-283.9" font-family="Helvetica,sans-Serif" font-size="18.00">TFusionVcache</text>
</g>
<g id="clust3" class="cluster">
<title>cluster_spm</title>
<polygon fill="none" stroke="#dff7e7" points="88,-116 88,-197 254,-197 254,-116 88,-116"/>
<text xml:space="preserve" text-anchor="middle" x="171" y="-175.9" font-family="Helvetica,sans-Serif" font-size="18.00">Scratchpad</text>
</g>
<g id="clust4" class="cluster">
<title>cluster_tiles</title>
<polygon fill="none" stroke="#cce5ff" points="8,-8 8,-89 396,-89 396,-8 8,-8"/>
<text xml:space="preserve" text-anchor="middle" x="202" y="-67.9" font-family="Helvetica,sans-Serif" font-size="18.00">Compute</text>
</g>
<!-- host -->
<g id="node1" class="node">
<title>host</title>
<path fill="#eaf3ff" stroke="#2c6ebb" d="M128.25,-376C128.25,-376 35.75,-376 35.75,-376 29.75,-376 23.75,-370 23.75,-364 23.75,-364 23.75,-352 23.75,-352 23.75,-346 29.75,-340 35.75,-340 35.75,-340 128.25,-340 128.25,-340 134.25,-340 140.25,-346 140.25,-352 140.25,-352 140.25,-364 140.25,-364 140.25,-370 134.25,-376 128.25,-376"/>
<text xml:space="preserve" text-anchor="middle" x="82" y="-352.95" font-family="Times New Roman,serif" font-size="14.00">Host DMA/Queue</text>
</g>
<!-- fvc -->
<g id="node3" class="node">
<title>fvc</title>
<path fill="#eaf3ff" stroke="#2c6ebb" d="M248.38,-268C248.38,-268 93.62,-268 93.62,-268 87.62,-268 81.62,-262 81.62,-256 81.62,-256 81.62,-244 81.62,-244 81.62,-238 87.62,-232 93.62,-232 93.62,-232 248.38,-232 248.38,-232 254.38,-232 260.38,-238 260.38,-244 260.38,-244 260.38,-256 260.38,-256 260.38,-262 254.38,-268 248.38,-268"/>
<text xml:space="preserve" text-anchor="middle" x="171" y="-244.95" font-family="Times New Roman,serif" font-size="14.00">64MB (KV/Tensor partitions)</text>
</g>
<!-- host&#45;&gt;fvc -->
<g id="edge1" class="edge">
<title>host&#45;&gt;fvc</title>
<path fill="none" stroke="black" d="M110.94,-339.68C110.94,-339.68 110.94,-279.92 110.94,-279.92"/>
<polygon fill="black" stroke="black" points="114.44,-279.92 110.94,-269.92 107.44,-279.92 114.44,-279.92"/>
</g>
<!-- dram -->
<g id="node2" class="node">
<title>dram</title>
<path fill="#eaf3ff" stroke="#2c6ebb" d="M272.88,-376C272.88,-376 217.12,-376 217.12,-376 211.12,-376 205.12,-370 205.12,-364 205.12,-364 205.12,-352 205.12,-352 205.12,-346 211.12,-340 217.12,-340 217.12,-340 272.88,-340 272.88,-340 278.88,-340 284.88,-346 284.88,-352 284.88,-352 284.88,-364 284.88,-364 284.88,-370 278.88,-376 272.88,-376"/>
<text xml:space="preserve" text-anchor="middle" x="245" y="-352.95" font-family="Times New Roman,serif" font-size="14.00">DDR/HBM</text>
</g>
<!-- dram&#45;&gt;fvc -->
<g id="edge2" class="edge">
<title>dram&#45;&gt;fvc</title>
<path fill="none" stroke="black" d="M232.75,-339.68C232.75,-339.68 232.75,-279.92 232.75,-279.92"/>
<polygon fill="black" stroke="black" points="236.25,-279.92 232.75,-269.92 229.25,-279.92 236.25,-279.92"/>
</g>
<!-- spm -->
<g id="node4" class="node">
<title>spm</title>
<path fill="#eaf3ff" stroke="#2c6ebb" d="M233.75,-160C233.75,-160 108.25,-160 108.25,-160 102.25,-160 96.25,-154 96.25,-148 96.25,-148 96.25,-136 96.25,-136 96.25,-130 102.25,-124 108.25,-124 108.25,-124 233.75,-124 233.75,-124 239.75,-124 245.75,-130 245.75,-136 245.75,-136 245.75,-148 245.75,-148 245.75,-154 239.75,-160 233.75,-160"/>
<text xml:space="preserve" text-anchor="middle" x="171" y="-136.95" font-family="Times New Roman,serif" font-size="14.00">SPM Banks (ping&#45;pong)</text>
</g>
<!-- fvc&#45;&gt;spm -->
<g id="edge3" class="edge">
<title>fvc&#45;&gt;spm</title>
<path fill="none" stroke="black" d="M171,-231.68C171,-231.68 171,-171.92 171,-171.92"/>
<polygon fill="black" stroke="black" points="174.5,-171.92 171,-161.92 167.5,-171.92 174.5,-171.92"/>
</g>
<!-- conv -->
<g id="node5" class="node">
<title>conv</title>
<path fill="#eaf3ff" stroke="#2c6ebb" d="M151.62,-52C151.62,-52 28.38,-52 28.38,-52 22.38,-52 16.38,-46 16.38,-40 16.38,-40 16.38,-28 16.38,-28 16.38,-22 22.38,-16 28.38,-16 28.38,-16 151.62,-16 151.62,-16 157.62,-16 163.62,-22 163.62,-28 163.62,-28 163.62,-40 163.62,-40 163.62,-46 157.62,-52 151.62,-52"/>
<text xml:space="preserve" text-anchor="middle" x="90" y="-28.95" font-family="Times New Roman,serif" font-size="14.00">Conv: weight&#45;stationary</text>
</g>
<!-- spm&#45;&gt;conv -->
<g id="edge4" class="edge">
<title>spm&#45;&gt;conv</title>
<path fill="none" stroke="black" d="M129.94,-123.68C129.94,-123.68 129.94,-63.92 129.94,-63.92"/>
<polygon fill="black" stroke="black" points="133.44,-63.92 129.94,-53.92 126.44,-63.92 133.44,-63.92"/>
</g>
<!-- gemm -->
<g id="node6" class="node">
<title>gemm</title>
<path fill="#eaf3ff" stroke="#2c6ebb" d="M375.62,-52C375.62,-52 240.38,-52 240.38,-52 234.38,-52 228.38,-46 228.38,-40 228.38,-40 228.38,-28 228.38,-28 228.38,-22 234.38,-16 240.38,-16 240.38,-16 375.62,-16 375.62,-16 381.62,-16 387.62,-22 387.62,-28 387.62,-28 387.62,-40 387.62,-40 387.62,-46 381.62,-52 375.62,-52"/>
<text xml:space="preserve" text-anchor="middle" x="308" y="-28.95" font-family="Times New Roman,serif" font-size="14.00">GEMM: output&#45;stationary</text>
</g>
<!-- spm&#45;&gt;gemm -->
<g id="edge5" class="edge">
<title>spm&#45;&gt;gemm</title>
<path fill="none" stroke="black" d="M237.06,-123.68C237.06,-123.68 237.06,-63.92 237.06,-63.92"/>
<polygon fill="black" stroke="black" points="240.56,-63.92 237.06,-53.92 233.56,-63.92 240.56,-63.92"/>
</g>
</g>
</svg>
