<?xml version="1.0" encoding="UTF-8" standalone="no"?>
<!DOCTYPE svg PUBLIC "-//W3C//DTD SVG 1.1//EN"
 "http://www.w3.org/Graphics/SVG/1.1/DTD/svg11.dtd">
<!-- Generated by graphviz version 2.43.0 (0)
 -->
<!-- Title: TFUSIONTENSOR_ALGO Pages: 1 -->
<svg width="742pt" height="503pt"
 viewBox="0.00 0.00 742.00 503.00" xmlns="http://www.w3.org/2000/svg" xmlns:xlink="http://www.w3.org/1999/xlink">
<g id="graph0" class="graph" transform="scale(1 1) rotate(0) translate(4 499)">
<title>TFUSIONTENSOR_ALGO</title>
<polygon fill="white" stroke="transparent" points="-4,4 -4,-499 738,-499 738,4 -4,4"/>
<text text-anchor="middle" x="367" y="-476.6" font-family="Helvetica,sans-Serif" font-size="18.00">TFusionTensor v0.2 — Algorithm View</text>
<g id="clust1" class="cluster">
<title>cluster_fe</title>
<polygon fill="none" stroke="#fff0b3" points="8,-141 8,-342 350,-342 350,-141 8,-141"/>
<text text-anchor="middle" x="179" y="-323.6" font-family="Helvetica,sans-Serif" font-size="18.00">Front&#45;End</text>
</g>
<g id="clust2" class="cluster">
<title>cluster_compute</title>
<polygon fill="none" stroke="#cce5ff" points="185,-8 185,-90 515,-90 515,-8 185,-8"/>
<text text-anchor="middle" x="350" y="-71.6" font-family="Helvetica,sans-Serif" font-size="18.00">Compute Tiles</text>
</g>
<g id="clust3" class="cluster">
<title>cluster_spm</title>
<polygon fill="none" stroke="#dff7e7" points="400,-141 400,-223 584,-223 584,-141 400,-141"/>
<text text-anchor="middle" x="492" y="-204.6" font-family="Helvetica,sans-Serif" font-size="18.00">Scratchpad (SPM)</text>
</g>
<g id="clust4" class="cluster">
<title>cluster_cache</title>
<polygon fill="none" stroke="#fff0b3" points="399,-260 399,-342 671,-342 671,-260 399,-260"/>
<text text-anchor="middle" x="535" y="-323.6" font-family="Helvetica,sans-Serif" font-size="18.00">TFusionVcache (front&#45;side)</text>
</g>
<g id="clust5" class="cluster">
<title>cluster_mem</title>
<polygon fill="none" stroke="#ffdab9" points="413,-379 413,-459 726,-459 726,-379 413,-379"/>
<text text-anchor="middle" x="569.5" y="-440.6" font-family="Helvetica,sans-Serif" font-size="18.00">External Memory</text>
</g>
<!-- fe -->
<g id="node1" class="node">
<title>fe</title>
<path fill="#eaf3ff" stroke="#2c6ebb" d="M330,-306C330,-306 28,-306 28,-306 22,-306 16,-300 16,-294 16,-294 16,-280 16,-280 16,-274 22,-268 28,-268 28,-268 330,-268 330,-268 336,-268 342,-274 342,-280 342,-280 342,-294 342,-294 342,-300 336,-306 330,-306"/>
<text text-anchor="middle" x="179" y="-290.8" font-family="Times,serif" font-size="14.00">Classifier / Scheduler</text>
<text text-anchor="middle" x="179" y="-275.8" font-family="Times,serif" font-size="14.00">(op&#45;type, stride/size, reuse&#45;hint, stream&#45;ID)</text>
</g>
<!-- mux -->
<g id="node2" class="node">
<title>mux</title>
<path fill="#eaf3ff" stroke="#2c6ebb" d="M293,-187C293,-187 101,-187 101,-187 95,-187 89,-181 89,-175 89,-175 89,-161 89,-161 89,-155 95,-149 101,-149 101,-149 293,-149 293,-149 299,-149 305,-155 305,-161 305,-161 305,-175 305,-175 305,-181 299,-187 293,-187"/>
<text text-anchor="middle" x="197" y="-171.8" font-family="Times,serif" font-size="14.00">Routing</text>
<text text-anchor="middle" x="197" y="-156.8" font-family="Times,serif" font-size="14.00">(KV / Tensor → policy paths)</text>
</g>
<!-- fe&#45;&gt;mux -->
<g id="edge1" class="edge">
<title>fe&#45;&gt;mux</title>
<path fill="none" stroke="black" d="M197,-267.88C197,-267.88 197,-197.07 197,-197.07"/>
<polygon fill="black" stroke="black" points="200.5,-197.07 197,-187.07 193.5,-197.07 200.5,-197.07"/>
</g>
<!-- tiles -->
<g id="node3" class="node">
<title>tiles</title>
<path fill="#eaf3ff" stroke="#2c6ebb" d="M494.5,-54C494.5,-54 205.5,-54 205.5,-54 199.5,-54 193.5,-48 193.5,-42 193.5,-42 193.5,-28 193.5,-28 193.5,-22 199.5,-16 205.5,-16 205.5,-16 494.5,-16 494.5,-16 500.5,-16 506.5,-22 506.5,-28 506.5,-28 506.5,-42 506.5,-42 506.5,-48 500.5,-54 494.5,-54"/>
<text text-anchor="middle" x="350" y="-38.8" font-family="Times,serif" font-size="14.00">Tiles 128×128 (systolic)</text>
<text text-anchor="middle" x="350" y="-23.8" font-family="Times,serif" font-size="14.00">E&#45;adder → MantissaUnit → Shifter → ACC</text>
</g>
<!-- mux&#45;&gt;tiles -->
<g id="edge6" class="edge">
<title>mux&#45;&gt;tiles</title>
<path fill="none" stroke="black" stroke-dasharray="5,2" d="M249.25,-148.94C249.25,-148.94 249.25,-64.02 249.25,-64.02"/>
<polygon fill="black" stroke="black" points="252.75,-64.02 249.25,-54.02 245.75,-64.02 252.75,-64.02"/>
<text text-anchor="middle" x="331" y="-101.8" font-family="Times,serif" font-size="14.00">policy&#45;aware scheduling</text>
</g>
<!-- spm -->
<g id="node4" class="node">
<title>spm</title>
<path fill="#eaf3ff" stroke="#2c6ebb" d="M564.5,-187C564.5,-187 419.5,-187 419.5,-187 413.5,-187 407.5,-181 407.5,-175 407.5,-175 407.5,-161 407.5,-161 407.5,-155 413.5,-149 419.5,-149 419.5,-149 564.5,-149 564.5,-149 570.5,-149 576.5,-155 576.5,-161 576.5,-161 576.5,-175 576.5,-175 576.5,-181 570.5,-187 564.5,-187"/>
<text text-anchor="middle" x="492" y="-171.8" font-family="Times,serif" font-size="14.00">SPM Banks</text>
<text text-anchor="middle" x="492" y="-156.8" font-family="Times,serif" font-size="14.00">(ping&#45;pong, crossbar)</text>
</g>
<!-- spm&#45;&gt;tiles -->
<g id="edge5" class="edge">
<title>spm&#45;&gt;tiles</title>
<path fill="none" stroke="black" d="M457,-148.94C457,-148.94 457,-64.02 457,-64.02"/>
<polygon fill="black" stroke="black" points="460.5,-64.02 457,-54.02 453.5,-64.02 460.5,-64.02"/>
</g>
<!-- fvc -->
<g id="node5" class="node">
<title>fvc</title>
<path fill="#eaf3ff" stroke="#2c6ebb" d="M650.5,-306C650.5,-306 419.5,-306 419.5,-306 413.5,-306 407.5,-300 407.5,-294 407.5,-294 407.5,-280 407.5,-280 407.5,-274 413.5,-268 419.5,-268 419.5,-268 650.5,-268 650.5,-268 656.5,-268 662.5,-274 662.5,-280 662.5,-280 662.5,-294 662.5,-294 662.5,-300 656.5,-306 650.5,-306"/>
<text text-anchor="middle" x="535" y="-290.8" font-family="Times,serif" font-size="14.00">64MB physical; logical KV/Tensor</text>
<text text-anchor="middle" x="535" y="-275.8" font-family="Times,serif" font-size="14.00">Dynamic MB reallocation</text>
</g>
<!-- fvc&#45;&gt;spm -->
<g id="edge4" class="edge">
<title>fvc&#45;&gt;spm</title>
<path fill="none" stroke="black" d="M492,-267.88C492,-267.88 492,-197.07 492,-197.07"/>
<polygon fill="black" stroke="black" points="495.5,-197.07 492,-187.07 488.5,-197.07 495.5,-197.07"/>
</g>
<!-- dram -->
<g id="node6" class="node">
<title>dram</title>
<path fill="#eaf3ff" stroke="#2c6ebb" d="M500.5,-423C500.5,-423 433.5,-423 433.5,-423 427.5,-423 421.5,-417 421.5,-411 421.5,-411 421.5,-399 421.5,-399 421.5,-393 427.5,-387 433.5,-387 433.5,-387 500.5,-387 500.5,-387 506.5,-387 512.5,-393 512.5,-399 512.5,-399 512.5,-411 512.5,-411 512.5,-417 506.5,-423 500.5,-423"/>
<text text-anchor="middle" x="467" y="-401.3" font-family="Times,serif" font-size="14.00">DDR/HBM</text>
</g>
<!-- dram&#45;&gt;fvc -->
<g id="edge2" class="edge">
<title>dram&#45;&gt;fvc</title>
<path fill="none" stroke="black" d="M467,-386.82C467,-386.82 467,-316.18 467,-316.18"/>
<polygon fill="black" stroke="black" points="470.5,-316.18 467,-306.18 463.5,-316.18 470.5,-316.18"/>
</g>
<!-- host -->
<g id="node7" class="node">
<title>host</title>
<path fill="#eaf3ff" stroke="#2c6ebb" d="M706,-423C706,-423 590,-423 590,-423 584,-423 578,-417 578,-411 578,-411 578,-399 578,-399 578,-393 584,-387 590,-387 590,-387 706,-387 706,-387 712,-387 718,-393 718,-399 718,-399 718,-411 718,-411 718,-417 712,-423 706,-423"/>
<text text-anchor="middle" x="648" y="-401.3" font-family="Times,serif" font-size="14.00">Host DMA/Queue</text>
</g>
<!-- host&#45;&gt;fvc -->
<g id="edge3" class="edge">
<title>host&#45;&gt;fvc</title>
<path fill="none" stroke="black" d="M620.25,-386.82C620.25,-386.82 620.25,-316.18 620.25,-316.18"/>
<polygon fill="black" stroke="black" points="623.75,-316.18 620.25,-306.18 616.75,-316.18 623.75,-316.18"/>
</g>
</g>
</svg>
