<?xml version="1.0" encoding="UTF-8" standalone="no"?>
<!DOCTYPE svg PUBLIC "-//W3C//DTD SVG 1.1//EN"
 "http://www.w3.org/Graphics/SVG/1.1/DTD/svg11.dtd">
<!-- Generated by graphviz version 2.43.0 (0)
 -->
<!-- Title: CACHE_ALGO_V021 Pages: 1 -->
<svg width="958pt" height="671pt"
 viewBox="0.00 0.00 958.00 671.00" xmlns="http://www.w3.org/2000/svg" xmlns:xlink="http://www.w3.org/1999/xlink">
<g id="graph0" class="graph" transform="scale(1 1) rotate(0) translate(4 667)">
<title>CACHE_ALGO_V021</title>
<polygon fill="white" stroke="transparent" points="-4,4 -4,-667 954,-667 954,4 -4,4"/>
<text text-anchor="middle" x="475" y="-644.6" font-family="Helvetica,sans-Serif" font-size="18.00">Front&#45;side Shared Cache (64MB) — Algorithm View</text>
<g id="clust3" class="cluster">
<title>cluster_cache</title>
<polygon fill="none" stroke="#dff7e7" points="310,-101 310,-294 942,-294 942,-101 310,-101"/>
<text text-anchor="middle" x="626" y="-275.6" font-family="Helvetica,sans-Serif" font-size="18.00">Shared Cache Banks (64MB physical)</text>
</g>
<g id="clust1" class="cluster">
<title>cluster_fe</title>
<polygon fill="none" stroke="#fff0b3" points="570,-345 570,-552 912,-552 912,-345 570,-345"/>
<text text-anchor="middle" x="741" y="-533.6" font-family="Helvetica,sans-Serif" font-size="18.00">Front&#45;End</text>
</g>
<g id="clust2" class="cluster">
<title>cluster_part</title>
<polygon fill="none" stroke="#ffdab9" points="8,-213 8,-552 302,-552 302,-213 8,-213"/>
<text text-anchor="middle" x="155" y="-533.6" font-family="Helvetica,sans-Serif" font-size="18.00">Dynamic Partition Controller</text>
</g>
<!-- fe -->
<g id="node1" class="node">
<title>fe</title>
<path fill="#eaf3ff" stroke="#2c6ebb" d="M892,-516C892,-516 590,-516 590,-516 584,-516 578,-510 578,-504 578,-504 578,-490 578,-490 578,-484 584,-478 590,-478 590,-478 892,-478 892,-478 898,-478 904,-484 904,-490 904,-490 904,-504 904,-504 904,-510 898,-516 892,-516"/>
<text text-anchor="middle" x="741" y="-500.8" font-family="Times,serif" font-size="14.00">Classifier / Arbiter</text>
<text text-anchor="middle" x="741" y="-485.8" font-family="Times,serif" font-size="14.00">(op&#45;type, stride/size, reuse&#45;hint, stream&#45;ID)</text>
</g>
<!-- mux -->
<g id="node2" class="node">
<title>mux</title>
<path fill="#eaf3ff" stroke="#2c6ebb" d="M815.5,-391C815.5,-391 666.5,-391 666.5,-391 660.5,-391 654.5,-385 654.5,-379 654.5,-379 654.5,-365 654.5,-365 654.5,-359 660.5,-353 666.5,-353 666.5,-353 815.5,-353 815.5,-353 821.5,-353 827.5,-359 827.5,-365 827.5,-365 827.5,-379 827.5,-379 827.5,-385 821.5,-391 815.5,-391"/>
<text text-anchor="middle" x="741" y="-375.8" font-family="Times,serif" font-size="14.00">Policy Multiplexor</text>
<text text-anchor="middle" x="741" y="-360.8" font-family="Times,serif" font-size="14.00">(KV / Tensor / Bypass)</text>
</g>
<!-- fe&#45;&gt;mux -->
<g id="edge1" class="edge">
<title>fe&#45;&gt;mux</title>
<path fill="none" stroke="black" d="M741,-477.74C741,-477.74 741,-401.07 741,-401.07"/>
<polygon fill="black" stroke="black" points="744.5,-401.07 741,-391.07 737.5,-401.07 744.5,-401.07"/>
</g>
<!-- kvp -->
<g id="node6" class="node">
<title>kvp</title>
<path fill="#eaf3ff" stroke="#2c6ebb" d="M560,-258C560,-258 330,-258 330,-258 324,-258 318,-252 318,-246 318,-246 318,-232 318,-232 318,-226 324,-220 330,-220 330,-220 560,-220 560,-220 566,-220 572,-226 572,-232 572,-232 572,-246 572,-246 572,-252 566,-258 560,-258"/>
<text text-anchor="middle" x="445" y="-242.8" font-family="Times,serif" font-size="14.00">KV&#45;policy</text>
<text text-anchor="middle" x="445" y="-227.8" font-family="Times,serif" font-size="14.00">(SRRIP+pin, small line, UE&#45;pack)</text>
</g>
<!-- mux&#45;&gt;kvp -->
<g id="edge7" class="edge">
<title>mux&#45;&gt;kvp</title>
<path fill="none" stroke="black" d="M654.19,-365C566.85,-365 445,-365 445,-365 445,-365 445,-268.14 445,-268.14"/>
<polygon fill="black" stroke="black" points="448.5,-268.14 445,-258.14 441.5,-268.14 448.5,-268.14"/>
</g>
<!-- tcp -->
<g id="node7" class="node">
<title>tcp</title>
<path fill="#eaf3ff" stroke="#2c6ebb" d="M922,-258C922,-258 642,-258 642,-258 636,-258 630,-252 630,-246 630,-246 630,-232 630,-232 630,-226 636,-220 642,-220 642,-220 922,-220 922,-220 928,-220 934,-226 934,-232 934,-232 934,-246 934,-246 934,-252 928,-258 922,-258"/>
<text text-anchor="middle" x="782" y="-242.8" font-family="Times,serif" font-size="14.00">Tensor&#45;policy</text>
<text text-anchor="middle" x="782" y="-227.8" font-family="Times,serif" font-size="14.00">(streaming+prefetch, big block, bypass)</text>
</g>
<!-- mux&#45;&gt;tcp -->
<g id="edge8" class="edge">
<title>mux&#45;&gt;tcp</title>
<path fill="none" stroke="black" d="M741,-352.94C741,-352.94 741,-268.02 741,-268.02"/>
<polygon fill="black" stroke="black" points="744.5,-268.02 741,-258.02 737.5,-268.02 744.5,-268.02"/>
</g>
<!-- tele -->
<g id="node3" class="node">
<title>tele</title>
<path fill="#eaf3ff" stroke="#2c6ebb" d="M212,-516C212,-516 28,-516 28,-516 22,-516 16,-510 16,-504 16,-504 16,-490 16,-490 16,-484 22,-478 28,-478 28,-478 212,-478 212,-478 218,-478 224,-484 224,-490 224,-490 224,-504 224,-504 224,-510 218,-516 212,-516"/>
<text text-anchor="middle" x="120" y="-500.8" font-family="Times,serif" font-size="14.00">Telemetry</text>
<text text-anchor="middle" x="120" y="-485.8" font-family="Times,serif" font-size="14.00">(Hk,Ht,MPk,MPt,BQk,BQt)</text>
</g>
<!-- ctrl -->
<g id="node4" class="node">
<title>ctrl</title>
<path fill="#eaf3ff" stroke="#2c6ebb" d="M250.5,-391C250.5,-391 59.5,-391 59.5,-391 53.5,-391 47.5,-385 47.5,-379 47.5,-379 47.5,-365 47.5,-365 47.5,-359 53.5,-353 59.5,-353 59.5,-353 250.5,-353 250.5,-353 256.5,-353 262.5,-359 262.5,-365 262.5,-365 262.5,-379 262.5,-379 262.5,-385 256.5,-391 250.5,-391"/>
<text text-anchor="middle" x="155" y="-375.8" font-family="Times,serif" font-size="14.00">Partition Logic</text>
<text text-anchor="middle" x="155" y="-360.8" font-family="Times,serif" font-size="14.00">(hysteresis, MB step=4MB)</text>
</g>
<!-- tele&#45;&gt;ctrl -->
<g id="edge2" class="edge">
<title>tele&#45;&gt;ctrl</title>
<path fill="none" stroke="black" d="M135.75,-477.74C135.75,-477.74 135.75,-401.07 135.75,-401.07"/>
<polygon fill="black" stroke="black" points="139.25,-401.07 135.75,-391.07 132.25,-401.07 139.25,-401.07"/>
<text text-anchor="middle" x="184" y="-430.8" font-family="Times,serif" font-size="14.00">apply_waymask(KV_MB,T_MB)</text>
</g>
<!-- apply -->
<g id="node5" class="node">
<title>apply</title>
<path fill="#eaf3ff" stroke="#2c6ebb" d="M90,-257C90,-257 58,-257 58,-257 52,-257 46,-251 46,-245 46,-245 46,-233 46,-233 46,-227 52,-221 58,-221 58,-221 90,-221 90,-221 96,-221 102,-227 102,-233 102,-233 102,-245 102,-245 102,-251 96,-257 90,-257"/>
<text text-anchor="middle" x="74" y="-235.3" font-family="Times,serif" font-size="14.00">apply</text>
</g>
<!-- ctrl&#45;&gt;apply -->
<g id="edge3" class="edge">
<title>ctrl&#45;&gt;apply</title>
<path fill="none" stroke="black" d="M74.75,-352.94C74.75,-352.94 74.75,-267.17 74.75,-267.17"/>
<polygon fill="black" stroke="black" points="78.25,-267.17 74.75,-257.17 71.25,-267.17 78.25,-267.17"/>
<text text-anchor="middle" x="184" y="-305.8" font-family="Times,serif" font-size="14.00">apply_waymask(KV_MB,T_MB)</text>
</g>
<!-- ctrl&#45;&gt;kvp -->
<g id="edge10" class="edge">
<title>ctrl&#45;&gt;kvp</title>
<path fill="none" stroke="black" d="M182.25,-352.94C182.25,-316.17 182.25,-239 182.25,-239 182.25,-239 307.86,-239 307.86,-239"/>
<polygon fill="black" stroke="black" points="307.86,-242.5 317.86,-239 307.86,-235.5 307.86,-242.5"/>
<text text-anchor="middle" x="432" y="-305.8" font-family="Times,serif" font-size="14.00">quota/waymask</text>
</g>
<!-- ctrl&#45;&gt;tcp -->
<g id="edge11" class="edge">
<title>ctrl&#45;&gt;tcp</title>
<path fill="none" stroke="black" d="M262.53,-378C406.02,-378 642.25,-378 642.25,-378 642.25,-378 642.25,-268.04 642.25,-268.04"/>
<polygon fill="black" stroke="black" points="645.75,-268.04 642.25,-258.04 638.75,-268.04 645.75,-268.04"/>
<text text-anchor="middle" x="616" y="-305.8" font-family="Times,serif" font-size="14.00">quota/waymask</text>
</g>
<!-- banks -->
<g id="node8" class="node">
<title>banks</title>
<path fill="#eaf3ff" stroke="#2c6ebb" d="M693,-147C693,-147 533,-147 533,-147 527,-147 521,-141 521,-135 521,-135 521,-121 521,-121 521,-115 527,-109 533,-109 533,-109 693,-109 693,-109 699,-109 705,-115 705,-121 705,-121 705,-135 705,-135 705,-141 699,-147 693,-147"/>
<text text-anchor="middle" x="613" y="-131.8" font-family="Times,serif" font-size="14.00">16 Banks × 4MB + Tag</text>
<text text-anchor="middle" x="613" y="-116.8" font-family="Times,serif" font-size="14.00">(16&#45;way, policy&#45;bit)</text>
</g>
<!-- kvp&#45;&gt;banks -->
<g id="edge4" class="edge">
<title>kvp&#45;&gt;banks</title>
<path fill="none" stroke="black" d="M546.5,-219.92C546.5,-219.92 546.5,-157.2 546.5,-157.2"/>
<polygon fill="black" stroke="black" points="550,-157.2 546.5,-147.2 543,-157.2 550,-157.2"/>
</g>
<!-- tcp&#45;&gt;banks -->
<g id="edge5" class="edge">
<title>tcp&#45;&gt;banks</title>
<path fill="none" stroke="black" d="M667.5,-219.92C667.5,-219.92 667.5,-157.2 667.5,-157.2"/>
<polygon fill="black" stroke="black" points="671,-157.2 667.5,-147.2 664,-157.2 671,-157.2"/>
</g>
<!-- sink -->
<g id="node10" class="node">
<title>sink</title>
<path fill="#eaf3ff" stroke="#2c6ebb" d="M647,-36C647,-36 579,-36 579,-36 573,-36 567,-30 567,-24 567,-24 567,-12 567,-12 567,-6 573,0 579,0 579,0 647,0 647,0 653,0 659,-6 659,-12 659,-12 659,-24 659,-24 659,-30 653,-36 647,-36"/>
<text text-anchor="middle" x="613" y="-14.3" font-family="Times,serif" font-size="14.00">Responses</text>
</g>
<!-- banks&#45;&gt;sink -->
<g id="edge9" class="edge">
<title>banks&#45;&gt;sink</title>
<path fill="none" stroke="black" d="M613,-108.84C613,-108.84 613,-46.21 613,-46.21"/>
<polygon fill="black" stroke="black" points="616.5,-46.21 613,-36.21 609.5,-46.21 616.5,-46.21"/>
</g>
<!-- front -->
<g id="node9" class="node">
<title>front</title>
<path fill="#eaf3ff" stroke="#2c6ebb" d="M783.5,-635C783.5,-635 698.5,-635 698.5,-635 692.5,-635 686.5,-629 686.5,-623 686.5,-623 686.5,-609 686.5,-609 686.5,-603 692.5,-597 698.5,-597 698.5,-597 783.5,-597 783.5,-597 789.5,-597 795.5,-603 795.5,-609 795.5,-609 795.5,-623 795.5,-623 795.5,-629 789.5,-635 783.5,-635"/>
<text text-anchor="middle" x="741" y="-619.8" font-family="Times,serif" font-size="14.00">Requests</text>
<text text-anchor="middle" x="741" y="-604.8" font-family="Times,serif" font-size="14.00">(KV / Tensor)</text>
</g>
<!-- front&#45;&gt;fe -->
<g id="edge6" class="edge">
<title>front&#45;&gt;fe</title>
<path fill="none" stroke="black" d="M741,-596.88C741,-596.88 741,-526.07 741,-526.07"/>
<polygon fill="black" stroke="black" points="744.5,-526.07 741,-516.07 737.5,-526.07 744.5,-526.07"/>
</g>
</g>
</svg>
