<?xml version="1.0" encoding="UTF-8" standalone="no"?>
<!DOCTYPE svg PUBLIC "-//W3C//DTD SVG 1.1//EN"
 "http://www.w3.org/Graphics/SVG/1.1/DTD/svg11.dtd">
<!-- Generated by graphviz version 2.43.0 (0)
 -->
<!-- Title: CACHE_BLOCK_ALGO Pages: 1 -->
<svg width="462pt" height="938pt"
 viewBox="0.00 0.00 462.00 938.00" xmlns="http://www.w3.org/2000/svg" xmlns:xlink="http://www.w3.org/1999/xlink">
<g id="graph0" class="graph" transform="scale(1 1) rotate(0) translate(4 934)">
<title>CACHE_BLOCK_ALGO</title>
<polygon fill="white" stroke="transparent" points="-4,4 -4,-934 458,-934 458,4 -4,4"/>
<text text-anchor="middle" x="227" y="-911.6" font-family="Helvetica,sans-Serif" font-size="18.00">Shared Cache Block — Internal Algorithm Blocks</text>
<!-- front -->
<g id="node1" class="node">
<title>front</title>
<path fill="#eaf3ff" stroke="#2c6ebb" d="M288,-902C288,-902 151,-902 151,-902 145,-902 139,-896 139,-890 139,-890 139,-878 139,-878 139,-872 145,-866 151,-866 151,-866 288,-866 288,-866 294,-866 300,-872 300,-878 300,-878 300,-890 300,-890 300,-896 294,-902 288,-902"/>
<text text-anchor="middle" x="219.5" y="-880.3" font-family="Times,serif" font-size="14.00">Front&#45;End Classifier</text>
</g>
<!-- kv_mshr -->
<g id="node2" class="node">
<title>kv_mshr</title>
<path fill="#eaf3ff" stroke="#2c6ebb" d="M178.5,-794C178.5,-794 124.5,-794 124.5,-794 118.5,-794 112.5,-788 112.5,-782 112.5,-782 112.5,-770 112.5,-770 112.5,-764 118.5,-758 124.5,-758 124.5,-758 178.5,-758 178.5,-758 184.5,-758 190.5,-764 190.5,-770 190.5,-770 190.5,-782 190.5,-782 190.5,-788 184.5,-794 178.5,-794"/>
<text text-anchor="middle" x="151.5" y="-772.3" font-family="Times,serif" font-size="14.00">MSHR&#45;K</text>
</g>
<!-- front&#45;&gt;kv_mshr -->
<g id="edge1" class="edge">
<title>front&#45;&gt;kv_mshr</title>
<path fill="none" stroke="black" d="M164.75,-865.68C164.75,-865.68 164.75,-804.05 164.75,-804.05"/>
<polygon fill="black" stroke="black" points="168.25,-804.05 164.75,-794.05 161.25,-804.05 168.25,-804.05"/>
</g>
<!-- t_mshr -->
<g id="node3" class="node">
<title>t_mshr</title>
<path fill="#eaf3ff" stroke="#2c6ebb" d="M314,-794C314,-794 261,-794 261,-794 255,-794 249,-788 249,-782 249,-782 249,-770 249,-770 249,-764 255,-758 261,-758 261,-758 314,-758 314,-758 320,-758 326,-764 326,-770 326,-770 326,-782 326,-782 326,-788 320,-794 314,-794"/>
<text text-anchor="middle" x="287.5" y="-772.3" font-family="Times,serif" font-size="14.00">MSHR&#45;T</text>
</g>
<!-- front&#45;&gt;t_mshr -->
<g id="edge2" class="edge">
<title>front&#45;&gt;t_mshr</title>
<path fill="none" stroke="black" d="M274.5,-865.68C274.5,-865.68 274.5,-804.05 274.5,-804.05"/>
<polygon fill="black" stroke="black" points="278,-804.05 274.5,-794.05 271,-804.05 278,-804.05"/>
</g>
<!-- kv_pf -->
<g id="node4" class="node">
<title>kv_pf</title>
<path fill="#eaf3ff" stroke="#2c6ebb" d="M172,-686C172,-686 79,-686 79,-686 73,-686 67,-680 67,-674 67,-674 67,-662 67,-662 67,-656 73,-650 79,-650 79,-650 172,-650 172,-650 178,-650 184,-656 184,-662 184,-662 184,-674 184,-674 184,-680 178,-686 172,-686"/>
<text text-anchor="middle" x="125.5" y="-664.3" font-family="Times,serif" font-size="14.00">KV Prefetcher</text>
</g>
<!-- kv_mshr&#45;&gt;kv_pf -->
<g id="edge3" class="edge">
<title>kv_mshr&#45;&gt;kv_pf</title>
<path fill="none" stroke="black" d="M148.25,-757.68C148.25,-757.68 148.25,-696.05 148.25,-696.05"/>
<polygon fill="black" stroke="black" points="151.75,-696.05 148.25,-686.05 144.75,-696.05 151.75,-696.05"/>
</g>
<!-- t_pf -->
<g id="node5" class="node">
<title>t_pf</title>
<path fill="#eaf3ff" stroke="#2c6ebb" d="M375,-686C375,-686 254,-686 254,-686 248,-686 242,-680 242,-674 242,-674 242,-662 242,-662 242,-656 248,-650 254,-650 254,-650 375,-650 375,-650 381,-650 387,-656 387,-662 387,-662 387,-674 387,-674 387,-680 381,-686 375,-686"/>
<text text-anchor="middle" x="314.5" y="-664.3" font-family="Times,serif" font-size="14.00">Tensor Prefetcher</text>
</g>
<!-- kv_mshr&#45;&gt;t_pf -->
<g id="edge4" class="edge">
<title>kv_mshr&#45;&gt;t_pf</title>
<path fill="none" stroke="black" d="M190.55,-782C216.37,-782 245.5,-782 245.5,-782 245.5,-782 245.5,-696.06 245.5,-696.06"/>
<polygon fill="black" stroke="black" points="249,-696.06 245.5,-686.06 242,-696.06 249,-696.06"/>
</g>
<!-- t_mshr&#45;&gt;kv_pf -->
<g id="edge5" class="edge">
<title>t_mshr&#45;&gt;kv_pf</title>
<path fill="none" stroke="black" d="M248.96,-770C232.17,-770 216.25,-770 216.25,-770 216.25,-770 216.25,-668 216.25,-668 216.25,-668 194.25,-668 194.25,-668"/>
<polygon fill="black" stroke="black" points="194.25,-664.5 184.25,-668 194.25,-671.5 194.25,-664.5"/>
</g>
<!-- t_mshr&#45;&gt;t_pf -->
<g id="edge6" class="edge">
<title>t_mshr&#45;&gt;t_pf</title>
<path fill="none" stroke="black" d="M287.5,-757.68C287.5,-757.68 287.5,-696.05 287.5,-696.05"/>
<polygon fill="black" stroke="black" points="291,-696.05 287.5,-686.05 284,-696.05 291,-696.05"/>
</g>
<!-- repl -->
<g id="node6" class="node">
<title>repl</title>
<path fill="#eaf3ff" stroke="#2c6ebb" d="M354.5,-578C354.5,-578 84.5,-578 84.5,-578 78.5,-578 72.5,-572 72.5,-566 72.5,-566 72.5,-552 72.5,-552 72.5,-546 78.5,-540 84.5,-540 84.5,-540 354.5,-540 354.5,-540 360.5,-540 366.5,-546 366.5,-552 366.5,-552 366.5,-566 366.5,-566 366.5,-572 360.5,-578 354.5,-578"/>
<text text-anchor="middle" x="219.5" y="-562.8" font-family="Times,serif" font-size="14.00">Replacement Engines</text>
<text text-anchor="middle" x="219.5" y="-547.8" font-family="Times,serif" font-size="14.00">(KV: SRRIP+pin, Tensor: NMR/Bypass)</text>
</g>
<!-- kv_pf&#45;&gt;repl -->
<g id="edge7" class="edge">
<title>kv_pf&#45;&gt;repl</title>
<path fill="none" stroke="black" d="M128.25,-649.51C128.25,-649.51 128.25,-588.32 128.25,-588.32"/>
<polygon fill="black" stroke="black" points="131.75,-588.32 128.25,-578.32 124.75,-588.32 131.75,-588.32"/>
</g>
<!-- t_pf&#45;&gt;repl -->
<g id="edge8" class="edge">
<title>t_pf&#45;&gt;repl</title>
<path fill="none" stroke="black" d="M304.25,-649.51C304.25,-649.51 304.25,-588.32 304.25,-588.32"/>
<polygon fill="black" stroke="black" points="307.75,-588.32 304.25,-578.32 300.75,-588.32 307.75,-588.32"/>
</g>
<!-- tags -->
<g id="node7" class="node">
<title>tags</title>
<path fill="#eaf3ff" stroke="#2c6ebb" d="M279.5,-468C279.5,-468 159.5,-468 159.5,-468 153.5,-468 147.5,-462 147.5,-456 147.5,-456 147.5,-444 147.5,-444 147.5,-438 153.5,-432 159.5,-432 159.5,-432 279.5,-432 279.5,-432 285.5,-432 291.5,-438 291.5,-444 291.5,-444 291.5,-456 291.5,-456 291.5,-462 285.5,-468 279.5,-468"/>
<text text-anchor="middle" x="219.5" y="-446.3" font-family="Times,serif" font-size="14.00">Tags + Policy bits</text>
</g>
<!-- repl&#45;&gt;tags -->
<g id="edge9" class="edge">
<title>repl&#45;&gt;tags</title>
<path fill="none" stroke="black" d="M219.5,-539.76C219.5,-539.76 219.5,-478.32 219.5,-478.32"/>
<polygon fill="black" stroke="black" points="223,-478.32 219.5,-468.32 216,-478.32 223,-478.32"/>
</g>
<!-- data -->
<g id="node8" class="node">
<title>data</title>
<path fill="#eaf3ff" stroke="#2c6ebb" d="M316.5,-360C316.5,-360 122.5,-360 122.5,-360 116.5,-360 110.5,-354 110.5,-348 110.5,-348 110.5,-336 110.5,-336 110.5,-330 116.5,-324 122.5,-324 122.5,-324 316.5,-324 316.5,-324 322.5,-324 328.5,-330 328.5,-336 328.5,-336 328.5,-348 328.5,-348 328.5,-354 322.5,-360 316.5,-360"/>
<text text-anchor="middle" x="219.5" y="-338.3" font-family="Times,serif" font-size="14.00">Banked Data Arrays (64MB)</text>
</g>
<!-- tags&#45;&gt;data -->
<g id="edge10" class="edge">
<title>tags&#45;&gt;data</title>
<path fill="none" stroke="black" d="M219.5,-431.68C219.5,-431.68 219.5,-370.05 219.5,-370.05"/>
<polygon fill="black" stroke="black" points="223,-370.05 219.5,-360.05 216,-370.05 223,-370.05"/>
</g>
<!-- comp -->
<g id="node9" class="node">
<title>comp</title>
<path fill="#eaf3ff" stroke="#2c6ebb" d="M275,-252C275,-252 164,-252 164,-252 158,-252 152,-246 152,-240 152,-240 152,-228 152,-228 152,-222 158,-216 164,-216 164,-216 275,-216 275,-216 281,-216 287,-222 287,-228 287,-228 287,-240 287,-240 287,-246 281,-252 275,-252"/>
<text text-anchor="middle" x="219.5" y="-230.3" font-family="Times,serif" font-size="14.00">UE Pack/Unpack</text>
</g>
<!-- data&#45;&gt;comp -->
<g id="edge11" class="edge">
<title>data&#45;&gt;comp</title>
<path fill="none" stroke="black" d="M219.5,-323.68C219.5,-323.68 219.5,-262.05 219.5,-262.05"/>
<polygon fill="black" stroke="black" points="223,-262.05 219.5,-252.05 216,-262.05 223,-262.05"/>
</g>
<!-- ecc -->
<g id="node10" class="node">
<title>ecc</title>
<path fill="#eaf3ff" stroke="#2c6ebb" d="M234.5,-144C234.5,-144 204.5,-144 204.5,-144 198.5,-144 192.5,-138 192.5,-132 192.5,-132 192.5,-120 192.5,-120 192.5,-114 198.5,-108 204.5,-108 204.5,-108 234.5,-108 234.5,-108 240.5,-108 246.5,-114 246.5,-120 246.5,-120 246.5,-132 246.5,-132 246.5,-138 240.5,-144 234.5,-144"/>
<text text-anchor="middle" x="219.5" y="-122.3" font-family="Times,serif" font-size="14.00">ECC</text>
</g>
<!-- comp&#45;&gt;ecc -->
<g id="edge12" class="edge">
<title>comp&#45;&gt;ecc</title>
<path fill="none" stroke="black" d="M219.5,-215.68C219.5,-215.68 219.5,-154.05 219.5,-154.05"/>
<polygon fill="black" stroke="black" points="223,-154.05 219.5,-144.05 216,-154.05 223,-154.05"/>
</g>
<!-- out -->
<g id="node11" class="node">
<title>out</title>
<path fill="#eaf3ff" stroke="#2c6ebb" d="M267,-36C267,-36 172,-36 172,-36 166,-36 160,-30 160,-24 160,-24 160,-12 160,-12 160,-6 166,0 172,0 172,0 267,0 267,0 273,0 279,-6 279,-12 279,-12 279,-24 279,-24 279,-30 273,-36 267,-36"/>
<text text-anchor="middle" x="219.5" y="-14.3" font-family="Times,serif" font-size="14.00">SPM/Req Sink</text>
</g>
<!-- ecc&#45;&gt;out -->
<g id="edge13" class="edge">
<title>ecc&#45;&gt;out</title>
<path fill="none" stroke="black" d="M219.5,-107.68C219.5,-107.68 219.5,-46.05 219.5,-46.05"/>
<polygon fill="black" stroke="black" points="223,-46.05 219.5,-36.05 216,-46.05 223,-46.05"/>
</g>
</g>
</svg>
