<?xml version="1.0" encoding="UTF-8" standalone="no"?>
<!DOCTYPE svg PUBLIC "-//W3C//DTD SVG 1.1//EN"
 "http://www.w3.org/Graphics/SVG/1.1/DTD/svg11.dtd">
<!-- Generated by graphviz version 2.43.0 (0)
 -->
<!-- Title: CACHE_BLOCK_DFLOW Pages: 1 -->
<svg width="521pt" height="427pt"
 viewBox="0.00 0.00 521.00 427.00" xmlns="http://www.w3.org/2000/svg" xmlns:xlink="http://www.w3.org/1999/xlink">
<g id="graph0" class="graph" transform="scale(1 1) rotate(0) translate(4 423)">
<title>CACHE_BLOCK_DFLOW</title>
<polygon fill="white" stroke="transparent" points="-4,4 -4,-423 517,-423 517,4 -4,4"/>
<text text-anchor="middle" x="256.5" y="-400.6" font-family="Helvetica,sans-Serif" font-size="18.00">Shared Cache Block — Data Flow</text>
<!-- req -->
<g id="node1" class="node">
<title>req</title>
<path fill="#eaf3ff" stroke="#2c6ebb" d="M158,-391C158,-391 12,-391 12,-391 6,-391 0,-385 0,-379 0,-379 0,-367 0,-367 0,-361 6,-355 12,-355 12,-355 158,-355 158,-355 164,-355 170,-361 170,-367 170,-367 170,-379 170,-379 170,-385 164,-391 158,-391"/>
<text text-anchor="middle" x="85" y="-369.3" font-family="Times,serif" font-size="14.00">Requests (KV/Tensor)</text>
</g>
<!-- fe -->
<g id="node2" class="node">
<title>fe</title>
<path fill="#eaf3ff" stroke="#2c6ebb" d="M327.5,-268C327.5,-268 212.5,-268 212.5,-268 206.5,-268 200.5,-262 200.5,-256 200.5,-256 200.5,-244 200.5,-244 200.5,-238 206.5,-232 212.5,-232 212.5,-232 327.5,-232 327.5,-232 333.5,-232 339.5,-238 339.5,-244 339.5,-244 339.5,-256 339.5,-256 339.5,-262 333.5,-268 327.5,-268"/>
<text text-anchor="middle" x="270" y="-246.3" font-family="Times,serif" font-size="14.00">Classifier/Arbiter</text>
</g>
<!-- req&#45;&gt;fe -->
<g id="edge1" class="edge">
<title>req&#45;&gt;fe</title>
<path fill="none" stroke="black" d="M170.3,-373C194.54,-373 214.5,-373 214.5,-373 214.5,-373 214.5,-278.15 214.5,-278.15"/>
<polygon fill="black" stroke="black" points="218,-278.15 214.5,-268.15 211,-278.15 218,-278.15"/>
</g>
<!-- banks -->
<g id="node3" class="node">
<title>banks</title>
<path fill="#eaf3ff" stroke="#2c6ebb" d="M334.5,-145C334.5,-145 195.5,-145 195.5,-145 189.5,-145 183.5,-139 183.5,-133 183.5,-133 183.5,-121 183.5,-121 183.5,-115 189.5,-109 195.5,-109 195.5,-109 334.5,-109 334.5,-109 340.5,-109 346.5,-115 346.5,-121 346.5,-121 346.5,-133 346.5,-133 346.5,-139 340.5,-145 334.5,-145"/>
<text text-anchor="middle" x="265" y="-123.3" font-family="Times,serif" font-size="14.00">Shared Banks 64MB</text>
</g>
<!-- fe&#45;&gt;banks -->
<g id="edge2" class="edge">
<title>fe&#45;&gt;banks</title>
<path fill="none" stroke="black" d="M270,-231.85C270,-231.85 270,-155.22 270,-155.22"/>
<polygon fill="black" stroke="black" points="273.5,-155.22 270,-145.22 266.5,-155.22 273.5,-155.22"/>
</g>
<!-- spm -->
<g id="node4" class="node">
<title>spm</title>
<path fill="#eaf3ff" stroke="#2c6ebb" d="M130,-36C130,-36 100,-36 100,-36 94,-36 88,-30 88,-24 88,-24 88,-12 88,-12 88,-6 94,0 100,0 100,0 130,0 130,0 136,0 142,-6 142,-12 142,-12 142,-24 142,-24 142,-30 136,-36 130,-36"/>
<text text-anchor="middle" x="115" y="-14.3" font-family="Times,serif" font-size="14.00">SPM</text>
</g>
<!-- banks&#45;&gt;spm -->
<g id="edge3" class="edge">
<title>banks&#45;&gt;spm</title>
<path fill="none" stroke="black" d="M201.25,-108.51C201.25,-77.41 201.25,-18 201.25,-18 201.25,-18 152.29,-18 152.29,-18"/>
<polygon fill="black" stroke="black" points="152.29,-14.5 142.29,-18 152.29,-21.5 152.29,-14.5"/>
</g>
<!-- resp -->
<g id="node7" class="node">
<title>resp</title>
<path fill="#eaf3ff" stroke="#2c6ebb" d="M299,-36C299,-36 231,-36 231,-36 225,-36 219,-30 219,-24 219,-24 219,-12 219,-12 219,-6 225,0 231,0 231,0 299,0 299,0 305,0 311,-6 311,-12 311,-12 311,-24 311,-24 311,-30 305,-36 299,-36"/>
<text text-anchor="middle" x="265" y="-14.3" font-family="Times,serif" font-size="14.00">Responses</text>
</g>
<!-- banks&#45;&gt;resp -->
<g id="edge4" class="edge">
<title>banks&#45;&gt;resp</title>
<path fill="none" stroke="black" d="M265,-108.51C265,-108.51 265,-46.22 265,-46.22"/>
<polygon fill="black" stroke="black" points="268.5,-46.22 265,-36.22 261.5,-46.22 268.5,-46.22"/>
</g>
<!-- spm&#45;&gt;req -->
<g id="edge5" class="edge">
<title>spm&#45;&gt;req</title>
<path fill="none" stroke="black" stroke-dasharray="5,2" d="M115,-36.09C115,-36.09 115,-344.94 115,-344.94"/>
<polygon fill="black" stroke="black" points="111.5,-344.94 115,-354.94 118.5,-344.94 111.5,-344.94"/>
<text text-anchor="middle" x="104" y="-184.8" font-family="Times,serif" font-size="14.00">refill</text>
</g>
<!-- dram -->
<g id="node5" class="node">
<title>dram</title>
<path fill="#eaf3ff" stroke="#2c6ebb" d="M307.5,-391C307.5,-391 240.5,-391 240.5,-391 234.5,-391 228.5,-385 228.5,-379 228.5,-379 228.5,-367 228.5,-367 228.5,-361 234.5,-355 240.5,-355 240.5,-355 307.5,-355 307.5,-355 313.5,-355 319.5,-361 319.5,-367 319.5,-367 319.5,-379 319.5,-379 319.5,-385 313.5,-391 307.5,-391"/>
<text text-anchor="middle" x="274" y="-369.3" font-family="Times,serif" font-size="14.00">DDR/HBM</text>
</g>
<!-- dram&#45;&gt;fe -->
<g id="edge6" class="edge">
<title>dram&#45;&gt;fe</title>
<path fill="none" stroke="black" stroke-dasharray="5,2" d="M274,-354.85C274,-354.85 274,-278.22 274,-278.22"/>
<polygon fill="black" stroke="black" points="277.5,-278.22 274,-268.22 270.5,-278.22 277.5,-278.22"/>
<text text-anchor="middle" x="316.5" y="-307.8" font-family="Times,serif" font-size="14.00">miss service</text>
</g>
<!-- host -->
<g id="node6" class="node">
<title>host</title>
<path fill="#eaf3ff" stroke="#2c6ebb" d="M457,-391C457,-391 391,-391 391,-391 385,-391 379,-385 379,-379 379,-379 379,-367 379,-367 379,-361 385,-355 391,-355 391,-355 457,-355 457,-355 463,-355 469,-361 469,-367 469,-367 469,-379 469,-379 469,-385 463,-391 457,-391"/>
<text text-anchor="middle" x="424" y="-369.3" font-family="Times,serif" font-size="14.00">Host DMA</text>
</g>
<!-- host&#45;&gt;fe -->
<g id="edge7" class="edge">
<title>host&#45;&gt;fe</title>
<path fill="none" stroke="black" stroke-dasharray="5,2" d="M378.96,-373C354.62,-373 329.5,-373 329.5,-373 329.5,-373 329.5,-278.15 329.5,-278.15"/>
<polygon fill="black" stroke="black" points="333,-278.15 329.5,-268.15 326,-278.15 333,-278.15"/>
<text text-anchor="middle" x="468.5" y="-307.8" font-family="Times,serif" font-size="14.00">miss service</text>
</g>
</g>
</svg>
