<?xml version="1.0" encoding="UTF-8" standalone="no"?>
<!DOCTYPE svg PUBLIC "-//W3C//DTD SVG 1.1//EN"
 "http://www.w3.org/Graphics/SVG/1.1/DTD/svg11.dtd">
<!-- Generated by graphviz version 2.43.0 (0)
 -->
<!-- Title: CACHE_CENTRIC_SYS Pages: 1 -->
<svg width="485pt" height="524pt"
 viewBox="0.00 0.00 485.00 524.00" xmlns="http://www.w3.org/2000/svg" xmlns:xlink="http://www.w3.org/1999/xlink">
<g id="graph0" class="graph" transform="scale(1 1) rotate(0) translate(4 520)">
<title>CACHE_CENTRIC_SYS</title>
<polygon fill="white" stroke="transparent" points="-4,4 -4,-520 481,-520 481,4 -4,4"/>
<text text-anchor="middle" x="238.5" y="-497.6" font-family="Helvetica,sans-Serif" font-size="18.00">Cache&#45;Centric View — System Connectivity &amp; Flow</text>
<!-- cache -->
<g id="node1" class="node">
<title>cache</title>
<path fill="#eaf3ff" stroke="#2c6ebb" d="M343,-379C343,-379 126,-379 126,-379 120,-379 114,-373 114,-367 114,-367 114,-353 114,-353 114,-347 120,-341 126,-341 126,-341 343,-341 343,-341 349,-341 355,-347 355,-353 355,-353 355,-367 355,-367 355,-373 349,-379 343,-379"/>
<text text-anchor="middle" x="234.5" y="-363.8" font-family="Times,serif" font-size="14.00">Front&#45;side Shared Cache 64MB</text>
<text text-anchor="middle" x="234.5" y="-348.8" font-family="Times,serif" font-size="14.00">(Partitioned KV/Tensor)</text>
</g>
<!-- spm -->
<g id="node4" class="node">
<title>spm</title>
<path fill="#eaf3ff" stroke="#2c6ebb" d="M182.5,-268C182.5,-268 108.5,-268 108.5,-268 102.5,-268 96.5,-262 96.5,-256 96.5,-256 96.5,-244 96.5,-244 96.5,-238 102.5,-232 108.5,-232 108.5,-232 182.5,-232 182.5,-232 188.5,-232 194.5,-238 194.5,-244 194.5,-244 194.5,-256 194.5,-256 194.5,-262 188.5,-268 182.5,-268"/>
<text text-anchor="middle" x="145.5" y="-246.3" font-family="Times,serif" font-size="14.00">SPM Banks</text>
</g>
<!-- cache&#45;&gt;spm -->
<g id="edge3" class="edge">
<title>cache&#45;&gt;spm</title>
<path fill="none" stroke="black" d="M154.25,-340.84C154.25,-340.84 154.25,-278.21 154.25,-278.21"/>
<polygon fill="black" stroke="black" points="157.75,-278.21 154.25,-268.21 150.75,-278.21 157.75,-278.21"/>
</g>
<!-- host -->
<g id="node2" class="node">
<title>host</title>
<path fill="#eaf3ff" stroke="#2c6ebb" d="M202.5,-488C202.5,-488 86.5,-488 86.5,-488 80.5,-488 74.5,-482 74.5,-476 74.5,-476 74.5,-464 74.5,-464 74.5,-458 80.5,-452 86.5,-452 86.5,-452 202.5,-452 202.5,-452 208.5,-452 214.5,-458 214.5,-464 214.5,-464 214.5,-476 214.5,-476 214.5,-482 208.5,-488 202.5,-488"/>
<text text-anchor="middle" x="144.5" y="-466.3" font-family="Times,serif" font-size="14.00">Host DMA/Queue</text>
</g>
<!-- host&#45;&gt;cache -->
<g id="edge1" class="edge">
<title>host&#45;&gt;cache</title>
<path fill="none" stroke="black" d="M164.25,-451.84C164.25,-451.84 164.25,-389.3 164.25,-389.3"/>
<polygon fill="black" stroke="black" points="167.75,-389.3 164.25,-379.3 160.75,-389.3 167.75,-389.3"/>
</g>
<!-- dram -->
<g id="node3" class="node">
<title>dram</title>
<path fill="#eaf3ff" stroke="#2c6ebb" d="M359,-488C359,-488 292,-488 292,-488 286,-488 280,-482 280,-476 280,-476 280,-464 280,-464 280,-458 286,-452 292,-452 292,-452 359,-452 359,-452 365,-452 371,-458 371,-464 371,-464 371,-476 371,-476 371,-482 365,-488 359,-488"/>
<text text-anchor="middle" x="325.5" y="-466.3" font-family="Times,serif" font-size="14.00">DDR/HBM</text>
</g>
<!-- dram&#45;&gt;cache -->
<g id="edge2" class="edge">
<title>dram&#45;&gt;cache</title>
<path fill="none" stroke="black" d="M317.5,-451.84C317.5,-451.84 317.5,-389.3 317.5,-389.3"/>
<polygon fill="black" stroke="black" points="321,-389.3 317.5,-379.3 314,-389.3 321,-389.3"/>
</g>
<!-- tiles -->
<g id="node5" class="node">
<title>tiles</title>
<path fill="#eaf3ff" stroke="#2c6ebb" d="M383,-159C383,-159 266,-159 266,-159 260,-159 254,-153 254,-147 254,-147 254,-135 254,-135 254,-129 260,-123 266,-123 266,-123 383,-123 383,-123 389,-123 395,-129 395,-135 395,-135 395,-147 395,-147 395,-153 389,-159 383,-159"/>
<text text-anchor="middle" x="324.5" y="-137.3" font-family="Times,serif" font-size="14.00">Tensor Core Tiles</text>
</g>
<!-- spm&#45;&gt;tiles -->
<g id="edge4" class="edge">
<title>spm&#45;&gt;tiles</title>
<path fill="none" stroke="black" d="M161.83,-231.51C161.83,-200.41 161.83,-141 161.83,-141 161.83,-141 243.63,-141 243.63,-141"/>
<polygon fill="black" stroke="black" points="243.63,-144.5 253.63,-141 243.63,-137.5 243.63,-144.5"/>
</g>
<!-- tiles&#45;&gt;cache -->
<g id="edge5" class="edge">
<title>tiles&#45;&gt;cache</title>
<path fill="none" stroke="black" stroke-dasharray="5,2" d="M304.5,-159.3C304.5,-159.3 304.5,-330.98 304.5,-330.98"/>
<polygon fill="black" stroke="black" points="301,-330.98 304.5,-340.98 308,-330.98 301,-330.98"/>
<text text-anchor="middle" x="373" y="-246.3" font-family="Times,serif" font-size="14.00">refetch (rare)</text>
</g>
<!-- codec -->
<g id="node6" class="node">
<title>codec</title>
<path fill="#eaf3ff" stroke="#2c6ebb" d="M261.5,-36C261.5,-36 67.5,-36 67.5,-36 61.5,-36 55.5,-30 55.5,-24 55.5,-24 55.5,-12 55.5,-12 55.5,-6 61.5,0 67.5,0 67.5,0 261.5,0 261.5,0 267.5,0 273.5,-6 273.5,-12 273.5,-12 273.5,-24 273.5,-24 273.5,-30 267.5,-36 261.5,-36"/>
<text text-anchor="middle" x="164.5" y="-14.3" font-family="Times,serif" font-size="14.00">Codec (Scale/Calib/Decoder)</text>
</g>
<!-- tiles&#45;&gt;codec -->
<g id="edge6" class="edge">
<title>tiles&#45;&gt;codec</title>
<path fill="none" stroke="black" stroke-dasharray="5,2" d="M263.75,-122.85C263.75,-122.85 263.75,-46.22 263.75,-46.22"/>
<polygon fill="black" stroke="black" points="267.25,-46.22 263.75,-36.22 260.25,-46.22 267.25,-46.22"/>
<text text-anchor="middle" x="308" y="-75.8" font-family="Times,serif" font-size="14.00">scale/calib</text>
</g>
<!-- codec&#45;&gt;spm -->
<g id="edge7" class="edge">
<title>codec&#45;&gt;spm</title>
<path fill="none" stroke="black" stroke-dasharray="5,2" d="M129.17,-36.2C129.17,-36.2 129.17,-221.88 129.17,-221.88"/>
<polygon fill="black" stroke="black" points="125.67,-221.88 129.17,-231.88 132.67,-221.88 125.67,-221.88"/>
<text text-anchor="middle" x="151" y="-137.3" font-family="Times,serif" font-size="14.00">scale/calib</text>
</g>
</g>
</svg>
