<?xml version="1.0" encoding="UTF-8" standalone="no"?>
<!DOCTYPE svg PUBLIC "-//W3C//DTD SVG 1.1//EN"
 "http://www.w3.org/Graphics/SVG/1.1/DTD/svg11.dtd">
<!-- Generated by graphviz version 2.43.0 (0)
 -->
<!-- Title: CACHE_DFLOW_TFV Pages: 1 -->
<svg width="616pt" height="497pt"
 viewBox="0.00 0.00 616.00 497.00" xmlns="http://www.w3.org/2000/svg" xmlns:xlink="http://www.w3.org/1999/xlink">
<g id="graph0" class="graph" transform="scale(1 1) rotate(0) translate(4 493)">
<title>CACHE_DFLOW_TFV</title>
<polygon fill="white" stroke="transparent" points="-4,4 -4,-493 612,-493 612,4 -4,4"/>
<text text-anchor="middle" x="304" y="-470.6" font-family="Helvetica,sans-Serif" font-size="18.00">TFusionVcache — Data Flow View</text>
<g id="clust1" class="cluster">
<title>cluster_src</title>
<polygon fill="none" stroke="#ffcccc" points="8,-371 8,-453 371,-453 371,-371 8,-371"/>
<text text-anchor="middle" x="189.5" y="-434.6" font-family="Helvetica,sans-Serif" font-size="18.00">Sources</text>
</g>
<g id="clust2" class="cluster">
<title>cluster_cache</title>
<polygon fill="none" stroke="#fff0b3" points="146,-141 146,-334 402,-334 402,-141 146,-141"/>
<text text-anchor="middle" x="274" y="-315.6" font-family="Helvetica,sans-Serif" font-size="18.00">TFusionVcache Subsystem</text>
</g>
<g id="clust3" class="cluster">
<title>cluster_spm</title>
<polygon fill="none" stroke="#dff7e7" points="406,-8 406,-90 600,-90 600,-8 406,-8"/>
<text text-anchor="middle" x="503" y="-71.6" font-family="Helvetica,sans-Serif" font-size="18.00">On&#45;chip Scratchpad</text>
</g>
<g id="clust4" class="cluster">
<title>cluster_tiles</title>
<polygon fill="none" stroke="#cce5ff" points="425,-142 425,-452 583,-452 583,-142 425,-142"/>
<text text-anchor="middle" x="504" y="-433.6" font-family="Helvetica,sans-Serif" font-size="18.00">Compute</text>
</g>
<!-- host -->
<g id="node1" class="node">
<title>host</title>
<path fill="#eaf3ff" stroke="#2c6ebb" d="M144,-416C144,-416 28,-416 28,-416 22,-416 16,-410 16,-404 16,-404 16,-392 16,-392 16,-386 22,-380 28,-380 28,-380 144,-380 144,-380 150,-380 156,-386 156,-392 156,-392 156,-404 156,-404 156,-410 150,-416 144,-416"/>
<text text-anchor="middle" x="86" y="-394.3" font-family="Times,serif" font-size="14.00">Host DMA/Queue</text>
</g>
<!-- fe -->
<g id="node3" class="node">
<title>fe</title>
<path fill="#eaf3ff" stroke="#2c6ebb" d="M365.5,-298C365.5,-298 206.5,-298 206.5,-298 200.5,-298 194.5,-292 194.5,-286 194.5,-286 194.5,-272 194.5,-272 194.5,-266 200.5,-260 206.5,-260 206.5,-260 365.5,-260 365.5,-260 371.5,-260 377.5,-266 377.5,-272 377.5,-272 377.5,-286 377.5,-286 377.5,-292 371.5,-298 365.5,-298"/>
<text text-anchor="middle" x="286" y="-282.8" font-family="Times,serif" font-size="14.00">Cache Front&#45;End</text>
<text text-anchor="middle" x="286" y="-267.8" font-family="Times,serif" font-size="14.00">(Classifier/Arbiter/QoS)</text>
</g>
<!-- host&#45;&gt;fe -->
<g id="edge1" class="edge">
<title>host&#45;&gt;fe</title>
<path fill="none" stroke="black" d="M156.12,-398C183.18,-398 207.75,-398 207.75,-398 207.75,-398 207.75,-308.12 207.75,-308.12"/>
<polygon fill="black" stroke="black" points="211.25,-308.12 207.75,-298.12 204.25,-308.12 211.25,-308.12"/>
</g>
<!-- dram -->
<g id="node2" class="node">
<title>dram</title>
<path fill="#eaf3ff" stroke="#2c6ebb" d="M351,-417C351,-417 233,-417 233,-417 227,-417 221,-411 221,-405 221,-405 221,-391 221,-391 221,-385 227,-379 233,-379 233,-379 351,-379 351,-379 357,-379 363,-385 363,-391 363,-391 363,-405 363,-405 363,-411 357,-417 351,-417"/>
<text text-anchor="middle" x="292" y="-401.8" font-family="Times,serif" font-size="14.00">External Memory</text>
<text text-anchor="middle" x="292" y="-386.8" font-family="Times,serif" font-size="14.00">DDR/HBM</text>
</g>
<!-- dram&#45;&gt;fe -->
<g id="edge2" class="edge">
<title>dram&#45;&gt;fe</title>
<path fill="none" stroke="black" d="M292,-378.88C292,-378.88 292,-308.07 292,-308.07"/>
<polygon fill="black" stroke="black" points="295.5,-308.07 292,-298.07 288.5,-308.07 295.5,-308.07"/>
</g>
<!-- banks -->
<g id="node4" class="node">
<title>banks</title>
<path fill="#eaf3ff" stroke="#2c6ebb" d="M355.5,-187C355.5,-187 216.5,-187 216.5,-187 210.5,-187 204.5,-181 204.5,-175 204.5,-175 204.5,-161 204.5,-161 204.5,-155 210.5,-149 216.5,-149 216.5,-149 355.5,-149 355.5,-149 361.5,-149 367.5,-155 367.5,-161 367.5,-161 367.5,-175 367.5,-175 367.5,-181 361.5,-187 355.5,-187"/>
<text text-anchor="middle" x="286" y="-171.8" font-family="Times,serif" font-size="14.00">Shared Banks 64MB</text>
<text text-anchor="middle" x="286" y="-156.8" font-family="Times,serif" font-size="14.00">(16&#45;way, banked)</text>
</g>
<!-- fe&#45;&gt;banks -->
<g id="edge3" class="edge">
<title>fe&#45;&gt;banks</title>
<path fill="none" stroke="black" d="M286,-259.92C286,-259.92 286,-197.2 286,-197.2"/>
<polygon fill="black" stroke="black" points="289.5,-197.2 286,-187.2 282.5,-197.2 289.5,-197.2"/>
</g>
<!-- spm -->
<g id="node5" class="node">
<title>spm</title>
<path fill="#eaf3ff" stroke="#2c6ebb" d="M573,-54C573,-54 433,-54 433,-54 427,-54 421,-48 421,-42 421,-42 421,-28 421,-28 421,-22 427,-16 433,-16 433,-16 573,-16 573,-16 579,-16 585,-22 585,-28 585,-28 585,-42 585,-42 585,-48 579,-54 573,-54"/>
<text text-anchor="middle" x="503" y="-38.8" font-family="Times,serif" font-size="14.00">SPM Banks</text>
<text text-anchor="middle" x="503" y="-23.8" font-family="Times,serif" font-size="14.00">(ping&#45;pong/crossbar)</text>
</g>
<!-- banks&#45;&gt;spm -->
<g id="edge4" class="edge">
<title>banks&#45;&gt;spm</title>
<path fill="none" stroke="black" d="M367.61,-168C398.79,-168 427,-168 427,-168 427,-168 427,-64.06 427,-64.06"/>
<polygon fill="black" stroke="black" points="430.5,-64.06 427,-54.06 423.5,-64.06 430.5,-64.06"/>
</g>
<!-- tiles -->
<g id="node6" class="node">
<title>tiles</title>
<path fill="#eaf3ff" stroke="#2c6ebb" d="M562.5,-416C562.5,-416 445.5,-416 445.5,-416 439.5,-416 433.5,-410 433.5,-404 433.5,-404 433.5,-392 433.5,-392 433.5,-386 439.5,-380 445.5,-380 445.5,-380 562.5,-380 562.5,-380 568.5,-380 574.5,-386 574.5,-392 574.5,-392 574.5,-404 574.5,-404 574.5,-410 568.5,-416 562.5,-416"/>
<text text-anchor="middle" x="504" y="-394.3" font-family="Times,serif" font-size="14.00">Tensor Core Tiles</text>
</g>
<!-- spm&#45;&gt;tiles -->
<g id="edge5" class="edge">
<title>spm&#45;&gt;tiles</title>
<path fill="none" stroke="black" d="M579.75,-54.01C579.75,-128.7 579.75,-398 579.75,-398 579.75,-398 579.25,-398 579.25,-398"/>
<polygon fill="black" stroke="black" points="584.78,-394.5 574.78,-398 584.78,-401.5 584.78,-394.5"/>
</g>
<!-- post -->
<g id="node7" class="node">
<title>post</title>
<path fill="#eaf3ff" stroke="#2c6ebb" d="M531,-297C531,-297 475,-297 475,-297 469,-297 463,-291 463,-285 463,-285 463,-273 463,-273 463,-267 469,-261 475,-261 475,-261 531,-261 531,-261 537,-261 543,-267 543,-273 543,-273 543,-285 543,-285 543,-291 537,-297 531,-297"/>
<text text-anchor="middle" x="503" y="-275.3" font-family="Times,serif" font-size="14.00">Post Ops</text>
</g>
<!-- tiles&#45;&gt;post -->
<g id="edge6" class="edge">
<title>tiles&#45;&gt;post</title>
<path fill="none" stroke="black" d="M503,-379.93C503,-379.93 503,-307.24 503,-307.24"/>
<polygon fill="black" stroke="black" points="506.5,-307.24 503,-297.24 499.5,-307.24 506.5,-307.24"/>
</g>
<!-- codec -->
<g id="node8" class="node">
<title>codec</title>
<path fill="#eaf3ff" stroke="#2c6ebb" d="M561,-186C561,-186 445,-186 445,-186 439,-186 433,-180 433,-174 433,-174 433,-162 433,-162 433,-156 439,-150 445,-150 445,-150 561,-150 561,-150 567,-150 573,-156 573,-162 573,-162 573,-174 573,-174 573,-180 567,-186 561,-186"/>
<text text-anchor="middle" x="503" y="-164.3" font-family="Times,serif" font-size="14.00">Decoder/Encoder</text>
</g>
<!-- post&#45;&gt;codec -->
<g id="edge7" class="edge">
<title>post&#45;&gt;codec</title>
<path fill="none" stroke="black" d="M503,-260.67C503,-260.67 503,-196.36 503,-196.36"/>
<polygon fill="black" stroke="black" points="506.5,-196.36 503,-186.36 499.5,-196.36 506.5,-196.36"/>
</g>
<!-- codec&#45;&gt;spm -->
<g id="edge8" class="edge">
<title>codec&#45;&gt;spm</title>
<path fill="none" stroke="black" stroke-dasharray="5,2" d="M503,-149.79C503,-149.79 503,-64.29 503,-64.29"/>
<polygon fill="black" stroke="black" points="506.5,-64.29 503,-54.29 499.5,-64.29 506.5,-64.29"/>
<text text-anchor="middle" x="540.5" y="-101.8" font-family="Times,serif" font-size="14.00">scale/calib</text>
</g>
</g>
</svg>
