<?xml version="1.0" encoding="UTF-8" standalone="no"?>
<!DOCTYPE svg PUBLIC "-//W3C//DTD SVG 1.1//EN"
 "http://www.w3.org/Graphics/SVG/1.1/DTD/svg11.dtd">
<!-- Generated by graphviz version 2.43.0 (0)
 -->
<!-- Title: CACHE_BLOCK_DFLOW_TFV Pages: 1 -->
<svg width="535pt" height="427pt"
 viewBox="0.00 0.00 535.00 427.00" xmlns="http://www.w3.org/2000/svg" xmlns:xlink="http://www.w3.org/1999/xlink">
<g id="graph0" class="graph" transform="scale(1 1) rotate(0) translate(4 423)">
<title>CACHE_BLOCK_DFLOW_TFV</title>
<polygon fill="white" stroke="transparent" points="-4,4 -4,-423 531,-423 531,4 -4,4"/>
<text text-anchor="middle" x="263.5" y="-400.6" font-family="Helvetica,sans-Serif" font-size="18.00">TFusionVcache — Block Data Flow</text>
<!-- req -->
<g id="node1" class="node">
<title>req</title>
<path fill="#eaf3ff" stroke="#2c6ebb" d="M158,-391C158,-391 12,-391 12,-391 6,-391 0,-385 0,-379 0,-379 0,-367 0,-367 0,-361 6,-355 12,-355 12,-355 158,-355 158,-355 164,-355 170,-361 170,-367 170,-367 170,-379 170,-379 170,-385 164,-391 158,-391"/>
<text text-anchor="middle" x="85" y="-369.3" font-family="Times,serif" font-size="14.00">Requests (KV/Tensor)</text>
</g>
<!-- fe -->
<g id="node2" class="node">
<title>fe</title>
<path fill="#eaf3ff" stroke="#2c6ebb" d="M334.5,-268C334.5,-268 219.5,-268 219.5,-268 213.5,-268 207.5,-262 207.5,-256 207.5,-256 207.5,-244 207.5,-244 207.5,-238 213.5,-232 219.5,-232 219.5,-232 334.5,-232 334.5,-232 340.5,-232 346.5,-238 346.5,-244 346.5,-244 346.5,-256 346.5,-256 346.5,-262 340.5,-268 334.5,-268"/>
<text text-anchor="middle" x="277" y="-246.3" font-family="Times,serif" font-size="14.00">Classifier/Arbiter</text>
</g>
<!-- req&#45;&gt;fe -->
<g id="edge1" class="edge">
<title>req&#45;&gt;fe</title>
<path fill="none" stroke="black" d="M155.5,-354.85C155.5,-320.64 155.5,-250 155.5,-250 155.5,-250 197.38,-250 197.38,-250"/>
<polygon fill="black" stroke="black" points="197.38,-253.5 207.38,-250 197.38,-246.5 197.38,-253.5"/>
</g>
<!-- banks -->
<g id="node3" class="node">
<title>banks</title>
<path fill="#eaf3ff" stroke="#2c6ebb" d="M342.5,-145C342.5,-145 203.5,-145 203.5,-145 197.5,-145 191.5,-139 191.5,-133 191.5,-133 191.5,-121 191.5,-121 191.5,-115 197.5,-109 203.5,-109 203.5,-109 342.5,-109 342.5,-109 348.5,-109 354.5,-115 354.5,-121 354.5,-121 354.5,-133 354.5,-133 354.5,-139 348.5,-145 342.5,-145"/>
<text text-anchor="middle" x="273" y="-123.3" font-family="Times,serif" font-size="14.00">Shared Banks 64MB</text>
</g>
<!-- fe&#45;&gt;banks -->
<g id="edge2" class="edge">
<title>fe&#45;&gt;banks</title>
<path fill="none" stroke="black" d="M277,-231.85C277,-231.85 277,-155.22 277,-155.22"/>
<polygon fill="black" stroke="black" points="280.5,-155.22 277,-145.22 273.5,-155.22 280.5,-155.22"/>
</g>
<!-- spm -->
<g id="node4" class="node">
<title>spm</title>
<path fill="#eaf3ff" stroke="#2c6ebb" d="M129,-36C129,-36 99,-36 99,-36 93,-36 87,-30 87,-24 87,-24 87,-12 87,-12 87,-6 93,0 99,0 99,0 129,0 129,0 135,0 141,-6 141,-12 141,-12 141,-24 141,-24 141,-30 135,-36 129,-36"/>
<text text-anchor="middle" x="114" y="-14.3" font-family="Times,serif" font-size="14.00">SPM</text>
</g>
<!-- banks&#45;&gt;spm -->
<g id="edge3" class="edge">
<title>banks&#45;&gt;spm</title>
<path fill="none" stroke="black" d="M209.25,-108.51C209.25,-77.41 209.25,-18 209.25,-18 209.25,-18 151.04,-18 151.04,-18"/>
<polygon fill="black" stroke="black" points="151.04,-14.5 141.04,-18 151.04,-21.5 151.04,-14.5"/>
</g>
<!-- resp -->
<g id="node7" class="node">
<title>resp</title>
<path fill="#eaf3ff" stroke="#2c6ebb" d="M307,-36C307,-36 239,-36 239,-36 233,-36 227,-30 227,-24 227,-24 227,-12 227,-12 227,-6 233,0 239,0 239,0 307,0 307,0 313,0 319,-6 319,-12 319,-12 319,-24 319,-24 319,-30 313,-36 307,-36"/>
<text text-anchor="middle" x="273" y="-14.3" font-family="Times,serif" font-size="14.00">Responses</text>
</g>
<!-- banks&#45;&gt;resp -->
<g id="edge4" class="edge">
<title>banks&#45;&gt;resp</title>
<path fill="none" stroke="black" d="M273,-108.51C273,-108.51 273,-46.22 273,-46.22"/>
<polygon fill="black" stroke="black" points="276.5,-46.22 273,-36.22 269.5,-46.22 276.5,-46.22"/>
</g>
<!-- spm&#45;&gt;req -->
<g id="edge5" class="edge">
<title>spm&#45;&gt;req</title>
<path fill="none" stroke="black" stroke-dasharray="5,2" d="M114,-36.09C114,-36.09 114,-344.94 114,-344.94"/>
<polygon fill="black" stroke="black" points="110.5,-344.94 114,-354.94 117.5,-344.94 110.5,-344.94"/>
<text text-anchor="middle" x="103" y="-184.8" font-family="Times,serif" font-size="14.00">refill</text>
</g>
<!-- dram -->
<g id="node5" class="node">
<title>dram</title>
<path fill="#eaf3ff" stroke="#2c6ebb" d="M314.5,-391C314.5,-391 247.5,-391 247.5,-391 241.5,-391 235.5,-385 235.5,-379 235.5,-379 235.5,-367 235.5,-367 235.5,-361 241.5,-355 247.5,-355 247.5,-355 314.5,-355 314.5,-355 320.5,-355 326.5,-361 326.5,-367 326.5,-367 326.5,-379 326.5,-379 326.5,-385 320.5,-391 314.5,-391"/>
<text text-anchor="middle" x="281" y="-369.3" font-family="Times,serif" font-size="14.00">DDR/HBM</text>
</g>
<!-- dram&#45;&gt;fe -->
<g id="edge6" class="edge">
<title>dram&#45;&gt;fe</title>
<path fill="none" stroke="black" stroke-dasharray="5,2" d="M281,-354.85C281,-354.85 281,-278.22 281,-278.22"/>
<polygon fill="black" stroke="black" points="284.5,-278.22 281,-268.22 277.5,-278.22 284.5,-278.22"/>
<text text-anchor="middle" x="323.5" y="-307.8" font-family="Times,serif" font-size="14.00">miss service</text>
</g>
<!-- host -->
<g id="node6" class="node">
<title>host</title>
<path fill="#eaf3ff" stroke="#2c6ebb" d="M471,-391C471,-391 405,-391 405,-391 399,-391 393,-385 393,-379 393,-379 393,-367 393,-367 393,-361 399,-355 405,-355 405,-355 471,-355 471,-355 477,-355 483,-361 483,-367 483,-367 483,-379 483,-379 483,-385 477,-391 471,-391"/>
<text text-anchor="middle" x="438" y="-369.3" font-family="Times,serif" font-size="14.00">Host DMA</text>
</g>
<!-- host&#45;&gt;fe -->
<g id="edge7" class="edge">
<title>host&#45;&gt;fe</title>
<path fill="none" stroke="black" stroke-dasharray="5,2" d="M392.89,-373C365.78,-373 336.5,-373 336.5,-373 336.5,-373 336.5,-278.15 336.5,-278.15"/>
<polygon fill="black" stroke="black" points="340,-278.15 336.5,-268.15 333,-278.15 340,-278.15"/>
<text text-anchor="middle" x="482.5" y="-307.8" font-family="Times,serif" font-size="14.00">miss service</text>
</g>
</g>
</svg>
