<?xml version="1.0" encoding="UTF-8" standalone="no"?>
<!DOCTYPE svg PUBLIC "-//W3C//DTD SVG 1.1//EN"
 "http://www.w3.org/Graphics/SVG/1.1/DTD/svg11.dtd">
<!-- Generated by graphviz version 2.43.0 (0)
 -->
<!-- Title: CACHE_BLOCK_ALGO_TFV Pages: 1 -->
<svg width="430pt" height="938pt"
 viewBox="0.00 0.00 430.00 938.00" xmlns="http://www.w3.org/2000/svg" xmlns:xlink="http://www.w3.org/1999/xlink">
<g id="graph0" class="graph" transform="scale(1 1) rotate(0) translate(4 934)">
<title>CACHE_BLOCK_ALGO_TFV</title>
<polygon fill="white" stroke="transparent" points="-4,4 -4,-934 426,-934 426,4 -4,4"/>
<text text-anchor="middle" x="211" y="-911.6" font-family="Helvetica,sans-Serif" font-size="18.00">TFusionVcache — Block Internals (Algorithm)</text>
<!-- front -->
<g id="node1" class="node">
<title>front</title>
<path fill="#eaf3ff" stroke="#2c6ebb" d="M271.5,-902C271.5,-902 134.5,-902 134.5,-902 128.5,-902 122.5,-896 122.5,-890 122.5,-890 122.5,-878 122.5,-878 122.5,-872 128.5,-866 134.5,-866 134.5,-866 271.5,-866 271.5,-866 277.5,-866 283.5,-872 283.5,-878 283.5,-878 283.5,-890 283.5,-890 283.5,-896 277.5,-902 271.5,-902"/>
<text text-anchor="middle" x="203" y="-880.3" font-family="Times,serif" font-size="14.00">Front&#45;End Classifier</text>
</g>
<!-- kv_mshr -->
<g id="node2" class="node">
<title>kv_mshr</title>
<path fill="#eaf3ff" stroke="#2c6ebb" d="M159,-794C159,-794 105,-794 105,-794 99,-794 93,-788 93,-782 93,-782 93,-770 93,-770 93,-764 99,-758 105,-758 105,-758 159,-758 159,-758 165,-758 171,-764 171,-770 171,-770 171,-782 171,-782 171,-788 165,-794 159,-794"/>
<text text-anchor="middle" x="132" y="-772.3" font-family="Times,serif" font-size="14.00">MSHR&#45;K</text>
</g>
<!-- front&#45;&gt;kv_mshr -->
<g id="edge1" class="edge">
<title>front&#45;&gt;kv_mshr</title>
<path fill="none" stroke="black" d="M146.75,-865.68C146.75,-865.68 146.75,-804.05 146.75,-804.05"/>
<polygon fill="black" stroke="black" points="150.25,-804.05 146.75,-794.05 143.25,-804.05 150.25,-804.05"/>
</g>
<!-- t_mshr -->
<g id="node3" class="node">
<title>t_mshr</title>
<path fill="#eaf3ff" stroke="#2c6ebb" d="M301.5,-794C301.5,-794 248.5,-794 248.5,-794 242.5,-794 236.5,-788 236.5,-782 236.5,-782 236.5,-770 236.5,-770 236.5,-764 242.5,-758 248.5,-758 248.5,-758 301.5,-758 301.5,-758 307.5,-758 313.5,-764 313.5,-770 313.5,-770 313.5,-782 313.5,-782 313.5,-788 307.5,-794 301.5,-794"/>
<text text-anchor="middle" x="275" y="-772.3" font-family="Times,serif" font-size="14.00">MSHR&#45;T</text>
</g>
<!-- front&#45;&gt;t_mshr -->
<g id="edge2" class="edge">
<title>front&#45;&gt;t_mshr</title>
<path fill="none" stroke="black" d="M260,-865.68C260,-865.68 260,-804.05 260,-804.05"/>
<polygon fill="black" stroke="black" points="263.5,-804.05 260,-794.05 256.5,-804.05 263.5,-804.05"/>
</g>
<!-- kv_pf -->
<g id="node4" class="node">
<title>kv_pf</title>
<path fill="#eaf3ff" stroke="#2c6ebb" d="M152.5,-686C152.5,-686 59.5,-686 59.5,-686 53.5,-686 47.5,-680 47.5,-674 47.5,-674 47.5,-662 47.5,-662 47.5,-656 53.5,-650 59.5,-650 59.5,-650 152.5,-650 152.5,-650 158.5,-650 164.5,-656 164.5,-662 164.5,-662 164.5,-674 164.5,-674 164.5,-680 158.5,-686 152.5,-686"/>
<text text-anchor="middle" x="106" y="-664.3" font-family="Times,serif" font-size="14.00">KV Prefetcher</text>
</g>
<!-- kv_mshr&#45;&gt;kv_pf -->
<g id="edge3" class="edge">
<title>kv_mshr&#45;&gt;kv_pf</title>
<path fill="none" stroke="black" d="M128.75,-757.68C128.75,-757.68 128.75,-696.05 128.75,-696.05"/>
<polygon fill="black" stroke="black" points="132.25,-696.05 128.75,-686.05 125.25,-696.05 132.25,-696.05"/>
</g>
<!-- t_pf -->
<g id="node5" class="node">
<title>t_pf</title>
<path fill="#eaf3ff" stroke="#2c6ebb" d="M362.5,-686C362.5,-686 241.5,-686 241.5,-686 235.5,-686 229.5,-680 229.5,-674 229.5,-674 229.5,-662 229.5,-662 229.5,-656 235.5,-650 241.5,-650 241.5,-650 362.5,-650 362.5,-650 368.5,-650 374.5,-656 374.5,-662 374.5,-662 374.5,-674 374.5,-674 374.5,-680 368.5,-686 362.5,-686"/>
<text text-anchor="middle" x="302" y="-664.3" font-family="Times,serif" font-size="14.00">Tensor Prefetcher</text>
</g>
<!-- kv_mshr&#45;&gt;t_pf -->
<g id="edge4" class="edge">
<title>kv_mshr&#45;&gt;t_pf</title>
<path fill="none" stroke="black" d="M171.05,-782C199.47,-782 233,-782 233,-782 233,-782 233,-696.06 233,-696.06"/>
<polygon fill="black" stroke="black" points="236.5,-696.06 233,-686.06 229.5,-696.06 236.5,-696.06"/>
</g>
<!-- t_mshr&#45;&gt;kv_pf -->
<g id="edge5" class="edge">
<title>t_mshr&#45;&gt;kv_pf</title>
<path fill="none" stroke="black" d="M236.31,-770C218.07,-770 200.25,-770 200.25,-770 200.25,-770 200.25,-668 200.25,-668 200.25,-668 174.62,-668 174.62,-668"/>
<polygon fill="black" stroke="black" points="174.62,-664.5 164.62,-668 174.62,-671.5 174.62,-664.5"/>
</g>
<!-- t_mshr&#45;&gt;t_pf -->
<g id="edge6" class="edge">
<title>t_mshr&#45;&gt;t_pf</title>
<path fill="none" stroke="black" d="M275,-757.68C275,-757.68 275,-696.05 275,-696.05"/>
<polygon fill="black" stroke="black" points="278.5,-696.05 275,-686.05 271.5,-696.05 278.5,-696.05"/>
</g>
<!-- repl -->
<g id="node6" class="node">
<title>repl</title>
<path fill="#eaf3ff" stroke="#2c6ebb" d="M339,-578C339,-578 69,-578 69,-578 63,-578 57,-572 57,-566 57,-566 57,-552 57,-552 57,-546 63,-540 69,-540 69,-540 339,-540 339,-540 345,-540 351,-546 351,-552 351,-552 351,-566 351,-566 351,-572 345,-578 339,-578"/>
<text text-anchor="middle" x="204" y="-562.8" font-family="Times,serif" font-size="14.00">Replacement Engines</text>
<text text-anchor="middle" x="204" y="-547.8" font-family="Times,serif" font-size="14.00">(KV: SRRIP+pin, Tensor: NMR/Bypass)</text>
</g>
<!-- kv_pf&#45;&gt;repl -->
<g id="edge7" class="edge">
<title>kv_pf&#45;&gt;repl</title>
<path fill="none" stroke="black" d="M110.75,-649.51C110.75,-649.51 110.75,-588.32 110.75,-588.32"/>
<polygon fill="black" stroke="black" points="114.25,-588.32 110.75,-578.32 107.25,-588.32 114.25,-588.32"/>
</g>
<!-- t_pf&#45;&gt;repl -->
<g id="edge8" class="edge">
<title>t_pf&#45;&gt;repl</title>
<path fill="none" stroke="black" d="M290.25,-649.51C290.25,-649.51 290.25,-588.32 290.25,-588.32"/>
<polygon fill="black" stroke="black" points="293.75,-588.32 290.25,-578.32 286.75,-588.32 293.75,-588.32"/>
</g>
<!-- tags -->
<g id="node7" class="node">
<title>tags</title>
<path fill="#eaf3ff" stroke="#2c6ebb" d="M264,-468C264,-468 144,-468 144,-468 138,-468 132,-462 132,-456 132,-456 132,-444 132,-444 132,-438 138,-432 144,-432 144,-432 264,-432 264,-432 270,-432 276,-438 276,-444 276,-444 276,-456 276,-456 276,-462 270,-468 264,-468"/>
<text text-anchor="middle" x="204" y="-446.3" font-family="Times,serif" font-size="14.00">Tags + Policy bits</text>
</g>
<!-- repl&#45;&gt;tags -->
<g id="edge9" class="edge">
<title>repl&#45;&gt;tags</title>
<path fill="none" stroke="black" d="M204,-539.76C204,-539.76 204,-478.32 204,-478.32"/>
<polygon fill="black" stroke="black" points="207.5,-478.32 204,-468.32 200.5,-478.32 207.5,-478.32"/>
</g>
<!-- data -->
<g id="node8" class="node">
<title>data</title>
<path fill="#eaf3ff" stroke="#2c6ebb" d="M295.5,-360C295.5,-360 112.5,-360 112.5,-360 106.5,-360 100.5,-354 100.5,-348 100.5,-348 100.5,-336 100.5,-336 100.5,-330 106.5,-324 112.5,-324 112.5,-324 295.5,-324 295.5,-324 301.5,-324 307.5,-330 307.5,-336 307.5,-336 307.5,-348 307.5,-348 307.5,-354 301.5,-360 295.5,-360"/>
<text text-anchor="middle" x="204" y="-338.3" font-family="Times,serif" font-size="14.00">Banked Data Arrays 64MB</text>
</g>
<!-- tags&#45;&gt;data -->
<g id="edge10" class="edge">
<title>tags&#45;&gt;data</title>
<path fill="none" stroke="black" d="M204,-431.68C204,-431.68 204,-370.05 204,-370.05"/>
<polygon fill="black" stroke="black" points="207.5,-370.05 204,-360.05 200.5,-370.05 207.5,-370.05"/>
</g>
<!-- comp -->
<g id="node9" class="node">
<title>comp</title>
<path fill="#eaf3ff" stroke="#2c6ebb" d="M259.5,-252C259.5,-252 148.5,-252 148.5,-252 142.5,-252 136.5,-246 136.5,-240 136.5,-240 136.5,-228 136.5,-228 136.5,-222 142.5,-216 148.5,-216 148.5,-216 259.5,-216 259.5,-216 265.5,-216 271.5,-222 271.5,-228 271.5,-228 271.5,-240 271.5,-240 271.5,-246 265.5,-252 259.5,-252"/>
<text text-anchor="middle" x="204" y="-230.3" font-family="Times,serif" font-size="14.00">UE Pack/Unpack</text>
</g>
<!-- data&#45;&gt;comp -->
<g id="edge11" class="edge">
<title>data&#45;&gt;comp</title>
<path fill="none" stroke="black" d="M204,-323.68C204,-323.68 204,-262.05 204,-262.05"/>
<polygon fill="black" stroke="black" points="207.5,-262.05 204,-252.05 200.5,-262.05 207.5,-262.05"/>
</g>
<!-- ecc -->
<g id="node10" class="node">
<title>ecc</title>
<path fill="#eaf3ff" stroke="#2c6ebb" d="M219,-144C219,-144 189,-144 189,-144 183,-144 177,-138 177,-132 177,-132 177,-120 177,-120 177,-114 183,-108 189,-108 189,-108 219,-108 219,-108 225,-108 231,-114 231,-120 231,-120 231,-132 231,-132 231,-138 225,-144 219,-144"/>
<text text-anchor="middle" x="204" y="-122.3" font-family="Times,serif" font-size="14.00">ECC</text>
</g>
<!-- comp&#45;&gt;ecc -->
<g id="edge12" class="edge">
<title>comp&#45;&gt;ecc</title>
<path fill="none" stroke="black" d="M204,-215.68C204,-215.68 204,-154.05 204,-154.05"/>
<polygon fill="black" stroke="black" points="207.5,-154.05 204,-144.05 200.5,-154.05 207.5,-154.05"/>
</g>
<!-- out -->
<g id="node11" class="node">
<title>out</title>
<path fill="#eaf3ff" stroke="#2c6ebb" d="M251.5,-36C251.5,-36 156.5,-36 156.5,-36 150.5,-36 144.5,-30 144.5,-24 144.5,-24 144.5,-12 144.5,-12 144.5,-6 150.5,0 156.5,0 156.5,0 251.5,0 251.5,0 257.5,0 263.5,-6 263.5,-12 263.5,-12 263.5,-24 263.5,-24 263.5,-30 257.5,-36 251.5,-36"/>
<text text-anchor="middle" x="204" y="-14.3" font-family="Times,serif" font-size="14.00">SPM/Req Sink</text>
</g>
<!-- ecc&#45;&gt;out -->
<g id="edge13" class="edge">
<title>ecc&#45;&gt;out</title>
<path fill="none" stroke="black" d="M204,-107.68C204,-107.68 204,-46.05 204,-46.05"/>
<polygon fill="black" stroke="black" points="207.5,-46.05 204,-36.05 200.5,-46.05 207.5,-46.05"/>
</g>
</g>
</svg>
