<?xml version="1.0" encoding="UTF-8" standalone="no"?>
<!DOCTYPE svg PUBLIC "-//W3C//DTD SVG 1.1//EN"
 "http://www.w3.org/Graphics/SVG/1.1/DTD/svg11.dtd">
<!-- Generated by graphviz version 2.43.0 (0)
 -->
<!-- Title: CACHE_CENTRIC_SYS_TFV Pages: 1 -->
<svg width="442pt" height="524pt"
 viewBox="0.00 0.00 442.00 524.00" xmlns="http://www.w3.org/2000/svg" xmlns:xlink="http://www.w3.org/1999/xlink">
<g id="graph0" class="graph" transform="scale(1 1) rotate(0) translate(4 520)">
<title>CACHE_CENTRIC_SYS_TFV</title>
<polygon fill="white" stroke="transparent" points="-4,4 -4,-520 438,-520 438,4 -4,4"/>
<text text-anchor="middle" x="217" y="-497.6" font-family="Helvetica,sans-Serif" font-size="18.00">TFusionVcache — System Connectivity &amp; Flow</text>
<!-- cache -->
<g id="node1" class="node">
<title>cache</title>
<path fill="#eaf3ff" stroke="#2c6ebb" d="M293,-379C293,-379 133,-379 133,-379 127,-379 121,-373 121,-367 121,-367 121,-353 121,-353 121,-347 127,-341 133,-341 133,-341 293,-341 293,-341 299,-341 305,-347 305,-353 305,-353 305,-367 305,-367 305,-373 299,-379 293,-379"/>
<text text-anchor="middle" x="213" y="-363.8" font-family="Times,serif" font-size="14.00">TFusionVcache 64MB</text>
<text text-anchor="middle" x="213" y="-348.8" font-family="Times,serif" font-size="14.00">(Partitioned KV/Tensor)</text>
</g>
<!-- spm -->
<g id="node4" class="node">
<title>spm</title>
<path fill="#eaf3ff" stroke="#2c6ebb" d="M161,-268C161,-268 87,-268 87,-268 81,-268 75,-262 75,-256 75,-256 75,-244 75,-244 75,-238 81,-232 87,-232 87,-232 161,-232 161,-232 167,-232 173,-238 173,-244 173,-244 173,-256 173,-256 173,-262 167,-268 161,-268"/>
<text text-anchor="middle" x="124" y="-246.3" font-family="Times,serif" font-size="14.00">SPM Banks</text>
</g>
<!-- cache&#45;&gt;spm -->
<g id="edge3" class="edge">
<title>cache&#45;&gt;spm</title>
<path fill="none" stroke="black" d="M147,-340.84C147,-340.84 147,-278.21 147,-278.21"/>
<polygon fill="black" stroke="black" points="150.5,-278.21 147,-268.21 143.5,-278.21 150.5,-278.21"/>
</g>
<!-- host -->
<g id="node2" class="node">
<title>host</title>
<path fill="#eaf3ff" stroke="#2c6ebb" d="M181,-488C181,-488 65,-488 65,-488 59,-488 53,-482 53,-476 53,-476 53,-464 53,-464 53,-458 59,-452 65,-452 65,-452 181,-452 181,-452 187,-452 193,-458 193,-464 193,-464 193,-476 193,-476 193,-482 187,-488 181,-488"/>
<text text-anchor="middle" x="123" y="-466.3" font-family="Times,serif" font-size="14.00">Host DMA/Queue</text>
</g>
<!-- host&#45;&gt;cache -->
<g id="edge1" class="edge">
<title>host&#45;&gt;cache</title>
<path fill="none" stroke="black" d="M157,-451.84C157,-451.84 157,-389.3 157,-389.3"/>
<polygon fill="black" stroke="black" points="160.5,-389.3 157,-379.3 153.5,-389.3 160.5,-389.3"/>
</g>
<!-- dram -->
<g id="node3" class="node">
<title>dram</title>
<path fill="#eaf3ff" stroke="#2c6ebb" d="M337.5,-488C337.5,-488 270.5,-488 270.5,-488 264.5,-488 258.5,-482 258.5,-476 258.5,-476 258.5,-464 258.5,-464 258.5,-458 264.5,-452 270.5,-452 270.5,-452 337.5,-452 337.5,-452 343.5,-452 349.5,-458 349.5,-464 349.5,-464 349.5,-476 349.5,-476 349.5,-482 343.5,-488 337.5,-488"/>
<text text-anchor="middle" x="304" y="-466.3" font-family="Times,serif" font-size="14.00">DDR/HBM</text>
</g>
<!-- dram&#45;&gt;cache -->
<g id="edge2" class="edge">
<title>dram&#45;&gt;cache</title>
<path fill="none" stroke="black" d="M281.75,-451.84C281.75,-451.84 281.75,-389.3 281.75,-389.3"/>
<polygon fill="black" stroke="black" points="285.25,-389.3 281.75,-379.3 278.25,-389.3 285.25,-389.3"/>
</g>
<!-- tiles -->
<g id="node5" class="node">
<title>tiles</title>
<path fill="#eaf3ff" stroke="#2c6ebb" d="M361.5,-159C361.5,-159 244.5,-159 244.5,-159 238.5,-159 232.5,-153 232.5,-147 232.5,-147 232.5,-135 232.5,-135 232.5,-129 238.5,-123 244.5,-123 244.5,-123 361.5,-123 361.5,-123 367.5,-123 373.5,-129 373.5,-135 373.5,-135 373.5,-147 373.5,-147 373.5,-153 367.5,-159 361.5,-159"/>
<text text-anchor="middle" x="303" y="-137.3" font-family="Times,serif" font-size="14.00">Tensor Core Tiles</text>
</g>
<!-- spm&#45;&gt;tiles -->
<g id="edge4" class="edge">
<title>spm&#45;&gt;tiles</title>
<path fill="none" stroke="black" d="M173.02,-250C210.82,-250 256.67,-250 256.67,-250 256.67,-250 256.67,-169.49 256.67,-169.49"/>
<polygon fill="black" stroke="black" points="260.17,-169.49 256.67,-159.49 253.17,-169.49 260.17,-169.49"/>
</g>
<!-- tiles&#45;&gt;cache -->
<g id="edge5" class="edge">
<title>tiles&#45;&gt;cache</title>
<path fill="none" stroke="black" stroke-dasharray="5,2" d="M280.83,-159.3C280.83,-159.3 280.83,-330.98 280.83,-330.98"/>
<polygon fill="black" stroke="black" points="277.33,-330.98 280.83,-340.98 284.33,-330.98 277.33,-330.98"/>
<text text-anchor="middle" x="351.5" y="-246.3" font-family="Times,serif" font-size="14.00">refetch (rare)</text>
</g>
<!-- codec -->
<g id="node6" class="node">
<title>codec</title>
<path fill="#eaf3ff" stroke="#2c6ebb" d="M240,-36C240,-36 46,-36 46,-36 40,-36 34,-30 34,-24 34,-24 34,-12 34,-12 34,-6 40,0 46,0 46,0 240,0 240,0 246,0 252,-6 252,-12 252,-12 252,-24 252,-24 252,-30 246,-36 240,-36"/>
<text text-anchor="middle" x="143" y="-14.3" font-family="Times,serif" font-size="14.00">Codec (Scale/Calib/Decoder)</text>
</g>
<!-- tiles&#45;&gt;codec -->
<g id="edge6" class="edge">
<title>tiles&#45;&gt;codec</title>
<path fill="none" stroke="black" stroke-dasharray="5,2" d="M242.25,-122.85C242.25,-122.85 242.25,-46.22 242.25,-46.22"/>
<polygon fill="black" stroke="black" points="245.75,-46.22 242.25,-36.22 238.75,-46.22 245.75,-46.22"/>
<text text-anchor="middle" x="286.5" y="-75.8" font-family="Times,serif" font-size="14.00">scale/calib</text>
</g>
<!-- codec&#45;&gt;spm -->
<g id="edge7" class="edge">
<title>codec&#45;&gt;spm</title>
<path fill="none" stroke="black" stroke-dasharray="5,2" d="M124,-36.2C124,-36.2 124,-221.88 124,-221.88"/>
<polygon fill="black" stroke="black" points="120.5,-221.88 124,-231.88 127.5,-221.88 120.5,-221.88"/>
<text text-anchor="middle" x="129.5" y="-137.3" font-family="Times,serif" font-size="14.00">scale/calib</text>
</g>
</g>
</svg>
