<?xml version="1.0" encoding="UTF-8" standalone="no"?>
<!DOCTYPE svg PUBLIC "-//W3C//DTD SVG 1.1//EN"
 "http://www.w3.org/Graphics/SVG/1.1/DTD/svg11.dtd">
<!-- Generated by graphviz version 2.43.0 (0)
 -->
<!-- Title: CACHE_ALGO_TFV Pages: 1 -->
<svg width="972pt" height="671pt"
 viewBox="0.00 0.00 972.00 671.00" xmlns="http://www.w3.org/2000/svg" xmlns:xlink="http://www.w3.org/1999/xlink">
<g id="graph0" class="graph" transform="scale(1 1) rotate(0) translate(4 667)">
<title>CACHE_ALGO_TFV</title>
<polygon fill="white" stroke="transparent" points="-4,4 -4,-667 968,-667 968,4 -4,4"/>
<text text-anchor="middle" x="482" y="-644.6" font-family="Helvetica,sans-Serif" font-size="18.00">TFusionVcache — Algorithm View</text>
<g id="clust3" class="cluster">
<title>cluster_cache</title>
<polygon fill="none" stroke="#dff7e7" points="317,-101 317,-294 956,-294 956,-101 317,-101"/>
<text text-anchor="middle" x="636.5" y="-275.6" font-family="Helvetica,sans-Serif" font-size="18.00">TFusionVcache (64MB physical)</text>
</g>
<g id="clust1" class="cluster">
<title>cluster_fe</title>
<polygon fill="none" stroke="#fff0b3" points="582,-345 582,-552 924,-552 924,-345 582,-345"/>
<text text-anchor="middle" x="753" y="-533.6" font-family="Helvetica,sans-Serif" font-size="18.00">Front&#45;End</text>
</g>
<g id="clust2" class="cluster">
<title>cluster_part</title>
<polygon fill="none" stroke="#ffdab9" points="8,-213 8,-552 309,-552 309,-213 8,-213"/>
<text text-anchor="middle" x="158.5" y="-533.6" font-family="Helvetica,sans-Serif" font-size="18.00">Dynamic Partition Controller</text>
</g>
<!-- fe -->
<g id="node1" class="node">
<title>fe</title>
<path fill="#eaf3ff" stroke="#2c6ebb" d="M904,-516C904,-516 602,-516 602,-516 596,-516 590,-510 590,-504 590,-504 590,-490 590,-490 590,-484 596,-478 602,-478 602,-478 904,-478 904,-478 910,-478 916,-484 916,-490 916,-490 916,-504 916,-504 916,-510 910,-516 904,-516"/>
<text text-anchor="middle" x="753" y="-500.8" font-family="Times,serif" font-size="14.00">Classifier / Arbiter</text>
<text text-anchor="middle" x="753" y="-485.8" font-family="Times,serif" font-size="14.00">(op&#45;type, stride/size, reuse&#45;hint, stream&#45;ID)</text>
</g>
<!-- mux -->
<g id="node2" class="node">
<title>mux</title>
<path fill="#eaf3ff" stroke="#2c6ebb" d="M827.5,-391C827.5,-391 678.5,-391 678.5,-391 672.5,-391 666.5,-385 666.5,-379 666.5,-379 666.5,-365 666.5,-365 666.5,-359 672.5,-353 678.5,-353 678.5,-353 827.5,-353 827.5,-353 833.5,-353 839.5,-359 839.5,-365 839.5,-365 839.5,-379 839.5,-379 839.5,-385 833.5,-391 827.5,-391"/>
<text text-anchor="middle" x="753" y="-375.8" font-family="Times,serif" font-size="14.00">Policy Multiplexor</text>
<text text-anchor="middle" x="753" y="-360.8" font-family="Times,serif" font-size="14.00">(KV / Tensor / Bypass)</text>
</g>
<!-- fe&#45;&gt;mux -->
<g id="edge1" class="edge">
<title>fe&#45;&gt;mux</title>
<path fill="none" stroke="black" d="M753,-477.74C753,-477.74 753,-401.07 753,-401.07"/>
<polygon fill="black" stroke="black" points="756.5,-401.07 753,-391.07 749.5,-401.07 756.5,-401.07"/>
</g>
<!-- kvp -->
<g id="node6" class="node">
<title>kvp</title>
<path fill="#eaf3ff" stroke="#2c6ebb" d="M567,-258C567,-258 337,-258 337,-258 331,-258 325,-252 325,-246 325,-246 325,-232 325,-232 325,-226 331,-220 337,-220 337,-220 567,-220 567,-220 573,-220 579,-226 579,-232 579,-232 579,-246 579,-246 579,-252 573,-258 567,-258"/>
<text text-anchor="middle" x="452" y="-242.8" font-family="Times,serif" font-size="14.00">KV&#45;policy</text>
<text text-anchor="middle" x="452" y="-227.8" font-family="Times,serif" font-size="14.00">(SRRIP+pin, small line, UE&#45;pack)</text>
</g>
<!-- mux&#45;&gt;kvp -->
<g id="edge7" class="edge">
<title>mux&#45;&gt;kvp</title>
<path fill="none" stroke="black" d="M666.34,-365C577.42,-365 452,-365 452,-365 452,-365 452,-268.14 452,-268.14"/>
<polygon fill="black" stroke="black" points="455.5,-268.14 452,-258.14 448.5,-268.14 455.5,-268.14"/>
</g>
<!-- tcp -->
<g id="node7" class="node">
<title>tcp</title>
<path fill="#eaf3ff" stroke="#2c6ebb" d="M936,-258C936,-258 656,-258 656,-258 650,-258 644,-252 644,-246 644,-246 644,-232 644,-232 644,-226 650,-220 656,-220 656,-220 936,-220 936,-220 942,-220 948,-226 948,-232 948,-232 948,-246 948,-246 948,-252 942,-258 936,-258"/>
<text text-anchor="middle" x="796" y="-242.8" font-family="Times,serif" font-size="14.00">Tensor&#45;policy</text>
<text text-anchor="middle" x="796" y="-227.8" font-family="Times,serif" font-size="14.00">(streaming+prefetch, big block, bypass)</text>
</g>
<!-- mux&#45;&gt;tcp -->
<g id="edge8" class="edge">
<title>mux&#45;&gt;tcp</title>
<path fill="none" stroke="black" d="M753,-352.94C753,-352.94 753,-268.02 753,-268.02"/>
<polygon fill="black" stroke="black" points="756.5,-268.02 753,-258.02 749.5,-268.02 756.5,-268.02"/>
</g>
<!-- tele -->
<g id="node3" class="node">
<title>tele</title>
<path fill="#eaf3ff" stroke="#2c6ebb" d="M212,-516C212,-516 28,-516 28,-516 22,-516 16,-510 16,-504 16,-504 16,-490 16,-490 16,-484 22,-478 28,-478 28,-478 212,-478 212,-478 218,-478 224,-484 224,-490 224,-490 224,-504 224,-504 224,-510 218,-516 212,-516"/>
<text text-anchor="middle" x="120" y="-500.8" font-family="Times,serif" font-size="14.00">Telemetry</text>
<text text-anchor="middle" x="120" y="-485.8" font-family="Times,serif" font-size="14.00">(Hk,Ht,MPk,MPt,BQk,BQt)</text>
</g>
<!-- ctrl -->
<g id="node4" class="node">
<title>ctrl</title>
<path fill="#eaf3ff" stroke="#2c6ebb" d="M253.5,-391C253.5,-391 62.5,-391 62.5,-391 56.5,-391 50.5,-385 50.5,-379 50.5,-379 50.5,-365 50.5,-365 50.5,-359 56.5,-353 62.5,-353 62.5,-353 253.5,-353 253.5,-353 259.5,-353 265.5,-359 265.5,-365 265.5,-365 265.5,-379 265.5,-379 265.5,-385 259.5,-391 253.5,-391"/>
<text text-anchor="middle" x="158" y="-375.8" font-family="Times,serif" font-size="14.00">Partition Logic</text>
<text text-anchor="middle" x="158" y="-360.8" font-family="Times,serif" font-size="14.00">(hysteresis, MB step=4MB)</text>
</g>
<!-- tele&#45;&gt;ctrl -->
<g id="edge2" class="edge">
<title>tele&#45;&gt;ctrl</title>
<path fill="none" stroke="black" d="M137.25,-477.74C137.25,-477.74 137.25,-401.07 137.25,-401.07"/>
<polygon fill="black" stroke="black" points="140.75,-401.07 137.25,-391.07 133.75,-401.07 140.75,-401.07"/>
<text text-anchor="middle" x="191" y="-430.8" font-family="Times,serif" font-size="14.00">apply_waymask(KV_MB,T_MB)</text>
</g>
<!-- apply -->
<g id="node5" class="node">
<title>apply</title>
<path fill="#eaf3ff" stroke="#2c6ebb" d="M97,-257C97,-257 65,-257 65,-257 59,-257 53,-251 53,-245 53,-245 53,-233 53,-233 53,-227 59,-221 65,-221 65,-221 97,-221 97,-221 103,-221 109,-227 109,-233 109,-233 109,-245 109,-245 109,-251 103,-257 97,-257"/>
<text text-anchor="middle" x="81" y="-235.3" font-family="Times,serif" font-size="14.00">apply</text>
</g>
<!-- ctrl&#45;&gt;apply -->
<g id="edge3" class="edge">
<title>ctrl&#45;&gt;apply</title>
<path fill="none" stroke="black" d="M81,-352.94C81,-352.94 81,-267.17 81,-267.17"/>
<polygon fill="black" stroke="black" points="84.5,-267.17 81,-257.17 77.5,-267.17 84.5,-267.17"/>
<text text-anchor="middle" x="191" y="-305.8" font-family="Times,serif" font-size="14.00">apply_waymask(KV_MB,T_MB)</text>
</g>
<!-- ctrl&#45;&gt;kvp -->
<g id="edge10" class="edge">
<title>ctrl&#45;&gt;kvp</title>
<path fill="none" stroke="black" d="M187.25,-352.94C187.25,-316.17 187.25,-239 187.25,-239 187.25,-239 314.67,-239 314.67,-239"/>
<polygon fill="black" stroke="black" points="314.67,-242.5 324.67,-239 314.67,-235.5 314.67,-242.5"/>
<text text-anchor="middle" x="438" y="-305.8" font-family="Times,serif" font-size="14.00">quota/waymask</text>
</g>
<!-- ctrl&#45;&gt;tcp -->
<g id="edge11" class="edge">
<title>ctrl&#45;&gt;tcp</title>
<path fill="none" stroke="black" d="M265.59,-378C411.8,-378 655.25,-378 655.25,-378 655.25,-378 655.25,-268.04 655.25,-268.04"/>
<polygon fill="black" stroke="black" points="658.75,-268.04 655.25,-258.04 651.75,-268.04 658.75,-268.04"/>
<text text-anchor="middle" x="625" y="-305.8" font-family="Times,serif" font-size="14.00">quota/waymask</text>
</g>
<!-- banks -->
<g id="node8" class="node">
<title>banks</title>
<path fill="#eaf3ff" stroke="#2c6ebb" d="M704,-147C704,-147 544,-147 544,-147 538,-147 532,-141 532,-135 532,-135 532,-121 532,-121 532,-115 538,-109 544,-109 544,-109 704,-109 704,-109 710,-109 716,-115 716,-121 716,-121 716,-135 716,-135 716,-141 710,-147 704,-147"/>
<text text-anchor="middle" x="624" y="-131.8" font-family="Times,serif" font-size="14.00">16 Banks × 4MB + Tag</text>
<text text-anchor="middle" x="624" y="-116.8" font-family="Times,serif" font-size="14.00">(16&#45;way, policy&#45;bit)</text>
</g>
<!-- kvp&#45;&gt;banks -->
<g id="edge4" class="edge">
<title>kvp&#45;&gt;banks</title>
<path fill="none" stroke="black" d="M555.5,-219.92C555.5,-219.92 555.5,-157.2 555.5,-157.2"/>
<polygon fill="black" stroke="black" points="559,-157.2 555.5,-147.2 552,-157.2 559,-157.2"/>
</g>
<!-- tcp&#45;&gt;banks -->
<g id="edge5" class="edge">
<title>tcp&#45;&gt;banks</title>
<path fill="none" stroke="black" d="M680,-219.92C680,-219.92 680,-157.2 680,-157.2"/>
<polygon fill="black" stroke="black" points="683.5,-157.2 680,-147.2 676.5,-157.2 683.5,-157.2"/>
</g>
<!-- sink -->
<g id="node10" class="node">
<title>sink</title>
<path fill="#eaf3ff" stroke="#2c6ebb" d="M658,-36C658,-36 590,-36 590,-36 584,-36 578,-30 578,-24 578,-24 578,-12 578,-12 578,-6 584,0 590,0 590,0 658,0 658,0 664,0 670,-6 670,-12 670,-12 670,-24 670,-24 670,-30 664,-36 658,-36"/>
<text text-anchor="middle" x="624" y="-14.3" font-family="Times,serif" font-size="14.00">Responses</text>
</g>
<!-- banks&#45;&gt;sink -->
<g id="edge9" class="edge">
<title>banks&#45;&gt;sink</title>
<path fill="none" stroke="black" d="M624,-108.84C624,-108.84 624,-46.21 624,-46.21"/>
<polygon fill="black" stroke="black" points="627.5,-46.21 624,-36.21 620.5,-46.21 627.5,-46.21"/>
</g>
<!-- front -->
<g id="node9" class="node">
<title>front</title>
<path fill="#eaf3ff" stroke="#2c6ebb" d="M795.5,-635C795.5,-635 710.5,-635 710.5,-635 704.5,-635 698.5,-629 698.5,-623 698.5,-623 698.5,-609 698.5,-609 698.5,-603 704.5,-597 710.5,-597 710.5,-597 795.5,-597 795.5,-597 801.5,-597 807.5,-603 807.5,-609 807.5,-609 807.5,-623 807.5,-623 807.5,-629 801.5,-635 795.5,-635"/>
<text text-anchor="middle" x="753" y="-619.8" font-family="Times,serif" font-size="14.00">Requests</text>
<text text-anchor="middle" x="753" y="-604.8" font-family="Times,serif" font-size="14.00">(KV / Tensor)</text>
</g>
<!-- front&#45;&gt;fe -->
<g id="edge6" class="edge">
<title>front&#45;&gt;fe</title>
<path fill="none" stroke="black" d="M753,-596.88C753,-596.88 753,-526.07 753,-526.07"/>
<polygon fill="black" stroke="black" points="756.5,-526.07 753,-516.07 749.5,-526.07 756.5,-526.07"/>
</g>
</g>
</svg>
