<?xml version="1.0" encoding="UTF-8" standalone="no"?>
<!DOCTYPE svg PUBLIC "-//W3C//DTD SVG 1.1//EN"
 "http://www.w3.org/Graphics/SVG/1.1/DTD/svg11.dtd">
<!-- Generated by graphviz version 13.1.2 (20250808.2320)
 -->
<!-- Title: NEURON_MEM_ARCH_V02 Pages: 1 -->
<svg width="1061pt" height="734pt"
 viewBox="0.00 0.00 1061.00 734.00" xmlns="http://www.w3.org/2000/svg" xmlns:xlink="http://www.w3.org/1999/xlink">
<g id="graph0" class="graph" transform="scale(1 1) rotate(0) translate(4 729.75)">
<title>NEURON_MEM_ARCH_V02</title>
<polygon fill="white" stroke="none" points="-4,4 -4,-729.75 1057.25,-729.75 1057.25,4 -4,4"/>
<text xml:space="preserve" text-anchor="middle" x="526.62" y="-704.65" font-family="Helvetica,sans-Serif" font-size="18.00">TFSD4(UE4T) Neuron Memory Architecture v0.2</text>
<g id="clust1" class="cluster">
<title>cluster_cell</title>
<path fill="#cce5ff" stroke="#cce5ff" d="M20,-452.75C20,-452.75 720,-452.75 720,-452.75 726,-452.75 732,-458.75 732,-464.75 732,-464.75 732,-676.75 732,-676.75 732,-682.75 726,-688.75 720,-688.75 720,-688.75 20,-688.75 20,-688.75 14,-688.75 8,-682.75 8,-676.75 8,-676.75 8,-464.75 8,-464.75 8,-458.75 14,-452.75 20,-452.75"/>
<text xml:space="preserve" text-anchor="middle" x="370" y="-671.45" font-family="Helvetica,sans-Serif" font-size="14.00" fill="#222222">Per&#45;Cell (Dynamic Latch RF)</text>
</g>
<g id="clust2" class="cluster">
<title>cluster_tile</title>
<path fill="#e6ffcc" stroke="#e6ffcc" d="M346,-8C346,-8 719,-8 719,-8 725,-8 731,-14 731,-20 731,-20 731,-359.75 731,-359.75 731,-365.75 725,-371.75 719,-371.75 719,-371.75 346,-371.75 346,-371.75 340,-371.75 334,-365.75 334,-359.75 334,-359.75 334,-20 334,-20 334,-14 340,-8 346,-8"/>
<text xml:space="preserve" text-anchor="middle" x="532.5" y="-354.45" font-family="Helvetica,sans-Serif" font-size="14.00" fill="#222222">Per&#45;Tile (GC&#45;eDRAM Array, 256 Cell 공유)</text>
</g>
<g id="clust3" class="cluster">
<title>cluster_host</title>
<path fill="#ffcccc" stroke="#ffcccc" d="M762,-451C762,-451 1021,-451 1021,-451 1027,-451 1033,-457 1033,-463 1033,-463 1033,-518.25 1033,-518.25 1033,-524.25 1027,-530.25 1021,-530.25 1021,-530.25 762,-530.25 762,-530.25 756,-530.25 750,-524.25 750,-518.25 750,-518.25 750,-463 750,-463 750,-457 756,-451 762,-451"/>
<text xml:space="preserve" text-anchor="middle" x="891.5" y="-512.95" font-family="Helvetica,sans-Serif" font-size="14.00" fill="#222222">Host / External Memory</text>
</g>
<!-- b_reg -->
<g id="node1" class="node">
<title>b_reg</title>
<path fill="#e6f2ff" stroke="black" d="M151.62,-496.75C151.62,-496.75 28.38,-496.75 28.38,-496.75 22.38,-496.75 16.38,-490.75 16.38,-484.75 16.38,-484.75 16.38,-472.75 16.38,-472.75 16.38,-466.75 22.38,-460.75 28.38,-460.75 28.38,-460.75 151.62,-460.75 151.62,-460.75 157.62,-460.75 163.62,-466.75 163.62,-472.75 163.62,-472.75 163.62,-484.75 163.62,-484.75 163.62,-490.75 157.62,-496.75 151.62,-496.75"/>
<text xml:space="preserve" text-anchor="middle" x="90" y="-473.32" font-family="Helvetica,sans-Serif" font-size="14.00">EMA base b (12–16b)</text>
</g>
<!-- gcedram -->
<g id="node6" class="node">
<title>gcedram</title>
<path fill="#f2fff2" stroke="black" d="M659.5,-340C659.5,-340 490.5,-340 490.5,-340 484.5,-340 478.5,-334 478.5,-328 478.5,-328 478.5,-296.75 478.5,-296.75 478.5,-290.75 484.5,-284.75 490.5,-284.75 490.5,-284.75 659.5,-284.75 659.5,-284.75 665.5,-284.75 671.5,-290.75 671.5,-296.75 671.5,-296.75 671.5,-328 671.5,-328 671.5,-334 665.5,-340 659.5,-340"/>
<text xml:space="preserve" text-anchor="middle" x="575" y="-322.7" font-family="Helvetica,sans-Serif" font-size="14.00">GC&#45;eDRAM Macro</text>
<text xml:space="preserve" text-anchor="middle" x="575" y="-306.95" font-family="Helvetica,sans-Serif" font-size="14.00">(Weights, Index, Token FIFO)</text>
<text xml:space="preserve" text-anchor="middle" x="575" y="-291.2" font-family="Helvetica,sans-Serif" font-size="14.00">1–8 KB</text>
</g>
<!-- b_reg&#45;&gt;gcedram -->
<g id="edge1" class="edge">
<title>b_reg&#45;&gt;gcedram</title>
<path fill="none" stroke="#333333" stroke-width="1.2" d="M164.12,-485C280.79,-485 494.12,-485 494.12,-485 494.12,-485 494.12,-350.31 494.12,-350.31"/>
<polygon fill="#333333" stroke="#333333" stroke-width="1.2" points="496.93,-350.31 494.13,-342.31 491.33,-350.31 496.93,-350.31"/>
<text xml:space="preserve" text-anchor="middle" x="173.5" y="-394.45" font-family="Times New Roman,serif" font-size="14.00">Token / State Exchange</text>
</g>
<!-- e_reg -->
<g id="node2" class="node">
<title>e_reg</title>
<path fill="#e6f2ff" stroke="black" d="M269.62,-655.25C269.62,-655.25 188.38,-655.25 188.38,-655.25 182.38,-655.25 176.38,-649.25 176.38,-643.25 176.38,-643.25 176.38,-631.25 176.38,-631.25 176.38,-625.25 182.38,-619.25 188.38,-619.25 188.38,-619.25 269.62,-619.25 269.62,-619.25 275.62,-619.25 281.62,-625.25 281.62,-631.25 281.62,-631.25 281.62,-643.25 281.62,-643.25 281.62,-649.25 275.62,-655.25 269.62,-655.25"/>
<text xml:space="preserve" text-anchor="middle" x="229" y="-631.83" font-family="Helvetica,sans-Serif" font-size="14.00">Scale E (5–6b)</text>
</g>
<!-- e_reg&#45;&gt;gcedram -->
<g id="edge2" class="edge">
<title>e_reg&#45;&gt;gcedram</title>
<path fill="none" stroke="#333333" stroke-width="1.2" stroke-dasharray="5,2" d="M229,-618.83C229,-550.03 229,-312 229,-312 229,-312 468.34,-312 468.34,-312"/>
<polygon fill="#333333" stroke="#333333" stroke-width="1.2" points="468.34,-314.8 476.34,-312 468.34,-309.2 468.34,-314.8"/>
<text xml:space="preserve" text-anchor="middle" x="327" y="-473.7" font-family="Times New Roman,serif" font-size="14.00">Scaling info</text>
</g>
<!-- r_reg -->
<g id="node3" class="node">
<title>r_reg</title>
<path fill="#e6f2ff" stroke="black" d="M513.38,-655.25C513.38,-655.25 358.62,-655.25 358.62,-655.25 352.62,-655.25 346.62,-649.25 346.62,-643.25 346.62,-643.25 346.62,-631.25 346.62,-631.25 346.62,-625.25 352.62,-619.25 358.62,-619.25 358.62,-619.25 513.38,-619.25 513.38,-619.25 519.38,-619.25 525.38,-625.25 525.38,-631.25 525.38,-631.25 525.38,-643.25 525.38,-643.25 525.38,-649.25 519.38,-655.25 513.38,-655.25"/>
<text xml:space="preserve" text-anchor="middle" x="436" y="-631.83" font-family="Helvetica,sans-Serif" font-size="14.00">ΣΔ Accumulator r (16–24b)</text>
</g>
<!-- r_reg&#45;&gt;gcedram -->
<g id="edge3" class="edge">
<title>r_reg&#45;&gt;gcedram</title>
<path fill="none" stroke="#333333" stroke-width="1.2" stroke-dasharray="5,2" d="M509.75,-618.85C509.75,-618.85 509.75,-350.11 509.75,-350.11"/>
<polygon fill="#333333" stroke="#333333" stroke-width="1.2" points="512.55,-350.11 509.75,-342.11 506.95,-350.11 512.55,-350.11"/>
<text xml:space="preserve" text-anchor="middle" x="526" y="-473.7" font-family="Times New Roman,serif" font-size="14.00">Pulse / Event</text>
</g>
<!-- flags -->
<g id="node4" class="node">
<title>flags</title>
<path fill="#e6f2ff" stroke="black" d="M99.75,-655.25C99.75,-655.25 28.25,-655.25 28.25,-655.25 22.25,-655.25 16.25,-649.25 16.25,-643.25 16.25,-643.25 16.25,-631.25 16.25,-631.25 16.25,-625.25 22.25,-619.25 28.25,-619.25 28.25,-619.25 99.75,-619.25 99.75,-619.25 105.75,-619.25 111.75,-625.25 111.75,-631.25 111.75,-631.25 111.75,-643.25 111.75,-643.25 111.75,-649.25 105.75,-655.25 99.75,-655.25"/>
<text xml:space="preserve" text-anchor="middle" x="64" y="-631.83" font-family="Helvetica,sans-Serif" font-size="14.00">Flags / Timer</text>
</g>
<!-- flags&#45;&gt;b_reg -->
<g id="edge10" class="edge">
<title>flags&#45;&gt;b_reg</title>
<path fill="none" stroke="#999999" stroke-width="1.2" stroke-dasharray="5,2" d="M64.06,-618.76C64.06,-618.76 64.06,-506.94 64.06,-506.94"/>
<polygon fill="#999999" stroke="#999999" stroke-width="1.2" points="66.86,-506.94 64.06,-498.94 61.26,-506.94 66.86,-506.94"/>
<text xml:space="preserve" text-anchor="middle" x="124.62" y="-561.2" font-family="Times New Roman,serif" font-size="14.00">Token Tick</text>
<text xml:space="preserve" text-anchor="middle" x="124.62" y="-544.7" font-family="Times New Roman,serif" font-size="14.00">(Self&#45;Refresh)</text>
</g>
<!-- tokfifo -->
<g id="node5" class="node">
<title>tokfifo</title>
<path fill="#e6f2ff" stroke="black" d="M711.88,-657C711.88,-657 602.12,-657 602.12,-657 596.12,-657 590.12,-651 590.12,-645 590.12,-645 590.12,-629.5 590.12,-629.5 590.12,-623.5 596.12,-617.5 602.12,-617.5 602.12,-617.5 711.88,-617.5 711.88,-617.5 717.88,-617.5 723.88,-623.5 723.88,-629.5 723.88,-629.5 723.88,-645 723.88,-645 723.88,-651 717.88,-657 711.88,-657"/>
<text xml:space="preserve" text-anchor="middle" x="657" y="-639.7" font-family="Helvetica,sans-Serif" font-size="14.00">Recent Token FIFO</text>
<text xml:space="preserve" text-anchor="middle" x="657" y="-623.95" font-family="Helvetica,sans-Serif" font-size="14.00">(4b × N)</text>
</g>
<!-- tokfifo&#45;&gt;gcedram -->
<g id="edge4" class="edge">
<title>tokfifo&#45;&gt;gcedram</title>
<path fill="none" stroke="#333333" stroke-width="1.2" d="M617.25,-617.42C617.25,-617.42 617.25,-350.23 617.25,-350.23"/>
<polygon fill="#333333" stroke="#333333" stroke-width="1.2" points="620.05,-350.23 617.25,-342.23 614.45,-350.23 620.05,-350.23"/>
</g>
<!-- sa -->
<g id="node7" class="node">
<title>sa</title>
<path fill="#fff2cc" stroke="black" d="M490.38,-197.75C490.38,-197.75 353.62,-197.75 353.62,-197.75 347.62,-197.75 341.62,-191.75 341.62,-185.75 341.62,-185.75 341.62,-170.25 341.62,-170.25 341.62,-164.25 347.62,-158.25 353.62,-158.25 353.62,-158.25 490.38,-158.25 490.38,-158.25 496.38,-158.25 502.38,-164.25 502.38,-170.25 502.38,-170.25 502.38,-185.75 502.38,-185.75 502.38,-191.75 496.38,-197.75 490.38,-197.75"/>
<text xml:space="preserve" text-anchor="middle" x="422" y="-180.45" font-family="Helvetica,sans-Serif" font-size="14.00">SenseAmp + Precharge</text>
<text xml:space="preserve" text-anchor="middle" x="422" y="-164.7" font-family="Helvetica,sans-Serif" font-size="14.00">+ ECC/Parity</text>
</g>
<!-- gcedram&#45;&gt;sa -->
<g id="edge5" class="edge">
<title>gcedram&#45;&gt;sa</title>
<path fill="none" stroke="#333333" stroke-width="1.2" d="M490.44,-284.53C490.44,-284.53 490.44,-207.77 490.44,-207.77"/>
<polygon fill="#333333" stroke="#333333" stroke-width="1.2" points="493.24,-207.77 490.44,-199.77 487.64,-207.77 493.24,-207.77"/>
</g>
<!-- rfsm -->
<g id="node8" class="node">
<title>rfsm</title>
<path fill="#ffd9b3" stroke="black" d="M634.75,-71.25C634.75,-71.25 521.25,-71.25 521.25,-71.25 515.25,-71.25 509.25,-65.25 509.25,-59.25 509.25,-59.25 509.25,-28 509.25,-28 509.25,-22 515.25,-16 521.25,-16 521.25,-16 634.75,-16 634.75,-16 640.75,-16 646.75,-22 646.75,-28 646.75,-28 646.75,-59.25 646.75,-59.25 646.75,-65.25 640.75,-71.25 634.75,-71.25"/>
<text xml:space="preserve" text-anchor="middle" x="578" y="-53.95" font-family="Helvetica,sans-Serif" font-size="14.00">Refresh FSM</text>
<text xml:space="preserve" text-anchor="middle" x="578" y="-38.2" font-family="Helvetica,sans-Serif" font-size="14.00">(온도/전압 aware,</text>
<text xml:space="preserve" text-anchor="middle" x="578" y="-22.45" font-family="Helvetica,sans-Serif" font-size="14.00">Row&#45;wise refresh)</text>
</g>
<!-- sa&#45;&gt;rfsm -->
<g id="edge6" class="edge">
<title>sa&#45;&gt;rfsm</title>
<path fill="none" stroke="#333333" stroke-width="1.2" d="M502.87,-178C530.73,-178 555.08,-178 555.08,-178 555.08,-178 555.08,-81.28 555.08,-81.28"/>
<polygon fill="#333333" stroke="#333333" stroke-width="1.2" points="557.88,-81.28 555.08,-73.28 552.28,-81.28 557.88,-81.28"/>
</g>
<!-- rfsm&#45;&gt;gcedram -->
<g id="edge7" class="edge">
<title>rfsm&#45;&gt;gcedram</title>
<path fill="none" stroke="#333333" stroke-width="1.2" stroke-dasharray="5,2" d="M600.92,-71.63C600.92,-71.63 600.92,-274.62 600.92,-274.62"/>
<polygon fill="#333333" stroke="#333333" stroke-width="1.2" points="598.12,-274.62 600.92,-282.62 603.72,-274.62 598.12,-274.62"/>
<text xml:space="preserve" text-anchor="middle" x="677.38" y="-172.95" font-family="Times New Roman,serif" font-size="14.00">Periodic Refresh</text>
</g>
<!-- hostcpu -->
<g id="node9" class="node">
<title>hostcpu</title>
<path fill="lightgrey" stroke="black" d="M822,-496.75C822,-496.75 770,-496.75 770,-496.75 764,-496.75 758,-490.75 758,-484.75 758,-484.75 758,-472.75 758,-472.75 758,-466.75 764,-460.75 770,-460.75 770,-460.75 822,-460.75 822,-460.75 828,-460.75 834,-466.75 834,-472.75 834,-472.75 834,-484.75 834,-484.75 834,-490.75 828,-496.75 822,-496.75"/>
<text xml:space="preserve" text-anchor="middle" x="796" y="-473.32" font-family="Helvetica,sans-Serif" font-size="14.00">Host CPU</text>
</g>
<!-- hostcpu&#45;&gt;gcedram -->
<g id="edge8" class="edge">
<title>hostcpu&#45;&gt;gcedram</title>
<path fill="none" stroke="#333333" stroke-width="1.2" d="M747.92,-473C747.92,-473 644.38,-473 644.38,-473 644.38,-473 644.38,-350.17 644.38,-350.17"/>
<polygon fill="#333333" stroke="#333333" stroke-width="1.2" points="747.92,-475.8 755.92,-473 747.92,-470.2 747.92,-475.8"/>
<polygon fill="#333333" stroke="#333333" stroke-width="1.2" points="647.18,-350.17 644.38,-342.17 641.58,-350.17 647.18,-350.17"/>
<text xml:space="preserve" text-anchor="middle" x="819.88" y="-402.7" font-family="Times New Roman,serif" font-size="14.00">Weight Update</text>
<text xml:space="preserve" text-anchor="middle" x="819.88" y="-386.2" font-family="Times New Roman,serif" font-size="14.00">(Training)</text>
</g>
<!-- hostmem -->
<g id="node10" class="node">
<title>hostmem</title>
<path fill="lightgrey" stroke="black" d="M1013.12,-498.5C1013.12,-498.5 910.88,-498.5 910.88,-498.5 904.88,-498.5 898.88,-492.5 898.88,-486.5 898.88,-486.5 898.88,-471 898.88,-471 898.88,-465 904.88,-459 910.88,-459 910.88,-459 1013.12,-459 1013.12,-459 1019.12,-459 1025.12,-465 1025.12,-471 1025.12,-471 1025.12,-486.5 1025.12,-486.5 1025.12,-492.5 1019.12,-498.5 1013.12,-498.5"/>
<text xml:space="preserve" text-anchor="middle" x="962" y="-481.2" font-family="Helvetica,sans-Serif" font-size="14.00">External Memory</text>
<text xml:space="preserve" text-anchor="middle" x="962" y="-465.45" font-family="Helvetica,sans-Serif" font-size="14.00">(Training Weights)</text>
</g>
<!-- hostmem&#45;&gt;gcedram -->
<g id="edge9" class="edge">
<title>hostmem&#45;&gt;gcedram</title>
<path fill="none" stroke="#333333" stroke-width="1.2" stroke-dasharray="5,2" d="M962,-448.82C962,-448.82 962,-312 962,-312 962,-312 681.47,-312 681.47,-312"/>
<polygon fill="#333333" stroke="#333333" stroke-width="1.2" points="959.2,-448.82 962,-456.82 964.8,-448.82 959.2,-448.82"/>
<polygon fill="#333333" stroke="#333333" stroke-width="1.2" points="681.47,-309.2 673.47,-312 681.47,-314.8 681.47,-309.2"/>
<text xml:space="preserve" text-anchor="middle" x="999.62" y="-394.45" font-family="Times New Roman,serif" font-size="14.00">Load/Store Weights</text>
</g>
</g>
</svg>
