<?xml version="1.0" encoding="UTF-8" standalone="no"?>
<!DOCTYPE svg PUBLIC "-//W3C//DTD SVG 1.1//EN"
 "http://www.w3.org/Graphics/SVG/1.1/DTD/svg11.dtd">
<!-- Generated by graphviz version 13.1.2 (20250808.2320)
 -->
<!-- Title: NMC_QOS Pages: 1 -->
<svg width="221pt" height="374pt"
 viewBox="0.00 0.00 221.00 374.00" xmlns="http://www.w3.org/2000/svg" xmlns:xlink="http://www.w3.org/1999/xlink">
<g id="graph0" class="graph" transform="scale(1 1) rotate(0) translate(4 370)">
<title>NMC_QOS</title>
<polygon fill="white" stroke="none" points="-4,4 -4,-370 216.5,-370 216.5,4 -4,4"/>
<text xml:space="preserve" text-anchor="middle" x="106.25" y="-348.7" font-family="Times New Roman,serif" font-size="14.00">UE4T Token → QoS Mapping v0.1</text>
<!-- minmax -->
<g id="node1" class="node">
<title>minmax</title>
<path fill="#ff9999" stroke="black" d="M152.5,-341.5C152.5,-341.5 60,-341.5 60,-341.5 54,-341.5 48,-335.5 48,-329.5 48,-329.5 48,-314 48,-314 48,-308 54,-302 60,-302 60,-302 152.5,-302 152.5,-302 158.5,-302 164.5,-308 164.5,-314 164.5,-314 164.5,-329.5 164.5,-329.5 164.5,-335.5 158.5,-341.5 152.5,-341.5"/>
<text xml:space="preserve" text-anchor="middle" x="106.25" y="-324.2" font-family="Helvetica,sans-Serif" font-size="14.00">MIN/MAX</text>
<text xml:space="preserve" text-anchor="middle" x="106.25" y="-308.45" font-family="Helvetica,sans-Serif" font-size="14.00">(Highest Priority)</text>
</g>
<!-- scale -->
<g id="node2" class="node">
<title>scale</title>
<path fill="#ffd966" stroke="black" d="M143.5,-266C143.5,-266 69,-266 69,-266 63,-266 57,-260 57,-254 57,-254 57,-238.5 57,-238.5 57,-232.5 63,-226.5 69,-226.5 69,-226.5 143.5,-226.5 143.5,-226.5 149.5,-226.5 155.5,-232.5 155.5,-238.5 155.5,-238.5 155.5,-254 155.5,-254 155.5,-260 149.5,-266 143.5,-266"/>
<text xml:space="preserve" text-anchor="middle" x="106.25" y="-248.7" font-family="Helvetica,sans-Serif" font-size="14.00">SCALE</text>
<text xml:space="preserve" text-anchor="middle" x="106.25" y="-232.95" font-family="Helvetica,sans-Serif" font-size="14.00">(High Priority)</text>
</g>
<!-- minmax&#45;&gt;scale -->
<g id="edge1" class="edge">
<title>minmax&#45;&gt;scale</title>
<path fill="none" stroke="#333333" d="M106.25,-301.82C106.25,-293.91 106.25,-284.55 106.25,-275.83"/>
<polygon fill="#333333" stroke="#333333" points="109.05,-275.88 106.25,-267.88 103.45,-275.88 109.05,-275.88"/>
</g>
<!-- norm -->
<g id="node3" class="node">
<title>norm</title>
<path fill="#cce5ff" stroke="black" d="M154.38,-190.5C154.38,-190.5 58.12,-190.5 58.12,-190.5 52.12,-190.5 46.12,-184.5 46.12,-178.5 46.12,-178.5 46.12,-163 46.12,-163 46.12,-157 52.12,-151 58.12,-151 58.12,-151 154.38,-151 154.38,-151 160.38,-151 166.38,-157 166.38,-163 166.38,-163 166.38,-178.5 166.38,-178.5 166.38,-184.5 160.38,-190.5 154.38,-190.5"/>
<text xml:space="preserve" text-anchor="middle" x="106.25" y="-173.2" font-family="Helvetica,sans-Serif" font-size="14.00">NORM</text>
<text xml:space="preserve" text-anchor="middle" x="106.25" y="-157.45" font-family="Helvetica,sans-Serif" font-size="14.00">(Medium Priority)</text>
</g>
<!-- scale&#45;&gt;norm -->
<g id="edge2" class="edge">
<title>scale&#45;&gt;norm</title>
<path fill="none" stroke="#333333" d="M106.25,-226.32C106.25,-218.41 106.25,-209.05 106.25,-200.33"/>
<polygon fill="#333333" stroke="#333333" points="109.05,-200.38 106.25,-192.38 103.45,-200.38 109.05,-200.38"/>
</g>
<!-- sd -->
<g id="node4" class="node">
<title>sd</title>
<path fill="#e6ffcc" stroke="black" d="M142,-115C142,-115 70.5,-115 70.5,-115 64.5,-115 58.5,-109 58.5,-103 58.5,-103 58.5,-87.5 58.5,-87.5 58.5,-81.5 64.5,-75.5 70.5,-75.5 70.5,-75.5 142,-75.5 142,-75.5 148,-75.5 154,-81.5 154,-87.5 154,-87.5 154,-103 154,-103 154,-109 148,-115 142,-115"/>
<text xml:space="preserve" text-anchor="middle" x="106.25" y="-97.7" font-family="Helvetica,sans-Serif" font-size="14.00">ΣΔ</text>
<text xml:space="preserve" text-anchor="middle" x="106.25" y="-81.95" font-family="Helvetica,sans-Serif" font-size="14.00">(Low Priority)</text>
</g>
<!-- norm&#45;&gt;sd -->
<g id="edge3" class="edge">
<title>norm&#45;&gt;sd</title>
<path fill="none" stroke="#333333" d="M106.25,-150.82C106.25,-142.91 106.25,-133.55 106.25,-124.83"/>
<polygon fill="#333333" stroke="#333333" points="109.05,-124.88 106.25,-116.88 103.45,-124.88 109.05,-124.88"/>
</g>
<!-- silent -->
<g id="node5" class="node">
<title>silent</title>
<path fill="#e0e0e0" stroke="black" d="M151,-39.5C151,-39.5 61.5,-39.5 61.5,-39.5 55.5,-39.5 49.5,-33.5 49.5,-27.5 49.5,-27.5 49.5,-12 49.5,-12 49.5,-6 55.5,0 61.5,0 61.5,0 151,0 151,0 157,0 163,-6 163,-12 163,-12 163,-27.5 163,-27.5 163,-33.5 157,-39.5 151,-39.5"/>
<text xml:space="preserve" text-anchor="middle" x="106.25" y="-22.2" font-family="Helvetica,sans-Serif" font-size="14.00">SILENT</text>
<text xml:space="preserve" text-anchor="middle" x="106.25" y="-6.45" font-family="Helvetica,sans-Serif" font-size="14.00">(Lowest Priority)</text>
</g>
<!-- sd&#45;&gt;silent -->
<g id="edge4" class="edge">
<title>sd&#45;&gt;silent</title>
<path fill="none" stroke="#333333" d="M106.25,-75.32C106.25,-67.41 106.25,-58.05 106.25,-49.33"/>
<polygon fill="#333333" stroke="#333333" points="109.05,-49.38 106.25,-41.38 103.45,-49.38 109.05,-49.38"/>
</g>
</g>
</svg>
