<?xml version="1.0" encoding="UTF-8" standalone="no"?>
<!DOCTYPE svg PUBLIC "-//W3C//DTD SVG 1.1//EN"
 "http://www.w3.org/Graphics/SVG/1.1/DTD/svg11.dtd">
<!-- Generated by graphviz version 13.1.2 (20250808.2320)
 -->
<!-- Title: NMC_ARCH Pages: 1 -->
<svg width="524pt" height="407pt"
 viewBox="0.00 0.00 524.00 407.00" xmlns="http://www.w3.org/2000/svg" xmlns:xlink="http://www.w3.org/1999/xlink">
<g id="graph0" class="graph" transform="scale(1 1) rotate(0) translate(4 402.5)">
<title>NMC_ARCH</title>
<polygon fill="white" stroke="none" points="-4,4 -4,-402.5 519.5,-402.5 519.5,4 -4,4"/>
<text xml:space="preserve" text-anchor="middle" x="257.75" y="-381.2" font-family="Times New Roman,serif" font-size="14.00">TFSD4(UE4T) NeuroSoC Architecture v0.1</text>
<!-- sensor -->
<g id="node1" class="node">
<title>sensor</title>
<path fill="#ffd699" stroke="black" d="M230.88,-374C230.88,-374 70.88,-374 70.88,-374 64.88,-374 58.88,-368 58.88,-362 58.88,-362 58.88,-346.5 58.88,-346.5 58.88,-340.5 64.88,-334.5 70.88,-334.5 70.88,-334.5 230.88,-334.5 230.88,-334.5 236.88,-334.5 242.88,-340.5 242.88,-346.5 242.88,-346.5 242.88,-362 242.88,-362 242.88,-368 236.88,-374 230.88,-374"/>
<text xml:space="preserve" text-anchor="middle" x="150.88" y="-356.7" font-family="Helvetica,sans-Serif" font-size="14.00">Sensor Front&#45;End</text>
<text xml:space="preserve" text-anchor="middle" x="150.88" y="-340.95" font-family="Helvetica,sans-Serif" font-size="14.00">(1080p@30fps, Audio, IMU)</text>
</g>
<!-- enc -->
<g id="node2" class="node">
<title>enc</title>
<path fill="#cce5ff" stroke="black" d="M289.75,-297.5C289.75,-297.5 12,-297.5 12,-297.5 6,-297.5 0,-291.5 0,-285.5 0,-285.5 0,-270 0,-270 0,-264 6,-258 12,-258 12,-258 289.75,-258 289.75,-258 295.75,-258 301.75,-264 301.75,-270 301.75,-270 301.75,-285.5 301.75,-285.5 301.75,-291.5 295.75,-297.5 289.75,-297.5"/>
<text xml:space="preserve" text-anchor="middle" x="150.88" y="-280.2" font-family="Helvetica,sans-Serif" font-size="14.00">TFSD4 Encoder</text>
<text xml:space="preserve" text-anchor="middle" x="150.88" y="-264.45" font-family="Helvetica,sans-Serif" font-size="14.00">(ΣΔ, NORM_ESC, SCALE, MAX/MIN, SILENT)</text>
</g>
<!-- sensor&#45;&gt;enc -->
<g id="edge1" class="edge">
<title>sensor&#45;&gt;enc</title>
<path fill="none" stroke="#333333" d="M150.88,-334.06C150.88,-325.9 150.88,-316.2 150.88,-307.22"/>
<polygon fill="#333333" stroke="#333333" points="153.68,-307.38 150.88,-299.38 148.08,-307.38 153.68,-307.38"/>
</g>
<!-- array -->
<g id="node3" class="node">
<title>array</title>
<path fill="#e6ffcc" stroke="black" d="M355.62,-189C355.62,-189 212.12,-189 212.12,-189 206.12,-189 200.12,-183 200.12,-177 200.12,-177 200.12,-161.5 200.12,-161.5 200.12,-155.5 206.12,-149.5 212.12,-149.5 212.12,-149.5 355.62,-149.5 355.62,-149.5 361.62,-149.5 367.62,-155.5 367.62,-161.5 367.62,-161.5 367.62,-177 367.62,-177 367.62,-183 361.62,-189 355.62,-189"/>
<text xml:space="preserve" text-anchor="middle" x="283.88" y="-171.7" font-family="Helvetica,sans-Serif" font-size="14.00">Neuron Cell Array</text>
<text xml:space="preserve" text-anchor="middle" x="283.88" y="-155.95" font-family="Helvetica,sans-Serif" font-size="14.00">(256 cell/tile, 32x32 NoC)</text>
</g>
<!-- enc&#45;&gt;array -->
<g id="edge2" class="edge">
<title>enc&#45;&gt;array</title>
<path fill="none" stroke="#333333" d="M174.65,-257.71C196.36,-240.33 228.61,-214.51 252.44,-195.42"/>
<polygon fill="#333333" stroke="#333333" points="254.18,-197.62 258.67,-190.43 250.68,-193.25 254.18,-197.62"/>
</g>
<!-- adapt -->
<g id="node4" class="node">
<title>adapt</title>
<path fill="#d9ead3" stroke="black" d="M259,-112.5C259,-112.5 132.75,-112.5 132.75,-112.5 126.75,-112.5 120.75,-106.5 120.75,-100.5 120.75,-100.5 120.75,-85 120.75,-85 120.75,-79 126.75,-73 132.75,-73 132.75,-73 259,-73 259,-73 265,-73 271,-79 271,-85 271,-85 271,-100.5 271,-100.5 271,-106.5 265,-112.5 259,-112.5"/>
<text xml:space="preserve" text-anchor="middle" x="195.88" y="-95.2" font-family="Helvetica,sans-Serif" font-size="14.00">Adaptive Tile Mapping</text>
<text xml:space="preserve" text-anchor="middle" x="195.88" y="-79.45" font-family="Helvetica,sans-Serif" font-size="14.00">(ROI/Sparsity&#45;aware)</text>
</g>
<!-- array&#45;&gt;adapt -->
<g id="edge3" class="edge">
<title>array&#45;&gt;adapt</title>
<path fill="none" stroke="#333333" d="M261.21,-149.06C250.33,-139.85 237.15,-128.7 225.49,-118.82"/>
<polygon fill="#333333" stroke="#333333" points="227.53,-116.88 219.62,-113.85 223.91,-121.15 227.53,-116.88"/>
</g>
<!-- sram -->
<g id="node7" class="node">
<title>sram</title>
<path fill="#e0e0e0" stroke="black" d="M442.88,-110.75C442.88,-110.75 300.88,-110.75 300.88,-110.75 294.88,-110.75 288.88,-104.75 288.88,-98.75 288.88,-98.75 288.88,-86.75 288.88,-86.75 288.88,-80.75 294.88,-74.75 300.88,-74.75 300.88,-74.75 442.88,-74.75 442.88,-74.75 448.88,-74.75 454.88,-80.75 454.88,-86.75 454.88,-86.75 454.88,-98.75 454.88,-98.75 454.88,-104.75 448.88,-110.75 442.88,-110.75"/>
<text xml:space="preserve" text-anchor="middle" x="371.88" y="-87.33" font-family="Helvetica,sans-Serif" font-size="14.00">On&#45;chip SRAM / Storage</text>
</g>
<!-- array&#45;&gt;sram -->
<g id="edge6" class="edge">
<title>array&#45;&gt;sram</title>
<path fill="none" stroke="#333333" stroke-dasharray="5,2" d="M313.62,-143.07C323.52,-134.69 334.5,-125.39 344.23,-117.15"/>
<polygon fill="#333333" stroke="#333333" points="311.99,-140.78 307.69,-148.09 315.61,-145.05 311.99,-140.78"/>
<polygon fill="#333333" stroke="#333333" points="345.94,-119.37 350.24,-112.07 342.33,-115.1 345.94,-119.37"/>
</g>
<!-- arb -->
<g id="node5" class="node">
<title>arb</title>
<path fill="#fff2cc" stroke="black" d="M284.88,-36C284.88,-36 106.88,-36 106.88,-36 100.88,-36 94.88,-30 94.88,-24 94.88,-24 94.88,-12 94.88,-12 94.88,-6 100.88,0 106.88,0 106.88,0 284.88,0 284.88,0 290.88,0 296.88,-6 296.88,-12 296.88,-12 296.88,-24 296.88,-24 296.88,-30 290.88,-36 284.88,-36"/>
<text xml:space="preserve" text-anchor="middle" x="195.88" y="-12.57" font-family="Helvetica,sans-Serif" font-size="14.00">PBH Arbiter + Multi&#45;Stage NoC</text>
</g>
<!-- adapt&#45;&gt;arb -->
<g id="edge4" class="edge">
<title>adapt&#45;&gt;arb</title>
<path fill="none" stroke="#333333" d="M195.88,-72.64C195.88,-64.35 195.88,-54.51 195.88,-45.53"/>
<polygon fill="#333333" stroke="#333333" points="198.68,-45.76 195.88,-37.76 193.08,-45.76 198.68,-45.76"/>
</g>
<!-- host -->
<g id="node6" class="node">
<title>host</title>
<path fill="#ffcccc" stroke="black" d="M503.5,-295.75C503.5,-295.75 332.25,-295.75 332.25,-295.75 326.25,-295.75 320.25,-289.75 320.25,-283.75 320.25,-283.75 320.25,-271.75 320.25,-271.75 320.25,-265.75 326.25,-259.75 332.25,-259.75 332.25,-259.75 503.5,-259.75 503.5,-259.75 509.5,-259.75 515.5,-265.75 515.5,-271.75 515.5,-271.75 515.5,-283.75 515.5,-283.75 515.5,-289.75 509.5,-295.75 503.5,-295.75"/>
<text xml:space="preserve" text-anchor="middle" x="417.88" y="-272.32" font-family="Helvetica,sans-Serif" font-size="14.00">Host CPU + External Memory</text>
</g>
<!-- host&#45;&gt;array -->
<g id="edge5" class="edge">
<title>host&#45;&gt;array</title>
<path fill="none" stroke="#333333" stroke-dasharray="5,2" d="M388.88,-253.71C367.16,-236.44 337.47,-212.85 315.2,-195.15"/>
<polygon fill="#333333" stroke="#333333" points="386.86,-255.67 394.86,-258.46 390.34,-251.29 386.86,-255.67"/>
<polygon fill="#333333" stroke="#333333" points="317.15,-193.12 309.14,-190.33 313.66,-197.5 317.15,-193.12"/>
<text xml:space="preserve" text-anchor="middle" x="411.58" y="-226.7" font-family="Times New Roman,serif" font-size="14.00">Training</text>
<text xml:space="preserve" text-anchor="middle" x="411.58" y="-210.2" font-family="Times New Roman,serif" font-size="14.00">Weight Update</text>
</g>
</g>
</svg>
