<?xml version="1.0" encoding="UTF-8" standalone="no"?>
<!DOCTYPE svg PUBLIC "-//W3C//DTD SVG 1.1//EN"
 "http://www.w3.org/Graphics/SVG/1.1/DTD/svg11.dtd">
<!-- Generated by graphviz version 13.1.2 (20250808.2320)
 -->
<!-- Title: NMC_NOC Pages: 1 -->
<svg width="240pt" height="223pt"
 viewBox="0.00 0.00 240.00 223.00" xmlns="http://www.w3.org/2000/svg" xmlns:xlink="http://www.w3.org/1999/xlink">
<g id="graph0" class="graph" transform="scale(1 1) rotate(0) translate(4 219)">
<title>NMC_NOC</title>
<polygon fill="white" stroke="none" points="-4,4 -4,-219 236,-219 236,4 -4,4"/>
<text xml:space="preserve" text-anchor="middle" x="116" y="-197.7" font-family="Times New Roman,serif" font-size="14.00">UE4T 3&#45;Stage NoC (PBH Hybrid) v0.1</text>
<!-- stage1 -->
<g id="node1" class="node">
<title>stage1</title>
<path fill="#cce5ff" stroke="black" d="M188.88,-190.5C188.88,-190.5 43.12,-190.5 43.12,-190.5 37.12,-190.5 31.12,-184.5 31.12,-178.5 31.12,-178.5 31.12,-163 31.12,-163 31.12,-157 37.12,-151 43.12,-151 43.12,-151 188.88,-151 188.88,-151 194.88,-151 200.88,-157 200.88,-163 200.88,-163 200.88,-178.5 200.88,-178.5 200.88,-184.5 194.88,-190.5 188.88,-190.5"/>
<text xml:space="preserve" text-anchor="middle" x="116" y="-173.2" font-family="Helvetica,sans-Serif" font-size="14.00">Stage 1</text>
<text xml:space="preserve" text-anchor="middle" x="116" y="-157.45" font-family="Helvetica,sans-Serif" font-size="14.00">(Local Mesh, 256 cell/tile)</text>
</g>
<!-- stage2 -->
<g id="node2" class="node">
<title>stage2</title>
<path fill="#e6ffcc" stroke="black" d="M175,-115C175,-115 57,-115 57,-115 51,-115 45,-109 45,-103 45,-103 45,-87.5 45,-87.5 45,-81.5 51,-75.5 57,-75.5 57,-75.5 175,-75.5 175,-75.5 181,-75.5 187,-81.5 187,-87.5 187,-87.5 187,-103 187,-103 187,-109 181,-115 175,-115"/>
<text xml:space="preserve" text-anchor="middle" x="116" y="-97.7" font-family="Helvetica,sans-Serif" font-size="14.00">Stage 2</text>
<text xml:space="preserve" text-anchor="middle" x="116" y="-81.95" font-family="Helvetica,sans-Serif" font-size="14.00">(Cluster PBH Arbiter)</text>
</g>
<!-- stage1&#45;&gt;stage2 -->
<g id="edge1" class="edge">
<title>stage1&#45;&gt;stage2</title>
<path fill="none" stroke="#333333" d="M116,-150.82C116,-142.91 116,-133.55 116,-124.83"/>
<polygon fill="#333333" stroke="#333333" points="118.8,-124.88 116,-116.88 113.2,-124.88 118.8,-124.88"/>
</g>
<!-- stage3 -->
<g id="node3" class="node">
<title>stage3</title>
<path fill="#fff2cc" stroke="black" d="M192.62,-39.5C192.62,-39.5 39.38,-39.5 39.38,-39.5 33.38,-39.5 27.38,-33.5 27.38,-27.5 27.38,-27.5 27.38,-12 27.38,-12 27.38,-6 33.38,0 39.38,0 39.38,0 192.62,0 192.62,0 198.62,0 204.62,-6 204.62,-12 204.62,-12 204.62,-27.5 204.62,-27.5 204.62,-33.5 198.62,-39.5 192.62,-39.5"/>
<text xml:space="preserve" text-anchor="middle" x="116" y="-22.2" font-family="Helvetica,sans-Serif" font-size="14.00">Stage 3</text>
<text xml:space="preserve" text-anchor="middle" x="116" y="-6.45" font-family="Helvetica,sans-Serif" font-size="14.00">(Global Hybrid Mesh&#45;Tree)</text>
</g>
<!-- stage2&#45;&gt;stage3 -->
<g id="edge2" class="edge">
<title>stage2&#45;&gt;stage3</title>
<path fill="none" stroke="#333333" d="M116,-75.32C116,-67.41 116,-58.05 116,-49.33"/>
<polygon fill="#333333" stroke="#333333" points="118.8,-49.38 116,-41.38 113.2,-49.38 118.8,-49.38"/>
</g>
</g>
</svg>
