<?xml version="1.0" encoding="UTF-8" standalone="no"?>
<!DOCTYPE svg PUBLIC "-//W3C//DTD SVG 1.1//EN"
 "http://www.w3.org/Graphics/SVG/1.1/DTD/svg11.dtd">
<!-- Generated by graphviz version 13.1.2 (20250808.2320)
 -->
<!-- Title: NMC_QOS Pages: 1 -->
<svg width="269pt" height="374pt"
 viewBox="0.00 0.00 269.00 374.00" xmlns="http://www.w3.org/2000/svg" xmlns:xlink="http://www.w3.org/1999/xlink">
<g id="graph0" class="graph" transform="scale(1 1) rotate(0) translate(4 370)">
<title>NMC_QOS</title>
<polygon fill="white" stroke="none" points="-4,4 -4,-370 265.25,-370 265.25,4 -4,4"/>
<text xml:space="preserve" text-anchor="middle" x="130.62" y="-348.7" font-family="Times New Roman,serif" font-size="14.00">TFSD4(UE4T) Token → QoS Mapping v0.1</text>
<!-- minmax -->
<g id="node1" class="node">
<title>minmax</title>
<path fill="#ff9999" stroke="black" d="M176.88,-341.5C176.88,-341.5 84.38,-341.5 84.38,-341.5 78.38,-341.5 72.38,-335.5 72.38,-329.5 72.38,-329.5 72.38,-314 72.38,-314 72.38,-308 78.38,-302 84.38,-302 84.38,-302 176.88,-302 176.88,-302 182.88,-302 188.88,-308 188.88,-314 188.88,-314 188.88,-329.5 188.88,-329.5 188.88,-335.5 182.88,-341.5 176.88,-341.5"/>
<text xml:space="preserve" text-anchor="middle" x="130.62" y="-324.2" font-family="Helvetica,sans-Serif" font-size="14.00">MIN/MAX</text>
<text xml:space="preserve" text-anchor="middle" x="130.62" y="-308.45" font-family="Helvetica,sans-Serif" font-size="14.00">(Highest Priority)</text>
</g>
<!-- scale -->
<g id="node2" class="node">
<title>scale</title>
<path fill="#ffd966" stroke="black" d="M167.88,-266C167.88,-266 93.38,-266 93.38,-266 87.38,-266 81.38,-260 81.38,-254 81.38,-254 81.38,-238.5 81.38,-238.5 81.38,-232.5 87.38,-226.5 93.38,-226.5 93.38,-226.5 167.88,-226.5 167.88,-226.5 173.88,-226.5 179.88,-232.5 179.88,-238.5 179.88,-238.5 179.88,-254 179.88,-254 179.88,-260 173.88,-266 167.88,-266"/>
<text xml:space="preserve" text-anchor="middle" x="130.62" y="-248.7" font-family="Helvetica,sans-Serif" font-size="14.00">SCALE</text>
<text xml:space="preserve" text-anchor="middle" x="130.62" y="-232.95" font-family="Helvetica,sans-Serif" font-size="14.00">(High Priority)</text>
</g>
<!-- minmax&#45;&gt;scale -->
<g id="edge1" class="edge">
<title>minmax&#45;&gt;scale</title>
<path fill="none" stroke="#333333" d="M130.62,-301.82C130.62,-293.91 130.62,-284.55 130.62,-275.83"/>
<polygon fill="#333333" stroke="#333333" points="133.43,-275.88 130.63,-267.88 127.83,-275.88 133.43,-275.88"/>
</g>
<!-- norm -->
<g id="node3" class="node">
<title>norm</title>
<path fill="#cce5ff" stroke="black" d="M178.75,-190.5C178.75,-190.5 82.5,-190.5 82.5,-190.5 76.5,-190.5 70.5,-184.5 70.5,-178.5 70.5,-178.5 70.5,-163 70.5,-163 70.5,-157 76.5,-151 82.5,-151 82.5,-151 178.75,-151 178.75,-151 184.75,-151 190.75,-157 190.75,-163 190.75,-163 190.75,-178.5 190.75,-178.5 190.75,-184.5 184.75,-190.5 178.75,-190.5"/>
<text xml:space="preserve" text-anchor="middle" x="130.62" y="-173.2" font-family="Helvetica,sans-Serif" font-size="14.00">NORM</text>
<text xml:space="preserve" text-anchor="middle" x="130.62" y="-157.45" font-family="Helvetica,sans-Serif" font-size="14.00">(Medium Priority)</text>
</g>
<!-- scale&#45;&gt;norm -->
<g id="edge2" class="edge">
<title>scale&#45;&gt;norm</title>
<path fill="none" stroke="#333333" d="M130.62,-226.32C130.62,-218.41 130.62,-209.05 130.62,-200.33"/>
<polygon fill="#333333" stroke="#333333" points="133.43,-200.38 130.63,-192.38 127.83,-200.38 133.43,-200.38"/>
</g>
<!-- sd -->
<g id="node4" class="node">
<title>sd</title>
<path fill="#e6ffcc" stroke="black" d="M166.38,-115C166.38,-115 94.88,-115 94.88,-115 88.88,-115 82.88,-109 82.88,-103 82.88,-103 82.88,-87.5 82.88,-87.5 82.88,-81.5 88.88,-75.5 94.88,-75.5 94.88,-75.5 166.38,-75.5 166.38,-75.5 172.38,-75.5 178.38,-81.5 178.38,-87.5 178.38,-87.5 178.38,-103 178.38,-103 178.38,-109 172.38,-115 166.38,-115"/>
<text xml:space="preserve" text-anchor="middle" x="130.62" y="-97.7" font-family="Helvetica,sans-Serif" font-size="14.00">ΣΔ</text>
<text xml:space="preserve" text-anchor="middle" x="130.62" y="-81.95" font-family="Helvetica,sans-Serif" font-size="14.00">(Low Priority)</text>
</g>
<!-- norm&#45;&gt;sd -->
<g id="edge3" class="edge">
<title>norm&#45;&gt;sd</title>
<path fill="none" stroke="#333333" d="M130.62,-150.82C130.62,-142.91 130.62,-133.55 130.62,-124.83"/>
<polygon fill="#333333" stroke="#333333" points="133.43,-124.88 130.63,-116.88 127.83,-124.88 133.43,-124.88"/>
</g>
<!-- silent -->
<g id="node5" class="node">
<title>silent</title>
<path fill="#e0e0e0" stroke="black" d="M175.38,-39.5C175.38,-39.5 85.88,-39.5 85.88,-39.5 79.88,-39.5 73.88,-33.5 73.88,-27.5 73.88,-27.5 73.88,-12 73.88,-12 73.88,-6 79.88,0 85.88,0 85.88,0 175.38,0 175.38,0 181.38,0 187.38,-6 187.38,-12 187.38,-12 187.38,-27.5 187.38,-27.5 187.38,-33.5 181.38,-39.5 175.38,-39.5"/>
<text xml:space="preserve" text-anchor="middle" x="130.62" y="-22.2" font-family="Helvetica,sans-Serif" font-size="14.00">SILENT</text>
<text xml:space="preserve" text-anchor="middle" x="130.62" y="-6.45" font-family="Helvetica,sans-Serif" font-size="14.00">(Lowest Priority)</text>
</g>
<!-- sd&#45;&gt;silent -->
<g id="edge4" class="edge">
<title>sd&#45;&gt;silent</title>
<path fill="none" stroke="#333333" d="M130.62,-75.32C130.62,-67.41 130.62,-58.05 130.62,-49.33"/>
<polygon fill="#333333" stroke="#333333" points="133.43,-49.38 130.63,-41.38 127.83,-49.38 133.43,-49.38"/>
</g>
</g>
</svg>
