<?xml version="1.0" encoding="UTF-8" standalone="no"?>
<!DOCTYPE svg PUBLIC "-//W3C//DTD SVG 1.1//EN"
 "http://www.w3.org/Graphics/SVG/1.1/DTD/svg11.dtd">
<!-- Generated by graphviz version 13.1.2 (20250808.2320)
 -->
<!-- Title: NMC_TRAIN Pages: 1 -->
<svg width="239pt" height="512pt"
 viewBox="0.00 0.00 239.00 512.00" xmlns="http://www.w3.org/2000/svg" xmlns:xlink="http://www.w3.org/1999/xlink">
<g id="graph0" class="graph" transform="scale(1 1) rotate(0) translate(4 507.5)">
<title>NMC_TRAIN</title>
<polygon fill="white" stroke="none" points="-4,4 -4,-507.5 234.87,-507.5 234.87,4 -4,4"/>
<text xml:space="preserve" text-anchor="middle" x="115.44" y="-486.2" font-family="Times New Roman,serif" font-size="14.00">UE4T Training Flow v0.1</text>
<!-- sensor -->
<g id="node1" class="node">
<title>sensor</title>
<path fill="#ffd699" stroke="black" d="M188.38,-479C188.38,-479 102.62,-479 102.62,-479 96.62,-479 90.62,-473 90.62,-467 90.62,-467 90.62,-451.5 90.62,-451.5 90.62,-445.5 96.62,-439.5 102.62,-439.5 102.62,-439.5 188.38,-439.5 188.38,-439.5 194.38,-439.5 200.38,-445.5 200.38,-451.5 200.38,-451.5 200.38,-467 200.38,-467 200.38,-473 194.38,-479 188.38,-479"/>
<text xml:space="preserve" text-anchor="middle" x="145.5" y="-461.7" font-family="Helvetica,sans-Serif" font-size="14.00">Sensor Input</text>
<text xml:space="preserve" text-anchor="middle" x="145.5" y="-445.95" font-family="Helvetica,sans-Serif" font-size="14.00">(Frames/Audio)</text>
</g>
<!-- enc -->
<g id="node2" class="node">
<title>enc</title>
<path fill="#cce5ff" stroke="black" d="M185.75,-402.5C185.75,-402.5 105.25,-402.5 105.25,-402.5 99.25,-402.5 93.25,-396.5 93.25,-390.5 93.25,-390.5 93.25,-378.5 93.25,-378.5 93.25,-372.5 99.25,-366.5 105.25,-366.5 105.25,-366.5 185.75,-366.5 185.75,-366.5 191.75,-366.5 197.75,-372.5 197.75,-378.5 197.75,-378.5 197.75,-390.5 197.75,-390.5 197.75,-396.5 191.75,-402.5 185.75,-402.5"/>
<text xml:space="preserve" text-anchor="middle" x="145.5" y="-379.07" font-family="Helvetica,sans-Serif" font-size="14.00">UE4T Encoder</text>
</g>
<!-- sensor&#45;&gt;enc -->
<g id="edge1" class="edge">
<title>sensor&#45;&gt;enc</title>
<path fill="none" stroke="#333333" d="M145.5,-439.14C145.5,-430.85 145.5,-421.01 145.5,-412.03"/>
<polygon fill="#333333" stroke="#333333" points="148.3,-412.26 145.5,-404.26 142.7,-412.26 148.3,-412.26"/>
</g>
<!-- forward -->
<g id="node3" class="node">
<title>forward</title>
<path fill="#e6ffcc" stroke="black" d="M194.75,-329.5C194.75,-329.5 96.25,-329.5 96.25,-329.5 90.25,-329.5 84.25,-323.5 84.25,-317.5 84.25,-317.5 84.25,-302 84.25,-302 84.25,-296 90.25,-290 96.25,-290 96.25,-290 194.75,-290 194.75,-290 200.75,-290 206.75,-296 206.75,-302 206.75,-302 206.75,-317.5 206.75,-317.5 206.75,-323.5 200.75,-329.5 194.75,-329.5"/>
<text xml:space="preserve" text-anchor="middle" x="145.5" y="-312.2" font-family="Helvetica,sans-Serif" font-size="14.00">Forward Pass</text>
<text xml:space="preserve" text-anchor="middle" x="145.5" y="-296.45" font-family="Helvetica,sans-Serif" font-size="14.00">Neuron Cell Array</text>
</g>
<!-- enc&#45;&gt;forward -->
<g id="edge2" class="edge">
<title>enc&#45;&gt;forward</title>
<path fill="none" stroke="#333333" d="M145.5,-366.26C145.5,-358.24 145.5,-348.48 145.5,-339.39"/>
<polygon fill="#333333" stroke="#333333" points="148.3,-339.43 145.5,-331.43 142.7,-339.43 148.3,-339.43"/>
</g>
<!-- adapt -->
<g id="node4" class="node">
<title>adapt</title>
<path fill="#d9ead3" stroke="black" d="M155.62,-253C155.62,-253 29.38,-253 29.38,-253 23.38,-253 17.38,-247 17.38,-241 17.38,-241 17.38,-225.5 17.38,-225.5 17.38,-219.5 23.38,-213.5 29.38,-213.5 29.38,-213.5 155.62,-213.5 155.62,-213.5 161.62,-213.5 167.62,-219.5 167.62,-225.5 167.62,-225.5 167.62,-241 167.62,-241 167.62,-247 161.62,-253 155.62,-253"/>
<text xml:space="preserve" text-anchor="middle" x="92.5" y="-235.7" font-family="Helvetica,sans-Serif" font-size="14.00">Adaptive Tile Mapping</text>
<text xml:space="preserve" text-anchor="middle" x="92.5" y="-219.95" font-family="Helvetica,sans-Serif" font-size="14.00">(ROI&#45;aware)</text>
</g>
<!-- forward&#45;&gt;adapt -->
<g id="edge3" class="edge">
<title>forward&#45;&gt;adapt</title>
<path fill="none" stroke="#333333" d="M131.85,-289.56C125.67,-280.87 118.26,-270.45 111.54,-261.01"/>
<polygon fill="#333333" stroke="#333333" points="113.9,-259.5 106.98,-254.6 109.34,-262.75 113.9,-259.5"/>
</g>
<!-- host -->
<g id="node5" class="node">
<title>host</title>
<path fill="#ffcccc" stroke="black" d="M157,-144.5C157,-144.5 12,-144.5 12,-144.5 6,-144.5 0,-138.5 0,-132.5 0,-132.5 0,-120.5 0,-120.5 0,-114.5 6,-108.5 12,-108.5 12,-108.5 157,-108.5 157,-108.5 163,-108.5 169,-114.5 169,-120.5 169,-120.5 169,-132.5 169,-132.5 169,-138.5 163,-144.5 157,-144.5"/>
<text xml:space="preserve" text-anchor="middle" x="84.5" y="-121.08" font-family="Helvetica,sans-Serif" font-size="14.00">Host CPU + Ext. Memory</text>
</g>
<!-- adapt&#45;&gt;host -->
<g id="edge4" class="edge">
<title>adapt&#45;&gt;host</title>
<path fill="none" stroke="#333333" stroke-dasharray="5,2" d="M91.03,-213.04C89.77,-196.52 87.94,-172.52 86.53,-154.14"/>
<polygon fill="#333333" stroke="#333333" points="89.34,-154.13 85.94,-146.36 83.76,-154.55 89.34,-154.13"/>
<text xml:space="preserve" text-anchor="middle" x="112.18" y="-182.2" font-family="Times New Roman,serif" font-size="14.00">Iterative</text>
<text xml:space="preserve" text-anchor="middle" x="112.18" y="-165.7" font-family="Times New Roman,serif" font-size="14.00">Update</text>
</g>
<!-- backprop -->
<g id="node6" class="node">
<title>backprop</title>
<path fill="#ffb366" stroke="black" d="M188.12,-39.5C188.12,-39.5 94.88,-39.5 94.88,-39.5 88.88,-39.5 82.88,-33.5 82.88,-27.5 82.88,-27.5 82.88,-12 82.88,-12 82.88,-6 88.88,0 94.88,0 94.88,0 188.12,0 188.12,0 194.12,0 200.12,-6 200.12,-12 200.12,-12 200.12,-27.5 200.12,-27.5 200.12,-33.5 194.12,-39.5 188.12,-39.5"/>
<text xml:space="preserve" text-anchor="middle" x="141.5" y="-22.2" font-family="Helvetica,sans-Serif" font-size="14.00">Backpropagation</text>
<text xml:space="preserve" text-anchor="middle" x="141.5" y="-6.45" font-family="Helvetica,sans-Serif" font-size="14.00">Weight Update</text>
</g>
<!-- host&#45;&gt;backprop -->
<g id="edge5" class="edge">
<title>host&#45;&gt;backprop</title>
<path fill="none" stroke="#333333" stroke-dasharray="5,2" d="M93.91,-108.2C102.8,-91.88 116.26,-67.13 126.6,-48.13"/>
<polygon fill="#333333" stroke="#333333" points="129.02,-49.54 130.38,-41.18 124.1,-46.87 129.02,-49.54"/>
<text xml:space="preserve" text-anchor="middle" x="143.94" y="-77.2" font-family="Times New Roman,serif" font-size="14.00">Iterative</text>
<text xml:space="preserve" text-anchor="middle" x="143.94" y="-60.7" font-family="Times New Roman,serif" font-size="14.00">Update</text>
</g>
<!-- backprop&#45;&gt;forward -->
<g id="edge6" class="edge">
<title>backprop&#45;&gt;forward</title>
<path fill="none" stroke="#333333" stroke-dasharray="5,2" d="M159.48,-39.75C163.71,-45.14 167.77,-51.24 170.5,-57.5 179.68,-78.53 176.72,-85.63 178.5,-108.5 183.49,-172.53 193.2,-190.98 176.5,-253 173.84,-262.89 169.06,-272.9 164.03,-281.67"/>
<polygon fill="#333333" stroke="#333333" points="161.74,-280.05 159.99,-288.35 166.53,-282.95 161.74,-280.05"/>
<text xml:space="preserve" text-anchor="middle" x="208.37" y="-182.2" font-family="Times New Roman,serif" font-size="14.00">Iterative</text>
<text xml:space="preserve" text-anchor="middle" x="208.37" y="-165.7" font-family="Times New Roman,serif" font-size="14.00">Update</text>
</g>
</g>
</svg>
