<?xml version="1.0" encoding="UTF-8" standalone="no"?>
<!DOCTYPE svg PUBLIC "-//W3C//DTD SVG 1.1//EN"
 "http://www.w3.org/Graphics/SVG/1.1/DTD/svg11.dtd">
<!-- Generated by graphviz version 13.1.2 (20250808.2320)
 -->
<!-- Title: NMC_NOC Pages: 1 -->
<svg width="289pt" height="223pt"
 viewBox="0.00 0.00 289.00 223.00" xmlns="http://www.w3.org/2000/svg" xmlns:xlink="http://www.w3.org/1999/xlink">
<g id="graph0" class="graph" transform="scale(1 1) rotate(0) translate(4 219)">
<title>NMC_NOC</title>
<polygon fill="white" stroke="none" points="-4,4 -4,-219 284.75,-219 284.75,4 -4,4"/>
<text xml:space="preserve" text-anchor="middle" x="140.38" y="-197.7" font-family="Times New Roman,serif" font-size="14.00">TFSD4(UE4T) 3&#45;Stage NoC (PBH Hybrid) v0.1</text>
<!-- stage1 -->
<g id="node1" class="node">
<title>stage1</title>
<path fill="#cce5ff" stroke="black" d="M213.25,-190.5C213.25,-190.5 67.5,-190.5 67.5,-190.5 61.5,-190.5 55.5,-184.5 55.5,-178.5 55.5,-178.5 55.5,-163 55.5,-163 55.5,-157 61.5,-151 67.5,-151 67.5,-151 213.25,-151 213.25,-151 219.25,-151 225.25,-157 225.25,-163 225.25,-163 225.25,-178.5 225.25,-178.5 225.25,-184.5 219.25,-190.5 213.25,-190.5"/>
<text xml:space="preserve" text-anchor="middle" x="140.38" y="-173.2" font-family="Helvetica,sans-Serif" font-size="14.00">Stage 1</text>
<text xml:space="preserve" text-anchor="middle" x="140.38" y="-157.45" font-family="Helvetica,sans-Serif" font-size="14.00">(Local Mesh, 256 cell/tile)</text>
</g>
<!-- stage2 -->
<g id="node2" class="node">
<title>stage2</title>
<path fill="#e6ffcc" stroke="black" d="M199.38,-115C199.38,-115 81.38,-115 81.38,-115 75.38,-115 69.38,-109 69.38,-103 69.38,-103 69.38,-87.5 69.38,-87.5 69.38,-81.5 75.38,-75.5 81.38,-75.5 81.38,-75.5 199.38,-75.5 199.38,-75.5 205.38,-75.5 211.38,-81.5 211.38,-87.5 211.38,-87.5 211.38,-103 211.38,-103 211.38,-109 205.38,-115 199.38,-115"/>
<text xml:space="preserve" text-anchor="middle" x="140.38" y="-97.7" font-family="Helvetica,sans-Serif" font-size="14.00">Stage 2</text>
<text xml:space="preserve" text-anchor="middle" x="140.38" y="-81.95" font-family="Helvetica,sans-Serif" font-size="14.00">(Cluster PBH Arbiter)</text>
</g>
<!-- stage1&#45;&gt;stage2 -->
<g id="edge1" class="edge">
<title>stage1&#45;&gt;stage2</title>
<path fill="none" stroke="#333333" d="M140.38,-150.82C140.38,-142.91 140.38,-133.55 140.38,-124.83"/>
<polygon fill="#333333" stroke="#333333" points="143.18,-124.88 140.38,-116.88 137.58,-124.88 143.18,-124.88"/>
</g>
<!-- stage3 -->
<g id="node3" class="node">
<title>stage3</title>
<path fill="#fff2cc" stroke="black" d="M217,-39.5C217,-39.5 63.75,-39.5 63.75,-39.5 57.75,-39.5 51.75,-33.5 51.75,-27.5 51.75,-27.5 51.75,-12 51.75,-12 51.75,-6 57.75,0 63.75,0 63.75,0 217,0 217,0 223,0 229,-6 229,-12 229,-12 229,-27.5 229,-27.5 229,-33.5 223,-39.5 217,-39.5"/>
<text xml:space="preserve" text-anchor="middle" x="140.38" y="-22.2" font-family="Helvetica,sans-Serif" font-size="14.00">Stage 3</text>
<text xml:space="preserve" text-anchor="middle" x="140.38" y="-6.45" font-family="Helvetica,sans-Serif" font-size="14.00">(Global Hybrid Mesh&#45;Tree)</text>
</g>
<!-- stage2&#45;&gt;stage3 -->
<g id="edge2" class="edge">
<title>stage2&#45;&gt;stage3</title>
<path fill="none" stroke="#333333" d="M140.38,-75.32C140.38,-67.41 140.38,-58.05 140.38,-49.33"/>
<polygon fill="#333333" stroke="#333333" points="143.18,-49.38 140.38,-41.38 137.58,-49.38 143.18,-49.38"/>
</g>
</g>
</svg>
