<?xml version="1.0" encoding="UTF-8" standalone="no"?>
<!DOCTYPE svg PUBLIC "-//W3C//DTD SVG 1.1//EN"
 "http://www.w3.org/Graphics/SVG/1.1/DTD/svg11.dtd">
<!-- Generated by graphviz version 13.1.2 (20250808.2320)
 -->
<!-- Title: NEURON_MEM Pages: 1 -->
<svg width="416pt" height="504pt"
 viewBox="0.00 0.00 416.00 504.00" xmlns="http://www.w3.org/2000/svg" xmlns:xlink="http://www.w3.org/1999/xlink">
<g id="graph0" class="graph" transform="scale(1 1) rotate(0) translate(4 500)">
<title>NEURON_MEM</title>
<polygon fill="white" stroke="none" points="-4,4 -4,-500 412,-500 412,4 -4,4"/>
<text xml:space="preserve" text-anchor="middle" x="204" y="-478.7" font-family="Times New Roman,serif" font-size="14.00">TFSD4(UE4T) Neuron Cell Memory Hierarchy v0.1</text>
<g id="clust1" class="cluster">
<title>cluster_cell</title>
<path fill="#cce5ff" stroke="#cce5ff" d="M216,-291.25C216,-291.25 388,-291.25 388,-291.25 394,-291.25 400,-297.25 400,-303.25 400,-303.25 400,-451.5 400,-451.5 400,-457.5 394,-463.5 388,-463.5 388,-463.5 216,-463.5 216,-463.5 210,-463.5 204,-457.5 204,-451.5 204,-451.5 204,-303.25 204,-303.25 204,-297.25 210,-291.25 216,-291.25"/>
<text xml:space="preserve" text-anchor="middle" x="302" y="-446.2" font-family="Times New Roman,serif" font-size="14.00">Neuron Cell (per&#45;cell)</text>
</g>
<g id="clust2" class="cluster">
<title>cluster_tile</title>
<path fill="#e6ffcc" stroke="#e6ffcc" d="M20,-8C20,-8 299,-8 299,-8 305,-8 311,-14 311,-20 311,-20 311,-244.75 311,-244.75 311,-250.75 305,-256.75 299,-256.75 299,-256.75 20,-256.75 20,-256.75 14,-256.75 8,-250.75 8,-244.75 8,-244.75 8,-20 8,-20 8,-14 14,-8 20,-8"/>
<text xml:space="preserve" text-anchor="middle" x="159.5" y="-239.45" font-family="Times New Roman,serif" font-size="14.00">Tile Shared (per 256 cell)</text>
</g>
<!-- local_rf -->
<g id="node1" class="node">
<title>local_rf</title>
<path fill="#e6f2ff" stroke="black" d="M341.88,-354.5C341.88,-354.5 238.12,-354.5 238.12,-354.5 232.12,-354.5 226.12,-348.5 226.12,-342.5 226.12,-342.5 226.12,-311.25 226.12,-311.25 226.12,-305.25 232.12,-299.25 238.12,-299.25 238.12,-299.25 341.88,-299.25 341.88,-299.25 347.88,-299.25 353.88,-305.25 353.88,-311.25 353.88,-311.25 353.88,-342.5 353.88,-342.5 353.88,-348.5 347.88,-354.5 341.88,-354.5"/>
<text xml:space="preserve" text-anchor="middle" x="290" y="-337.2" font-family="Helvetica,sans-Serif" font-size="14.00">Dynamic Latch RF</text>
<text xml:space="preserve" text-anchor="middle" x="290" y="-321.45" font-family="Helvetica,sans-Serif" font-size="14.00">(b, E, r, Flags)</text>
<text xml:space="preserve" text-anchor="middle" x="290" y="-305.7" font-family="Helvetica,sans-Serif" font-size="14.00">~32&#45;64b</text>
</g>
<!-- gc_edram -->
<g id="node3" class="node">
<title>gc_edram</title>
<path fill="#f2fff2" stroke="black" d="M280.5,-224.25C280.5,-224.25 111.5,-224.25 111.5,-224.25 105.5,-224.25 99.5,-218.25 99.5,-212.25 99.5,-212.25 99.5,-181 99.5,-181 99.5,-175 105.5,-169 111.5,-169 111.5,-169 280.5,-169 280.5,-169 286.5,-169 292.5,-175 292.5,-181 292.5,-181 292.5,-212.25 292.5,-212.25 292.5,-218.25 286.5,-224.25 280.5,-224.25"/>
<text xml:space="preserve" text-anchor="middle" x="196" y="-206.95" font-family="Helvetica,sans-Serif" font-size="14.00">GC&#45;eDRAM Macro</text>
<text xml:space="preserve" text-anchor="middle" x="196" y="-191.2" font-family="Helvetica,sans-Serif" font-size="14.00">(Weights, Index, Token FIFO)</text>
<text xml:space="preserve" text-anchor="middle" x="196" y="-175.45" font-family="Helvetica,sans-Serif" font-size="14.00">1&#45;8 KB</text>
</g>
<!-- local_rf&#45;&gt;gc_edram -->
<g id="edge1" class="edge">
<title>local_rf&#45;&gt;gc_edram</title>
<path fill="none" stroke="#333333" d="M275.59,-299.04C269.37,-288.12 261.75,-275.56 254,-264.75 245.9,-253.46 236.31,-241.8 227.28,-231.42"/>
<polygon fill="#333333" stroke="#333333" points="229.54,-229.75 222.15,-225.6 225.34,-233.45 229.54,-229.75"/>
<text xml:space="preserve" text-anchor="middle" x="325.55" y="-267.95" font-family="Times New Roman,serif" font-size="14.00">Token/State Exchange</text>
</g>
<!-- refresh -->
<g id="node2" class="node">
<title>refresh</title>
<polygon fill="#ffffcc" stroke="black" points="386.12,-431 211.88,-431 211.88,-391.5 392.12,-391.5 392.12,-425 386.12,-431"/>
<polyline fill="none" stroke="black" points="386.12,-431 386.12,-425"/>
<polyline fill="none" stroke="black" points="392.12,-425 386.12,-425"/>
<text xml:space="preserve" text-anchor="middle" x="302" y="-413.7" font-family="Helvetica,sans-Serif" font-size="14.00">Self&#45;Refresh via Token Tick</text>
<text xml:space="preserve" text-anchor="middle" x="302" y="-397.95" font-family="Helvetica,sans-Serif" font-size="14.00">(Pulsed re&#45;write)</text>
</g>
<!-- refresh&#45;&gt;local_rf -->
<g id="edge4" class="edge">
<title>refresh&#45;&gt;local_rf</title>
<path fill="none" stroke="#333333" stroke-dasharray="5,2" d="M299.22,-391.14C298.04,-383.09 296.64,-373.43 295.28,-364.12"/>
<polygon fill="#333333" stroke="#333333" points="298.09,-364 294.17,-356.49 292.55,-364.81 298.09,-364"/>
</g>
<!-- sa -->
<g id="node4" class="node">
<title>sa</title>
<path fill="#fff2cc" stroke="black" d="M164.38,-132C164.38,-132 27.62,-132 27.62,-132 21.62,-132 15.62,-126 15.62,-120 15.62,-120 15.62,-104.5 15.62,-104.5 15.62,-98.5 21.62,-92.5 27.62,-92.5 27.62,-92.5 164.38,-92.5 164.38,-92.5 170.38,-92.5 176.38,-98.5 176.38,-104.5 176.38,-104.5 176.38,-120 176.38,-120 176.38,-126 170.38,-132 164.38,-132"/>
<text xml:space="preserve" text-anchor="middle" x="96" y="-114.7" font-family="Helvetica,sans-Serif" font-size="14.00">SenseAmp + Precharge</text>
<text xml:space="preserve" text-anchor="middle" x="96" y="-98.95" font-family="Helvetica,sans-Serif" font-size="14.00">+ ECC/Parity</text>
</g>
<!-- gc_edram&#45;&gt;sa -->
<g id="edge2" class="edge">
<title>gc_edram&#45;&gt;sa</title>
<path fill="none" stroke="#333333" d="M163.26,-168.65C151.37,-158.86 138,-147.85 126.33,-138.23"/>
<polygon fill="#333333" stroke="#333333" points="128.43,-136.34 120.48,-133.42 124.87,-140.66 128.43,-136.34"/>
</g>
<!-- refresh_fsm -->
<g id="node5" class="node">
<title>refresh_fsm</title>
<path fill="#ffd9b3" stroke="black" d="M227,-55.5C227,-55.5 85,-55.5 85,-55.5 79,-55.5 73,-49.5 73,-43.5 73,-43.5 73,-28 73,-28 73,-22 79,-16 85,-16 85,-16 227,-16 227,-16 233,-16 239,-22 239,-28 239,-28 239,-43.5 239,-43.5 239,-49.5 233,-55.5 227,-55.5"/>
<text xml:space="preserve" text-anchor="middle" x="156" y="-38.2" font-family="Helvetica,sans-Serif" font-size="14.00">Refresh FSM</text>
<text xml:space="preserve" text-anchor="middle" x="156" y="-22.45" font-family="Helvetica,sans-Serif" font-size="14.00">(Temp&#45;aware, Row&#45;wise)</text>
</g>
<!-- sa&#45;&gt;refresh_fsm -->
<g id="edge3" class="edge">
<title>sa&#45;&gt;refresh_fsm</title>
<path fill="none" stroke="#333333" d="M111.45,-92.06C118.52,-83.29 127.01,-72.75 134.67,-63.23"/>
<polygon fill="#333333" stroke="#333333" points="136.81,-65.04 139.65,-57.05 132.45,-61.52 136.81,-65.04"/>
</g>
<!-- refresh_fsm&#45;&gt;gc_edram -->
<g id="edge5" class="edge">
<title>refresh_fsm&#45;&gt;gc_edram</title>
<path fill="none" stroke="#333333" stroke-dasharray="5,2" d="M168.21,-55.85C174.28,-66.28 181.12,-79.65 185,-92.5 191.52,-114.13 194.3,-139.33 195.43,-159.4"/>
<polygon fill="#333333" stroke="#333333" points="192.62,-159.43 195.79,-167.3 198.22,-159.18 192.62,-159.43"/>
<text xml:space="preserve" text-anchor="middle" x="238.24" y="-107.2" font-family="Times New Roman,serif" font-size="14.00">Periodic Refresh</text>
</g>
<!-- host -->
<g id="node6" class="node">
<title>host</title>
<path fill="#ffcccc" stroke="black" d="M184.38,-346.62C184.38,-346.62 41.62,-346.62 41.62,-346.62 35.62,-346.62 29.62,-340.62 29.62,-334.62 29.62,-334.62 29.62,-319.12 29.62,-319.12 29.62,-313.12 35.62,-307.12 41.62,-307.12 41.62,-307.12 184.38,-307.12 184.38,-307.12 190.38,-307.12 196.38,-313.12 196.38,-319.12 196.38,-319.12 196.38,-334.62 196.38,-334.62 196.38,-340.62 190.38,-346.62 184.38,-346.62"/>
<text xml:space="preserve" text-anchor="middle" x="113" y="-329.32" font-family="Helvetica,sans-Serif" font-size="14.00">Host CPU/Ext. Memory</text>
<text xml:space="preserve" text-anchor="middle" x="113" y="-313.57" font-family="Helvetica,sans-Serif" font-size="14.00">(Training Weight Update)</text>
</g>
<!-- host&#45;&gt;gc_edram -->
<g id="edge6" class="edge">
<title>host&#45;&gt;gc_edram</title>
<path fill="none" stroke="#333333" stroke-dasharray="5,2" d="M109.72,-297.32C109.67,-286.62 111.08,-274.66 116,-264.75 122.54,-251.57 132.98,-240 144.18,-230.35"/>
<polygon fill="#333333" stroke="#333333" points="106.92,-297.32 110.06,-305.19 112.51,-297.08 106.92,-297.32"/>
<polygon fill="#333333" stroke="#333333" points="145.63,-232.78 150.05,-225.54 142.09,-228.44 145.63,-232.78"/>
<text xml:space="preserve" text-anchor="middle" x="185" y="-267.95" font-family="Times New Roman,serif" font-size="14.00">Backprop/Weight Update</text>
</g>
</g>
</svg>
