<?xml version="1.0" encoding="UTF-8" standalone="no"?>
<!DOCTYPE svg PUBLIC "-//W3C//DTD SVG 1.1//EN"
 "http://www.w3.org/Graphics/SVG/1.1/DTD/svg11.dtd">
<!-- Generated by graphviz version 13.1.2 (20250808.2320)
 -->
<!-- Title: UE4T_RESIDUAL_FLOW_KO Pages: 1 -->
<svg width="1556pt" height="288pt"
 viewBox="0.00 0.00 1556.00 288.00" xmlns="http://www.w3.org/2000/svg" xmlns:xlink="http://www.w3.org/1999/xlink">
<g id="graph0" class="graph" transform="scale(1 1) rotate(0) translate(4 284)">
<title>UE4T_RESIDUAL_FLOW_KO</title>
<polygon fill="#ffffff" stroke="none" points="-4,4 -4,-284 1551.55,-284 1551.55,4 -4,4"/>
<g id="clust1" class="cluster">
<title>cluster_main</title>
<path fill="#eeeeee" stroke="#eeeeee" d="M20,-8C20,-8 1527.55,-8 1527.55,-8 1533.55,-8 1539.55,-14 1539.55,-20 1539.55,-20 1539.55,-260 1539.55,-260 1539.55,-266 1533.55,-272 1527.55,-272 1527.55,-272 20,-272 20,-272 14,-272 8,-266 8,-260 8,-260 8,-20 8,-20 8,-14 14,-8 20,-8"/>
<text xml:space="preserve" text-anchor="middle" x="773.78" y="-254.7" font-family="Helvetica,sans-Serif" font-size="14.00" fill="#444444">Residual Handling (NORM + ΣΔ 하이브리드)</text>
</g>
<!-- x -->
<g id="node1" class="node">
<title>x</title>
<path fill="#eaf3ff" stroke="#2c6ebb" stroke-width="1.4" d="M106.9,-132C106.9,-132 28,-132 28,-132 22,-132 16,-126 16,-120 16,-120 16,-108 16,-108 16,-102 22,-96 28,-96 28,-96 106.9,-96 106.9,-96 112.9,-96 118.9,-102 118.9,-108 118.9,-108 118.9,-120 118.9,-120 118.9,-126 112.9,-132 106.9,-132"/>
<text xml:space="preserve" text-anchor="middle" x="67.45" y="-109.72" font-family="Helvetica,sans-Serif" font-size="12.00">입력 x (샘플)</text>
</g>
<!-- diff -->
<g id="node3" class="node">
<title>diff</title>
<path fill="#eaf3ff" stroke="#2c6ebb" stroke-width="1.4" d="M281.8,-186C281.8,-186 211.9,-186 211.9,-186 205.9,-186 199.9,-180 199.9,-174 199.9,-174 199.9,-162 199.9,-162 199.9,-156 205.9,-150 211.9,-150 211.9,-150 281.8,-150 281.8,-150 287.8,-150 293.8,-156 293.8,-162 293.8,-162 293.8,-174 293.8,-174 293.8,-180 287.8,-186 281.8,-186"/>
<text xml:space="preserve" text-anchor="middle" x="246.85" y="-163.72" font-family="Helvetica,sans-Serif" font-size="12.00">차분 d = x &#45; b</text>
</g>
<!-- x&#45;&gt;diff -->
<g id="edge1" class="edge">
<title>x&#45;&gt;diff</title>
<path fill="none" stroke="#333333" stroke-width="1.3" d="M119.25,-112.5C172.15,-112.5 246.55,-112.5 246.55,-112.5 246.55,-112.5 246.55,-139.55 246.55,-139.55"/>
<polygon fill="#333333" stroke="#333333" stroke-width="1.3" points="243.75,-139.55 246.55,-147.55 249.35,-139.55 243.75,-139.55"/>
</g>
<!-- b -->
<g id="node2" class="node">
<title>b</title>
<path fill="#eaf3ff" stroke="#2c6ebb" stroke-width="1.4" d="M103.15,-226C103.15,-226 31.75,-226 31.75,-226 25.75,-226 19.75,-220 19.75,-214 19.75,-214 19.75,-202 19.75,-202 19.75,-196 25.75,-190 31.75,-190 31.75,-190 103.15,-190 103.15,-190 109.15,-190 115.15,-196 115.15,-202 115.15,-202 115.15,-214 115.15,-214 115.15,-220 109.15,-226 103.15,-226"/>
<text xml:space="preserve" text-anchor="middle" x="67.45" y="-203.72" font-family="Helvetica,sans-Serif" font-size="12.00">기준 b (EMA)</text>
</g>
<!-- b&#45;&gt;diff -->
<g id="edge2" class="edge">
<title>b&#45;&gt;diff</title>
<path fill="none" stroke="#333333" stroke-width="1.3" d="M115.45,-200.5C168.5,-200.5 246.55,-200.5 246.55,-200.5 246.55,-200.5 246.55,-196.5 246.55,-196.5"/>
<polygon fill="#333333" stroke="#333333" stroke-width="1.3" points="249.35,-196.5 246.55,-188.5 243.75,-196.5 249.35,-196.5"/>
</g>
<!-- scale -->
<g id="node4" class="node">
<title>scale</title>
<path fill="#eaf3ff" stroke="#2c6ebb" stroke-width="1.4" d="M553.95,-129C553.95,-129 467.55,-129 467.55,-129 461.55,-129 455.55,-123 455.55,-117 455.55,-117 455.55,-105 455.55,-105 455.55,-99 461.55,-93 467.55,-93 467.55,-93 553.95,-93 553.95,-93 559.95,-93 565.95,-99 565.95,-105 565.95,-105 565.95,-117 565.95,-117 565.95,-123 559.95,-129 553.95,-129"/>
<text xml:space="preserve" text-anchor="middle" x="510.75" y="-106.72" font-family="Helvetica,sans-Serif" font-size="12.00">UE 스케일 2^E</text>
</g>
<!-- diff&#45;&gt;scale -->
<g id="edge3" class="edge">
<title>diff&#45;&gt;scale</title>
<path fill="none" stroke="#333333" stroke-width="1.3" d="M294.3,-155.67C370.22,-155.67 510.55,-155.67 510.55,-155.67 510.55,-155.67 510.55,-139.65 510.55,-139.65"/>
<polygon fill="#333333" stroke="#333333" stroke-width="1.3" points="513.35,-139.65 510.55,-131.65 507.75,-139.65 513.35,-139.65"/>
<text xml:space="preserve" text-anchor="middle" x="374.68" y="-142.5" font-family="Helvetica,sans-Serif" font-size="10.00">스케일 적용</text>
</g>
<!-- racc -->
<g id="node7" class="node">
<title>racc</title>
<path fill="#eaf3ff" stroke="#2c6ebb" stroke-width="1.4" d="M1255.65,-167C1255.65,-167 1169.25,-167 1169.25,-167 1163.25,-167 1157.25,-161 1157.25,-155 1157.25,-155 1157.25,-143 1157.25,-143 1157.25,-137 1163.25,-131 1169.25,-131 1169.25,-131 1255.65,-131 1255.65,-131 1261.65,-131 1267.65,-137 1267.65,-143 1267.65,-143 1267.65,-155 1267.65,-155 1267.65,-161 1261.65,-167 1255.65,-167"/>
<text xml:space="preserve" text-anchor="middle" x="1212.45" y="-144.72" font-family="Helvetica,sans-Serif" font-size="12.00">잔차 누산기 r</text>
</g>
<!-- diff&#45;&gt;racc -->
<g id="edge6" class="edge">
<title>diff&#45;&gt;racc</title>
<path fill="none" stroke="#333333" stroke-width="1.3" d="M294.4,-161.33C294.4,-161.33 1146.86,-161.33 1146.86,-161.33"/>
<polygon fill="#333333" stroke="#333333" stroke-width="1.3" points="1146.86,-164.13 1154.86,-161.33 1146.86,-158.53 1146.86,-164.13"/>
<text xml:space="preserve" text-anchor="middle" x="745.4" y="-230.5" font-family="Helvetica,sans-Serif" font-size="10.00">d</text>
</g>
<!-- norm -->
<g id="node5" class="node">
<title>norm</title>
<path fill="#eaf3ff" stroke="#2c6ebb" stroke-width="1.4" d="M767.6,-52C767.6,-52 723.2,-52 723.2,-52 717.2,-52 711.2,-46 711.2,-40 711.2,-40 711.2,-28 711.2,-28 711.2,-22 717.2,-16 723.2,-16 723.2,-16 767.6,-16 767.6,-16 773.6,-16 779.6,-22 779.6,-28 779.6,-28 779.6,-40 779.6,-40 779.6,-46 773.6,-52 767.6,-52"/>
<text xml:space="preserve" text-anchor="middle" x="745.4" y="-29.73" font-family="Helvetica,sans-Serif" font-size="12.00">NORM (q)</text>
</g>
<!-- scale&#45;&gt;norm -->
<g id="edge4" class="edge">
<title>scale&#45;&gt;norm</title>
<path fill="none" stroke="#333333" stroke-width="1.3" d="M566.4,-105C632.39,-105 733.55,-105 733.55,-105 733.55,-105 733.55,-62.62 733.55,-62.62"/>
<polygon fill="#333333" stroke="#333333" stroke-width="1.3" points="736.35,-62.62 733.55,-54.62 730.75,-62.62 736.35,-62.62"/>
<text xml:space="preserve" text-anchor="middle" x="638.58" y="-86.5" font-family="Helvetica,sans-Serif" font-size="10.00">NORM 토큰</text>
</g>
<!-- dhat -->
<g id="node6" class="node">
<title>dhat</title>
<path fill="#eaf3ff" stroke="#2c6ebb" stroke-width="1.4" d="M1060,-90C1060,-90 990.85,-90 990.85,-90 984.85,-90 978.85,-84 978.85,-78 978.85,-78 978.85,-66 978.85,-66 978.85,-60 984.85,-54 990.85,-54 990.85,-54 1060,-54 1060,-54 1066,-54 1072,-60 1072,-66 1072,-66 1072,-78 1072,-78 1072,-84 1066,-90 1060,-90"/>
<text xml:space="preserve" text-anchor="middle" x="1025.43" y="-67.72" font-family="Helvetica,sans-Serif" font-size="12.00">d̂ = deq(q)·2^E</text>
</g>
<!-- norm&#45;&gt;dhat -->
<g id="edge5" class="edge">
<title>norm&#45;&gt;dhat</title>
<path fill="none" stroke="#333333" stroke-width="1.3" d="M756.55,-52.55C756.55,-62.2 756.55,-72 756.55,-72 756.55,-72 968.32,-72 968.32,-72"/>
<polygon fill="#333333" stroke="#333333" stroke-width="1.3" points="968.32,-74.8 976.32,-72 968.32,-69.2 968.32,-74.8"/>
<text xml:space="preserve" text-anchor="middle" x="879.23" y="-76.5" font-family="Helvetica,sans-Serif" font-size="10.00">deFP + 2^E</text>
</g>
<!-- dhat&#45;&gt;racc -->
<g id="edge7" class="edge">
<title>dhat&#45;&gt;racc</title>
<path fill="none" stroke="#333333" stroke-width="1.3" d="M1025.55,-90.49C1025.55,-110.93 1025.55,-141 1025.55,-141 1025.55,-141 1146.66,-141 1146.66,-141"/>
<polygon fill="#333333" stroke="#333333" stroke-width="1.3" points="1146.66,-143.8 1154.66,-141 1146.66,-138.2 1146.66,-143.8"/>
<text xml:space="preserve" text-anchor="middle" x="1114.63" y="-105.5" font-family="Helvetica,sans-Serif" font-size="10.00">d̂</text>
</g>
<!-- racc&#45;&gt;scale -->
<g id="edge8" class="edge">
<title>racc&#45;&gt;scale</title>
<path fill="none" stroke="#888888" stroke-width="1.3" stroke-dasharray="5,2" d="M1212.55,-130.38C1212.55,-126.21 1212.55,-123 1212.55,-123 1212.55,-123 576.37,-123 576.37,-123"/>
<polygon fill="#888888" stroke="#888888" stroke-width="1.3" points="576.37,-120.2 568.37,-123 576.37,-125.8 576.37,-120.2"/>
<text xml:space="preserve" text-anchor="middle" x="879.23" y="-163.5" font-family="Helvetica,sans-Serif" font-size="10.00">r += (d &#45; d̂)</text>
<text xml:space="preserve" text-anchor="middle" x="879.23" y="-151.5" font-family="Helvetica,sans-Serif" font-size="10.00">임계 도달 시 발화</text>
</g>
<!-- sdp -->
<g id="node8" class="node">
<title>sdp</title>
<path fill="#dff7e7" stroke="#2e8b57" stroke-width="1.4" d="M1519.55,-117C1519.55,-117 1460.15,-117 1460.15,-117 1454.15,-117 1448.15,-111 1448.15,-105 1448.15,-105 1448.15,-93 1448.15,-93 1448.15,-87 1454.15,-81 1460.15,-81 1460.15,-81 1519.55,-81 1519.55,-81 1525.55,-81 1531.55,-87 1531.55,-93 1531.55,-93 1531.55,-105 1531.55,-105 1531.55,-111 1525.55,-117 1519.55,-117"/>
<text xml:space="preserve" text-anchor="middle" x="1489.85" y="-94.72" font-family="Helvetica,sans-Serif" font-size="12.00">ΣΔ 펄스 +1</text>
</g>
<!-- racc&#45;&gt;sdp -->
<g id="edge9" class="edge">
<title>racc&#45;&gt;sdp</title>
<path fill="none" stroke="#ff9900" stroke-width="1.3" d="M1268.14,-143C1345.62,-143 1476.55,-143 1476.55,-143 1476.55,-143 1476.55,-127.63 1476.55,-127.63"/>
<polygon fill="#ff9900" stroke="#ff9900" stroke-width="1.3" points="1479.35,-127.63 1476.55,-119.63 1473.75,-127.63 1479.35,-127.63"/>
<text xml:space="preserve" text-anchor="middle" x="1357.9" y="-106.5" font-family="Helvetica,sans-Serif" font-size="10.00">|r| ≥ λ0·2^E·K &amp; T_emit</text>
</g>
<!-- sdm -->
<g id="node9" class="node">
<title>sdm</title>
<path fill="#dff7e7" stroke="#2e8b57" stroke-width="1.4" d="M1518.05,-211C1518.05,-211 1461.65,-211 1461.65,-211 1455.65,-211 1449.65,-205 1449.65,-199 1449.65,-199 1449.65,-187 1449.65,-187 1449.65,-181 1455.65,-175 1461.65,-175 1461.65,-175 1518.05,-175 1518.05,-175 1524.05,-175 1530.05,-181 1530.05,-187 1530.05,-187 1530.05,-199 1530.05,-199 1530.05,-205 1524.05,-211 1518.05,-211"/>
<text xml:space="preserve" text-anchor="middle" x="1489.85" y="-188.72" font-family="Helvetica,sans-Serif" font-size="12.00">ΣΔ 펄스 &#45;1</text>
</g>
<!-- racc&#45;&gt;sdm -->
<g id="edge10" class="edge">
<title>racc&#45;&gt;sdm</title>
<path fill="none" stroke="#ff9900" stroke-width="1.3" stroke-dasharray="5,2" d="M1268.23,-155C1352.76,-155 1503.55,-155 1503.55,-155 1503.55,-155 1503.55,-164.48 1503.55,-164.48"/>
<polygon fill="#ff9900" stroke="#ff9900" stroke-width="1.3" points="1500.75,-164.48 1503.55,-172.48 1506.35,-164.48 1500.75,-164.48"/>
<text xml:space="preserve" text-anchor="middle" x="1357.9" y="-190.5" font-family="Helvetica,sans-Serif" font-size="10.00">조건 대칭</text>
</g>
</g>
</svg>
