<?xml version="1.0" encoding="UTF-8" standalone="no"?>
<!DOCTYPE svg PUBLIC "-//W3C//DTD SVG 1.1//EN"
 "http://www.w3.org/Graphics/SVG/1.1/DTD/svg11.dtd">
<!-- Generated by graphviz version 13.1.2 (20250808.2320)
 -->
<!-- Title: TFSD8_Master Pages: 1 -->
<svg width="641pt" height="622pt"
 viewBox="0.00 0.00 641.00 622.00" xmlns="http://www.w3.org/2000/svg" xmlns:xlink="http://www.w3.org/1999/xlink">
<g id="graph0" class="graph" transform="scale(1 1) rotate(0) translate(4 618.25)">
<title>TFSD8_Master</title>
<polygon fill="white" stroke="none" points="-4,4 -4,-618.25 637.25,-618.25 637.25,4 -4,4"/>
<text xml:space="preserve" text-anchor="middle" x="316.62" y="-585.55" font-family="Times New Roman,serif" font-size="26.00">TFSD8 (Time Feedback Sigma&#45;Delta) — Master Overview</text>
<!-- Input -->
<g id="node1" class="node">
<title>Input</title>
<path fill="#e8f0fe" stroke="#555555" d="M240.12,-437.75C240.12,-437.75 170.88,-437.75 170.88,-437.75 164.88,-437.75 158.88,-431.75 158.88,-425.75 158.88,-425.75 158.88,-410.25 158.88,-410.25 158.88,-404.25 164.88,-398.25 170.88,-398.25 170.88,-398.25 240.12,-398.25 240.12,-398.25 246.12,-398.25 252.12,-404.25 252.12,-410.25 252.12,-410.25 252.12,-425.75 252.12,-425.75 252.12,-431.75 246.12,-437.75 240.12,-437.75"/>
<text xml:space="preserve" text-anchor="middle" x="205.5" y="-420.45" font-family="Arial" font-size="14.00">Input Tensor</text>
<text xml:space="preserve" text-anchor="middle" x="205.5" y="-404.7" font-family="Arial" font-size="14.00">(FP32/FP16)</text>
</g>
<!-- Front -->
<g id="node2" class="node">
<title>Front</title>
<path fill="#fff7e6" stroke="#555555" d="M336.5,-345.5C336.5,-345.5 128.5,-345.5 128.5,-345.5 122.5,-345.5 116.5,-339.5 116.5,-333.5 116.5,-333.5 116.5,-318 116.5,-318 116.5,-312 122.5,-306 128.5,-306 128.5,-306 336.5,-306 336.5,-306 342.5,-306 348.5,-312 348.5,-318 348.5,-318 348.5,-333.5 348.5,-333.5 348.5,-339.5 342.5,-345.5 336.5,-345.5"/>
<text xml:space="preserve" text-anchor="middle" x="232.5" y="-328.2" font-family="Arial" font-size="14.00">Front&#45;End:</text>
<text xml:space="preserve" text-anchor="middle" x="232.5" y="-312.45" font-family="Arial" font-size="14.00">ScaleGuard • FormatSelect • Quant</text>
</g>
<!-- Input&#45;&gt;Front -->
<g id="edge1" class="edge">
<title>Input&#45;&gt;Front</title>
<path fill="none" stroke="#444444" d="M211.23,-397.86C214.98,-385.3 219.96,-368.66 224.16,-354.63"/>
<polygon fill="#444444" stroke="#444444" points="226.74,-355.78 226.35,-347.31 221.37,-354.17 226.74,-355.78"/>
</g>
<!-- Resid -->
<g id="node3" class="node">
<title>Resid</title>
<path fill="#f0fff4" stroke="#555555" d="M328.62,-269C328.62,-269 184.38,-269 184.38,-269 178.38,-269 172.38,-263 172.38,-257 172.38,-257 172.38,-241.5 172.38,-241.5 172.38,-235.5 178.38,-229.5 184.38,-229.5 184.38,-229.5 328.62,-229.5 328.62,-229.5 334.62,-229.5 340.62,-235.5 340.62,-241.5 340.62,-241.5 340.62,-257 340.62,-257 340.62,-263 334.62,-269 328.62,-269"/>
<text xml:space="preserve" text-anchor="middle" x="256.5" y="-251.7" font-family="Arial" font-size="14.00">Residual Feedback Core:</text>
<text xml:space="preserve" text-anchor="middle" x="256.5" y="-235.95" font-family="Arial" font-size="14.00">Dequant • Sub • Accum</text>
</g>
<!-- Front&#45;&gt;Resid -->
<g id="edge2" class="edge">
<title>Front&#45;&gt;Resid</title>
<path fill="none" stroke="#444444" d="M238.68,-305.56C241.37,-297.22 244.57,-287.28 247.51,-278.15"/>
<polygon fill="#444444" stroke="#444444" points="250.09,-279.28 249.88,-270.81 244.76,-277.57 250.09,-279.28"/>
</g>
<!-- TimeG -->
<g id="node4" class="node">
<title>TimeG</title>
<path fill="#fef6ff" stroke="#555555" d="M504.75,-192.5C504.75,-192.5 136.25,-192.5 136.25,-192.5 130.25,-192.5 124.25,-186.5 124.25,-180.5 124.25,-180.5 124.25,-165 124.25,-165 124.25,-159 130.25,-153 136.25,-153 136.25,-153 504.75,-153 504.75,-153 510.75,-153 516.75,-159 516.75,-165 516.75,-165 516.75,-180.5 516.75,-180.5 516.75,-186.5 510.75,-192.5 504.75,-192.5"/>
<text xml:space="preserve" text-anchor="middle" x="320.5" y="-175.2" font-family="Arial" font-size="14.00">Temporal Gating:</text>
<text xml:space="preserve" text-anchor="middle" x="320.5" y="-159.45" font-family="Arial" font-size="14.00">Debounce(T_silence) • Emit(T_emit) • Refractory(T_refractory)</text>
</g>
<!-- Resid&#45;&gt;TimeG -->
<g id="edge3" class="edge">
<title>Resid&#45;&gt;TimeG</title>
<path fill="none" stroke="#444444" d="M272.98,-229.06C280.6,-220.2 289.76,-209.54 298,-199.95"/>
<polygon fill="#444444" stroke="#444444" points="300,-201.91 303.09,-194.02 295.75,-198.26 300,-201.91"/>
</g>
<!-- Kernels -->
<g id="node5" class="node">
<title>Kernels</title>
<path fill="#e6fffb" stroke="#555555" d="M427.88,-116C427.88,-116 213.12,-116 213.12,-116 207.12,-116 201.12,-110 201.12,-104 201.12,-104 201.12,-88.5 201.12,-88.5 201.12,-82.5 207.12,-76.5 213.12,-76.5 213.12,-76.5 427.88,-76.5 427.88,-76.5 433.88,-76.5 439.88,-82.5 439.88,-88.5 439.88,-88.5 439.88,-104 439.88,-104 439.88,-110 433.88,-116 427.88,-116"/>
<text xml:space="preserve" text-anchor="middle" x="320.5" y="-98.7" font-family="Arial" font-size="14.00">Compute Kernels:</text>
<text xml:space="preserve" text-anchor="middle" x="320.5" y="-82.95" font-family="Arial" font-size="14.00">PulseGEMM • GateConv • PulseAttn</text>
</g>
<!-- TimeG&#45;&gt;Kernels -->
<g id="edge4" class="edge">
<title>TimeG&#45;&gt;Kernels</title>
<path fill="none" stroke="#444444" d="M320.5,-152.56C320.5,-144.4 320.5,-134.7 320.5,-125.72"/>
<polygon fill="#444444" stroke="#444444" points="323.3,-125.88 320.5,-117.88 317.7,-125.88 323.3,-125.88"/>
</g>
<!-- Output -->
<g id="node6" class="node">
<title>Output</title>
<path fill="#e8f0fe" stroke="#555555" d="M374.62,-39.5C374.62,-39.5 266.38,-39.5 266.38,-39.5 260.38,-39.5 254.38,-33.5 254.38,-27.5 254.38,-27.5 254.38,-12 254.38,-12 254.38,-6 260.38,0 266.38,0 266.38,0 374.62,0 374.62,0 380.62,0 386.62,-6 386.62,-12 386.62,-12 386.62,-27.5 386.62,-27.5 386.62,-33.5 380.62,-39.5 374.62,-39.5"/>
<text xml:space="preserve" text-anchor="middle" x="320.5" y="-22.2" font-family="Arial" font-size="14.00">Output Tensor</text>
<text xml:space="preserve" text-anchor="middle" x="320.5" y="-6.45" font-family="Arial" font-size="14.00">(GEMM/Conv/Attn)</text>
</g>
<!-- Kernels&#45;&gt;Output -->
<g id="edge5" class="edge">
<title>Kernels&#45;&gt;Output</title>
<path fill="none" stroke="#444444" d="M320.5,-76.06C320.5,-67.9 320.5,-58.2 320.5,-49.22"/>
<polygon fill="#444444" stroke="#444444" points="323.3,-49.38 320.5,-41.38 317.7,-49.38 323.3,-49.38"/>
</g>
<!-- Params -->
<g id="node7" class="node">
<title>Params</title>
<path fill="#f5f5f5" stroke="#555555" d="M470.75,-453.5C470.75,-453.5 282.25,-453.5 282.25,-453.5 276.25,-453.5 270.25,-447.5 270.25,-441.5 270.25,-441.5 270.25,-394.5 270.25,-394.5 270.25,-388.5 276.25,-382.5 282.25,-382.5 282.25,-382.5 470.75,-382.5 470.75,-382.5 476.75,-382.5 482.75,-388.5 482.75,-394.5 482.75,-394.5 482.75,-441.5 482.75,-441.5 482.75,-447.5 476.75,-453.5 470.75,-453.5"/>
<text xml:space="preserve" text-anchor="middle" x="376.5" y="-436.2" font-family="Arial" font-size="14.00">Params</text>
<text xml:space="preserve" text-anchor="middle" x="376.5" y="-420.45" font-family="Arial" font-size="14.00">{E4M3/E5M2, W8A8}</text>
<text xml:space="preserve" text-anchor="middle" x="376.5" y="-404.7" font-family="Arial" font-size="14.00">{BF16/FP32 accum}</text>
<text xml:space="preserve" text-anchor="middle" x="376.5" y="-388.95" font-family="Arial" font-size="14.00">{T_silence, T_emit, T_refractory}</text>
</g>
<!-- Params&#45;&gt;Front -->
<g id="edge6" class="edge">
<title>Params&#45;&gt;Front</title>
<path fill="none" stroke="#444444" stroke-dasharray="5,2" d="M320.83,-382.11C304.11,-371.63 286.16,-360.38 270.83,-350.77"/>
<polygon fill="#444444" stroke="#444444" points="272.63,-348.59 264.36,-346.72 269.65,-353.34 272.63,-348.59"/>
</g>
<!-- Params&#45;&gt;TimeG -->
<g id="edge7" class="edge">
<title>Params&#45;&gt;TimeG</title>
<path fill="none" stroke="#444444" stroke-dasharray="5,2" d="M374.97,-382C372.5,-343.73 366.07,-281 349.5,-229.5 346.38,-219.82 341.69,-209.8 336.99,-200.97"/>
<polygon fill="#444444" stroke="#444444" points="339.58,-199.88 333.25,-194.24 334.69,-202.59 339.58,-199.88"/>
</g>
<!-- Stats -->
<g id="node8" class="node">
<title>Stats</title>
<path fill="#f5f5f5" stroke="#555555" d="M433.25,-577C433.25,-577 319.75,-577 319.75,-577 313.75,-577 307.75,-571 307.75,-565 307.75,-565 307.75,-518 307.75,-518 307.75,-512 313.75,-506 319.75,-506 319.75,-506 433.25,-506 433.25,-506 439.25,-506 445.25,-512 445.25,-518 445.25,-518 445.25,-565 445.25,-565 445.25,-571 439.25,-577 433.25,-577"/>
<text xml:space="preserve" text-anchor="middle" x="376.5" y="-559.7" font-family="Arial" font-size="14.00">Stats/Telemetry</text>
<text xml:space="preserve" text-anchor="middle" x="376.5" y="-543.95" font-family="Arial" font-size="14.00">• event rate</text>
<text xml:space="preserve" text-anchor="middle" x="376.5" y="-528.2" font-family="Arial" font-size="14.00">• overflow/underflow</text>
<text xml:space="preserve" text-anchor="middle" x="376.5" y="-512.45" font-family="Arial" font-size="14.00">• scale update</text>
</g>
<!-- Stats&#45;&gt;Params -->
<g id="edge8" class="edge">
<title>Stats&#45;&gt;Params</title>
<path fill="none" stroke="#444444" stroke-dasharray="5,2" d="M376.5,-505.68C376.5,-492.46 376.5,-477.23 376.5,-463.26"/>
<polygon fill="#444444" stroke="#444444" points="379.3,-463.34 376.5,-455.34 373.7,-463.34 379.3,-463.34"/>
<text xml:space="preserve" text-anchor="middle" x="411" y="-474.7" font-family="Times New Roman,serif" font-size="14.00">adapt/update</text>
</g>
</g>
</svg>
