<?xml version="1.0" encoding="UTF-8" standalone="no"?>
<!DOCTYPE svg PUBLIC "-//W3C//DTD SVG 1.1//EN"
 "http://www.w3.org/Graphics/SVG/1.1/DTD/svg11.dtd">
<!-- Generated by graphviz version 13.1.2 (20250808.2320)
 -->
<!-- Title: TFSD8_Kernels Pages: 1 -->
<svg width="482pt" height="306pt"
 viewBox="0.00 0.00 482.00 306.00" xmlns="http://www.w3.org/2000/svg" xmlns:xlink="http://www.w3.org/1999/xlink">
<g id="graph0" class="graph" transform="scale(1 1) rotate(0) translate(4 301.5)">
<title>TFSD8_Kernels</title>
<polygon fill="white" stroke="none" points="-4,4 -4,-301.5 478.38,-301.5 478.38,4 -4,4"/>
<text xml:space="preserve" text-anchor="middle" x="237.19" y="-270.7" font-family="Times New Roman,serif" font-size="24.00">TFSD8 — Compute Kernels (Detail)</text>
<!-- EventIn -->
<g id="node1" class="node">
<title>EventIn</title>
<path fill="#e6fffb" stroke="#555555" d="M271.62,-262.5C271.62,-262.5 197.12,-262.5 197.12,-262.5 191.12,-262.5 185.12,-256.5 185.12,-250.5 185.12,-250.5 185.12,-235 185.12,-235 185.12,-229 191.12,-223 197.12,-223 197.12,-223 271.62,-223 271.62,-223 277.62,-223 283.62,-229 283.62,-235 283.62,-235 283.62,-250.5 283.62,-250.5 283.62,-256.5 277.62,-262.5 271.62,-262.5"/>
<text xml:space="preserve" text-anchor="middle" x="234.38" y="-245.2" font-family="Arial" font-size="14.00">Event Stream</text>
<text xml:space="preserve" text-anchor="middle" x="234.38" y="-229.45" font-family="Arial" font-size="14.00">(±1 pulses)</text>
</g>
<!-- PulseGEMM -->
<g id="node2" class="node">
<title>PulseGEMM</title>
<path fill="#e6fffb" stroke="#555555" d="M136.75,-187C136.75,-187 12,-187 12,-187 6,-187 0,-181 0,-175 0,-175 0,-159.5 0,-159.5 0,-153.5 6,-147.5 12,-147.5 12,-147.5 136.75,-147.5 136.75,-147.5 142.75,-147.5 148.75,-153.5 148.75,-159.5 148.75,-159.5 148.75,-175 148.75,-175 148.75,-181 142.75,-187 136.75,-187"/>
<text xml:space="preserve" text-anchor="middle" x="74.38" y="-169.7" font-family="Arial" font-size="14.00">PulseGEMM</text>
<text xml:space="preserve" text-anchor="middle" x="74.38" y="-153.95" font-family="Arial" font-size="14.00">(Event&#45;driven GEMM)</text>
</g>
<!-- EventIn&#45;&gt;PulseGEMM -->
<g id="edge1" class="edge">
<title>EventIn&#45;&gt;PulseGEMM</title>
<path fill="none" stroke="#444444" d="M192.75,-222.63C171.91,-213.06 146.51,-201.39 124.59,-191.32"/>
<polygon fill="#444444" stroke="#444444" points="125.88,-188.83 117.44,-188.03 123.54,-193.92 125.88,-188.83"/>
</g>
<!-- GateConv -->
<g id="node3" class="node">
<title>GateConv</title>
<path fill="#e6fffb" stroke="#555555" d="M290.38,-187C290.38,-187 178.38,-187 178.38,-187 172.38,-187 166.38,-181 166.38,-175 166.38,-175 166.38,-159.5 166.38,-159.5 166.38,-153.5 172.38,-147.5 178.38,-147.5 178.38,-147.5 290.38,-147.5 290.38,-147.5 296.38,-147.5 302.38,-153.5 302.38,-159.5 302.38,-159.5 302.38,-175 302.38,-175 302.38,-181 296.38,-187 290.38,-187"/>
<text xml:space="preserve" text-anchor="middle" x="234.38" y="-169.7" font-family="Arial" font-size="14.00">GateConv</text>
<text xml:space="preserve" text-anchor="middle" x="234.38" y="-153.95" font-family="Arial" font-size="14.00">(Event&#45;driven Conv)</text>
</g>
<!-- EventIn&#45;&gt;GateConv -->
<g id="edge2" class="edge">
<title>EventIn&#45;&gt;GateConv</title>
<path fill="none" stroke="#444444" d="M234.38,-222.82C234.38,-214.91 234.38,-205.55 234.38,-196.83"/>
<polygon fill="#444444" stroke="#444444" points="237.18,-196.88 234.38,-188.88 231.58,-196.88 237.18,-196.88"/>
</g>
<!-- PulseAttn -->
<g id="node4" class="node">
<title>PulseAttn</title>
<path fill="#e6fffb" stroke="#555555" d="M462.38,-187C462.38,-187 332.38,-187 332.38,-187 326.38,-187 320.38,-181 320.38,-175 320.38,-175 320.38,-159.5 320.38,-159.5 320.38,-153.5 326.38,-147.5 332.38,-147.5 332.38,-147.5 462.38,-147.5 462.38,-147.5 468.38,-147.5 474.38,-153.5 474.38,-159.5 474.38,-159.5 474.38,-175 474.38,-175 474.38,-181 468.38,-187 462.38,-187"/>
<text xml:space="preserve" text-anchor="middle" x="397.38" y="-169.7" font-family="Arial" font-size="14.00">PulseAttn</text>
<text xml:space="preserve" text-anchor="middle" x="397.38" y="-153.95" font-family="Arial" font-size="14.00">(Event&#45;gated Attention)</text>
</g>
<!-- EventIn&#45;&gt;PulseAttn -->
<g id="edge3" class="edge">
<title>EventIn&#45;&gt;PulseAttn</title>
<path fill="none" stroke="#444444" d="M276.78,-222.63C298.1,-213.01 324.12,-201.28 346.51,-191.18"/>
<polygon fill="#444444" stroke="#444444" points="347.38,-193.86 353.52,-188.02 345.08,-188.76 347.38,-193.86"/>
</g>
<!-- Merge -->
<g id="node5" class="node">
<title>Merge</title>
<path fill="#fff7e6" stroke="#555555" d="M283.25,-111.5C283.25,-111.5 185.5,-111.5 185.5,-111.5 179.5,-111.5 173.5,-105.5 173.5,-99.5 173.5,-99.5 173.5,-84 173.5,-84 173.5,-78 179.5,-72 185.5,-72 185.5,-72 283.25,-72 283.25,-72 289.25,-72 295.25,-78 295.25,-84 295.25,-84 295.25,-99.5 295.25,-99.5 295.25,-105.5 289.25,-111.5 283.25,-111.5"/>
<text xml:space="preserve" text-anchor="middle" x="234.38" y="-94.2" font-family="Arial" font-size="14.00">Merge/Reduce</text>
<text xml:space="preserve" text-anchor="middle" x="234.38" y="-78.45" font-family="Arial" font-size="14.00">(ops fusion, tiling)</text>
</g>
<!-- PulseGEMM&#45;&gt;Merge -->
<g id="edge4" class="edge">
<title>PulseGEMM&#45;&gt;Merge</title>
<path fill="none" stroke="#444444" d="M116,-147.13C136.84,-137.56 162.24,-125.89 184.16,-115.82"/>
<polygon fill="#444444" stroke="#444444" points="185.21,-118.42 191.31,-112.53 182.87,-113.33 185.21,-118.42"/>
</g>
<!-- GateConv&#45;&gt;Merge -->
<g id="edge5" class="edge">
<title>GateConv&#45;&gt;Merge</title>
<path fill="none" stroke="#444444" d="M234.38,-147.32C234.38,-139.41 234.38,-130.05 234.38,-121.33"/>
<polygon fill="#444444" stroke="#444444" points="237.18,-121.38 234.38,-113.38 231.58,-121.38 237.18,-121.38"/>
</g>
<!-- PulseAttn&#45;&gt;Merge -->
<g id="edge6" class="edge">
<title>PulseAttn&#45;&gt;Merge</title>
<path fill="none" stroke="#444444" d="M354.97,-147.13C333.65,-137.51 307.63,-125.78 285.24,-115.68"/>
<polygon fill="#444444" stroke="#444444" points="286.67,-113.26 278.23,-112.52 284.37,-118.36 286.67,-113.26"/>
</g>
<!-- Output -->
<g id="node6" class="node">
<title>Output</title>
<path fill="#e8f0fe" stroke="#555555" d="M273.12,-36C273.12,-36 195.62,-36 195.62,-36 189.62,-36 183.62,-30 183.62,-24 183.62,-24 183.62,-12 183.62,-12 183.62,-6 189.62,0 195.62,0 195.62,0 273.12,0 273.12,0 279.12,0 285.12,-6 285.12,-12 285.12,-12 285.12,-24 285.12,-24 285.12,-30 279.12,-36 273.12,-36"/>
<text xml:space="preserve" text-anchor="middle" x="234.38" y="-12.57" font-family="Arial" font-size="14.00">Output Tensor</text>
</g>
<!-- Merge&#45;&gt;Output -->
<g id="edge7" class="edge">
<title>Merge&#45;&gt;Output</title>
<path fill="none" stroke="#444444" d="M234.38,-71.52C234.38,-63.56 234.38,-54.19 234.38,-45.59"/>
<polygon fill="#444444" stroke="#444444" points="237.18,-45.83 234.38,-37.83 231.58,-45.83 237.18,-45.83"/>
</g>
</g>
</svg>
