<?xml version="1.0" encoding="UTF-8" standalone="no"?>
<!DOCTYPE svg PUBLIC "-//W3C//DTD SVG 1.1//EN"
 "http://www.w3.org/Graphics/SVG/1.1/DTD/svg11.dtd">
<!-- Generated by graphviz version 13.1.2 (20250808.2320)
 -->
<!-- Title: TFSD8_TemporalGating Pages: 1 -->
<svg width="386pt" height="385pt"
 viewBox="0.00 0.00 386.00 385.00" xmlns="http://www.w3.org/2000/svg" xmlns:xlink="http://www.w3.org/1999/xlink">
<g id="graph0" class="graph" transform="scale(1 1) rotate(0) translate(4 380.5)">
<title>TFSD8_TemporalGating</title>
<polygon fill="white" stroke="none" points="-4,4 -4,-380.5 381.88,-380.5 381.88,4 -4,4"/>
<text xml:space="preserve" text-anchor="middle" x="188.94" y="-349.7" font-family="Times New Roman,serif" font-size="24.00">TFSD8 — Temporal Gating (Detail)</text>
<!-- AccumIn -->
<g id="node1" class="node">
<title>AccumIn</title>
<path fill="#f0fff4" stroke="#555555" d="M135.25,-341.5C135.25,-341.5 12,-341.5 12,-341.5 6,-341.5 0,-335.5 0,-329.5 0,-329.5 0,-314 0,-314 0,-308 6,-302 12,-302 12,-302 135.25,-302 135.25,-302 141.25,-302 147.25,-308 147.25,-314 147.25,-314 147.25,-329.5 147.25,-329.5 147.25,-335.5 141.25,-341.5 135.25,-341.5"/>
<text xml:space="preserve" text-anchor="middle" x="73.62" y="-324.2" font-family="Arial" font-size="14.00">Residual Accumulator</text>
<text xml:space="preserve" text-anchor="middle" x="73.62" y="-308.45" font-family="Arial" font-size="14.00">(BF16/FP32)</text>
</g>
<!-- Debounce -->
<g id="node2" class="node">
<title>Debounce</title>
<path fill="#fef6ff" stroke="#555555" d="M212.38,-266C212.38,-266 158.88,-266 158.88,-266 152.88,-266 146.88,-260 146.88,-254 146.88,-254 146.88,-238.5 146.88,-238.5 146.88,-232.5 152.88,-226.5 158.88,-226.5 158.88,-226.5 212.38,-226.5 212.38,-226.5 218.38,-226.5 224.38,-232.5 224.38,-238.5 224.38,-238.5 224.38,-254 224.38,-254 224.38,-260 218.38,-266 212.38,-266"/>
<text xml:space="preserve" text-anchor="middle" x="185.62" y="-248.7" font-family="Arial" font-size="14.00">Debounce</text>
<text xml:space="preserve" text-anchor="middle" x="185.62" y="-232.95" font-family="Arial" font-size="14.00">T_silence</text>
</g>
<!-- AccumIn&#45;&gt;Debounce -->
<g id="edge1" class="edge">
<title>AccumIn&#45;&gt;Debounce</title>
<path fill="none" stroke="#444444" d="M102.76,-301.63C116.89,-292.36 134.01,-281.12 149.01,-271.28"/>
<polygon fill="#444444" stroke="#444444" points="150.22,-273.83 155.37,-267.1 147.15,-269.15 150.22,-273.83"/>
</g>
<!-- EmitGate -->
<g id="node3" class="node">
<title>EmitGate</title>
<path fill="#fef6ff" stroke="#555555" d="M250.38,-190.5C250.38,-190.5 196.88,-190.5 196.88,-190.5 190.88,-190.5 184.88,-184.5 184.88,-178.5 184.88,-178.5 184.88,-163 184.88,-163 184.88,-157 190.88,-151 196.88,-151 196.88,-151 250.38,-151 250.38,-151 256.38,-151 262.38,-157 262.38,-163 262.38,-163 262.38,-178.5 262.38,-178.5 262.38,-184.5 256.38,-190.5 250.38,-190.5"/>
<text xml:space="preserve" text-anchor="middle" x="223.62" y="-173.2" font-family="Arial" font-size="14.00">Emit Gate</text>
<text xml:space="preserve" text-anchor="middle" x="223.62" y="-157.45" font-family="Arial" font-size="14.00">T_emit</text>
</g>
<!-- Debounce&#45;&gt;EmitGate -->
<g id="edge2" class="edge">
<title>Debounce&#45;&gt;EmitGate</title>
<path fill="none" stroke="#444444" d="M195.41,-226.32C199.68,-218.07 204.76,-208.24 209.43,-199.21"/>
<polygon fill="#444444" stroke="#444444" points="211.86,-200.61 213.05,-192.21 206.88,-198.03 211.86,-200.61"/>
</g>
<!-- Refract -->
<g id="node4" class="node">
<title>Refract</title>
<path fill="#fef6ff" stroke="#555555" d="M289,-115C289,-115 224.25,-115 224.25,-115 218.25,-115 212.25,-109 212.25,-103 212.25,-103 212.25,-87.5 212.25,-87.5 212.25,-81.5 218.25,-75.5 224.25,-75.5 224.25,-75.5 289,-75.5 289,-75.5 295,-75.5 301,-81.5 301,-87.5 301,-87.5 301,-103 301,-103 301,-109 295,-115 289,-115"/>
<text xml:space="preserve" text-anchor="middle" x="256.62" y="-97.7" font-family="Arial" font-size="14.00">Refractory</text>
<text xml:space="preserve" text-anchor="middle" x="256.62" y="-81.95" font-family="Arial" font-size="14.00">T_refractory</text>
</g>
<!-- EmitGate&#45;&gt;Refract -->
<g id="edge3" class="edge">
<title>EmitGate&#45;&gt;Refract</title>
<path fill="none" stroke="#444444" d="M232.12,-150.82C235.79,-142.66 240.15,-132.94 244.17,-123.98"/>
<polygon fill="#444444" stroke="#444444" points="246.7,-125.2 247.42,-116.75 241.59,-122.9 246.7,-125.2"/>
</g>
<!-- PulseOut -->
<g id="node5" class="node">
<title>PulseOut</title>
<path fill="#e6fffb" stroke="#555555" d="M329.12,-39.5C329.12,-39.5 184.12,-39.5 184.12,-39.5 178.12,-39.5 172.12,-33.5 172.12,-27.5 172.12,-27.5 172.12,-12 172.12,-12 172.12,-6 178.12,0 184.12,0 184.12,0 329.12,0 329.12,0 335.12,0 341.12,-6 341.12,-12 341.12,-12 341.12,-27.5 341.12,-27.5 341.12,-33.5 335.12,-39.5 329.12,-39.5"/>
<text xml:space="preserve" text-anchor="middle" x="256.62" y="-22.2" font-family="Arial" font-size="14.00">Event Stream (±1 pulses)</text>
<text xml:space="preserve" text-anchor="middle" x="256.62" y="-6.45" font-family="Arial" font-size="14.00">with timestamps</text>
</g>
<!-- Refract&#45;&gt;PulseOut -->
<g id="edge4" class="edge">
<title>Refract&#45;&gt;PulseOut</title>
<path fill="none" stroke="#444444" d="M256.62,-75.32C256.62,-67.41 256.62,-58.05 256.62,-49.33"/>
<polygon fill="#444444" stroke="#444444" points="259.43,-49.38 256.63,-41.38 253.83,-49.38 259.43,-49.38"/>
</g>
<!-- Params -->
<g id="node6" class="node">
<title>Params</title>
<path fill="#f5f5f5" stroke="#555555" d="M365.88,-341.5C365.88,-341.5 177.38,-341.5 177.38,-341.5 171.38,-341.5 165.38,-335.5 165.38,-329.5 165.38,-329.5 165.38,-314 165.38,-314 165.38,-308 171.38,-302 177.38,-302 177.38,-302 365.88,-302 365.88,-302 371.88,-302 377.88,-308 377.88,-314 377.88,-314 377.88,-329.5 377.88,-329.5 377.88,-335.5 371.88,-341.5 365.88,-341.5"/>
<text xml:space="preserve" text-anchor="middle" x="271.62" y="-324.2" font-family="Arial" font-size="14.00">Params</text>
<text xml:space="preserve" text-anchor="middle" x="271.62" y="-308.45" font-family="Arial" font-size="14.00">{T_silence, T_emit, T_refractory}</text>
</g>
<!-- Params&#45;&gt;Debounce -->
<g id="edge5" class="edge">
<title>Params&#45;&gt;Debounce</title>
<path fill="none" stroke="#444444" stroke-dasharray="5,2" d="M249.48,-301.82C239.03,-292.89 226.41,-282.1 215.16,-272.49"/>
<polygon fill="#444444" stroke="#444444" points="217.05,-270.42 209.15,-267.35 213.41,-274.68 217.05,-270.42"/>
</g>
<!-- Params&#45;&gt;EmitGate -->
<g id="edge6" class="edge">
<title>Params&#45;&gt;EmitGate</title>
<path fill="none" stroke="#444444" stroke-dasharray="5,2" d="M265.45,-301.58C257.13,-275.76 242.27,-229.64 232.69,-199.89"/>
<polygon fill="#444444" stroke="#444444" points="235.36,-199.05 230.24,-192.29 230.03,-200.76 235.36,-199.05"/>
</g>
<!-- Params&#45;&gt;Refract -->
<g id="edge7" class="edge">
<title>Params&#45;&gt;Refract</title>
<path fill="none" stroke="#444444" stroke-dasharray="5,2" d="M273.28,-301.55C275.64,-269.97 278.91,-205.18 271.62,-151 270.45,-142.27 268.27,-132.96 265.93,-124.55"/>
<polygon fill="#444444" stroke="#444444" points="268.63,-123.83 263.68,-116.95 263.26,-125.42 268.63,-123.83"/>
</g>
</g>
</svg>
