<?xml version="1.0" encoding="UTF-8" standalone="no"?>
<!DOCTYPE svg PUBLIC "-//W3C//DTD SVG 1.1//EN"
 "http://www.w3.org/Graphics/SVG/1.1/DTD/svg11.dtd">
<!-- Generated by graphviz version 13.1.2 (20250808.2320)
 -->
<!-- Title: TFSD8_OVERVIEW_AUTO Pages: 1 -->
<svg width="1454pt" height="1185pt"
 viewBox="0.00 0.00 1454.00 1185.00" xmlns="http://www.w3.org/2000/svg" xmlns:xlink="http://www.w3.org/1999/xlink">
<g id="graph0" class="graph" transform="scale(1 1) rotate(0) translate(4 1181.03)">
<title>TFSD8_OVERVIEW_AUTO</title>
<polygon fill="#f9f9f9" stroke="none" points="-4,4 -4,-1181.03 1450,-1181.03 1450,4 -4,4"/>
<g id="clust1" class="cluster">
<title>cluster_main</title>
<path fill="#e6e6e6" stroke="#e6e6e6" d="M171,-8C171,-8 839,-8 839,-8 845,-8 851,-14 851,-20 851,-20 851,-1157.03 851,-1157.03 851,-1163.03 845,-1169.03 839,-1169.03 839,-1169.03 171,-1169.03 171,-1169.03 165,-1169.03 159,-1163.03 159,-1157.03 159,-1157.03 159,-20 159,-20 159,-14 165,-8 171,-8"/>
<text xml:space="preserve" text-anchor="middle" x="505" y="-1151.73" font-family="Helvetica,sans-Serif" font-size="14.00" fill="#444444">TFSD8 시간 흐름</text>
</g>
<g id="clust2" class="cluster">
<title>cluster_small</title>
<path fill="#cfe9ff" stroke="#cfe9ff" d="M871,-287.78C871,-287.78 1113,-287.78 1113,-287.78 1119,-287.78 1125,-293.78 1125,-299.78 1125,-299.78 1125,-593.78 1125,-593.78 1125,-599.78 1119,-605.78 1113,-605.78 1113,-605.78 871,-605.78 871,-605.78 865,-605.78 859,-599.78 859,-593.78 859,-593.78 859,-299.78 859,-299.78 859,-293.78 865,-287.78 871,-287.78"/>
<text xml:space="preserve" text-anchor="middle" x="992" y="-588.48" font-family="Helvetica,sans-Serif" font-size="14.00" fill="#444444">작은 차분 (ΣΔ)</text>
</g>
<g id="clust3" class="cluster">
<title>cluster_large</title>
<path fill="#ffe6cc" stroke="#ffe6cc" d="M20,-287.78C20,-287.78 139,-287.78 139,-287.78 145,-287.78 151,-293.78 151,-299.78 151,-299.78 151,-351.53 151,-351.53 151,-357.53 145,-363.53 139,-363.53 139,-363.53 20,-363.53 20,-363.53 14,-363.53 8,-357.53 8,-351.53 8,-351.53 8,-299.78 8,-299.78 8,-293.78 14,-287.78 20,-287.78"/>
<text xml:space="preserve" text-anchor="middle" x="79.5" y="-346.23" font-family="Helvetica,sans-Serif" font-size="14.00" fill="#444444">큰 차분 (MAX/MIN)</text>
</g>
<g id="clust4" class="cluster">
<title>cluster_scale</title>
<path fill="#dff7e7" stroke="#dff7e7" d="M1174,-147.89C1174,-147.89 1426,-147.89 1426,-147.89 1432,-147.89 1438,-153.89 1438,-159.89 1438,-159.89 1438,-351.53 1438,-351.53 1438,-357.53 1432,-363.53 1426,-363.53 1426,-363.53 1174,-363.53 1174,-363.53 1168,-363.53 1162,-357.53 1162,-351.53 1162,-351.53 1162,-159.89 1162,-159.89 1162,-153.89 1168,-147.89 1174,-147.89"/>
<text xml:space="preserve" text-anchor="middle" x="1300" y="-346.23" font-family="Helvetica,sans-Serif" font-size="14.00" fill="#444444">스케일 적용</text>
</g>
<!-- start -->
<g id="node1" class="node">
<title>start</title>
<path fill="#eaf3ff" stroke="#2c6ebb" stroke-width="1.4" d="M560,-1137.28C560,-1137.28 530,-1137.28 530,-1137.28 524,-1137.28 518,-1131.28 518,-1125.28 518,-1125.28 518,-1113.28 518,-1113.28 518,-1107.28 524,-1101.28 530,-1101.28 530,-1101.28 560,-1101.28 560,-1101.28 566,-1101.28 572,-1107.28 572,-1113.28 572,-1113.28 572,-1125.28 572,-1125.28 572,-1131.28 566,-1137.28 560,-1137.28"/>
<text xml:space="preserve" text-anchor="middle" x="545" y="-1113.31" font-family="Helvetica,sans-Serif" font-size="13.00">시작</text>
</g>
<!-- inb -->
<g id="node2" class="node">
<title>inb</title>
<path fill="#eaf3ff" stroke="none" stroke-width="1.4" d="M568,-1028.28C568,-1028.28 522,-1028.28 522,-1028.28 517,-1028.28 512,-1023.28 512,-1018.28 512,-1018.28 512,-1008.28 512,-1008.28 512,-1003.28 517,-998.28 522,-998.28 522,-998.28 568,-998.28 568,-998.28 573,-998.28 578,-1003.28 578,-1008.28 578,-1008.28 578,-1018.28 578,-1018.28 578,-1023.28 573,-1028.28 568,-1028.28"/>
<text xml:space="preserve" text-anchor="middle" x="545" y="-1015.93" font-family="Helvetica,sans-Serif" font-size="13.00" fill="#000000">입력 x 와</text>
<text xml:space="preserve" text-anchor="middle" x="545" y="-1000.93" font-family="Helvetica,sans-Serif" font-size="13.00" fill="#000000">기준 b</text>
</g>
<!-- start&#45;&gt;inb -->
<g id="edge1" class="edge">
<title>start&#45;&gt;inb</title>
<path fill="none" stroke="#333333" stroke-width="1.3" d="M545,-1100.64C545,-1083.33 545,-1056.82 545,-1037.75"/>
<polygon fill="#333333" stroke="#333333" stroke-width="1.3" points="547.8,-1037.98 545,-1029.98 542.2,-1037.98 547.8,-1037.98"/>
</g>
<!-- diff -->
<g id="node3" class="node">
<title>diff</title>
<path fill="#eaf3ff" stroke="#2c6ebb" stroke-width="1.4" d="M583.7,-925.28C583.7,-925.28 506.3,-925.28 506.3,-925.28 500.3,-925.28 494.3,-919.28 494.3,-913.28 494.3,-913.28 494.3,-901.28 494.3,-901.28 494.3,-895.28 500.3,-889.28 506.3,-889.28 506.3,-889.28 583.7,-889.28 583.7,-889.28 589.7,-889.28 595.7,-895.28 595.7,-901.28 595.7,-901.28 595.7,-913.28 595.7,-913.28 595.7,-919.28 589.7,-925.28 583.7,-925.28"/>
<text xml:space="preserve" text-anchor="middle" x="545" y="-902.43" font-family="Helvetica,sans-Serif" font-size="13.00">차분 d = x &#45; b</text>
</g>
<!-- inb&#45;&gt;diff -->
<g id="edge2" class="edge">
<title>inb&#45;&gt;diff</title>
<path fill="none" stroke="#333333" stroke-width="1.3" d="M545,-998.68C545,-982.74 545,-955.92 545,-935.62"/>
<polygon fill="#333333" stroke="#333333" stroke-width="1.3" points="547.8,-935.66 545,-927.66 542.2,-935.66 547.8,-935.66"/>
</g>
<!-- refrQ -->
<g id="node4" class="node">
<title>refrQ</title>
<path fill="#ffd699" stroke="#ff9900" stroke-width="1.4" d="M533.05,-815.17C533.05,-815.17 362.73,-799.39 362.73,-799.39 356.75,-798.83 356.75,-797.73 362.73,-797.17 362.73,-797.17 533.05,-781.39 533.05,-781.39 539.03,-780.83 550.97,-780.83 556.95,-781.39 556.95,-781.39 727.27,-797.17 727.27,-797.17 733.25,-797.73 733.25,-798.83 727.27,-799.39 727.27,-799.39 556.95,-815.17 556.95,-815.17 550.97,-815.73 539.03,-815.73 533.05,-815.17"/>
<text xml:space="preserve" text-anchor="middle" x="545" y="-793.43" font-family="Helvetica,sans-Serif" font-size="13.00">불응기? (now &lt; t_event_quiet)</text>
</g>
<!-- diff&#45;&gt;refrQ -->
<g id="edge3" class="edge">
<title>diff&#45;&gt;refrQ</title>
<path fill="none" stroke="#333333" stroke-width="1.3" d="M545,-888.61C545,-871.81 545,-846.27 545,-826.8"/>
<polygon fill="#333333" stroke="#333333" stroke-width="1.3" points="547.8,-826.94 545,-818.94 542.2,-826.94 547.8,-826.94"/>
</g>
<!-- bupd -->
<g id="node5" class="node">
<title>bupd</title>
<path fill="#eaf3ff" stroke="#2c6ebb" stroke-width="1.4" d="M381.07,-697.03C381.07,-697.03 230.93,-697.03 230.93,-697.03 224.93,-697.03 218.93,-691.03 218.93,-685.03 218.93,-685.03 218.93,-673.03 218.93,-673.03 218.93,-667.03 224.93,-661.03 230.93,-661.03 230.93,-661.03 381.07,-661.03 381.07,-661.03 387.07,-661.03 393.07,-667.03 393.07,-673.03 393.07,-673.03 393.07,-685.03 393.07,-685.03 393.07,-691.03 387.07,-697.03 381.07,-697.03"/>
<text xml:space="preserve" text-anchor="middle" x="306" y="-674.18" font-family="Helvetica,sans-Serif" font-size="13.00">기준 b 업데이트 (EMA)</text>
</g>
<!-- refrQ&#45;&gt;bupd -->
<g id="edge4" class="edge">
<title>refrQ&#45;&gt;bupd</title>
<path fill="none" stroke="#333333" stroke-width="1.3" d="M514.73,-782.43C473.31,-762.11 398.66,-725.49 350.77,-701.99"/>
<polygon fill="#333333" stroke="#333333" stroke-width="1.3" points="352.04,-699.5 343.63,-698.49 349.57,-704.53 352.04,-699.5"/>
<text xml:space="preserve" text-anchor="middle" x="440.54" y="-733.83" font-family="Helvetica,sans-Serif" font-size="11.00">예</text>
</g>
<!-- smallQ -->
<g id="node6" class="node">
<title>smallQ</title>
<path fill="#ffd699" stroke="#ff9900" stroke-width="1.4" d="M579.09,-695.58C579.09,-695.58 455.1,-680.48 455.1,-680.48 449.15,-679.76 449.15,-678.3 455.1,-677.58 455.1,-677.58 579.09,-662.48 579.09,-662.48 585.04,-661.76 596.96,-661.76 602.91,-662.48 602.91,-662.48 726.9,-677.58 726.9,-677.58 732.85,-678.3 732.85,-679.76 726.9,-680.48 726.9,-680.48 602.91,-695.58 602.91,-695.58 596.96,-696.3 585.04,-696.3 579.09,-695.58"/>
<text xml:space="preserve" text-anchor="middle" x="591" y="-674.18" font-family="Helvetica,sans-Serif" font-size="13.00">작은가? (|d| &lt; λ0·2^E)</text>
</g>
<!-- refrQ&#45;&gt;smallQ -->
<g id="edge5" class="edge">
<title>refrQ&#45;&gt;smallQ</title>
<path fill="none" stroke="#333333" stroke-width="1.3" d="M551.69,-780.23C559.36,-760.67 572.03,-728.38 580.91,-705.76"/>
<polygon fill="#333333" stroke="#333333" stroke-width="1.3" points="583.42,-707.02 583.73,-698.55 578.21,-704.98 583.42,-707.02"/>
<text xml:space="preserve" text-anchor="middle" x="593" y="-733.83" font-family="Helvetica,sans-Serif" font-size="11.00">아니오</text>
</g>
<!-- bupd&#45;&gt;diff -->
<g id="edge6" class="edge">
<title>bupd&#45;&gt;diff</title>
<path fill="none" stroke="#999999" stroke-width="1.3" stroke-dasharray="5,2" d="M298.01,-697.37C286.49,-725.2 269.24,-780.36 294.5,-816.28 337.12,-876.88 424.61,-896.88 484.05,-903.36"/>
<polygon fill="#999999" stroke="#999999" stroke-width="1.3" points="483.5,-906.12 491.74,-904.12 484.06,-900.54 483.5,-906.12"/>
<text xml:space="preserve" text-anchor="middle" x="310.25" y="-793.45" font-family="Helvetica,sans-Serif" font-size="11.00">루프</text>
</g>
<!-- largeQ -->
<g id="node7" class="node">
<title>largeQ</title>
<path fill="#ffd699" stroke="#ff9900" stroke-width="1.4" d="M473.11,-572.44C473.11,-572.44 362.44,-557.62 362.44,-557.62 356.5,-556.83 356.5,-555.23 362.44,-554.44 362.44,-554.44 473.11,-539.62 473.11,-539.62 479.05,-538.83 490.95,-538.83 496.89,-539.62 496.89,-539.62 607.56,-554.44 607.56,-554.44 613.5,-555.23 613.5,-556.83 607.56,-557.62 607.56,-557.62 496.89,-572.44 496.89,-572.44 490.95,-573.23 479.05,-573.23 473.11,-572.44"/>
<text xml:space="preserve" text-anchor="middle" x="485" y="-551.18" font-family="Helvetica,sans-Serif" font-size="13.00">큰가? (|d| &gt; λhi·2^E)</text>
</g>
<!-- smallQ&#45;&gt;largeQ -->
<g id="edge8" class="edge">
<title>smallQ&#45;&gt;largeQ</title>
<path fill="none" stroke="#333333" stroke-width="1.3" d="M577.14,-662.21C558.81,-641.29 526.37,-604.25 505.28,-580.18"/>
<polygon fill="#333333" stroke="#333333" stroke-width="1.3" points="507.54,-578.51 500.16,-574.33 503.32,-582.2 507.54,-578.51"/>
<text xml:space="preserve" text-anchor="middle" x="567.97" y="-614.58" font-family="Helvetica,sans-Serif" font-size="11.00">아니오</text>
</g>
<!-- sigma -->
<g id="node13" class="node">
<title>sigma</title>
<path fill="#eaf3ff" stroke="#2c6ebb" stroke-width="1.4" d="M1036.45,-574.03C1036.45,-574.03 909.55,-574.03 909.55,-574.03 903.55,-574.03 897.55,-568.03 897.55,-562.03 897.55,-562.03 897.55,-550.03 897.55,-550.03 897.55,-544.03 903.55,-538.03 909.55,-538.03 909.55,-538.03 1036.45,-538.03 1036.45,-538.03 1042.45,-538.03 1048.45,-544.03 1048.45,-550.03 1048.45,-550.03 1048.45,-562.03 1048.45,-562.03 1048.45,-568.03 1042.45,-574.03 1036.45,-574.03"/>
<text xml:space="preserve" text-anchor="middle" x="973" y="-551.18" font-family="Helvetica,sans-Serif" font-size="13.00">ΣΔ 누산기 (r += d·Δt)</text>
</g>
<!-- smallQ&#45;&gt;sigma -->
<g id="edge7" class="edge">
<title>smallQ&#45;&gt;sigma</title>
<path fill="none" stroke="#333333" stroke-width="1.3" d="M643.38,-666.7C698.7,-654.15 788.11,-632.14 863,-605.78 885.04,-598.02 908.83,-587.74 928.62,-578.61"/>
<polygon fill="#333333" stroke="#333333" stroke-width="1.3" points="929.56,-581.26 935.63,-575.35 927.19,-576.19 929.56,-581.26"/>
<text xml:space="preserve" text-anchor="middle" x="841.96" y="-614.58" font-family="Helvetica,sans-Serif" font-size="11.00">예</text>
</g>
<!-- qnorm -->
<g id="node8" class="node">
<title>qnorm</title>
<path fill="#eaf3ff" stroke="#2c6ebb" stroke-width="1.4" d="M525.2,-454.78C525.2,-454.78 444.8,-454.78 444.8,-454.78 438.8,-454.78 432.8,-448.78 432.8,-442.78 432.8,-442.78 432.8,-430.78 432.8,-430.78 432.8,-424.78 438.8,-418.78 444.8,-418.78 444.8,-418.78 525.2,-418.78 525.2,-418.78 531.2,-418.78 537.2,-424.78 537.2,-430.78 537.2,-430.78 537.2,-442.78 537.2,-442.78 537.2,-448.78 531.2,-454.78 525.2,-454.78"/>
<text xml:space="preserve" text-anchor="middle" x="485" y="-431.93" font-family="Helvetica,sans-Serif" font-size="13.00">일반 양자화</text>
</g>
<!-- largeQ&#45;&gt;qnorm -->
<g id="edge10" class="edge">
<title>largeQ&#45;&gt;qnorm</title>
<path fill="none" stroke="#333333" stroke-width="1.3" d="M485,-537.48C485,-518.39 485,-487.65 485,-465.34"/>
<polygon fill="#333333" stroke="#333333" stroke-width="1.3" points="487.8,-465.42 485,-457.42 482.2,-465.42 487.8,-465.42"/>
<text xml:space="preserve" text-anchor="middle" x="508.62" y="-491.58" font-family="Helvetica,sans-Serif" font-size="11.00">아니오</text>
</g>
<!-- maxmin -->
<g id="node16" class="node">
<title>maxmin</title>
<path fill="#eaf3ff" stroke="#2c6ebb" stroke-width="1.4" d="M131.2,-331.78C131.2,-331.78 38.8,-331.78 38.8,-331.78 32.8,-331.78 26.8,-325.78 26.8,-319.78 26.8,-319.78 26.8,-307.78 26.8,-307.78 26.8,-301.78 32.8,-295.78 38.8,-295.78 38.8,-295.78 131.2,-295.78 131.2,-295.78 137.2,-295.78 143.2,-301.78 143.2,-307.78 143.2,-307.78 143.2,-319.78 143.2,-319.78 143.2,-325.78 137.2,-331.78 131.2,-331.78"/>
<text xml:space="preserve" text-anchor="middle" x="85" y="-308.93" font-family="Helvetica,sans-Serif" font-size="13.00">MAX / MIN 발화</text>
</g>
<!-- largeQ&#45;&gt;maxmin -->
<g id="edge9" class="edge">
<title>largeQ&#45;&gt;maxmin</title>
<path fill="none" stroke="#333333" stroke-width="1.3" d="M457.45,-541.23C398.73,-511.42 257.62,-437.74 147,-363.53 135.58,-355.87 123.58,-346.72 113.22,-338.43"/>
<polygon fill="#333333" stroke="#333333" stroke-width="1.3" points="115.15,-336.39 107.17,-333.53 111.62,-340.74 115.15,-336.39"/>
<text xml:space="preserve" text-anchor="middle" x="301.21" y="-431.96" font-family="Helvetica,sans-Serif" font-size="11.00">예</text>
</g>
<!-- emitn -->
<g id="node9" class="node">
<title>emitn</title>
<path fill="#eaf3ff" stroke="#2c6ebb" stroke-width="1.4" d="M527.45,-331.78C527.45,-331.78 442.55,-331.78 442.55,-331.78 436.55,-331.78 430.55,-325.78 430.55,-319.78 430.55,-319.78 430.55,-307.78 430.55,-307.78 430.55,-301.78 436.55,-295.78 442.55,-295.78 442.55,-295.78 527.45,-295.78 527.45,-295.78 533.45,-295.78 539.45,-301.78 539.45,-307.78 539.45,-307.78 539.45,-319.78 539.45,-319.78 539.45,-325.78 533.45,-331.78 527.45,-331.78"/>
<text xml:space="preserve" text-anchor="middle" x="485" y="-308.93" font-family="Helvetica,sans-Serif" font-size="13.00">NORM(q) 발화</text>
</g>
<!-- qnorm&#45;&gt;emitn -->
<g id="edge11" class="edge">
<title>qnorm&#45;&gt;emitn</title>
<path fill="none" stroke="#333333" stroke-width="1.3" d="M485,-418.19C485,-398.29 485,-365.65 485,-342.36"/>
<polygon fill="#333333" stroke="#333333" stroke-width="1.3" points="487.8,-342.36 485,-334.36 482.2,-342.36 487.8,-342.36"/>
</g>
<!-- bupd2 -->
<g id="node10" class="node">
<title>bupd2</title>
<path fill="#eaf3ff" stroke="#2c6ebb" stroke-width="1.4" d="M748.08,-191.89C748.08,-191.89 597.92,-191.89 597.92,-191.89 591.92,-191.89 585.92,-185.89 585.92,-179.89 585.92,-179.89 585.92,-167.89 585.92,-167.89 585.92,-161.89 591.92,-155.89 597.92,-155.89 597.92,-155.89 748.08,-155.89 748.08,-155.89 754.08,-155.89 760.08,-161.89 760.08,-167.89 760.08,-167.89 760.08,-179.89 760.08,-179.89 760.08,-185.89 754.08,-191.89 748.08,-191.89"/>
<text xml:space="preserve" text-anchor="middle" x="673" y="-169.04" font-family="Helvetica,sans-Serif" font-size="13.00">기준 b 업데이트 (EMA)</text>
</g>
<!-- emitn&#45;&gt;bupd2 -->
<g id="edge12" class="edge">
<title>emitn&#45;&gt;bupd2</title>
<path fill="none" stroke="#333333" stroke-width="1.3" d="M508.81,-295.32C542.48,-270.62 604.06,-225.45 641.49,-198"/>
<polygon fill="#333333" stroke="#333333" stroke-width="1.3" points="642.71,-200.58 647.5,-193.59 639.39,-196.07 642.71,-200.58"/>
</g>
<!-- scQ -->
<g id="node11" class="node">
<title>scQ</title>
<path fill="#ffd699" stroke="#ff9900" stroke-width="1.4" d="M381.42,-209.39C381.42,-209.39 261.93,-177.03 261.93,-177.03 256.14,-175.46 256.14,-172.32 261.93,-170.75 261.93,-170.75 381.42,-138.39 381.42,-138.39 387.21,-136.82 398.79,-136.82 404.58,-138.39 404.58,-138.39 524.07,-170.75 524.07,-170.75 529.86,-172.32 529.86,-175.46 524.07,-177.03 524.07,-177.03 404.58,-209.39 404.58,-209.39 398.79,-210.96 387.21,-210.96 381.42,-209.39"/>
<text xml:space="preserve" text-anchor="middle" x="393" y="-176.54" font-family="Helvetica,sans-Serif" font-size="13.00">스케일 적응 조건</text>
<text xml:space="preserve" text-anchor="middle" x="393" y="-161.54" font-family="Helvetica,sans-Serif" font-size="13.00">(체류시간 &amp; near)</text>
</g>
<!-- emitn&#45;&gt;scQ -->
<g id="edge19" class="edge">
<title>emitn&#45;&gt;scQ</title>
<path fill="none" stroke="#333333" stroke-width="1.3" d="M473.35,-295.32C459.98,-275.29 437.63,-241.78 419.89,-215.2"/>
<polygon fill="#333333" stroke="#333333" stroke-width="1.3" points="422.41,-213.93 415.64,-208.82 417.75,-217.03 422.41,-213.93"/>
</g>
<!-- bupd2&#45;&gt;diff -->
<g id="edge18" class="edge">
<title>bupd2&#45;&gt;diff</title>
<path fill="none" stroke="#333333" stroke-width="1.3" d="M678.59,-192.41C707.43,-284.22 835.38,-709.77 764,-816.28 728.96,-868.57 657.48,-890.51 605.69,-899.69"/>
<polygon fill="#333333" stroke="#333333" stroke-width="1.3" points="605.31,-896.92 597.88,-900.99 606.23,-902.44 605.31,-896.92"/>
<text xml:space="preserve" text-anchor="middle" x="792.88" y="-551.2" font-family="Helvetica,sans-Serif" font-size="11.00">루프</text>
</g>
<!-- scQ&#45;&gt;diff -->
<g id="edge22" class="edge">
<title>scQ&#45;&gt;diff</title>
<path fill="none" stroke="#999999" stroke-width="1.3" stroke-dasharray="5,2" d="M328.96,-195.66C278.64,-216.48 217,-253.97 217,-312.78 217,-497.41 217,-497.41 217,-497.41 217,-570.84 199.12,-587.77 194,-661.03 192.88,-676.99 189.52,-681.67 194,-697.03 211.59,-757.37 227.13,-770.32 270,-816.28 325.7,-876 421.54,-896.16 484.09,-902.93"/>
<polygon fill="#999999" stroke="#999999" stroke-width="1.3" points="483.63,-905.7 491.87,-903.71 484.19,-900.13 483.63,-905.7"/>
<text xml:space="preserve" text-anchor="middle" x="238.36" y="-551.2" font-family="Helvetica,sans-Serif" font-size="11.00">아니오</text>
</g>
<!-- scDo -->
<g id="node12" class="node">
<title>scDo</title>
<path fill="#eaf3ff" stroke="#2c6ebb" stroke-width="1.4" d="M831.45,-52C831.45,-52 734.55,-52 734.55,-52 728.55,-52 722.55,-46 722.55,-40 722.55,-40 722.55,-28 722.55,-28 722.55,-22 728.55,-16 734.55,-16 734.55,-16 831.45,-16 831.45,-16 837.45,-16 843.45,-22 843.45,-28 843.45,-28 843.45,-40 843.45,-40 843.45,-46 837.45,-52 831.45,-52"/>
<text xml:space="preserve" text-anchor="middle" x="783" y="-29.15" font-family="Helvetica,sans-Serif" font-size="13.00">SCALE(±1) 발화</text>
</g>
<!-- scQ&#45;&gt;scDo -->
<g id="edge20" class="edge">
<title>scQ&#45;&gt;scDo</title>
<path fill="none" stroke="#333333" stroke-width="1.3" d="M454.37,-151.19C528.22,-125.08 651.34,-81.55 724.08,-55.83"/>
<polygon fill="#333333" stroke="#333333" stroke-width="1.3" points="724.67,-58.59 731.28,-53.29 722.8,-53.31 724.67,-58.59"/>
<text xml:space="preserve" text-anchor="middle" x="630.81" y="-88.8" font-family="Helvetica,sans-Serif" font-size="11.00">예</text>
</g>
<!-- scDo&#45;&gt;diff -->
<g id="edge21" class="edge">
<title>scDo&#45;&gt;diff</title>
<path fill="none" stroke="#333333" stroke-width="1.3" d="M788.94,-52.62C797.16,-78.61 811,-128.92 811,-172.89 811,-437.78 811,-437.78 811,-437.78 811,-466.41 812.34,-473.58 815.5,-502.03 817.29,-518.12 819.77,-521.89 821,-538.03 827.98,-630 814.36,-653.51 798,-744.28 792.22,-776.36 800.37,-788.09 784,-816.28 748.48,-877.44 664.43,-897.33 606.12,-903.63"/>
<polygon fill="#333333" stroke="#333333" stroke-width="1.3" points="605.92,-900.83 598.23,-904.4 606.46,-906.41 605.92,-900.83"/>
<text xml:space="preserve" text-anchor="middle" x="831.25" y="-491.58" font-family="Helvetica,sans-Serif" font-size="11.00">루프</text>
</g>
<!-- emitQ -->
<g id="node14" class="node">
<title>emitQ</title>
<path fill="#ffd699" stroke="#ff9900" stroke-width="1.4" d="M980.12,-453.06C980.12,-453.06 879.27,-438.5 879.27,-438.5 873.33,-437.64 873.33,-435.92 879.27,-435.06 879.27,-435.06 980.12,-420.5 980.12,-420.5 986.06,-419.64 997.94,-419.64 1003.88,-420.5 1003.88,-420.5 1104.73,-435.06 1104.73,-435.06 1110.67,-435.92 1110.67,-437.64 1104.73,-438.5 1104.73,-438.5 1003.88,-453.06 1003.88,-453.06 997.94,-453.92 986.06,-453.92 980.12,-453.06"/>
<text xml:space="preserve" text-anchor="middle" x="992" y="-431.93" font-family="Helvetica,sans-Serif" font-size="13.00">발화 조건 충족?</text>
</g>
<!-- sigma&#45;&gt;emitQ -->
<g id="edge13" class="edge">
<title>sigma&#45;&gt;emitQ</title>
<path fill="none" stroke="#333333" stroke-width="1.3" d="M975.84,-537.48C978.97,-518.2 984.02,-487.01 987.65,-464.65"/>
<polygon fill="#333333" stroke="#333333" stroke-width="1.3" points="990.37,-465.36 988.88,-457.01 984.84,-464.46 990.37,-465.36"/>
</g>
<!-- emitQ&#45;&gt;bupd2 -->
<g id="edge15" class="edge">
<title>emitQ&#45;&gt;bupd2</title>
<path fill="none" stroke="#333333" stroke-width="1.3" d="M998.64,-419.28C1009.3,-389.83 1026.32,-327.6 998,-287.78 946.71,-215.66 845.92,-189.21 770.12,-179.72"/>
<polygon fill="#333333" stroke="#333333" stroke-width="1.3" points="770.76,-176.97 762.49,-178.82 770.1,-182.54 770.76,-176.97"/>
<text xml:space="preserve" text-anchor="middle" x="1037.16" y="-308.96" font-family="Helvetica,sans-Serif" font-size="11.00">아니오</text>
</g>
<!-- pulse -->
<g id="node15" class="node">
<title>pulse</title>
<path fill="#eaf3ff" stroke="#2c6ebb" stroke-width="1.4" d="M960.95,-331.78C960.95,-331.78 879.05,-331.78 879.05,-331.78 873.05,-331.78 867.05,-325.78 867.05,-319.78 867.05,-319.78 867.05,-307.78 867.05,-307.78 867.05,-301.78 873.05,-295.78 879.05,-295.78 879.05,-295.78 960.95,-295.78 960.95,-295.78 966.95,-295.78 972.95,-301.78 972.95,-307.78 972.95,-307.78 972.95,-319.78 972.95,-319.78 972.95,-325.78 966.95,-331.78 960.95,-331.78"/>
<text xml:space="preserve" text-anchor="middle" x="920" y="-308.93" font-family="Helvetica,sans-Serif" font-size="13.00">±1 펄스 발화</text>
</g>
<!-- emitQ&#45;&gt;pulse -->
<g id="edge14" class="edge">
<title>emitQ&#45;&gt;pulse</title>
<path fill="none" stroke="#333333" stroke-width="1.3" d="M982.59,-419.96C970.57,-399.76 949.62,-364.56 935.3,-340.49"/>
<polygon fill="#333333" stroke="#333333" stroke-width="1.3" points="937.85,-339.3 931.35,-333.86 933.04,-342.17 937.85,-339.3"/>
<text xml:space="preserve" text-anchor="middle" x="968.19" y="-372.33" font-family="Helvetica,sans-Serif" font-size="11.00">예</text>
</g>
<!-- pulse&#45;&gt;bupd2 -->
<g id="edge16" class="edge">
<title>pulse&#45;&gt;bupd2</title>
<path fill="none" stroke="#333333" stroke-width="1.3" d="M888.47,-295.18C843.69,-270.18 761.69,-224.4 712.78,-197.1"/>
<polygon fill="#333333" stroke="#333333" stroke-width="1.3" points="714.41,-194.8 706.06,-193.35 711.68,-199.69 714.41,-194.8"/>
</g>
<!-- maxmin&#45;&gt;bupd2 -->
<g id="edge17" class="edge">
<title>maxmin&#45;&gt;bupd2</title>
<path fill="none" stroke="#333333" stroke-width="1.3" d="M125.27,-295.17C132.42,-292.44 139.86,-289.84 147,-287.78 326.65,-235.82 379.89,-259.16 561,-212.53 579.27,-207.83 598.87,-201.64 616.48,-195.65"/>
<polygon fill="#333333" stroke="#333333" stroke-width="1.3" points="616.98,-198.44 623.63,-193.19 615.16,-193.15 616.98,-198.44"/>
</g>
<!-- dwell -->
<g id="node17" class="node">
<title>dwell</title>
<path fill="#ffd699" stroke="#ff9900" stroke-width="1.4" d="M1288.11,-330.14C1288.11,-330.14 1181.66,-315.42 1181.66,-315.42 1175.71,-314.6 1175.71,-312.96 1181.66,-312.14 1181.66,-312.14 1288.11,-297.42 1288.11,-297.42 1294.06,-296.6 1305.94,-296.6 1311.89,-297.42 1311.89,-297.42 1418.34,-312.14 1418.34,-312.14 1424.29,-312.96 1424.29,-314.6 1418.34,-315.42 1418.34,-315.42 1311.89,-330.14 1311.89,-330.14 1305.94,-330.96 1294.06,-330.96 1288.11,-330.14"/>
<text xml:space="preserve" text-anchor="middle" x="1300" y="-308.93" font-family="Helvetica,sans-Serif" font-size="13.00">스케일 체류시간</text>
</g>
<!-- adapt -->
<g id="node18" class="node">
<title>adapt</title>
<path fill="#eaf3ff" stroke="#2c6ebb" stroke-width="1.4" d="M1322.08,-191.89C1322.08,-191.89 1213.92,-191.89 1213.92,-191.89 1207.92,-191.89 1201.92,-185.89 1201.92,-179.89 1201.92,-179.89 1201.92,-167.89 1201.92,-167.89 1201.92,-161.89 1207.92,-155.89 1213.92,-155.89 1213.92,-155.89 1322.08,-155.89 1322.08,-155.89 1328.08,-155.89 1334.08,-161.89 1334.08,-167.89 1334.08,-167.89 1334.08,-179.89 1334.08,-179.89 1334.08,-185.89 1328.08,-191.89 1322.08,-191.89"/>
<text xml:space="preserve" text-anchor="middle" x="1268" y="-169.04" font-family="Helvetica,sans-Serif" font-size="13.00">스케일 적용 (±1)</text>
</g>
<!-- dwell&#45;&gt;adapt -->
<g id="edge23" class="edge">
<title>dwell&#45;&gt;adapt</title>
<path fill="none" stroke="#333333" stroke-width="1.3" d="M1296.08,-295.87C1290.64,-272.43 1280.74,-229.8 1274.27,-201.91"/>
<polygon fill="#333333" stroke="#333333" stroke-width="1.3" points="1277.04,-201.45 1272.5,-194.29 1271.58,-202.71 1277.04,-201.45"/>
<text xml:space="preserve" text-anchor="middle" x="1294.74" y="-249.33" font-family="Helvetica,sans-Serif" font-size="11.00">예</text>
</g>
<!-- adapt&#45;&gt;scDo -->
<g id="edge24" class="edge">
<title>adapt&#45;&gt;scDo</title>
<path fill="none" stroke="#333333" stroke-width="1.3" d="M1206.08,-155.29C1115.72,-129.6 948.18,-81.96 853.3,-54.99"/>
<polygon fill="#333333" stroke="#333333" stroke-width="1.3" points="854.14,-52.31 845.68,-52.82 852.61,-57.7 854.14,-52.31"/>
<text xml:space="preserve" text-anchor="middle" x="1012.21" y="-88.8" font-family="Helvetica,sans-Serif" font-size="11.00">루프</text>
</g>
</g>
</svg>
