<?xml version="1.0" encoding="UTF-8" standalone="no"?>
<!DOCTYPE svg PUBLIC "-//W3C//DTD SVG 1.1//EN"
 "http://www.w3.org/Graphics/SVG/1.1/DTD/svg11.dtd">
<!-- Generated by graphviz version 13.1.2 (20250808.2320)
 -->
<!-- Title: UE8M0_OVERVIEW_AUTO_ZH Pages: 1 -->
<svg width="1373pt" height="1181pt"
 viewBox="0.00 0.00 1373.00 1181.00" xmlns="http://www.w3.org/2000/svg" xmlns:xlink="http://www.w3.org/1999/xlink">
<g id="graph0" class="graph" transform="scale(1 1) rotate(0) translate(4 1176.53)">
<title>UE8M0_OVERVIEW_AUTO_ZH</title>
<polygon fill="#f9f9f9" stroke="none" points="-4,4 -4,-1176.53 1369,-1176.53 1369,4 -4,4"/>
<g id="clust1" class="cluster">
<title>cluster_main</title>
<path fill="#e6e6e6" stroke="#e6e6e6" d="M167,-8C167,-8 846,-8 846,-8 852,-8 858,-14 858,-20 858,-20 858,-1152.53 858,-1152.53 858,-1158.53 852,-1164.53 846,-1164.53 846,-1164.53 167,-1164.53 167,-1164.53 161,-1164.53 155,-1158.53 155,-1152.53 155,-1152.53 155,-20 155,-20 155,-14 161,-8 167,-8"/>
<text xml:space="preserve" text-anchor="middle" x="506.5" y="-1147.23" font-family="Helvetica,sans-Serif" font-size="14.00" fill="#444444">UE8M0 时间流程</text>
</g>
<g id="clust2" class="cluster">
<title>cluster_small</title>
<path fill="#cfe9ff" stroke="#cfe9ff" d="M878,-283.28C878,-283.28 1108,-283.28 1108,-283.28 1114,-283.28 1120,-289.28 1120,-295.28 1120,-295.28 1120,-589.28 1120,-589.28 1120,-595.28 1114,-601.28 1108,-601.28 1108,-601.28 878,-601.28 878,-601.28 872,-601.28 866,-595.28 866,-589.28 866,-589.28 866,-295.28 866,-295.28 866,-289.28 872,-283.28 878,-283.28"/>
<text xml:space="preserve" text-anchor="middle" x="993" y="-583.98" font-family="Helvetica,sans-Serif" font-size="14.00" fill="#444444">小差分 (ΣΔ)</text>
</g>
<g id="clust3" class="cluster">
<title>cluster_large</title>
<path fill="#ffe6cc" stroke="#ffe6cc" d="M20,-283.28C20,-283.28 135,-283.28 135,-283.28 141,-283.28 147,-289.28 147,-295.28 147,-295.28 147,-347.03 147,-347.03 147,-353.03 141,-359.03 135,-359.03 135,-359.03 20,-359.03 20,-359.03 14,-359.03 8,-353.03 8,-347.03 8,-347.03 8,-295.28 8,-295.28 8,-289.28 14,-283.28 20,-283.28"/>
<text xml:space="preserve" text-anchor="middle" x="77.5" y="-341.73" font-family="Helvetica,sans-Serif" font-size="14.00" fill="#444444">大差分 (MAX/MIN)</text>
</g>
<g id="clust4" class="cluster">
<title>cluster_scale</title>
<path fill="#dff7e7" stroke="#dff7e7" d="M1145,-145.64C1145,-145.64 1345,-145.64 1345,-145.64 1351,-145.64 1357,-151.64 1357,-157.64 1357,-157.64 1357,-345.53 1357,-345.53 1357,-351.53 1351,-357.53 1345,-357.53 1345,-357.53 1145,-357.53 1145,-357.53 1139,-357.53 1133,-351.53 1133,-345.53 1133,-345.53 1133,-157.64 1133,-157.64 1133,-151.64 1139,-145.64 1145,-145.64"/>
<text xml:space="preserve" text-anchor="middle" x="1245" y="-340.23" font-family="Helvetica,sans-Serif" font-size="14.00" fill="#444444">尺度应用</text>
</g>
<!-- start -->
<g id="node1" class="node">
<title>start</title>
<path fill="#eaf3ff" stroke="#2c6ebb" stroke-width="1.4" d="M561,-1132.78C561,-1132.78 531,-1132.78 531,-1132.78 525,-1132.78 519,-1126.78 519,-1120.78 519,-1120.78 519,-1108.78 519,-1108.78 519,-1102.78 525,-1096.78 531,-1096.78 531,-1096.78 561,-1096.78 561,-1096.78 567,-1096.78 573,-1102.78 573,-1108.78 573,-1108.78 573,-1120.78 573,-1120.78 573,-1126.78 567,-1132.78 561,-1132.78"/>
<text xml:space="preserve" text-anchor="middle" x="546" y="-1108.81" font-family="Helvetica,sans-Serif" font-size="13.00">开始</text>
</g>
<!-- inb -->
<g id="node2" class="node">
<title>inb</title>
<path fill="#eaf3ff" stroke="none" stroke-width="1.4" d="M569,-1023.78C569,-1023.78 523,-1023.78 523,-1023.78 518,-1023.78 513,-1018.78 513,-1013.78 513,-1013.78 513,-1003.78 513,-1003.78 513,-998.78 518,-993.78 523,-993.78 523,-993.78 569,-993.78 569,-993.78 574,-993.78 579,-998.78 579,-1003.78 579,-1003.78 579,-1013.78 579,-1013.78 579,-1018.78 574,-1023.78 569,-1023.78"/>
<text xml:space="preserve" text-anchor="middle" x="546" y="-1011.43" font-family="Helvetica,sans-Serif" font-size="13.00" fill="#000000">输入 x 与</text>
<text xml:space="preserve" text-anchor="middle" x="546" y="-996.43" font-family="Helvetica,sans-Serif" font-size="13.00" fill="#000000">基线 b</text>
</g>
<!-- start&#45;&gt;inb -->
<g id="edge1" class="edge">
<title>start&#45;&gt;inb</title>
<path fill="none" stroke="#333333" stroke-width="1.3" d="M546,-1096.14C546,-1078.83 546,-1052.32 546,-1033.25"/>
<polygon fill="#333333" stroke="#333333" stroke-width="1.3" points="548.8,-1033.48 546,-1025.48 543.2,-1033.48 548.8,-1033.48"/>
</g>
<!-- diff -->
<g id="node3" class="node">
<title>diff</title>
<path fill="#eaf3ff" stroke="#2c6ebb" stroke-width="1.4" d="M584.7,-920.78C584.7,-920.78 507.3,-920.78 507.3,-920.78 501.3,-920.78 495.3,-914.78 495.3,-908.78 495.3,-908.78 495.3,-896.78 495.3,-896.78 495.3,-890.78 501.3,-884.78 507.3,-884.78 507.3,-884.78 584.7,-884.78 584.7,-884.78 590.7,-884.78 596.7,-890.78 596.7,-896.78 596.7,-896.78 596.7,-908.78 596.7,-908.78 596.7,-914.78 590.7,-920.78 584.7,-920.78"/>
<text xml:space="preserve" text-anchor="middle" x="546" y="-897.93" font-family="Helvetica,sans-Serif" font-size="13.00">差分 d = x &#45; b</text>
</g>
<!-- inb&#45;&gt;diff -->
<g id="edge2" class="edge">
<title>inb&#45;&gt;diff</title>
<path fill="none" stroke="#333333" stroke-width="1.3" d="M546,-994.18C546,-978.24 546,-951.42 546,-931.12"/>
<polygon fill="#333333" stroke="#333333" stroke-width="1.3" points="548.8,-931.16 546,-923.16 543.2,-931.16 548.8,-931.16"/>
</g>
<!-- refrQ -->
<g id="node4" class="node">
<title>refrQ</title>
<path fill="#ffd699" stroke="#ff9900" stroke-width="1.4" d="M534.05,-810.7C534.05,-810.7 358.11,-794.86 358.11,-794.86 352.13,-794.32 352.13,-793.24 358.11,-792.7 358.11,-792.7 534.05,-776.86 534.05,-776.86 540.02,-776.32 551.98,-776.32 557.95,-776.86 557.95,-776.86 733.89,-792.7 733.89,-792.7 739.87,-793.24 739.87,-794.32 733.89,-794.86 733.89,-794.86 557.95,-810.7 557.95,-810.7 551.98,-811.24 540.02,-811.24 534.05,-810.7"/>
<text xml:space="preserve" text-anchor="middle" x="546" y="-788.93" font-family="Helvetica,sans-Serif" font-size="13.00">不应期？(now &lt; t_event_quiet)</text>
</g>
<!-- diff&#45;&gt;refrQ -->
<g id="edge3" class="edge">
<title>diff&#45;&gt;refrQ</title>
<path fill="none" stroke="#333333" stroke-width="1.3" d="M546,-884.11C546,-867.31 546,-841.77 546,-822.3"/>
<polygon fill="#333333" stroke="#333333" stroke-width="1.3" points="548.8,-822.44 546,-814.44 543.2,-822.44 548.8,-822.44"/>
</g>
<!-- bupd -->
<g id="node5" class="node">
<title>bupd</title>
<path fill="#eaf3ff" stroke="#2c6ebb" stroke-width="1.4" d="M342.82,-692.53C342.82,-692.53 227.18,-692.53 227.18,-692.53 221.18,-692.53 215.18,-686.53 215.18,-680.53 215.18,-680.53 215.18,-668.53 215.18,-668.53 215.18,-662.53 221.18,-656.53 227.18,-656.53 227.18,-656.53 342.82,-656.53 342.82,-656.53 348.82,-656.53 354.82,-662.53 354.82,-668.53 354.82,-668.53 354.82,-680.53 354.82,-680.53 354.82,-686.53 348.82,-692.53 342.82,-692.53"/>
<text xml:space="preserve" text-anchor="middle" x="285" y="-669.68" font-family="Helvetica,sans-Serif" font-size="13.00">基线 b 更新 (EMA)</text>
</g>
<!-- refrQ&#45;&gt;bupd -->
<g id="edge4" class="edge">
<title>refrQ&#45;&gt;bupd</title>
<path fill="none" stroke="#333333" stroke-width="1.3" d="M513.21,-778.05C467.78,-757.64 385.39,-720.63 333.02,-697.1"/>
<polygon fill="#333333" stroke="#333333" stroke-width="1.3" points="334.49,-694.69 326.04,-693.97 332.19,-699.8 334.49,-694.69"/>
<text xml:space="preserve" text-anchor="middle" x="431.2" y="-729.33" font-family="Helvetica,sans-Serif" font-size="11.00">是</text>
</g>
<!-- smallQ -->
<g id="node6" class="node">
<title>smallQ</title>
<path fill="#ffd699" stroke="#ff9900" stroke-width="1.4" d="M546.08,-691.13C546.08,-691.13 416.48,-675.93 416.48,-675.93 410.52,-675.23 410.52,-673.83 416.48,-673.13 416.48,-673.13 546.08,-657.93 546.08,-657.93 552.04,-657.23 563.96,-657.23 569.92,-657.93 569.92,-657.93 699.52,-673.13 699.52,-673.13 705.48,-673.83 705.48,-675.23 699.52,-675.93 699.52,-675.93 569.92,-691.13 569.92,-691.13 563.96,-691.83 552.04,-691.83 546.08,-691.13"/>
<text xml:space="preserve" text-anchor="middle" x="558" y="-669.68" font-family="Helvetica,sans-Serif" font-size="13.00">是否小？(|d| &lt; λ0·2^E)</text>
</g>
<!-- refrQ&#45;&gt;smallQ -->
<g id="edge5" class="edge">
<title>refrQ&#45;&gt;smallQ</title>
<path fill="none" stroke="#333333" stroke-width="1.3" d="M547.77,-775.48C549.74,-756.26 552.94,-724.97 555.24,-702.52"/>
<polygon fill="#333333" stroke="#333333" stroke-width="1.3" points="557.99,-703.1 556.02,-694.86 552.42,-702.53 557.99,-703.1"/>
<text xml:space="preserve" text-anchor="middle" x="560.23" y="-729.33" font-family="Helvetica,sans-Serif" font-size="11.00">否</text>
</g>
<!-- bupd&#45;&gt;diff -->
<g id="edge6" class="edge">
<title>bupd&#45;&gt;diff</title>
<path fill="none" stroke="#999999" stroke-width="1.3" stroke-dasharray="5,2" d="M279.87,-693.01C272.78,-721.05 263.59,-776.48 289.5,-811.78 334.47,-873.05 424.36,-892.85 484.86,-899.11"/>
<polygon fill="#999999" stroke="#999999" stroke-width="1.3" points="484.49,-901.88 492.72,-899.85 485.02,-896.31 484.49,-901.88"/>
<text xml:space="preserve" text-anchor="middle" x="305.25" y="-788.95" font-family="Helvetica,sans-Serif" font-size="11.00">循环</text>
</g>
<!-- largeQ -->
<g id="node7" class="node">
<title>largeQ</title>
<path fill="#ffd699" stroke="#ff9900" stroke-width="1.4" d="M460.08,-568.16C460.08,-568.16 327.67,-552.9 327.67,-552.9 321.71,-552.22 321.71,-550.84 327.67,-550.16 327.67,-550.16 460.08,-534.9 460.08,-534.9 466.04,-534.22 477.96,-534.22 483.92,-534.9 483.92,-534.9 616.33,-550.16 616.33,-550.16 622.29,-550.84 622.29,-552.22 616.33,-552.9 616.33,-552.9 483.92,-568.16 483.92,-568.16 477.96,-568.84 466.04,-568.84 460.08,-568.16"/>
<text xml:space="preserve" text-anchor="middle" x="472" y="-546.68" font-family="Helvetica,sans-Serif" font-size="13.00">是否大？(|d| &gt; λhi·2^E)</text>
</g>
<!-- smallQ&#45;&gt;largeQ -->
<g id="edge8" class="edge">
<title>smallQ&#45;&gt;largeQ</title>
<path fill="none" stroke="#333333" stroke-width="1.3" d="M546.4,-657.21C531.64,-636.44 506.01,-600.38 489.03,-576.49"/>
<polygon fill="#333333" stroke="#333333" stroke-width="1.3" points="491.47,-575.09 484.55,-570.19 486.91,-578.34 491.47,-575.09"/>
<text xml:space="preserve" text-anchor="middle" x="528.02" y="-610.08" font-family="Helvetica,sans-Serif" font-size="11.00">否</text>
</g>
<!-- sigma -->
<g id="node13" class="node">
<title>sigma</title>
<path fill="#eaf3ff" stroke="#2c6ebb" stroke-width="1.4" d="M1047.45,-569.53C1047.45,-569.53 920.55,-569.53 920.55,-569.53 914.55,-569.53 908.55,-563.53 908.55,-557.53 908.55,-557.53 908.55,-545.53 908.55,-545.53 908.55,-539.53 914.55,-533.53 920.55,-533.53 920.55,-533.53 1047.45,-533.53 1047.45,-533.53 1053.45,-533.53 1059.45,-539.53 1059.45,-545.53 1059.45,-545.53 1059.45,-557.53 1059.45,-557.53 1059.45,-563.53 1053.45,-569.53 1047.45,-569.53"/>
<text xml:space="preserve" text-anchor="middle" x="984" y="-546.68" font-family="Helvetica,sans-Serif" font-size="13.00">ΣΔ 累加器 (r += d·Δt)</text>
</g>
<!-- smallQ&#45;&gt;sigma -->
<g id="edge7" class="edge">
<title>smallQ&#45;&gt;sigma</title>
<path fill="none" stroke="#333333" stroke-width="1.3" d="M618.09,-662.89C681.55,-650.89 784.12,-629.34 870,-601.28 893.08,-593.74 917.96,-583.38 938.56,-574.15"/>
<polygon fill="#333333" stroke="#333333" stroke-width="1.3" points="939.49,-576.8 945.62,-570.95 937.18,-571.7 939.49,-576.8"/>
<text xml:space="preserve" text-anchor="middle" x="844.72" y="-610.08" font-family="Helvetica,sans-Serif" font-size="11.00">是</text>
</g>
<!-- qnorm -->
<g id="node8" class="node">
<title>qnorm</title>
<path fill="#eaf3ff" stroke="#2c6ebb" stroke-width="1.4" d="M501.7,-450.28C501.7,-450.28 442.3,-450.28 442.3,-450.28 436.3,-450.28 430.3,-444.28 430.3,-438.28 430.3,-438.28 430.3,-426.28 430.3,-426.28 430.3,-420.28 436.3,-414.28 442.3,-414.28 442.3,-414.28 501.7,-414.28 501.7,-414.28 507.7,-414.28 513.7,-420.28 513.7,-426.28 513.7,-426.28 513.7,-438.28 513.7,-438.28 513.7,-444.28 507.7,-450.28 501.7,-450.28"/>
<text xml:space="preserve" text-anchor="middle" x="472" y="-426.31" font-family="Helvetica,sans-Serif" font-size="13.00">常规量化</text>
</g>
<!-- largeQ&#45;&gt;qnorm -->
<g id="edge10" class="edge">
<title>largeQ&#45;&gt;qnorm</title>
<path fill="none" stroke="#333333" stroke-width="1.3" d="M472,-532.98C472,-513.89 472,-483.15 472,-460.84"/>
<polygon fill="#333333" stroke="#333333" stroke-width="1.3" points="474.8,-460.92 472,-452.92 469.2,-460.92 474.8,-460.92"/>
<text xml:space="preserve" text-anchor="middle" x="479.88" y="-487.08" font-family="Helvetica,sans-Serif" font-size="11.00">否</text>
</g>
<!-- maxmin -->
<g id="node16" class="node">
<title>maxmin</title>
<path fill="#eaf3ff" stroke="#2c6ebb" stroke-width="1.4" d="M127.2,-327.28C127.2,-327.28 34.8,-327.28 34.8,-327.28 28.8,-327.28 22.8,-321.28 22.8,-315.28 22.8,-315.28 22.8,-303.28 22.8,-303.28 22.8,-297.28 28.8,-291.28 34.8,-291.28 34.8,-291.28 127.2,-291.28 127.2,-291.28 133.2,-291.28 139.2,-297.28 139.2,-303.28 139.2,-303.28 139.2,-315.28 139.2,-315.28 139.2,-321.28 133.2,-327.28 127.2,-327.28"/>
<text xml:space="preserve" text-anchor="middle" x="81" y="-304.43" font-family="Helvetica,sans-Serif" font-size="13.00">MAX / MIN 发放</text>
</g>
<!-- largeQ&#45;&gt;maxmin -->
<g id="edge9" class="edge">
<title>largeQ&#45;&gt;maxmin</title>
<path fill="none" stroke="#333333" stroke-width="1.3" d="M444.35,-536.13C386.77,-505.78 250.42,-432.01 143,-359.03 131.72,-351.37 119.83,-342.28 109.51,-334.05"/>
<polygon fill="#333333" stroke="#333333" stroke-width="1.3" points="111.48,-332.04 103.5,-329.19 107.96,-336.4 111.48,-332.04"/>
<text xml:space="preserve" text-anchor="middle" x="293.49" y="-427.46" font-family="Helvetica,sans-Serif" font-size="11.00">是</text>
</g>
<!-- emitn -->
<g id="node9" class="node">
<title>emitn</title>
<path fill="#eaf3ff" stroke="#2c6ebb" stroke-width="1.4" d="M514.45,-327.28C514.45,-327.28 429.55,-327.28 429.55,-327.28 423.55,-327.28 417.55,-321.28 417.55,-315.28 417.55,-315.28 417.55,-303.28 417.55,-303.28 417.55,-297.28 423.55,-291.28 429.55,-291.28 429.55,-291.28 514.45,-291.28 514.45,-291.28 520.45,-291.28 526.45,-297.28 526.45,-303.28 526.45,-303.28 526.45,-315.28 526.45,-315.28 526.45,-321.28 520.45,-327.28 514.45,-327.28"/>
<text xml:space="preserve" text-anchor="middle" x="472" y="-304.43" font-family="Helvetica,sans-Serif" font-size="13.00">NORM(q) 发放</text>
</g>
<!-- qnorm&#45;&gt;emitn -->
<g id="edge11" class="edge">
<title>qnorm&#45;&gt;emitn</title>
<path fill="none" stroke="#333333" stroke-width="1.3" d="M472,-413.69C472,-393.79 472,-361.15 472,-337.86"/>
<polygon fill="#333333" stroke="#333333" stroke-width="1.3" points="474.8,-337.86 472,-329.86 469.2,-337.86 474.8,-337.86"/>
</g>
<!-- bupd2 -->
<g id="node10" class="node">
<title>bupd2</title>
<path fill="#eaf3ff" stroke="#2c6ebb" stroke-width="1.4" d="M754.83,-189.64C754.83,-189.64 639.17,-189.64 639.17,-189.64 633.17,-189.64 627.17,-183.64 627.17,-177.64 627.17,-177.64 627.17,-165.64 627.17,-165.64 627.17,-159.64 633.17,-153.64 639.17,-153.64 639.17,-153.64 754.83,-153.64 754.83,-153.64 760.83,-153.64 766.83,-159.64 766.83,-165.64 766.83,-165.64 766.83,-177.64 766.83,-177.64 766.83,-183.64 760.83,-189.64 754.83,-189.64"/>
<text xml:space="preserve" text-anchor="middle" x="697" y="-166.79" font-family="Helvetica,sans-Serif" font-size="13.00">基线 b 更新 (EMA)</text>
</g>
<!-- emitn&#45;&gt;bupd2 -->
<g id="edge12" class="edge">
<title>emitn&#45;&gt;bupd2</title>
<path fill="none" stroke="#333333" stroke-width="1.3" d="M500.95,-290.83C541.35,-266.48 614.65,-222.28 659.28,-195.38"/>
<polygon fill="#333333" stroke="#333333" stroke-width="1.3" points="660.71,-197.79 666.12,-191.26 657.82,-192.99 660.71,-197.79"/>
</g>
<!-- scQ -->
<g id="node11" class="node">
<title>scQ</title>
<path fill="#ffd699" stroke="#ff9900" stroke-width="1.4" d="M387.24,-205.63C387.24,-205.63 232.86,-174.04 232.86,-174.04 226.98,-172.84 226.98,-170.44 232.86,-169.24 232.86,-169.24 387.24,-137.65 387.24,-137.65 393.12,-136.45 404.88,-136.45 410.76,-137.65 410.76,-137.65 565.14,-169.24 565.14,-169.24 571.02,-170.44 571.02,-172.84 565.14,-174.04 565.14,-174.04 410.76,-205.63 410.76,-205.63 404.88,-206.83 393.12,-206.83 387.24,-205.63"/>
<text xml:space="preserve" text-anchor="middle" x="399" y="-173.17" font-family="Helvetica,sans-Serif" font-size="13.00">尺度适应条件</text>
<text xml:space="preserve" text-anchor="middle" x="399" y="-160.42" font-family="Helvetica,sans-Serif" font-size="13.00">(驻留时间 &amp; &#160;邻近 near)</text>
</g>
<!-- emitn&#45;&gt;scQ -->
<g id="edge19" class="edge">
<title>emitn&#45;&gt;scQ</title>
<path fill="none" stroke="#333333" stroke-width="1.3" d="M462.61,-290.83C452.16,-271.41 434.92,-239.38 421.02,-213.56"/>
<polygon fill="#333333" stroke="#333333" stroke-width="1.3" points="423.64,-212.52 417.39,-206.8 418.71,-215.18 423.64,-212.52"/>
</g>
<!-- bupd2&#45;&gt;diff -->
<g id="edge18" class="edge">
<title>bupd2&#45;&gt;diff</title>
<path fill="none" stroke="#333333" stroke-width="1.3" d="M700.37,-190.06C718.97,-287.13 806.93,-758.71 771,-811.78 734.58,-865.57 660.26,-887.21 606.99,-895.92"/>
<polygon fill="#333333" stroke="#333333" stroke-width="1.3" points="606.73,-893.13 599.25,-897.1 607.58,-898.66 606.73,-893.13"/>
<text xml:space="preserve" text-anchor="middle" x="783.04" y="-546.7" font-family="Helvetica,sans-Serif" font-size="11.00">循环</text>
</g>
<!-- scQ&#45;&gt;diff -->
<g id="edge22" class="edge">
<title>scQ&#45;&gt;diff</title>
<path fill="none" stroke="#999999" stroke-width="1.3" stroke-dasharray="5,2" d="M326.02,-193.72C273.91,-213.77 213,-249.73 213,-308.28 213,-492.91 213,-492.91 213,-492.91 213,-566.34 195.12,-583.27 190,-656.53 188.88,-672.49 185.66,-677.13 190,-692.53 206.85,-752.34 220.4,-766.54 263,-811.78 320.99,-873.37 420.9,-892.98 485.17,-899.12"/>
<polygon fill="#999999" stroke="#999999" stroke-width="1.3" points="484.6,-901.88 492.82,-899.79 485.09,-896.31 484.6,-901.88"/>
<text xml:space="preserve" text-anchor="middle" x="218.61" y="-546.7" font-family="Helvetica,sans-Serif" font-size="11.00">否</text>
</g>
<!-- scDo -->
<g id="node12" class="node">
<title>scDo</title>
<path fill="#eaf3ff" stroke="#2c6ebb" stroke-width="1.4" d="M837.7,-52C837.7,-52 712.3,-52 712.3,-52 706.3,-52 700.3,-46 700.3,-40 700.3,-40 700.3,-28 700.3,-28 700.3,-22 706.3,-16 712.3,-16 712.3,-16 837.7,-16 837.7,-16 843.7,-16 849.7,-22 849.7,-28 849.7,-28 849.7,-40 849.7,-40 849.7,-46 843.7,-52 837.7,-52"/>
<text xml:space="preserve" text-anchor="middle" x="775" y="-29.15" font-family="Helvetica,sans-Serif" font-size="13.00">尺度应用 (±1) 发放</text>
</g>
<!-- scQ&#45;&gt;scDo -->
<g id="edge20" class="edge">
<title>scQ&#45;&gt;scDo</title>
<path fill="none" stroke="#333333" stroke-width="1.3" d="M462.78,-147.63C534.07,-121.92 648.48,-80.64 717.22,-55.84"/>
<polygon fill="#333333" stroke="#333333" stroke-width="1.3" points="717.77,-58.62 724.35,-53.27 715.87,-53.35 717.77,-58.62"/>
<text xml:space="preserve" text-anchor="middle" x="628.55" y="-88.8" font-family="Helvetica,sans-Serif" font-size="11.00">是</text>
</g>
<!-- scDo&#45;&gt;diff -->
<g id="edge21" class="edge">
<title>scDo&#45;&gt;diff</title>
<path fill="none" stroke="#333333" stroke-width="1.3" d="M784.33,-52.43C796.98,-77.72 818,-126.42 818,-170.64 818,-433.28 818,-433.28 818,-433.28 818,-602.03 863.91,-661.07 788,-811.78 755.39,-876.53 667.38,-895.39 606.99,-900.5"/>
<polygon fill="#333333" stroke="#333333" stroke-width="1.3" points="606.91,-897.69 599.14,-901.08 607.33,-903.28 606.91,-897.69"/>
<text xml:space="preserve" text-anchor="middle" x="835.86" y="-487.08" font-family="Helvetica,sans-Serif" font-size="11.00">循环</text>
</g>
<!-- emitQ -->
<g id="node14" class="node">
<title>emitQ</title>
<path fill="#ffd699" stroke="#ff9900" stroke-width="1.4" d="M981.14,-448.48C981.14,-448.48 886.05,-434.08 886.05,-434.08 880.12,-433.18 880.12,-431.38 886.05,-430.48 886.05,-430.48 981.14,-416.08 981.14,-416.08 987.07,-415.18 998.93,-415.18 1004.86,-416.08 1004.86,-416.08 1099.95,-430.48 1099.95,-430.48 1105.88,-431.38 1105.88,-433.18 1099.95,-434.08 1099.95,-434.08 1004.86,-448.48 1004.86,-448.48 998.93,-449.38 987.07,-449.38 981.14,-448.48"/>
<text xml:space="preserve" text-anchor="middle" x="993" y="-426.31" font-family="Helvetica,sans-Serif" font-size="13.00">满足发放条件？</text>
</g>
<!-- sigma&#45;&gt;emitQ -->
<g id="edge13" class="edge">
<title>sigma&#45;&gt;emitQ</title>
<path fill="none" stroke="#333333" stroke-width="1.3" d="M985.35,-532.98C986.82,-513.78 989.2,-482.79 990.91,-460.45"/>
<polygon fill="#333333" stroke="#333333" stroke-width="1.3" points="993.7,-460.72 991.52,-452.53 988.12,-460.29 993.7,-460.72"/>
</g>
<!-- emitQ&#45;&gt;bupd2 -->
<g id="edge15" class="edge">
<title>emitQ&#45;&gt;bupd2</title>
<path fill="none" stroke="#333333" stroke-width="1.3" d="M999.91,-414.83C1011.05,-385.45 1029.04,-323.33 1001,-283.28 950.75,-211.51 848.86,-186.13 776.92,-177.24"/>
<polygon fill="#333333" stroke="#333333" stroke-width="1.3" points="777.64,-174.51 769.37,-176.37 777,-180.07 777.64,-174.51"/>
<text xml:space="preserve" text-anchor="middle" x="1023.82" y="-304.46" font-family="Helvetica,sans-Serif" font-size="11.00">否</text>
</g>
<!-- pulse -->
<g id="node15" class="node">
<title>pulse</title>
<path fill="#eaf3ff" stroke="#2c6ebb" stroke-width="1.4" d="M964.08,-327.28C964.08,-327.28 885.92,-327.28 885.92,-327.28 879.92,-327.28 873.92,-321.28 873.92,-315.28 873.92,-315.28 873.92,-303.28 873.92,-303.28 873.92,-297.28 879.92,-291.28 885.92,-291.28 885.92,-291.28 964.08,-291.28 964.08,-291.28 970.08,-291.28 976.08,-297.28 976.08,-303.28 976.08,-303.28 976.08,-315.28 976.08,-315.28 976.08,-321.28 970.08,-327.28 964.08,-327.28"/>
<text xml:space="preserve" text-anchor="middle" x="925" y="-304.43" font-family="Helvetica,sans-Serif" font-size="13.00">±1 脉冲发放</text>
</g>
<!-- emitQ&#45;&gt;pulse -->
<g id="edge14" class="edge">
<title>emitQ&#45;&gt;pulse</title>
<path fill="none" stroke="#333333" stroke-width="1.3" d="M983.83,-414.96C972.51,-394.83 953.13,-360.34 939.72,-336.48"/>
<polygon fill="#333333" stroke="#333333" stroke-width="1.3" points="942.23,-335.22 935.87,-329.62 937.35,-337.97 942.23,-335.22"/>
<text xml:space="preserve" text-anchor="middle" x="970.95" y="-367.83" font-family="Helvetica,sans-Serif" font-size="11.00">是</text>
</g>
<!-- pulse&#45;&gt;bupd2 -->
<g id="edge16" class="edge">
<title>pulse&#45;&gt;bupd2</title>
<path fill="none" stroke="#333333" stroke-width="1.3" d="M895.66,-290.83C854.64,-266.42 780.13,-222.1 734.94,-195.21"/>
<polygon fill="#333333" stroke="#333333" stroke-width="1.3" points="736.59,-192.93 728.28,-191.25 733.72,-197.75 736.59,-192.93"/>
</g>
<!-- maxmin&#45;&gt;bupd2 -->
<g id="edge17" class="edge">
<title>maxmin&#45;&gt;bupd2</title>
<path fill="none" stroke="#333333" stroke-width="1.3" d="M120.91,-290.69C128.16,-287.93 135.74,-285.31 143,-283.28 342.07,-227.56 402.2,-261.08 602,-208.03 616.51,-204.18 631.9,-198.96 645.97,-193.72"/>
<polygon fill="#333333" stroke="#333333" stroke-width="1.3" points="646.69,-196.44 653.17,-190.98 644.7,-191.21 646.69,-196.44"/>
</g>
<!-- dwell -->
<g id="node17" class="node">
<title>dwell</title>
<path fill="#ffd699" stroke="#ff9900" stroke-width="1.4" d="M1233.18,-325.23C1233.18,-325.23 1153.18,-311.33 1153.18,-311.33 1147.26,-310.31 1147.26,-308.25 1153.18,-307.23 1153.18,-307.23 1233.18,-293.33 1233.18,-293.33 1239.09,-292.31 1250.91,-292.31 1256.82,-293.33 1256.82,-293.33 1336.82,-307.23 1336.82,-307.23 1342.74,-308.25 1342.74,-310.31 1336.82,-311.33 1336.82,-311.33 1256.82,-325.23 1256.82,-325.23 1250.91,-326.25 1239.09,-326.25 1233.18,-325.23"/>
<text xml:space="preserve" text-anchor="middle" x="1245" y="-303.31" font-family="Helvetica,sans-Serif" font-size="13.00">尺度驻留时间</text>
</g>
<!-- adapt -->
<g id="node18" class="node">
<title>adapt</title>
<path fill="#eaf3ff" stroke="#2c6ebb" stroke-width="1.4" d="M1264.58,-189.64C1264.58,-189.64 1177.42,-189.64 1177.42,-189.64 1171.42,-189.64 1165.42,-183.64 1165.42,-177.64 1165.42,-177.64 1165.42,-165.64 1165.42,-165.64 1165.42,-159.64 1171.42,-153.64 1177.42,-153.64 1177.42,-153.64 1264.58,-153.64 1264.58,-153.64 1270.58,-153.64 1276.58,-159.64 1276.58,-165.64 1276.58,-165.64 1276.58,-177.64 1276.58,-177.64 1276.58,-183.64 1270.58,-189.64 1264.58,-189.64"/>
<text xml:space="preserve" text-anchor="middle" x="1221" y="-166.79" font-family="Helvetica,sans-Serif" font-size="13.00">尺度应用 (±1)</text>
</g>
<!-- dwell&#45;&gt;adapt -->
<g id="edge23" class="edge">
<title>dwell&#45;&gt;adapt</title>
<path fill="none" stroke="#333333" stroke-width="1.3" d="M1241.96,-291.1C1237.89,-268.09 1230.62,-227.02 1225.8,-199.8"/>
<polygon fill="#333333" stroke="#333333" stroke-width="1.3" points="1228.58,-199.44 1224.43,-192.05 1223.07,-200.41 1228.58,-199.44"/>
<text xml:space="preserve" text-anchor="middle" x="1243.02" y="-244.83" font-family="Helvetica,sans-Serif" font-size="11.00">是</text>
</g>
<!-- adapt&#45;&gt;scDo -->
<g id="edge24" class="edge">
<title>adapt&#45;&gt;scDo</title>
<path fill="none" stroke="#333333" stroke-width="1.3" d="M1164.97,-153.6C1082.91,-128.64 930.29,-82.23 842.28,-55.46"/>
<polygon fill="#333333" stroke="#333333" stroke-width="1.3" points="843.27,-52.84 834.81,-53.19 841.64,-58.2 843.27,-52.84"/>
<text xml:space="preserve" text-anchor="middle" x="1000.38" y="-88.8" font-family="Helvetica,sans-Serif" font-size="11.00">循环</text>
</g>
</g>
</svg>
