<?xml version="1.0" encoding="UTF-8" standalone="no"?>
<!DOCTYPE svg PUBLIC "-//W3C//DTD SVG 1.1//EN"
 "http://www.w3.org/Graphics/SVG/1.1/DTD/svg11.dtd">
<!-- Generated by graphviz version 13.1.2 (20250808.2320)
 -->
<!-- Title: UE8M0_SYNC_AUTO_VERTICAL Pages: 1 -->
<svg width="432pt" height="838pt"
 viewBox="0.00 0.00 432.00 838.00" xmlns="http://www.w3.org/2000/svg" xmlns:xlink="http://www.w3.org/1999/xlink">
<g id="graph0" class="graph" transform="scale(1 1) rotate(0) translate(4 833.75)">
<title>UE8M0_SYNC_AUTO_VERTICAL</title>
<polygon fill="#f9f9f9" stroke="none" points="-4,4 -4,-833.75 428,-833.75 428,4 -4,4"/>
<g id="clust1" class="cluster">
<title>cluster_enc</title>
<path fill="#e6e6e6" stroke="#e6e6e6" d="M20,-501C20,-501 217,-501 217,-501 223,-501 229,-507 229,-513 229,-513 229,-809.75 229,-809.75 229,-815.75 223,-821.75 217,-821.75 217,-821.75 20,-821.75 20,-821.75 14,-821.75 8,-815.75 8,-809.75 8,-809.75 8,-513 8,-513 8,-507 14,-501 20,-501"/>
<text xml:space="preserve" text-anchor="middle" x="118.5" y="-804.45" font-family="Helvetica,sans-Serif" font-size="14.00" fill="#444444">인코더</text>
</g>
<g id="clust2" class="cluster">
<title>cluster_tok</title>
<path fill="#f9f9f9" stroke="#dddddd" d="M113,-371.5C113,-371.5 331,-371.5 331,-371.5 337,-371.5 343,-377.5 343,-383.5 343,-383.5 343,-435.25 343,-435.25 343,-441.25 337,-447.25 331,-447.25 331,-447.25 113,-447.25 113,-447.25 107,-447.25 101,-441.25 101,-435.25 101,-435.25 101,-383.5 101,-383.5 101,-377.5 107,-371.5 113,-371.5"/>
<text xml:space="preserve" text-anchor="middle" x="222" y="-429.95" font-family="Helvetica,sans-Serif" font-size="14.00" fill="#444444">토큰 스트림</text>
</g>
<g id="clust3" class="cluster">
<title>cluster_dec</title>
<path fill="#e6e6e6" stroke="#e6e6e6" d="M104,-8C104,-8 404,-8 404,-8 410,-8 416,-14 416,-20 416,-20 416,-304.25 416,-304.25 416,-310.25 410,-316.25 404,-316.25 404,-316.25 104,-316.25 104,-316.25 98,-316.25 92,-310.25 92,-304.25 92,-304.25 92,-20 92,-20 92,-14 98,-8 104,-8"/>
<text xml:space="preserve" text-anchor="middle" x="254" y="-298.95" font-family="Helvetica,sans-Serif" font-size="14.00" fill="#444444">디코더</text>
</g>
<!-- e_in -->
<g id="node1" class="node">
<title>e_in</title>
<path fill="#eaf3ff" stroke="#2c6ebb" stroke-width="1.4" d="M64.7,-791.5C64.7,-791.5 29.3,-791.5 29.3,-791.5 23.3,-791.5 17.3,-785.5 17.3,-779.5 17.3,-779.5 17.3,-767.5 17.3,-767.5 17.3,-761.5 23.3,-755.5 29.3,-755.5 29.3,-755.5 64.7,-755.5 64.7,-755.5 70.7,-755.5 76.7,-761.5 76.7,-767.5 76.7,-767.5 76.7,-779.5 76.7,-779.5 76.7,-785.5 70.7,-791.5 64.7,-791.5"/>
<text xml:space="preserve" text-anchor="middle" x="47" y="-768.65" font-family="Helvetica,sans-Serif" font-size="13.00">입력 x</text>
</g>
<!-- e_d -->
<g id="node3" class="node">
<title>e_d</title>
<path fill="#eaf3ff" stroke="#2c6ebb" stroke-width="1.4" d="M67.58,-674.5C67.58,-674.5 28.42,-674.5 28.42,-674.5 22.42,-674.5 16.43,-668.5 16.43,-662.5 16.43,-662.5 16.43,-650.5 16.43,-650.5 16.43,-644.5 22.43,-638.5 28.43,-638.5 28.43,-638.5 67.58,-638.5 67.58,-638.5 73.58,-638.5 79.58,-644.5 79.58,-650.5 79.58,-650.5 79.58,-662.5 79.58,-662.5 79.58,-668.5 73.58,-674.5 67.58,-674.5"/>
<text xml:space="preserve" text-anchor="middle" x="48" y="-651.65" font-family="Helvetica,sans-Serif" font-size="13.00">d = x &#45; b</text>
</g>
<!-- e_in&#45;&gt;e_d -->
<g id="edge1" class="edge">
<title>e_in&#45;&gt;e_d</title>
<path fill="none" stroke="#333333" stroke-width="1.3" d="M47.15,-755.03C47.31,-736.46 47.57,-706.82 47.76,-685.08"/>
<polygon fill="#333333" stroke="#333333" stroke-width="1.3" points="50.56,-685.12 47.83,-677.1 44.96,-685.07 50.56,-685.12"/>
</g>
<!-- e_b -->
<g id="node2" class="node">
<title>e_b</title>
<path fill="#eaf3ff" stroke="#2c6ebb" stroke-width="1.4" d="M188.7,-791.5C188.7,-791.5 153.3,-791.5 153.3,-791.5 147.3,-791.5 141.3,-785.5 141.3,-779.5 141.3,-779.5 141.3,-767.5 141.3,-767.5 141.3,-761.5 147.3,-755.5 153.3,-755.5 153.3,-755.5 188.7,-755.5 188.7,-755.5 194.7,-755.5 200.7,-761.5 200.7,-767.5 200.7,-767.5 200.7,-779.5 200.7,-779.5 200.7,-785.5 194.7,-791.5 188.7,-791.5"/>
<text xml:space="preserve" text-anchor="middle" x="171" y="-768.65" font-family="Helvetica,sans-Serif" font-size="13.00">b(EMA)</text>
</g>
<!-- e_b&#45;&gt;e_d -->
<g id="edge2" class="edge">
<title>e_b&#45;&gt;e_d</title>
<path fill="none" stroke="#333333" stroke-width="1.3" d="M152.32,-755.03C131.46,-735.53 97.55,-703.83 74.08,-681.88"/>
<polygon fill="#333333" stroke="#333333" stroke-width="1.3" points="76.05,-679.89 68.29,-676.47 72.23,-683.98 76.05,-679.89"/>
</g>
<!-- e_q -->
<g id="node4" class="node">
<title>e_q</title>
<path fill="#eaf3ff" stroke="#2c6ebb" stroke-width="1.4" d="M98.33,-545C98.33,-545 27.67,-545 27.67,-545 21.67,-545 15.67,-539 15.67,-533 15.67,-533 15.67,-521 15.67,-521 15.67,-515 21.67,-509 27.67,-509 27.67,-509 98.33,-509 98.33,-509 104.33,-509 110.33,-515 110.33,-521 110.33,-521 110.33,-533 110.33,-533 110.33,-539 104.33,-545 98.33,-545"/>
<text xml:space="preserve" text-anchor="middle" x="63" y="-522.15" font-family="Helvetica,sans-Serif" font-size="13.00">FP8 양자화</text>
</g>
<!-- e_d&#45;&gt;e_q -->
<g id="edge3" class="edge">
<title>e_d&#45;&gt;e_q</title>
<path fill="none" stroke="#333333" stroke-width="1.3" d="M48.74,-638.07C49.46,-623.77 50.79,-603.02 53,-585 54.2,-575.26 55.94,-564.66 57.63,-555.26"/>
<polygon fill="#333333" stroke="#333333" stroke-width="1.3" points="60.35,-555.96 59.06,-547.58 54.84,-554.93 60.35,-555.96"/>
</g>
<!-- tok -->
<g id="node6" class="node">
<title>tok</title>
<path fill="#eaf3ff" stroke="#2c6ebb" stroke-width="1.4" d="M323.32,-415.5C323.32,-415.5 120.68,-415.5 120.68,-415.5 114.68,-415.5 108.67,-409.5 108.67,-403.5 108.67,-403.5 108.67,-391.5 108.67,-391.5 108.67,-385.5 114.67,-379.5 120.67,-379.5 120.67,-379.5 323.32,-379.5 323.32,-379.5 329.32,-379.5 335.32,-385.5 335.32,-391.5 335.32,-391.5 335.32,-403.5 335.32,-403.5 335.32,-409.5 329.32,-415.5 323.32,-415.5"/>
<text xml:space="preserve" text-anchor="middle" x="222" y="-392.65" font-family="Helvetica,sans-Serif" font-size="13.00">토큰: NORM / MAX / MIN / SCALE</text>
</g>
<!-- e_q&#45;&gt;tok -->
<g id="edge5" class="edge">
<title>e_q&#45;&gt;tok</title>
<path fill="none" stroke="#333333" stroke-width="1.3" d="M84.77,-508.54C112.69,-486.16 161.2,-447.26 192.43,-422.21"/>
<polygon fill="#333333" stroke="#333333" stroke-width="1.3" points="193.95,-424.58 198.44,-417.39 190.45,-420.21 193.95,-424.58"/>
<text xml:space="preserve" text-anchor="middle" x="164.14" y="-458.55" font-family="Helvetica,sans-Serif" font-size="11.00">NORM</text>
</g>
<!-- e_E -->
<g id="node5" class="node">
<title>e_E</title>
<path fill="#eaf3ff" stroke="#2c6ebb" stroke-width="1.4" d="M209.32,-674.5C209.32,-674.5 156.68,-674.5 156.68,-674.5 150.68,-674.5 144.68,-668.5 144.68,-662.5 144.68,-662.5 144.68,-650.5 144.68,-650.5 144.68,-644.5 150.68,-638.5 156.68,-638.5 156.68,-638.5 209.32,-638.5 209.32,-638.5 215.32,-638.5 221.32,-644.5 221.32,-650.5 221.32,-650.5 221.32,-662.5 221.32,-662.5 221.32,-668.5 215.32,-674.5 209.32,-674.5"/>
<text xml:space="preserve" text-anchor="middle" x="183" y="-651.65" font-family="Helvetica,sans-Serif" font-size="13.00">E(UE8M0)</text>
</g>
<!-- e_E&#45;&gt;e_q -->
<g id="edge4" class="edge">
<title>e_E&#45;&gt;e_q</title>
<path fill="none" stroke="#333333" stroke-width="1.3" d="M155.97,-637.91C141.18,-627.51 123.1,-613.46 109.25,-598.5 96.82,-585.07 85.49,-567.93 77.17,-553.92"/>
<polygon fill="#333333" stroke="#333333" stroke-width="1.3" points="79.8,-552.89 73.37,-547.37 74.95,-555.69 79.8,-552.89"/>
<text xml:space="preserve" text-anchor="middle" x="150.12" y="-588.05" font-family="Helvetica,sans-Serif" font-size="11.00">스케일 적용</text>
</g>
<!-- e_E&#45;&gt;tok -->
<g id="edge6" class="edge">
<title>e_E&#45;&gt;tok</title>
<path fill="none" stroke="#333333" stroke-width="1.3" d="M190.44,-637.85C194.81,-626.75 200.03,-612.02 203,-598.5 216.35,-537.67 220.32,-464.41 221.5,-425.64"/>
<polygon fill="#333333" stroke="#333333" stroke-width="1.3" points="224.29,-426.15 221.7,-418.08 218.69,-426 224.29,-426.15"/>
<text xml:space="preserve" text-anchor="middle" x="235.35" y="-523.3" font-family="Helvetica,sans-Serif" font-size="11.00">SCALE</text>
</g>
<!-- d_E -->
<g id="node7" class="node">
<title>d_E</title>
<path fill="#eaf3ff" stroke="#2c6ebb" stroke-width="1.4" d="M179.45,-286C179.45,-286 124.55,-286 124.55,-286 118.55,-286 112.55,-280 112.55,-274 112.55,-274 112.55,-262 112.55,-262 112.55,-256 118.55,-250 124.55,-250 124.55,-250 179.45,-250 179.45,-250 185.45,-250 191.45,-256 191.45,-262 191.45,-262 191.45,-274 191.45,-274 191.45,-280 185.45,-286 179.45,-286"/>
<text xml:space="preserve" text-anchor="middle" x="152" y="-263.15" font-family="Helvetica,sans-Serif" font-size="13.00">E 동기화</text>
</g>
<!-- tok&#45;&gt;d_E -->
<g id="edge8" class="edge">
<title>tok&#45;&gt;d_E</title>
<path fill="none" stroke="#333333" stroke-width="1.3" d="M212.41,-379.04C200.54,-357.41 180.21,-320.37 166.44,-295.3"/>
<polygon fill="#333333" stroke="#333333" stroke-width="1.3" points="168.95,-294.05 162.64,-288.38 164.04,-296.74 168.95,-294.05"/>
<text xml:space="preserve" text-anchor="middle" x="207.47" y="-329.05" font-family="Helvetica,sans-Serif" font-size="11.00">SCALE</text>
</g>
<!-- d_q -->
<g id="node8" class="node">
<title>d_q</title>
<path fill="#eaf3ff" stroke="#2c6ebb" stroke-width="1.4" d="M315.32,-286C315.32,-286 268.68,-286 268.68,-286 262.68,-286 256.68,-280 256.68,-274 256.68,-274 256.68,-262 256.68,-262 256.68,-256 262.68,-250 268.68,-250 268.68,-250 315.32,-250 315.32,-250 321.32,-250 327.32,-256 327.32,-262 327.32,-262 327.32,-274 327.32,-274 327.32,-280 321.32,-286 315.32,-286"/>
<text xml:space="preserve" text-anchor="middle" x="292" y="-263.15" font-family="Helvetica,sans-Serif" font-size="13.00">deFP8(q)</text>
</g>
<!-- tok&#45;&gt;d_q -->
<g id="edge7" class="edge">
<title>tok&#45;&gt;d_q</title>
<path fill="none" stroke="#333333" stroke-width="1.3" d="M231.59,-379.04C243.46,-357.41 263.79,-320.37 277.56,-295.3"/>
<polygon fill="#333333" stroke="#333333" stroke-width="1.3" points="279.96,-296.74 281.36,-288.38 275.05,-294.05 279.96,-296.74"/>
<text xml:space="preserve" text-anchor="middle" x="301.1" y="-329.05" font-family="Helvetica,sans-Serif" font-size="11.00">NORM/MAX/MIN</text>
</g>
<!-- d_rec -->
<g id="node9" class="node">
<title>d_rec</title>
<path fill="#eaf3ff" stroke="#2c6ebb" stroke-width="1.4" d="M271.57,-169C271.57,-169 112.43,-169 112.43,-169 106.43,-169 100.42,-163 100.42,-157 100.42,-157 100.42,-145 100.42,-145 100.42,-139 106.42,-133 112.42,-133 112.42,-133 271.57,-133 271.57,-133 277.57,-133 283.57,-139 283.57,-145 283.57,-145 283.57,-157 283.57,-157 283.57,-163 277.57,-169 271.57,-169"/>
<text xml:space="preserve" text-anchor="middle" x="192" y="-146.15" font-family="Helvetica,sans-Serif" font-size="13.00">재구성 d̂ = deFP8(q) · 2^E</text>
</g>
<!-- d_E&#45;&gt;d_rec -->
<g id="edge10" class="edge">
<title>d_E&#45;&gt;d_rec</title>
<path fill="none" stroke="#333333" stroke-width="1.3" d="M158.08,-249.53C164.59,-230.79 175.03,-200.78 182.61,-178.99"/>
<polygon fill="#333333" stroke="#333333" stroke-width="1.3" points="185.24,-179.96 185.22,-171.49 179.95,-178.12 185.24,-179.96"/>
</g>
<!-- d_q&#45;&gt;d_rec -->
<g id="edge9" class="edge">
<title>d_q&#45;&gt;d_rec</title>
<path fill="none" stroke="#333333" stroke-width="1.3" d="M276.81,-249.53C260,-230.2 232.76,-198.87 213.7,-176.96"/>
<polygon fill="#333333" stroke="#333333" stroke-width="1.3" points="215.98,-175.31 208.62,-171.12 211.76,-178.99 215.98,-175.31"/>
</g>
<!-- d_out -->
<g id="node11" class="node">
<title>d_out</title>
<path fill="#eaf3ff" stroke="#2c6ebb" stroke-width="1.4" d="M325.2,-52C325.2,-52 244.8,-52 244.8,-52 238.8,-52 232.8,-46 232.8,-40 232.8,-40 232.8,-28 232.8,-28 232.8,-22 238.8,-16 244.8,-16 244.8,-16 325.2,-16 325.2,-16 331.2,-16 337.2,-22 337.2,-28 337.2,-28 337.2,-40 337.2,-40 337.2,-46 331.2,-52 325.2,-52"/>
<text xml:space="preserve" text-anchor="middle" x="285" y="-29.15" font-family="Helvetica,sans-Serif" font-size="13.00">복원 x̂ = b + d̂</text>
</g>
<!-- d_rec&#45;&gt;d_out -->
<g id="edge12" class="edge">
<title>d_rec&#45;&gt;d_out</title>
<path fill="none" stroke="#333333" stroke-width="1.3" d="M206.12,-132.53C221.69,-113.28 246.87,-82.15 264.59,-60.24"/>
<polygon fill="#333333" stroke="#333333" stroke-width="1.3" points="266.65,-62.14 269.51,-54.16 262.3,-58.62 266.65,-62.14"/>
</g>
<!-- d_b -->
<g id="node10" class="node">
<title>d_b</title>
<path fill="#eaf3ff" stroke="#2c6ebb" stroke-width="1.4" d="M395.7,-169C395.7,-169 360.3,-169 360.3,-169 354.3,-169 348.3,-163 348.3,-157 348.3,-157 348.3,-145 348.3,-145 348.3,-139 354.3,-133 360.3,-133 360.3,-133 395.7,-133 395.7,-133 401.7,-133 407.7,-139 407.7,-145 407.7,-145 407.7,-157 407.7,-157 407.7,-163 401.7,-169 395.7,-169"/>
<text xml:space="preserve" text-anchor="middle" x="378" y="-146.15" font-family="Helvetica,sans-Serif" font-size="13.00">b(EMA)</text>
</g>
<!-- d_b&#45;&gt;d_out -->
<g id="edge11" class="edge">
<title>d_b&#45;&gt;d_out</title>
<path fill="none" stroke="#333333" stroke-width="1.3" d="M363.88,-132.53C348.31,-113.28 323.13,-82.15 305.41,-60.24"/>
<polygon fill="#333333" stroke="#333333" stroke-width="1.3" points="307.7,-58.62 300.49,-54.16 303.35,-62.14 307.7,-58.62"/>
</g>
</g>
</svg>
