<?xml version="1.0" encoding="UTF-8" standalone="no"?>
<!DOCTYPE svg PUBLIC "-//W3C//DTD SVG 1.1//EN"
 "http://www.w3.org/Graphics/SVG/1.1/DTD/svg11.dtd">
<!-- Generated by graphviz version 13.1.2 (20250808.2320)
 -->
<!-- Title: UE8M0_OVERVIEW_AUTO_EN Pages: 1 -->
<svg width="1432pt" height="1199pt"
 viewBox="0.00 0.00 1432.00 1199.00" xmlns="http://www.w3.org/2000/svg" xmlns:xlink="http://www.w3.org/1999/xlink">
<g id="graph0" class="graph" transform="scale(1 1) rotate(0) translate(4 1194.53)">
<title>UE8M0_OVERVIEW_AUTO_EN</title>
<polygon fill="#f9f9f9" stroke="none" points="-4,4 -4,-1194.53 1428,-1194.53 1428,4 -4,4"/>
<g id="clust1" class="cluster">
<title>cluster_main</title>
<path fill="#e6e6e6" stroke="#e6e6e6" d="M213,-8C213,-8 905,-8 905,-8 911,-8 917,-14 917,-20 917,-20 917,-1170.53 917,-1170.53 917,-1176.53 911,-1182.53 905,-1182.53 905,-1182.53 213,-1182.53 213,-1182.53 207,-1182.53 201,-1176.53 201,-1170.53 201,-1170.53 201,-20 201,-20 201,-14 207,-8 213,-8"/>
<text xml:space="preserve" text-anchor="middle" x="559" y="-1165.23" font-family="Helvetica,sans-Serif" font-size="14.00" fill="#444444">UE8M0 Flow</text>
</g>
<g id="clust2" class="cluster">
<title>cluster_small</title>
<path fill="#cfe9ff" stroke="#cfe9ff" d="M940,-292.28C940,-292.28 1172,-292.28 1172,-292.28 1178,-292.28 1184,-298.28 1184,-304.28 1184,-304.28 1184,-602.78 1184,-602.78 1184,-608.78 1178,-614.78 1172,-614.78 1172,-614.78 940,-614.78 940,-614.78 934,-614.78 928,-608.78 928,-602.78 928,-602.78 928,-304.28 928,-304.28 928,-298.28 934,-292.28 940,-292.28"/>
<text xml:space="preserve" text-anchor="middle" x="1056" y="-597.48" font-family="Helvetica,sans-Serif" font-size="14.00" fill="#444444">Small difference (ΣΔ)</text>
</g>
<g id="clust3" class="cluster">
<title>cluster_large</title>
<path fill="#ffe6cc" stroke="#ffe6cc" d="M20,-292.28C20,-292.28 181,-292.28 181,-292.28 187,-292.28 193,-298.28 193,-304.28 193,-304.28 193,-356.03 193,-356.03 193,-362.03 187,-368.03 181,-368.03 181,-368.03 20,-368.03 20,-368.03 14,-368.03 8,-362.03 8,-356.03 8,-356.03 8,-304.28 8,-304.28 8,-298.28 14,-292.28 20,-292.28"/>
<text xml:space="preserve" text-anchor="middle" x="100.5" y="-350.73" font-family="Helvetica,sans-Serif" font-size="14.00" fill="#444444">Large difference (MAX/MIN)</text>
</g>
<g id="clust4" class="cluster">
<title>cluster_scale</title>
<path fill="#dff7e7" stroke="#dff7e7" d="M1204,-150.14C1204,-150.14 1404,-150.14 1404,-150.14 1410,-150.14 1416,-156.14 1416,-162.14 1416,-162.14 1416,-356.03 1416,-356.03 1416,-362.03 1410,-368.03 1404,-368.03 1404,-368.03 1204,-368.03 1204,-368.03 1198,-368.03 1192,-362.03 1192,-356.03 1192,-356.03 1192,-162.14 1192,-162.14 1192,-156.14 1198,-150.14 1204,-150.14"/>
<text xml:space="preserve" text-anchor="middle" x="1304" y="-350.73" font-family="Helvetica,sans-Serif" font-size="14.00" fill="#444444">Scale application</text>
</g>
<!-- start -->
<g id="node1" class="node">
<title>start</title>
<path fill="#eaf3ff" stroke="#2c6ebb" stroke-width="1.4" d="M616,-1150.78C616,-1150.78 586,-1150.78 586,-1150.78 580,-1150.78 574,-1144.78 574,-1138.78 574,-1138.78 574,-1126.78 574,-1126.78 574,-1120.78 580,-1114.78 586,-1114.78 586,-1114.78 616,-1114.78 616,-1114.78 622,-1114.78 628,-1120.78 628,-1126.78 628,-1126.78 628,-1138.78 628,-1138.78 628,-1144.78 622,-1150.78 616,-1150.78"/>
<text xml:space="preserve" text-anchor="middle" x="601" y="-1127.93" font-family="Helvetica,sans-Serif" font-size="13.00">Start</text>
</g>
<!-- inb -->
<g id="node2" class="node">
<title>inb</title>
<path fill="#eaf3ff" stroke="none" stroke-width="1.4" d="M624.38,-1041.78C624.38,-1041.78 577.62,-1041.78 577.62,-1041.78 572.62,-1041.78 567.62,-1036.78 567.62,-1031.78 567.62,-1031.78 567.62,-1021.78 567.62,-1021.78 567.62,-1016.78 572.62,-1011.78 577.62,-1011.78 577.62,-1011.78 624.38,-1011.78 624.38,-1011.78 629.38,-1011.78 634.38,-1016.78 634.38,-1021.78 634.38,-1021.78 634.38,-1031.78 634.38,-1031.78 634.38,-1036.78 629.38,-1041.78 624.38,-1041.78"/>
<text xml:space="preserve" text-anchor="middle" x="601" y="-1029.43" font-family="Helvetica,sans-Serif" font-size="13.00" fill="#000000">Input x and</text>
<text xml:space="preserve" text-anchor="middle" x="601" y="-1014.43" font-family="Helvetica,sans-Serif" font-size="13.00" fill="#000000">Baseline b</text>
</g>
<!-- start&#45;&gt;inb -->
<g id="edge1" class="edge">
<title>start&#45;&gt;inb</title>
<path fill="none" stroke="#333333" stroke-width="1.3" d="M601,-1114.14C601,-1096.83 601,-1070.32 601,-1051.25"/>
<polygon fill="#333333" stroke="#333333" stroke-width="1.3" points="603.8,-1051.48 601,-1043.48 598.2,-1051.48 603.8,-1051.48"/>
</g>
<!-- diff -->
<g id="node3" class="node">
<title>diff</title>
<path fill="#eaf3ff" stroke="#2c6ebb" stroke-width="1.4" d="M653.2,-938.78C653.2,-938.78 548.8,-938.78 548.8,-938.78 542.8,-938.78 536.8,-932.78 536.8,-926.78 536.8,-926.78 536.8,-914.78 536.8,-914.78 536.8,-908.78 542.8,-902.78 548.8,-902.78 548.8,-902.78 653.2,-902.78 653.2,-902.78 659.2,-902.78 665.2,-908.78 665.2,-914.78 665.2,-914.78 665.2,-926.78 665.2,-926.78 665.2,-932.78 659.2,-938.78 653.2,-938.78"/>
<text xml:space="preserve" text-anchor="middle" x="601" y="-915.93" font-family="Helvetica,sans-Serif" font-size="13.00">Difference d = x &#45; b</text>
</g>
<!-- inb&#45;&gt;diff -->
<g id="edge2" class="edge">
<title>inb&#45;&gt;diff</title>
<path fill="none" stroke="#333333" stroke-width="1.3" d="M601,-1012.18C601,-996.24 601,-969.42 601,-949.12"/>
<polygon fill="#333333" stroke="#333333" stroke-width="1.3" points="603.8,-949.16 601,-941.16 598.2,-949.16 603.8,-949.16"/>
</g>
<!-- refrQ -->
<g id="node4" class="node">
<title>refrQ</title>
<path fill="#ffd699" stroke="#ff9900" stroke-width="1.4" d="M589.05,-828.73C589.05,-828.73 408.89,-812.83 408.89,-812.83 402.91,-812.31 402.91,-811.25 408.89,-810.73 408.89,-810.73 589.05,-794.83 589.05,-794.83 595.02,-794.31 606.98,-794.31 612.95,-794.83 612.95,-794.83 793.11,-810.73 793.11,-810.73 799.09,-811.25 799.09,-812.31 793.11,-812.83 793.11,-812.83 612.95,-828.73 612.95,-828.73 606.98,-829.25 595.02,-829.25 589.05,-828.73"/>
<text xml:space="preserve" text-anchor="middle" x="601" y="-806.93" font-family="Helvetica,sans-Serif" font-size="13.00">Refractory? (now &lt; t_event_quiet)</text>
</g>
<!-- diff&#45;&gt;refrQ -->
<g id="edge3" class="edge">
<title>diff&#45;&gt;refrQ</title>
<path fill="none" stroke="#333333" stroke-width="1.3" d="M601,-902.11C601,-885.31 601,-859.77 601,-840.3"/>
<polygon fill="#333333" stroke="#333333" stroke-width="1.3" points="603.8,-840.44 601,-832.44 598.2,-840.44 603.8,-840.44"/>
</g>
<!-- bupd -->
<g id="node5" class="node">
<title>bupd</title>
<path fill="#eaf3ff" stroke="#2c6ebb" stroke-width="1.4" d="M413.2,-708.28C413.2,-708.28 272.8,-708.28 272.8,-708.28 266.8,-708.28 260.8,-702.28 260.8,-696.28 260.8,-696.28 260.8,-684.28 260.8,-684.28 260.8,-678.28 266.8,-672.28 272.8,-672.28 272.8,-672.28 413.2,-672.28 413.2,-672.28 419.2,-672.28 425.2,-678.28 425.2,-684.28 425.2,-684.28 425.2,-696.28 425.2,-696.28 425.2,-702.28 419.2,-708.28 413.2,-708.28"/>
<text xml:space="preserve" text-anchor="middle" x="343" y="-685.43" font-family="Helvetica,sans-Serif" font-size="13.00">Update baseline b (EMA)</text>
</g>
<!-- refrQ&#45;&gt;bupd -->
<g id="edge4" class="edge">
<title>refrQ&#45;&gt;bupd</title>
<path fill="none" stroke="#333333" stroke-width="1.3" d="M569.11,-796.01C524.21,-775.21 442.07,-737.17 390.12,-713.1"/>
<polygon fill="#333333" stroke="#333333" stroke-width="1.3" points="391.33,-710.58 382.89,-709.76 388.97,-715.66 391.33,-710.58"/>
<text xml:space="preserve" text-anchor="middle" x="488.36" y="-747.33" font-family="Helvetica,sans-Serif" font-size="11.00">Yes</text>
</g>
<!-- smallQ -->
<g id="node6" class="node">
<title>smallQ</title>
<path fill="#ffd699" stroke="#ff9900" stroke-width="1.4" d="M628.07,-706.98C628.07,-706.98 487.24,-691.58 487.24,-691.58 481.28,-690.93 481.28,-689.63 487.24,-688.98 487.24,-688.98 628.07,-673.58 628.07,-673.58 634.04,-672.93 645.96,-672.93 651.93,-673.58 651.93,-673.58 792.76,-688.98 792.76,-688.98 798.72,-689.63 798.72,-690.93 792.76,-691.58 792.76,-691.58 651.93,-706.98 651.93,-706.98 645.96,-707.63 634.04,-707.63 628.07,-706.98"/>
<text xml:space="preserve" text-anchor="middle" x="640" y="-685.43" font-family="Helvetica,sans-Serif" font-size="13.00">Small? (|d| &lt; lambda0·2^E)</text>
</g>
<!-- refrQ&#45;&gt;smallQ -->
<g id="edge5" class="edge">
<title>refrQ&#45;&gt;smallQ</title>
<path fill="none" stroke="#333333" stroke-width="1.3" d="M606.59,-793.66C613.07,-773.78 623.85,-740.77 631.4,-717.62"/>
<polygon fill="#333333" stroke="#333333" stroke-width="1.3" points="633.99,-718.71 633.81,-710.24 628.67,-716.98 633.99,-718.71"/>
<text xml:space="preserve" text-anchor="middle" x="628.79" y="-747.33" font-family="Helvetica,sans-Serif" font-size="11.00">No</text>
</g>
<!-- bupd&#45;&gt;diff -->
<g id="edge6" class="edge">
<title>bupd&#45;&gt;diff</title>
<path fill="none" stroke="#999999" stroke-width="1.3" stroke-dasharray="5,2" d="M337.98,-708.59C330.89,-736.93 321.54,-793.69 348,-829.78 388.99,-885.7 467.74,-907.02 526.54,-915.07"/>
<polygon fill="#999999" stroke="#999999" stroke-width="1.3" points="525.93,-917.82 534.22,-916.05 526.63,-912.26 525.93,-917.82"/>
<text xml:space="preserve" text-anchor="middle" x="360" y="-808.08" font-family="Helvetica,sans-Serif" font-size="11.00">Loop</text>
</g>
<!-- largeQ -->
<g id="node7" class="node">
<title>largeQ</title>
<path fill="#ffd699" stroke="#ff9900" stroke-width="1.4" d="M515.06,-581.81C515.06,-581.81 363,-566.25 363,-566.25 357.03,-565.64 357.03,-564.42 363,-563.81 363,-563.81 515.06,-548.25 515.06,-548.25 521.03,-547.64 532.97,-547.64 538.94,-548.25 538.94,-548.25 691,-563.81 691,-563.81 696.97,-564.42 696.97,-565.64 691,-566.25 691,-566.25 538.94,-581.81 538.94,-581.81 532.97,-582.42 521.03,-582.42 515.06,-581.81"/>
<text xml:space="preserve" text-anchor="middle" x="527" y="-560.18" font-family="Helvetica,sans-Serif" font-size="13.00">Large? (|d| &gt; lambda_hi·2^E)</text>
</g>
<!-- smallQ&#45;&gt;largeQ -->
<g id="edge8" class="edge">
<title>smallQ&#45;&gt;largeQ</title>
<path fill="none" stroke="#333333" stroke-width="1.3" d="M625.46,-673.42C605.8,-651.97 570.6,-613.58 548.05,-588.99"/>
<polygon fill="#333333" stroke="#333333" stroke-width="1.3" points="550.29,-587.28 542.82,-583.28 546.16,-591.07 550.29,-587.28"/>
<text xml:space="preserve" text-anchor="middle" x="597.39" y="-625.83" font-family="Helvetica,sans-Serif" font-size="11.00">No</text>
</g>
<!-- sigma -->
<g id="node13" class="node">
<title>sigma</title>
<path fill="#eaf3ff" stroke="#2c6ebb" stroke-width="1.4" d="M1124.95,-583.03C1124.95,-583.03 977.05,-583.03 977.05,-583.03 971.05,-583.03 965.05,-577.03 965.05,-571.03 965.05,-571.03 965.05,-559.03 965.05,-559.03 965.05,-553.03 971.05,-547.03 977.05,-547.03 977.05,-547.03 1124.95,-547.03 1124.95,-547.03 1130.95,-547.03 1136.95,-553.03 1136.95,-559.03 1136.95,-559.03 1136.95,-571.03 1136.95,-571.03 1136.95,-577.03 1130.95,-583.03 1124.95,-583.03"/>
<text xml:space="preserve" text-anchor="middle" x="1051" y="-560.18" font-family="Helvetica,sans-Serif" font-size="13.00">ΣΔ accumulator (r += d·Δt)</text>
</g>
<!-- smallQ&#45;&gt;sigma -->
<g id="edge7" class="edge">
<title>smallQ&#45;&gt;sigma</title>
<path fill="none" stroke="#333333" stroke-width="1.3" d="M694.12,-677.51C752.64,-664.28 848.36,-641.17 929,-614.78 953.18,-606.87 979.46,-596.59 1001.41,-587.52"/>
<polygon fill="#333333" stroke="#333333" stroke-width="1.3" points="1002.41,-590.13 1008.72,-584.47 1000.26,-584.96 1002.41,-590.13"/>
<text xml:space="preserve" text-anchor="middle" x="906.76" y="-625.83" font-family="Helvetica,sans-Serif" font-size="11.00">Yes</text>
</g>
<!-- qnorm -->
<g id="node8" class="node">
<title>qnorm</title>
<path fill="#eaf3ff" stroke="#2c6ebb" stroke-width="1.4" d="M581.83,-461.53C581.83,-461.53 472.18,-461.53 472.18,-461.53 466.18,-461.53 460.18,-455.53 460.18,-449.53 460.18,-449.53 460.18,-437.53 460.18,-437.53 460.18,-431.53 466.18,-425.53 472.18,-425.53 472.18,-425.53 581.83,-425.53 581.83,-425.53 587.83,-425.53 593.83,-431.53 593.83,-437.53 593.83,-437.53 593.83,-449.53 593.83,-449.53 593.83,-455.53 587.83,-461.53 581.83,-461.53"/>
<text xml:space="preserve" text-anchor="middle" x="527" y="-438.68" font-family="Helvetica,sans-Serif" font-size="13.00">Normal quantization</text>
</g>
<!-- largeQ&#45;&gt;qnorm -->
<g id="edge10" class="edge">
<title>largeQ&#45;&gt;qnorm</title>
<path fill="none" stroke="#333333" stroke-width="1.3" d="M527,-546.4C527,-526.69 527,-494.55 527,-471.64"/>
<polygon fill="#333333" stroke="#333333" stroke-width="1.3" points="529.8,-471.81 527,-463.81 524.2,-471.81 529.8,-471.81"/>
<text xml:space="preserve" text-anchor="middle" x="534.12" y="-500.58" font-family="Helvetica,sans-Serif" font-size="11.00">No</text>
</g>
<!-- maxmin -->
<g id="node16" class="node">
<title>maxmin</title>
<path fill="#eaf3ff" stroke="#2c6ebb" stroke-width="1.4" d="M173.07,-336.28C173.07,-336.28 88.92,-336.28 88.92,-336.28 82.92,-336.28 76.92,-330.28 76.92,-324.28 76.92,-324.28 76.92,-312.28 76.92,-312.28 76.92,-306.28 82.92,-300.28 88.92,-300.28 88.92,-300.28 173.07,-300.28 173.07,-300.28 179.07,-300.28 185.07,-306.28 185.07,-312.28 185.07,-312.28 185.07,-324.28 185.07,-324.28 185.07,-330.28 179.07,-336.28 173.07,-336.28"/>
<text xml:space="preserve" text-anchor="middle" x="131" y="-313.43" font-family="Helvetica,sans-Serif" font-size="13.00">Emit MAX / MIN</text>
</g>
<!-- largeQ&#45;&gt;maxmin -->
<g id="edge9" class="edge">
<title>largeQ&#45;&gt;maxmin</title>
<path fill="none" stroke="#333333" stroke-width="1.3" d="M497.93,-549.37C438.13,-518.74 297.8,-444.44 189,-368.03 178.3,-360.51 167.16,-351.48 157.54,-343.25"/>
<polygon fill="#333333" stroke="#333333" stroke-width="1.3" points="159.55,-341.28 151.67,-338.15 155.87,-345.51 159.55,-341.28"/>
<text xml:space="preserve" text-anchor="middle" x="343.4" y="-439.83" font-family="Helvetica,sans-Serif" font-size="11.00">Yes</text>
</g>
<!-- emitn -->
<g id="node9" class="node">
<title>emitn</title>
<path fill="#eaf3ff" stroke="#2c6ebb" stroke-width="1.4" d="M565.33,-336.28C565.33,-336.28 488.68,-336.28 488.68,-336.28 482.68,-336.28 476.68,-330.28 476.68,-324.28 476.68,-324.28 476.68,-312.28 476.68,-312.28 476.68,-306.28 482.68,-300.28 488.68,-300.28 488.68,-300.28 565.33,-300.28 565.33,-300.28 571.33,-300.28 577.33,-306.28 577.33,-312.28 577.33,-312.28 577.33,-324.28 577.33,-324.28 577.33,-330.28 571.33,-336.28 565.33,-336.28"/>
<text xml:space="preserve" text-anchor="middle" x="527" y="-313.43" font-family="Helvetica,sans-Serif" font-size="13.00">Emit NORM(q)</text>
</g>
<!-- qnorm&#45;&gt;emitn -->
<g id="edge11" class="edge">
<title>qnorm&#45;&gt;emitn</title>
<path fill="none" stroke="#333333" stroke-width="1.3" d="M527,-424.87C527,-404.46 527,-370.63 527,-346.77"/>
<polygon fill="#333333" stroke="#333333" stroke-width="1.3" points="529.8,-346.87 527,-338.87 524.2,-346.87 529.8,-346.87"/>
</g>
<!-- bupd2 -->
<g id="node10" class="node">
<title>bupd2</title>
<path fill="#eaf3ff" stroke="#2c6ebb" stroke-width="1.4" d="M822.2,-194.14C822.2,-194.14 681.8,-194.14 681.8,-194.14 675.8,-194.14 669.8,-188.14 669.8,-182.14 669.8,-182.14 669.8,-170.14 669.8,-170.14 669.8,-164.14 675.8,-158.14 681.8,-158.14 681.8,-158.14 822.2,-158.14 822.2,-158.14 828.2,-158.14 834.2,-164.14 834.2,-170.14 834.2,-170.14 834.2,-182.14 834.2,-182.14 834.2,-188.14 828.2,-194.14 822.2,-194.14"/>
<text xml:space="preserve" text-anchor="middle" x="752" y="-171.29" font-family="Helvetica,sans-Serif" font-size="13.00">Update baseline b (EMA)</text>
</g>
<!-- emitn&#45;&gt;bupd2 -->
<g id="edge12" class="edge">
<title>emitn&#45;&gt;bupd2</title>
<path fill="none" stroke="#333333" stroke-width="1.3" d="M555.04,-299.81C595.55,-274.59 670.48,-227.92 715.33,-199.98"/>
<polygon fill="#333333" stroke="#333333" stroke-width="1.3" points="716.62,-202.47 721.93,-195.87 713.66,-197.72 716.62,-202.47"/>
</g>
<!-- scQ -->
<g id="node11" class="node">
<title>scQ</title>
<path fill="#ffd699" stroke="#ff9900" stroke-width="1.4" d="M464.41,-211.67C464.41,-211.67 343.44,-179.25 343.44,-179.25 337.65,-177.69 337.65,-174.59 343.44,-173.03 343.44,-173.03 464.41,-140.61 464.41,-140.61 470.2,-139.05 481.8,-139.05 487.59,-140.61 487.59,-140.61 608.56,-173.03 608.56,-173.03 614.35,-174.59 614.35,-177.69 608.56,-179.25 608.56,-179.25 487.59,-211.67 487.59,-211.67 481.8,-213.23 470.2,-213.23 464.41,-211.67"/>
<text xml:space="preserve" text-anchor="middle" x="476" y="-178.79" font-family="Helvetica,sans-Serif" font-size="13.00">Scale&#45;adapt condition</text>
<text xml:space="preserve" text-anchor="middle" x="476" y="-163.79" font-family="Helvetica,sans-Serif" font-size="13.00">(dwell time &amp; near)</text>
</g>
<!-- emitn&#45;&gt;scQ -->
<g id="edge19" class="edge">
<title>emitn&#45;&gt;scQ</title>
<path fill="none" stroke="#333333" stroke-width="1.3" d="M520.64,-299.81C513.53,-280.26 501.72,-247.81 492.03,-221.2"/>
<polygon fill="#333333" stroke="#333333" stroke-width="1.3" points="494.75,-220.47 489.38,-213.91 489.49,-222.38 494.75,-220.47"/>
</g>
<!-- bupd2&#45;&gt;diff -->
<g id="edge18" class="edge">
<title>bupd2&#45;&gt;diff</title>
<path fill="none" stroke="#333333" stroke-width="1.3" d="M757.14,-194.69C783.89,-287.63 903.34,-722.16 830,-829.78 795.64,-880.21 728.31,-902.38 675.52,-912.13"/>
<polygon fill="#333333" stroke="#333333" stroke-width="1.3" points="675.18,-909.35 667.78,-913.47 676.14,-914.86 675.18,-909.35"/>
<text xml:space="preserve" text-anchor="middle" x="858.88" y="-561.33" font-family="Helvetica,sans-Serif" font-size="11.00">Loop</text>
</g>
<!-- scQ&#45;&gt;diff -->
<g id="edge22" class="edge">
<title>scQ&#45;&gt;diff</title>
<path fill="none" stroke="#999999" stroke-width="1.3" stroke-dasharray="5,2" d="M397.04,-194.17C335,-212.73 259,-249.34 259,-317.28 259,-505.28 259,-505.28 259,-505.28 259,-580.2 241.12,-597.53 236,-672.28 234.91,-688.24 231.19,-693.02 236,-708.28 255.8,-771.14 274.38,-783.2 321,-829.78 375.69,-884.42 463.63,-905.91 526.35,-914.35"/>
<polygon fill="#999999" stroke="#999999" stroke-width="1.3" points="525.96,-917.12 534.25,-915.35 526.66,-911.56 525.96,-917.12"/>
<text xml:space="preserve" text-anchor="middle" x="263.86" y="-561.33" font-family="Helvetica,sans-Serif" font-size="11.00">No</text>
</g>
<!-- scDo -->
<g id="node12" class="node">
<title>scDo</title>
<path fill="#eaf3ff" stroke="#2c6ebb" stroke-width="1.4" d="M897.2,-52C897.2,-52 804.8,-52 804.8,-52 798.8,-52 792.8,-46 792.8,-40 792.8,-40 792.8,-28 792.8,-28 792.8,-22 798.8,-16 804.8,-16 804.8,-16 897.2,-16 897.2,-16 903.2,-16 909.2,-22 909.2,-28 909.2,-28 909.2,-40 909.2,-40 909.2,-46 903.2,-52 897.2,-52"/>
<text xml:space="preserve" text-anchor="middle" x="851" y="-29.15" font-family="Helvetica,sans-Serif" font-size="13.00">Emit SCALE (±1)</text>
</g>
<!-- scQ&#45;&gt;scDo -->
<g id="edge20" class="edge">
<title>scQ&#45;&gt;scDo</title>
<path fill="none" stroke="#333333" stroke-width="1.3" d="M535.42,-152.93C606.57,-126.34 724.87,-82.14 794.64,-56.06"/>
<polygon fill="#333333" stroke="#333333" stroke-width="1.3" points="795.37,-58.78 801.89,-53.35 793.41,-53.53 795.37,-58.78"/>
<text xml:space="preserve" text-anchor="middle" x="716.74" y="-91.05" font-family="Helvetica,sans-Serif" font-size="11.00">Yes</text>
</g>
<!-- scDo&#45;&gt;diff -->
<g id="edge21" class="edge">
<title>scDo&#45;&gt;diff</title>
<path fill="none" stroke="#333333" stroke-width="1.3" d="M858.04,-52.37C868,-78.53 885,-129.83 885,-175.14 885,-444.53 885,-444.53 885,-444.53 885,-616.46 937.33,-681.69 850,-829.78 814.94,-889.23 735.36,-909.9 675.53,-916.83"/>
<polygon fill="#333333" stroke="#333333" stroke-width="1.3" points="675.36,-914.04 667.7,-917.66 675.94,-919.61 675.36,-914.04"/>
<text xml:space="preserve" text-anchor="middle" x="899.4" y="-500.58" font-family="Helvetica,sans-Serif" font-size="11.00">Loop</text>
</g>
<!-- emitQ -->
<g id="node14" class="node">
<title>emitQ</title>
<path fill="#ffd699" stroke="#ff9900" stroke-width="1.4" d="M1044.13,-459.76C1044.13,-459.76 947.48,-445.3 947.48,-445.3 941.55,-444.42 941.55,-442.64 947.48,-441.76 947.48,-441.76 1044.13,-427.3 1044.13,-427.3 1050.07,-426.42 1061.93,-426.42 1067.87,-427.3 1067.87,-427.3 1164.52,-441.76 1164.52,-441.76 1170.45,-442.64 1170.45,-444.42 1164.52,-445.3 1164.52,-445.3 1067.87,-459.76 1067.87,-459.76 1061.93,-460.64 1050.07,-460.64 1044.13,-459.76"/>
<text xml:space="preserve" text-anchor="middle" x="1056" y="-438.68" font-family="Helvetica,sans-Serif" font-size="13.00">Fire condition met?</text>
</g>
<!-- sigma&#45;&gt;emitQ -->
<g id="edge13" class="edge">
<title>sigma&#45;&gt;emitQ</title>
<path fill="none" stroke="#333333" stroke-width="1.3" d="M1051.74,-546.4C1052.56,-526.69 1053.91,-494.55 1054.87,-471.64"/>
<polygon fill="#333333" stroke="#333333" stroke-width="1.3" points="1057.66,-471.92 1055.19,-463.81 1052.06,-471.69 1057.66,-471.92"/>
</g>
<!-- emitQ&#45;&gt;bupd2 -->
<g id="edge15" class="edge">
<title>emitQ&#45;&gt;bupd2</title>
<path fill="none" stroke="#333333" stroke-width="1.3" d="M1061.79,-425.85C1070.98,-396.06 1085.19,-333.05 1057,-292.28 1009.48,-223.55 915.35,-195.8 844.16,-184.62"/>
<polygon fill="#333333" stroke="#333333" stroke-width="1.3" points="844.99,-181.92 836.66,-183.51 844.16,-187.45 844.99,-181.92"/>
<text xml:space="preserve" text-anchor="middle" x="1080.74" y="-314.58" font-family="Helvetica,sans-Serif" font-size="11.00">No</text>
</g>
<!-- pulse -->
<g id="node15" class="node">
<title>pulse</title>
<path fill="#eaf3ff" stroke="#2c6ebb" stroke-width="1.4" d="M1019.7,-336.28C1019.7,-336.28 948.3,-336.28 948.3,-336.28 942.3,-336.28 936.3,-330.28 936.3,-324.28 936.3,-324.28 936.3,-312.28 936.3,-312.28 936.3,-306.28 942.3,-300.28 948.3,-300.28 948.3,-300.28 1019.7,-300.28 1019.7,-300.28 1025.7,-300.28 1031.7,-306.28 1031.7,-312.28 1031.7,-312.28 1031.7,-324.28 1031.7,-324.28 1031.7,-330.28 1025.7,-336.28 1019.7,-336.28"/>
<text xml:space="preserve" text-anchor="middle" x="984" y="-313.43" font-family="Helvetica,sans-Serif" font-size="13.00">Emit ±1 pulse</text>
</g>
<!-- emitQ&#45;&gt;pulse -->
<g id="edge14" class="edge">
<title>emitQ&#45;&gt;pulse</title>
<path fill="none" stroke="#333333" stroke-width="1.3" d="M1046.59,-426.42C1034.5,-405.73 1013.38,-369.58 999.05,-345.05"/>
<polygon fill="#333333" stroke="#333333" stroke-width="1.3" points="1001.56,-343.78 995.1,-338.29 996.72,-346.61 1001.56,-343.78"/>
<text xml:space="preserve" text-anchor="middle" x="1032.94" y="-379.08" font-family="Helvetica,sans-Serif" font-size="11.00">Yes</text>
</g>
<!-- pulse&#45;&gt;bupd2 -->
<g id="edge16" class="edge">
<title>pulse&#45;&gt;bupd2</title>
<path fill="none" stroke="#333333" stroke-width="1.3" d="M955.09,-299.81C913.23,-274.53 835.74,-227.72 789.53,-199.81"/>
<polygon fill="#333333" stroke="#333333" stroke-width="1.3" points="791.26,-197.58 782.96,-195.84 788.36,-202.38 791.26,-197.58"/>
</g>
<!-- maxmin&#45;&gt;bupd2 -->
<g id="edge17" class="edge">
<title>maxmin&#45;&gt;bupd2</title>
<path fill="none" stroke="#333333" stroke-width="1.3" d="M168.27,-299.67C175.06,-296.91 182.17,-294.3 189,-292.28 386.13,-233.96 445.99,-266.3 645,-214.78 662.53,-210.24 681.28,-204.11 698.1,-198.11"/>
<polygon fill="#333333" stroke="#333333" stroke-width="1.3" points="698.81,-200.83 705.38,-195.47 696.9,-195.56 698.81,-200.83"/>
</g>
<!-- dwell -->
<g id="node17" class="node">
<title>dwell</title>
<path fill="#ffd699" stroke="#ff9900" stroke-width="1.4" d="M1292.18,-334.24C1292.18,-334.24 1211.61,-320.32 1211.61,-320.32 1205.7,-319.3 1205.7,-317.26 1211.61,-316.24 1211.61,-316.24 1292.18,-302.32 1292.18,-302.32 1298.09,-301.3 1309.91,-301.3 1315.82,-302.32 1315.82,-302.32 1396.39,-316.24 1396.39,-316.24 1402.3,-317.26 1402.3,-319.3 1396.39,-320.32 1396.39,-320.32 1315.82,-334.24 1315.82,-334.24 1309.91,-335.26 1298.09,-335.26 1292.18,-334.24"/>
<text xml:space="preserve" text-anchor="middle" x="1304" y="-313.43" font-family="Helvetica,sans-Serif" font-size="13.00">Scale dwell time</text>
</g>
<!-- adapt -->
<g id="node18" class="node">
<title>adapt</title>
<path fill="#eaf3ff" stroke="#2c6ebb" stroke-width="1.4" d="M1317.83,-194.14C1317.83,-194.14 1238.17,-194.14 1238.17,-194.14 1232.17,-194.14 1226.17,-188.14 1226.17,-182.14 1226.17,-182.14 1226.17,-170.14 1226.17,-170.14 1226.17,-164.14 1232.17,-158.14 1238.17,-158.14 1238.17,-158.14 1317.83,-158.14 1317.83,-158.14 1323.83,-158.14 1329.83,-164.14 1329.83,-170.14 1329.83,-170.14 1329.83,-182.14 1329.83,-182.14 1329.83,-188.14 1323.83,-194.14 1317.83,-194.14"/>
<text xml:space="preserve" text-anchor="middle" x="1278" y="-171.29" font-family="Helvetica,sans-Serif" font-size="13.00">Emit scale (±1)</text>
</g>
<!-- dwell&#45;&gt;adapt -->
<g id="edge23" class="edge">
<title>dwell&#45;&gt;adapt</title>
<path fill="none" stroke="#333333" stroke-width="1.3" d="M1300.86,-300.38C1296.44,-276.52 1288.31,-232.7 1283.03,-204.26"/>
<polygon fill="#333333" stroke="#333333" stroke-width="1.3" points="1285.8,-203.83 1281.59,-196.48 1280.29,-204.85 1285.8,-203.83"/>
<text xml:space="preserve" text-anchor="middle" x="1302.72" y="-253.83" font-family="Helvetica,sans-Serif" font-size="11.00">Yes</text>
</g>
<!-- adapt&#45;&gt;scDo -->
<g id="edge24" class="edge">
<title>adapt&#45;&gt;scDo</title>
<path fill="none" stroke="#333333" stroke-width="1.3" d="M1225.64,-157.96C1146.97,-132.14 998.52,-83.41 914.02,-55.68"/>
<polygon fill="#333333" stroke="#333333" stroke-width="1.3" points="915.14,-53.1 906.67,-53.27 913.39,-58.42 915.14,-53.1"/>
<text xml:space="preserve" text-anchor="middle" x="1063.7" y="-91.05" font-family="Helvetica,sans-Serif" font-size="11.00">Loop</text>
</g>
</g>
</svg>
