<?xml version="1.0" encoding="UTF-8" standalone="no"?>
<!DOCTYPE svg PUBLIC "-//W3C//DTD SVG 1.1//EN"
 "http://www.w3.org/Graphics/SVG/1.1/DTD/svg11.dtd">
<!-- Generated by graphviz version 13.1.2 (20250808.2320)
 -->
<!-- Title: UE8M0_SYNC_AUTO_VERTICAL Pages: 1 -->
<svg width="451pt" height="839pt"
 viewBox="0.00 0.00 451.00 839.00" xmlns="http://www.w3.org/2000/svg" xmlns:xlink="http://www.w3.org/1999/xlink">
<g id="graph0" class="graph" transform="scale(1 1) rotate(0) translate(4 835.25)">
<title>UE8M0_SYNC_AUTO_VERTICAL</title>
<polygon fill="#f9f9f9" stroke="none" points="-4,4 -4,-835.25 447,-835.25 447,4 -4,4"/>
<g id="clust1" class="cluster">
<title>cluster_enc</title>
<path fill="#e6e6e6" stroke="#e6e6e6" d="M20,-501C20,-501 217,-501 217,-501 223,-501 229,-507 229,-513 229,-513 229,-811.25 229,-811.25 229,-817.25 223,-823.25 217,-823.25 217,-823.25 20,-823.25 20,-823.25 14,-823.25 8,-817.25 8,-811.25 8,-811.25 8,-513 8,-513 8,-507 14,-501 20,-501"/>
<text xml:space="preserve" text-anchor="middle" x="118.5" y="-805.95" font-family="Helvetica,sans-Serif" font-size="14.00" fill="#444444">Encoder</text>
</g>
<g id="clust2" class="cluster">
<title>cluster_tok</title>
<path fill="#f9f9f9" stroke="#dddddd" d="M106,-371.5C106,-371.5 332,-371.5 332,-371.5 338,-371.5 344,-377.5 344,-383.5 344,-383.5 344,-435.25 344,-435.25 344,-441.25 338,-447.25 332,-447.25 332,-447.25 106,-447.25 106,-447.25 100,-447.25 94,-441.25 94,-435.25 94,-435.25 94,-383.5 94,-383.5 94,-377.5 100,-371.5 106,-371.5"/>
<text xml:space="preserve" text-anchor="middle" x="219" y="-429.95" font-family="Helvetica,sans-Serif" font-size="14.00" fill="#444444">Token Stream</text>
</g>
<g id="clust3" class="cluster">
<title>cluster_dec</title>
<path fill="#e6e6e6" stroke="#e6e6e6" d="M108,-8C108,-8 423,-8 423,-8 429,-8 435,-14 435,-20 435,-20 435,-305.75 435,-305.75 435,-311.75 429,-317.75 423,-317.75 423,-317.75 108,-317.75 108,-317.75 102,-317.75 96,-311.75 96,-305.75 96,-305.75 96,-20 96,-20 96,-14 102,-8 108,-8"/>
<text xml:space="preserve" text-anchor="middle" x="265.5" y="-300.45" font-family="Helvetica,sans-Serif" font-size="14.00" fill="#444444">Decoder</text>
</g>
<!-- e_in -->
<g id="node1" class="node">
<title>e_in</title>
<path fill="#eaf3ff" stroke="#2c6ebb" stroke-width="1.4" d="M60.08,-791.5C60.08,-791.5 29.92,-791.5 29.92,-791.5 23.92,-791.5 17.93,-785.5 17.93,-779.5 17.93,-779.5 17.93,-767.5 17.93,-767.5 17.93,-761.5 23.93,-755.5 29.93,-755.5 29.93,-755.5 60.08,-755.5 60.08,-755.5 66.08,-755.5 72.08,-761.5 72.08,-767.5 72.08,-767.5 72.08,-779.5 72.08,-779.5 72.08,-785.5 66.08,-791.5 60.08,-791.5"/>
<text xml:space="preserve" text-anchor="middle" x="45" y="-768.65" font-family="Helvetica,sans-Serif" font-size="13.00">input x</text>
</g>
<!-- e_d -->
<g id="node3" class="node">
<title>e_d</title>
<path fill="#eaf3ff" stroke="#2c6ebb" stroke-width="1.4" d="M67.58,-674.5C67.58,-674.5 28.42,-674.5 28.42,-674.5 22.42,-674.5 16.43,-668.5 16.43,-662.5 16.43,-662.5 16.43,-650.5 16.43,-650.5 16.43,-644.5 22.43,-638.5 28.43,-638.5 28.43,-638.5 67.58,-638.5 67.58,-638.5 73.58,-638.5 79.58,-644.5 79.58,-650.5 79.58,-650.5 79.58,-662.5 79.58,-662.5 79.58,-668.5 73.58,-674.5 67.58,-674.5"/>
<text xml:space="preserve" text-anchor="middle" x="48" y="-651.65" font-family="Helvetica,sans-Serif" font-size="13.00">d = x &#45; b</text>
</g>
<!-- e_in&#45;&gt;e_d -->
<g id="edge1" class="edge">
<title>e_in&#45;&gt;e_d</title>
<path fill="none" stroke="#333333" stroke-width="1.3" d="M45.46,-755.03C45.94,-736.46 46.71,-706.82 47.28,-685.08"/>
<polygon fill="#333333" stroke="#333333" stroke-width="1.3" points="50.08,-685.17 47.49,-677.1 44.48,-685.02 50.08,-685.17"/>
</g>
<!-- e_b -->
<g id="node2" class="node">
<title>e_b</title>
<path fill="#eaf3ff" stroke="#2c6ebb" stroke-width="1.4" d="M184.7,-791.5C184.7,-791.5 149.3,-791.5 149.3,-791.5 143.3,-791.5 137.3,-785.5 137.3,-779.5 137.3,-779.5 137.3,-767.5 137.3,-767.5 137.3,-761.5 143.3,-755.5 149.3,-755.5 149.3,-755.5 184.7,-755.5 184.7,-755.5 190.7,-755.5 196.7,-761.5 196.7,-767.5 196.7,-767.5 196.7,-779.5 196.7,-779.5 196.7,-785.5 190.7,-791.5 184.7,-791.5"/>
<text xml:space="preserve" text-anchor="middle" x="167" y="-768.65" font-family="Helvetica,sans-Serif" font-size="13.00">b(EMA)</text>
</g>
<!-- e_b&#45;&gt;e_d -->
<g id="edge2" class="edge">
<title>e_b&#45;&gt;e_d</title>
<path fill="none" stroke="#333333" stroke-width="1.3" d="M148.93,-755.03C128.74,-735.53 95.94,-703.83 73.23,-681.88"/>
<polygon fill="#333333" stroke="#333333" stroke-width="1.3" points="75.36,-680.04 67.66,-676.5 71.47,-684.07 75.36,-680.04"/>
</g>
<!-- e_q -->
<g id="node4" class="node">
<title>e_q</title>
<path fill="#eaf3ff" stroke="#2c6ebb" stroke-width="1.4" d="M97.95,-545C97.95,-545 28.05,-545 28.05,-545 22.05,-545 16.05,-539 16.05,-533 16.05,-533 16.05,-521 16.05,-521 16.05,-515 22.05,-509 28.05,-509 28.05,-509 97.95,-509 97.95,-509 103.95,-509 109.95,-515 109.95,-521 109.95,-521 109.95,-533 109.95,-533 109.95,-539 103.95,-545 97.95,-545"/>
<text xml:space="preserve" text-anchor="middle" x="63" y="-522.15" font-family="Helvetica,sans-Serif" font-size="13.00">FP8 quantize</text>
</g>
<!-- e_d&#45;&gt;e_q -->
<g id="edge3" class="edge">
<title>e_d&#45;&gt;e_q</title>
<path fill="none" stroke="#333333" stroke-width="1.3" d="M50.05,-638.04C52.56,-616.7 56.84,-580.35 59.79,-555.3"/>
<polygon fill="#333333" stroke="#333333" stroke-width="1.3" points="62.54,-555.89 60.69,-547.61 56.98,-555.23 62.54,-555.89"/>
</g>
<!-- tok -->
<g id="node6" class="node">
<title>tok</title>
<path fill="#eaf3ff" stroke="#2c6ebb" stroke-width="1.4" d="M324.45,-415.5C324.45,-415.5 113.55,-415.5 113.55,-415.5 107.55,-415.5 101.55,-409.5 101.55,-403.5 101.55,-403.5 101.55,-391.5 101.55,-391.5 101.55,-385.5 107.55,-379.5 113.55,-379.5 113.55,-379.5 324.45,-379.5 324.45,-379.5 330.45,-379.5 336.45,-385.5 336.45,-391.5 336.45,-391.5 336.45,-403.5 336.45,-403.5 336.45,-409.5 330.45,-415.5 324.45,-415.5"/>
<text xml:space="preserve" text-anchor="middle" x="219" y="-392.65" font-family="Helvetica,sans-Serif" font-size="13.00">Tokens: NORM / MAX / MIN / SCALE</text>
</g>
<!-- e_q&#45;&gt;tok -->
<g id="edge5" class="edge">
<title>e_q&#45;&gt;tok</title>
<path fill="none" stroke="#333333" stroke-width="1.3" d="M84.36,-508.54C111.75,-486.16 159.35,-447.26 189.99,-422.21"/>
<polygon fill="#333333" stroke="#333333" stroke-width="1.3" points="191.45,-424.64 195.87,-417.4 187.9,-420.3 191.45,-424.64"/>
<text xml:space="preserve" text-anchor="middle" x="162.55" y="-458.55" font-family="Helvetica,sans-Serif" font-size="11.00">NORM</text>
</g>
<!-- e_E -->
<g id="node5" class="node">
<title>e_E</title>
<path fill="#eaf3ff" stroke="#2c6ebb" stroke-width="1.4" d="M209.32,-674.5C209.32,-674.5 156.68,-674.5 156.68,-674.5 150.68,-674.5 144.68,-668.5 144.68,-662.5 144.68,-662.5 144.68,-650.5 144.68,-650.5 144.68,-644.5 150.68,-638.5 156.68,-638.5 156.68,-638.5 209.32,-638.5 209.32,-638.5 215.32,-638.5 221.32,-644.5 221.32,-650.5 221.32,-650.5 221.32,-662.5 221.32,-662.5 221.32,-668.5 215.32,-674.5 209.32,-674.5"/>
<text xml:space="preserve" text-anchor="middle" x="183" y="-651.65" font-family="Helvetica,sans-Serif" font-size="13.00">E(UE8M0)</text>
</g>
<!-- e_E&#45;&gt;e_q -->
<g id="edge4" class="edge">
<title>e_E&#45;&gt;e_q</title>
<path fill="none" stroke="#333333" stroke-width="1.3" d="M166.57,-638.04C145.77,-615.94 109.82,-577.74 86.22,-552.67"/>
<polygon fill="#333333" stroke="#333333" stroke-width="1.3" points="88.49,-551 80.97,-547.09 84.41,-554.84 88.49,-551"/>
<text xml:space="preserve" text-anchor="middle" x="157.35" y="-588.05" font-family="Helvetica,sans-Serif" font-size="11.00">Emit SCALE</text>
</g>
<!-- e_E&#45;&gt;tok -->
<g id="edge6" class="edge">
<title>e_E&#45;&gt;tok</title>
<path fill="none" stroke="#333333" stroke-width="1.3" d="M190.51,-637.87C194.9,-626.77 200.13,-612.04 203,-598.5 215.88,-537.66 218.58,-464.4 219.03,-425.64"/>
<polygon fill="#333333" stroke="#333333" stroke-width="1.3" points="221.83,-426.09 219.09,-418.07 216.23,-426.05 221.83,-426.09"/>
<text xml:space="preserve" text-anchor="middle" x="234.19" y="-523.3" font-family="Helvetica,sans-Serif" font-size="11.00">SCALE</text>
</g>
<!-- d_E -->
<g id="node7" class="node">
<title>d_E</title>
<path fill="#eaf3ff" stroke="#2c6ebb" stroke-width="1.4" d="M168.45,-286C168.45,-286 137.55,-286 137.55,-286 131.55,-286 125.55,-280 125.55,-274 125.55,-274 125.55,-262 125.55,-262 125.55,-256 131.55,-250 137.55,-250 137.55,-250 168.45,-250 168.45,-250 174.45,-250 180.45,-256 180.45,-262 180.45,-262 180.45,-274 180.45,-274 180.45,-280 174.45,-286 168.45,-286"/>
<text xml:space="preserve" text-anchor="middle" x="153" y="-263.15" font-family="Helvetica,sans-Serif" font-size="13.00">E sync</text>
</g>
<!-- tok&#45;&gt;d_E -->
<g id="edge8" class="edge">
<title>tok&#45;&gt;d_E</title>
<path fill="none" stroke="#333333" stroke-width="1.3" d="M209.96,-379.04C198.77,-357.41 179.59,-320.37 166.62,-295.3"/>
<polygon fill="#333333" stroke="#333333" stroke-width="1.3" points="169.21,-294.22 163.05,-288.41 164.24,-296.8 169.21,-294.22"/>
<text xml:space="preserve" text-anchor="middle" x="206.35" y="-329.05" font-family="Helvetica,sans-Serif" font-size="11.00">SCALE</text>
</g>
<!-- d_q -->
<g id="node8" class="node">
<title>d_q</title>
<path fill="#eaf3ff" stroke="#2c6ebb" stroke-width="1.4" d="M304.32,-286C304.32,-286 257.68,-286 257.68,-286 251.68,-286 245.68,-280 245.68,-274 245.68,-274 245.68,-262 245.68,-262 245.68,-256 251.68,-250 257.68,-250 257.68,-250 304.32,-250 304.32,-250 310.32,-250 316.32,-256 316.32,-262 316.32,-262 316.32,-274 316.32,-274 316.32,-280 310.32,-286 304.32,-286"/>
<text xml:space="preserve" text-anchor="middle" x="281" y="-263.15" font-family="Helvetica,sans-Serif" font-size="13.00">deFP8(q)</text>
</g>
<!-- tok&#45;&gt;d_q -->
<g id="edge7" class="edge">
<title>tok&#45;&gt;d_q</title>
<path fill="none" stroke="#333333" stroke-width="1.3" d="M227.49,-379.04C238.01,-357.41 256.02,-320.37 268.21,-295.3"/>
<polygon fill="#333333" stroke="#333333" stroke-width="1.3" points="270.57,-296.85 271.55,-288.43 265.54,-294.4 270.57,-296.85"/>
<text xml:space="preserve" text-anchor="middle" x="293.86" y="-329.05" font-family="Helvetica,sans-Serif" font-size="11.00">NORM/MAX/MIN</text>
</g>
<!-- d_rec -->
<g id="node9" class="node">
<title>d_rec</title>
<path fill="#eaf3ff" stroke="#2c6ebb" stroke-width="1.4" d="M290.07,-169C290.07,-169 115.93,-169 115.93,-169 109.93,-169 103.92,-163 103.92,-157 103.92,-157 103.92,-145 103.92,-145 103.92,-139 109.92,-133 115.92,-133 115.92,-133 290.07,-133 290.07,-133 296.07,-133 302.07,-139 302.07,-145 302.07,-145 302.07,-157 302.07,-157 302.07,-163 296.07,-169 290.07,-169"/>
<text xml:space="preserve" text-anchor="middle" x="203" y="-146.15" font-family="Helvetica,sans-Serif" font-size="13.00">reconstruct d̂ = deFP8(q) · 2^E</text>
</g>
<!-- d_E&#45;&gt;d_rec -->
<g id="edge10" class="edge">
<title>d_E&#45;&gt;d_rec</title>
<path fill="none" stroke="#333333" stroke-width="1.3" d="M160.59,-249.53C168.78,-230.71 181.91,-200.51 191.39,-178.7"/>
<polygon fill="#333333" stroke="#333333" stroke-width="1.3" points="193.93,-179.89 194.55,-171.43 188.79,-177.65 193.93,-179.89"/>
</g>
<!-- d_q&#45;&gt;d_rec -->
<g id="edge9" class="edge">
<title>d_q&#45;&gt;d_rec</title>
<path fill="none" stroke="#333333" stroke-width="1.3" d="M269.15,-249.53C256.21,-230.45 235.35,-199.69 220.51,-177.82"/>
<polygon fill="#333333" stroke="#333333" stroke-width="1.3" points="222.87,-176.31 216.06,-171.26 218.24,-179.45 222.87,-176.31"/>
</g>
<!-- d_out -->
<g id="node11" class="node">
<title>d_out</title>
<path fill="#eaf3ff" stroke="#2c6ebb" stroke-width="1.4" d="M343.95,-52C343.95,-52 256.05,-52 256.05,-52 250.05,-52 244.05,-46 244.05,-40 244.05,-40 244.05,-28 244.05,-28 244.05,-22 250.05,-16 256.05,-16 256.05,-16 343.95,-16 343.95,-16 349.95,-16 355.95,-22 355.95,-28 355.95,-28 355.95,-40 355.95,-40 355.95,-46 349.95,-52 343.95,-52"/>
<text xml:space="preserve" text-anchor="middle" x="300" y="-29.15" font-family="Helvetica,sans-Serif" font-size="13.00">restore x̂ = b + d̂</text>
</g>
<!-- d_rec&#45;&gt;d_out -->
<g id="edge12" class="edge">
<title>d_rec&#45;&gt;d_out</title>
<path fill="none" stroke="#333333" stroke-width="1.3" d="M217.73,-132.53C233.97,-113.28 260.23,-82.15 278.71,-60.24"/>
<polygon fill="#333333" stroke="#333333" stroke-width="1.3" points="280.84,-62.05 283.86,-54.13 276.56,-58.44 280.84,-62.05"/>
</g>
<!-- d_b -->
<g id="node10" class="node">
<title>d_b</title>
<path fill="#eaf3ff" stroke="#2c6ebb" stroke-width="1.4" d="M414.7,-169C414.7,-169 379.3,-169 379.3,-169 373.3,-169 367.3,-163 367.3,-157 367.3,-157 367.3,-145 367.3,-145 367.3,-139 373.3,-133 379.3,-133 379.3,-133 414.7,-133 414.7,-133 420.7,-133 426.7,-139 426.7,-145 426.7,-145 426.7,-157 426.7,-157 426.7,-163 420.7,-169 414.7,-169"/>
<text xml:space="preserve" text-anchor="middle" x="397" y="-146.15" font-family="Helvetica,sans-Serif" font-size="13.00">b(EMA)</text>
</g>
<!-- d_b&#45;&gt;d_out -->
<g id="edge11" class="edge">
<title>d_b&#45;&gt;d_out</title>
<path fill="none" stroke="#333333" stroke-width="1.3" d="M382.27,-132.53C366.03,-113.28 339.77,-82.15 321.29,-60.24"/>
<polygon fill="#333333" stroke="#333333" stroke-width="1.3" points="323.44,-58.44 316.14,-54.13 319.16,-62.05 323.44,-58.44"/>
</g>
</g>
</svg>
