<?xml version="1.0" encoding="UTF-8" standalone="no"?>
<!DOCTYPE svg PUBLIC "-//W3C//DTD SVG 1.1//EN"
 "http://www.w3.org/Graphics/SVG/1.1/DTD/svg11.dtd">
<!-- Generated by graphviz version 13.1.2 (20250808.2320)
 -->
<!-- Title: TFSD8_SYNC_AUTO_VERTICAL Pages: 1 -->
<svg width="360pt" height="836pt"
 viewBox="0.00 0.00 360.00 836.00" xmlns="http://www.w3.org/2000/svg" xmlns:xlink="http://www.w3.org/1999/xlink">
<g id="graph0" class="graph" transform="scale(1 1) rotate(0) translate(4 831.5)">
<title>TFSD8_SYNC_AUTO_VERTICAL</title>
<polygon fill="#f9f9f9" stroke="none" points="-4,4 -4,-831.5 356,-831.5 356,4 -4,4"/>
<g id="clust1" class="cluster">
<title>cluster_enc</title>
<path fill="#e6e6e6" stroke="#e6e6e6" d="M20,-501C20,-501 216,-501 216,-501 222,-501 228,-507 228,-513 228,-513 228,-807.5 228,-807.5 228,-813.5 222,-819.5 216,-819.5 216,-819.5 20,-819.5 20,-819.5 14,-819.5 8,-813.5 8,-807.5 8,-807.5 8,-513 8,-513 8,-507 14,-501 20,-501"/>
<text xml:space="preserve" text-anchor="middle" x="118" y="-802.2" font-family="Helvetica,sans-Serif" font-size="14.00" fill="#444444">编码器</text>
</g>
<g id="clust2" class="cluster">
<title>cluster_tok</title>
<path fill="#f9f9f9" stroke="#dddddd" d="M104,-371.5C104,-371.5 332,-371.5 332,-371.5 338,-371.5 344,-377.5 344,-383.5 344,-383.5 344,-433.75 344,-433.75 344,-439.75 338,-445.75 332,-445.75 332,-445.75 104,-445.75 104,-445.75 98,-445.75 92,-439.75 92,-433.75 92,-433.75 92,-383.5 92,-383.5 92,-377.5 98,-371.5 104,-371.5"/>
<text xml:space="preserve" text-anchor="middle" x="218" y="-428.45" font-family="Helvetica,sans-Serif" font-size="14.00" fill="#444444">令牌流</text>
</g>
<g id="clust3" class="cluster">
<title>cluster_dec</title>
<path fill="#e6e6e6" stroke="#e6e6e6" d="M42,-8C42,-8 325,-8 325,-8 331,-8 337,-14 337,-20 337,-20 337,-304.25 337,-304.25 337,-310.25 331,-316.25 325,-316.25 325,-316.25 42,-316.25 42,-316.25 36,-316.25 30,-310.25 30,-304.25 30,-304.25 30,-20 30,-20 30,-14 36,-8 42,-8"/>
<text xml:space="preserve" text-anchor="middle" x="183.5" y="-298.95" font-family="Helvetica,sans-Serif" font-size="14.00" fill="#444444">解码器</text>
</g>
<!-- e_in -->
<g id="node1" class="node">
<title>e_in</title>
<path fill="#eaf3ff" stroke="#2c6ebb" stroke-width="1.4" d="M64.7,-789.25C64.7,-789.25 29.3,-789.25 29.3,-789.25 23.3,-789.25 17.3,-783.25 17.3,-777.25 17.3,-777.25 17.3,-765.25 17.3,-765.25 17.3,-759.25 23.3,-753.25 29.3,-753.25 29.3,-753.25 64.7,-753.25 64.7,-753.25 70.7,-753.25 76.7,-759.25 76.7,-765.25 76.7,-765.25 76.7,-777.25 76.7,-777.25 76.7,-783.25 70.7,-789.25 64.7,-789.25"/>
<text xml:space="preserve" text-anchor="middle" x="47" y="-766.4" font-family="Helvetica,sans-Serif" font-size="13.00">输入 x</text>
</g>
<!-- e_d -->
<g id="node3" class="node">
<title>e_d</title>
<path fill="#eaf3ff" stroke="#2c6ebb" stroke-width="1.4" d="M67.58,-672.25C67.58,-672.25 28.42,-672.25 28.42,-672.25 22.42,-672.25 16.43,-666.25 16.43,-660.25 16.43,-660.25 16.43,-648.25 16.43,-648.25 16.43,-642.25 22.43,-636.25 28.43,-636.25 28.43,-636.25 67.58,-636.25 67.58,-636.25 73.58,-636.25 79.58,-642.25 79.58,-648.25 79.58,-648.25 79.58,-660.25 79.58,-660.25 79.58,-666.25 73.58,-672.25 67.58,-672.25"/>
<text xml:space="preserve" text-anchor="middle" x="48" y="-649.4" font-family="Helvetica,sans-Serif" font-size="13.00">d = x &#45; b</text>
</g>
<!-- e_in&#45;&gt;e_d -->
<g id="edge1" class="edge">
<title>e_in&#45;&gt;e_d</title>
<path fill="none" stroke="#333333" stroke-width="1.3" d="M47.15,-752.78C47.31,-734.21 47.57,-704.57 47.76,-682.83"/>
<polygon fill="#333333" stroke="#333333" stroke-width="1.3" points="50.56,-682.87 47.83,-674.85 44.96,-682.82 50.56,-682.87"/>
</g>
<!-- e_b -->
<g id="node2" class="node">
<title>e_b</title>
<path fill="#eaf3ff" stroke="#2c6ebb" stroke-width="1.4" d="M188.7,-789.25C188.7,-789.25 153.3,-789.25 153.3,-789.25 147.3,-789.25 141.3,-783.25 141.3,-777.25 141.3,-777.25 141.3,-765.25 141.3,-765.25 141.3,-759.25 147.3,-753.25 153.3,-753.25 153.3,-753.25 188.7,-753.25 188.7,-753.25 194.7,-753.25 200.7,-759.25 200.7,-765.25 200.7,-765.25 200.7,-777.25 200.7,-777.25 200.7,-783.25 194.7,-789.25 188.7,-789.25"/>
<text xml:space="preserve" text-anchor="middle" x="171" y="-766.4" font-family="Helvetica,sans-Serif" font-size="13.00">b(EMA)</text>
</g>
<!-- e_b&#45;&gt;e_d -->
<g id="edge2" class="edge">
<title>e_b&#45;&gt;e_d</title>
<path fill="none" stroke="#333333" stroke-width="1.3" d="M152.32,-752.78C131.46,-733.28 97.55,-701.58 74.08,-679.63"/>
<polygon fill="#333333" stroke="#333333" stroke-width="1.3" points="76.05,-677.64 68.29,-674.22 72.23,-681.73 76.05,-677.64"/>
</g>
<!-- e_q -->
<g id="node4" class="node">
<title>e_q</title>
<path fill="#eaf3ff" stroke="#2c6ebb" stroke-width="1.4" d="M81.7,-545C81.7,-545 28.3,-545 28.3,-545 22.3,-545 16.3,-539 16.3,-533 16.3,-533 16.3,-521 16.3,-521 16.3,-515 22.3,-509 28.3,-509 28.3,-509 81.7,-509 81.7,-509 87.7,-509 93.7,-515 93.7,-521 93.7,-521 93.7,-533 93.7,-533 93.7,-539 87.7,-545 81.7,-545"/>
<text xml:space="preserve" text-anchor="middle" x="55" y="-522.15" font-family="Helvetica,sans-Serif" font-size="13.00">FP8 量化</text>
</g>
<!-- e_d&#45;&gt;e_q -->
<g id="edge3" class="edge">
<title>e_d&#45;&gt;e_q</title>
<path fill="none" stroke="#333333" stroke-width="1.3" d="M48.99,-635.57C50.16,-614.68 52.11,-579.7 53.47,-555.32"/>
<polygon fill="#333333" stroke="#333333" stroke-width="1.3" points="56.26,-555.7 53.91,-547.55 50.67,-555.39 56.26,-555.7"/>
</g>
<!-- tok -->
<g id="node6" class="node">
<title>tok</title>
<path fill="#eaf3ff" stroke="#2c6ebb" stroke-width="1.4" d="M324.2,-415.5C324.2,-415.5 111.8,-415.5 111.8,-415.5 105.8,-415.5 99.8,-409.5 99.8,-403.5 99.8,-403.5 99.8,-391.5 99.8,-391.5 99.8,-385.5 105.8,-379.5 111.8,-379.5 111.8,-379.5 324.2,-379.5 324.2,-379.5 330.2,-379.5 336.2,-385.5 336.2,-391.5 336.2,-391.5 336.2,-403.5 336.2,-403.5 336.2,-409.5 330.2,-415.5 324.2,-415.5"/>
<text xml:space="preserve" text-anchor="middle" x="218" y="-392.65" font-family="Helvetica,sans-Serif" font-size="13.00">令牌：NORM / MAX / MIN / SCALE</text>
</g>
<!-- e_q&#45;&gt;tok -->
<g id="edge5" class="edge">
<title>e_q&#45;&gt;tok</title>
<path fill="none" stroke="#333333" stroke-width="1.3" d="M76.05,-508.34C93.37,-493.91 118.67,-473.09 141.25,-455.5 155.7,-444.24 171.95,-432.1 185.76,-421.93"/>
<polygon fill="#333333" stroke="#333333" stroke-width="1.3" points="187.21,-424.34 192,-417.35 183.89,-419.83 187.21,-424.34"/>
<text xml:space="preserve" text-anchor="middle" x="158.12" y="-458.55" font-family="Helvetica,sans-Serif" font-size="11.00">NORM</text>
</g>
<!-- e_E -->
<g id="node5" class="node">
<title>e_E</title>
<path fill="#eaf3ff" stroke="#2c6ebb" stroke-width="1.4" d="M207.57,-672.25C207.57,-672.25 156.43,-672.25 156.43,-672.25 150.43,-672.25 144.43,-666.25 144.43,-660.25 144.43,-660.25 144.43,-648.25 144.43,-648.25 144.43,-642.25 150.43,-636.25 156.43,-636.25 156.43,-636.25 207.57,-636.25 207.57,-636.25 213.57,-636.25 219.57,-642.25 219.57,-648.25 219.57,-648.25 219.57,-660.25 219.57,-660.25 219.57,-666.25 213.57,-672.25 207.57,-672.25"/>
<text xml:space="preserve" text-anchor="middle" x="182" y="-649.4" font-family="Helvetica,sans-Serif" font-size="13.00">E(TFSD8)</text>
</g>
<!-- e_E&#45;&gt;e_q -->
<g id="edge4" class="edge">
<title>e_E&#45;&gt;e_q</title>
<path fill="none" stroke="#333333" stroke-width="1.3" d="M158.03,-635.57C144.05,-624.82 126.38,-610.46 112,-596.25 98.54,-582.95 84.9,-566.75 74.34,-553.46"/>
<polygon fill="#333333" stroke="#333333" stroke-width="1.3" points="76.55,-551.74 69.41,-547.17 72.14,-555.19 76.55,-551.74"/>
<text xml:space="preserve" text-anchor="middle" x="143.5" y="-585.8" font-family="Helvetica,sans-Serif" font-size="11.00">尺度应用</text>
</g>
<!-- e_E&#45;&gt;tok -->
<g id="edge6" class="edge">
<title>e_E&#45;&gt;tok</title>
<path fill="none" stroke="#333333" stroke-width="1.3" d="M184.47,-635.74C190.64,-592.11 206.72,-478.3 214.14,-425.78"/>
<polygon fill="#333333" stroke="#333333" stroke-width="1.3" points="216.89,-426.39 215.23,-418.08 211.34,-425.61 216.89,-426.39"/>
<text xml:space="preserve" text-anchor="middle" x="221.36" y="-523.3" font-family="Helvetica,sans-Serif" font-size="11.00">SCALE</text>
</g>
<!-- d_E -->
<g id="node7" class="node">
<title>d_E</title>
<path fill="#eaf3ff" stroke="#2c6ebb" stroke-width="1.4" d="M117.82,-286C117.82,-286 80.17,-286 80.17,-286 74.17,-286 68.17,-280 68.17,-274 68.17,-274 68.17,-262 68.17,-262 68.17,-256 74.17,-250 80.17,-250 80.17,-250 117.82,-250 117.82,-250 123.82,-250 129.82,-256 129.82,-262 129.82,-262 129.82,-274 129.82,-274 129.82,-280 123.82,-286 117.82,-286"/>
<text xml:space="preserve" text-anchor="middle" x="99" y="-263.15" font-family="Helvetica,sans-Serif" font-size="13.00">E 同步</text>
</g>
<!-- tok&#45;&gt;d_E -->
<g id="edge8" class="edge">
<title>tok&#45;&gt;d_E</title>
<path fill="none" stroke="#333333" stroke-width="1.3" d="M201.7,-379.04C181.08,-356.94 145.43,-318.74 122.03,-293.67"/>
<polygon fill="#333333" stroke="#333333" stroke-width="1.3" points="124.33,-292.04 116.82,-288.1 120.24,-295.86 124.33,-292.04"/>
<text xml:space="preserve" text-anchor="middle" x="180.44" y="-329.05" font-family="Helvetica,sans-Serif" font-size="11.00">SCALE</text>
</g>
<!-- d_q -->
<g id="node8" class="node">
<title>d_q</title>
<path fill="#eaf3ff" stroke="#2c6ebb" stroke-width="1.4" d="M253.32,-286C253.32,-286 206.68,-286 206.68,-286 200.68,-286 194.68,-280 194.68,-274 194.68,-274 194.68,-262 194.68,-262 194.68,-256 200.68,-250 206.68,-250 206.68,-250 253.32,-250 253.32,-250 259.32,-250 265.32,-256 265.32,-262 265.32,-262 265.32,-274 265.32,-274 265.32,-280 259.32,-286 253.32,-286"/>
<text xml:space="preserve" text-anchor="middle" x="230" y="-263.15" font-family="Helvetica,sans-Serif" font-size="13.00">deFP8(q)</text>
</g>
<!-- tok&#45;&gt;d_q -->
<g id="edge7" class="edge">
<title>tok&#45;&gt;d_q</title>
<path fill="none" stroke="#333333" stroke-width="1.3" d="M219.64,-379.04C221.65,-357.7 225.07,-321.35 227.43,-296.3"/>
<polygon fill="#333333" stroke="#333333" stroke-width="1.3" points="230.19,-296.85 228.15,-288.62 224.62,-296.32 230.19,-296.85"/>
<text xml:space="preserve" text-anchor="middle" x="266.36" y="-329.05" font-family="Helvetica,sans-Serif" font-size="11.00">NORM/MAX/MIN</text>
</g>
<!-- d_rec -->
<g id="node9" class="node">
<title>d_rec</title>
<path fill="#eaf3ff" stroke="#2c6ebb" stroke-width="1.4" d="M191.95,-169C191.95,-169 50.05,-169 50.05,-169 44.05,-169 38.05,-163 38.05,-157 38.05,-157 38.05,-145 38.05,-145 38.05,-139 44.05,-133 50.05,-133 50.05,-133 191.95,-133 191.95,-133 197.95,-133 203.95,-139 203.95,-145 203.95,-145 203.95,-157 203.95,-157 203.95,-163 197.95,-169 191.95,-169"/>
<text xml:space="preserve" text-anchor="middle" x="121" y="-146.15" font-family="Helvetica,sans-Serif" font-size="13.00">重构 d̂ = deFP8(q) · 2^E</text>
</g>
<!-- d_E&#45;&gt;d_rec -->
<g id="edge10" class="edge">
<title>d_E&#45;&gt;d_rec</title>
<path fill="none" stroke="#333333" stroke-width="1.3" d="M102.34,-249.53C105.91,-230.87 111.62,-201.05 115.78,-179.29"/>
<polygon fill="#333333" stroke="#333333" stroke-width="1.3" points="118.5,-179.95 117.26,-171.56 113,-178.89 118.5,-179.95"/>
</g>
<!-- d_q&#45;&gt;d_rec -->
<g id="edge9" class="edge">
<title>d_q&#45;&gt;d_rec</title>
<path fill="none" stroke="#333333" stroke-width="1.3" d="M213.45,-249.53C195.04,-230.11 165.17,-198.6 144.38,-176.67"/>
<polygon fill="#333333" stroke="#333333" stroke-width="1.3" points="146.6,-174.94 139.06,-171.06 142.54,-178.79 146.6,-174.94"/>
</g>
<!-- d_out -->
<g id="node11" class="node">
<title>d_out</title>
<path fill="#eaf3ff" stroke="#2c6ebb" stroke-width="1.4" d="M250.2,-52C250.2,-52 169.8,-52 169.8,-52 163.8,-52 157.8,-46 157.8,-40 157.8,-40 157.8,-28 157.8,-28 157.8,-22 163.8,-16 169.8,-16 169.8,-16 250.2,-16 250.2,-16 256.2,-16 262.2,-22 262.2,-28 262.2,-28 262.2,-40 262.2,-40 262.2,-46 256.2,-52 250.2,-52"/>
<text xml:space="preserve" text-anchor="middle" x="210" y="-29.15" font-family="Helvetica,sans-Serif" font-size="13.00">复原 x̂ = b + d̂</text>
</g>
<!-- d_rec&#45;&gt;d_out -->
<g id="edge12" class="edge">
<title>d_rec&#45;&gt;d_out</title>
<path fill="none" stroke="#333333" stroke-width="1.3" d="M134.52,-132.53C149.42,-113.28 173.51,-82.15 190.46,-60.24"/>
<polygon fill="#333333" stroke="#333333" stroke-width="1.3" points="192.47,-62.23 195.15,-54.19 188.04,-58.8 192.47,-62.23"/>
</g>
<!-- d_b -->
<g id="node10" class="node">
<title>d_b</title>
<path fill="#eaf3ff" stroke="#2c6ebb" stroke-width="1.4" d="M316.7,-169C316.7,-169 281.3,-169 281.3,-169 275.3,-169 269.3,-163 269.3,-157 269.3,-157 269.3,-145 269.3,-145 269.3,-139 275.3,-133 281.3,-133 281.3,-133 316.7,-133 316.7,-133 322.7,-133 328.7,-139 328.7,-145 328.7,-145 328.7,-157 328.7,-157 328.7,-163 322.7,-169 316.7,-169"/>
<text xml:space="preserve" text-anchor="middle" x="299" y="-146.15" font-family="Helvetica,sans-Serif" font-size="13.00">b(EMA)</text>
</g>
<!-- d_b&#45;&gt;d_out -->
<g id="edge11" class="edge">
<title>d_b&#45;&gt;d_out</title>
<path fill="none" stroke="#333333" stroke-width="1.3" d="M285.48,-132.53C270.58,-113.28 246.49,-82.15 229.54,-60.24"/>
<polygon fill="#333333" stroke="#333333" stroke-width="1.3" points="231.96,-58.8 224.85,-54.19 227.53,-62.23 231.96,-58.8"/>
</g>
</g>
</svg>
