<?xml version="1.0" encoding="UTF-8" standalone="no"?>
<!DOCTYPE svg PUBLIC "-//W3C//DTD SVG 1.1//EN"
 "http://www.w3.org/Graphics/SVG/1.1/DTD/svg11.dtd">
<!-- Generated by graphviz version 13.1.2 (20250808.2320)
 -->
<!-- Title: UE8M0_TPU_TOP_V02 Pages: 1 -->
<svg width="1250pt" height="949pt"
 viewBox="0.00 0.00 1250.00 949.00" xmlns="http://www.w3.org/2000/svg" xmlns:xlink="http://www.w3.org/1999/xlink">
<g id="graph0" class="graph" transform="scale(1 1) rotate(0) translate(4 945)">
<title>UE8M0_TPU_TOP_V02</title>
<polygon fill="white" stroke="none" points="-4,4 -4,-945 1246,-945 1246,4 -4,4"/>
<text xml:space="preserve" text-anchor="middle" x="621" y="-919.9" font-family="Helvetica,sans-Serif" font-size="18.00">UE8M0&#45;TPU SoC Top v0.2 (DDR/HBM + KV/Tensor&#45;Cache)</text>
<g id="clust1" class="cluster">
<title>cluster_host</title>
<polygon fill="none" stroke="#ffcccc" points="8,-588 8,-904 190,-904 190,-588 8,-588"/>
<text xml:space="preserve" text-anchor="middle" x="99" y="-882.9" font-family="Helvetica,sans-Serif" font-size="18.00">Host</text>
</g>
<g id="clust2" class="cluster">
<title>cluster_mem</title>
<polygon fill="none" stroke="#ffdab9" points="763,-588 763,-674 1234,-674 1234,-588 763,-588"/>
<text xml:space="preserve" text-anchor="middle" x="998.5" y="-652.9" font-family="Helvetica,sans-Serif" font-size="18.00">External Memory</text>
</g>
<g id="clust3" class="cluster">
<title>cluster_cache</title>
<polygon fill="none" stroke="#fff0b3" points="452,-468 452,-554 918,-554 918,-468 452,-468"/>
<text xml:space="preserve" text-anchor="middle" x="685" y="-532.9" font-family="Helvetica,sans-Serif" font-size="18.00">Front&#45;side Caches</text>
</g>
<g id="clust4" class="cluster">
<title>cluster_spm</title>
<polygon fill="none" stroke="#dff7e7" points="470,-353 470,-434 756,-434 756,-353 470,-353"/>
<text xml:space="preserve" text-anchor="middle" x="613" y="-412.9" font-family="Helvetica,sans-Serif" font-size="18.00">On&#45;chip Scratchpad</text>
</g>
<g id="clust5" class="cluster">
<title>cluster_codec</title>
<polygon fill="none" stroke="#e6e6e6" points="804,-353 804,-434 1182,-434 1182,-353 804,-353"/>
<text xml:space="preserve" text-anchor="middle" x="993" y="-412.9" font-family="Helvetica,sans-Serif" font-size="18.00">UE8M0 Codec Cluster</text>
</g>
<g id="clust6" class="cluster">
<title>cluster_tiles</title>
<polygon fill="none" stroke="#cce5ff" points="471,-238 471,-319 1053,-319 1053,-238 471,-238"/>
<text xml:space="preserve" text-anchor="middle" x="762" y="-297.9" font-family="Helvetica,sans-Serif" font-size="18.00">Tensor Core Tiles</text>
</g>
<g id="clust7" class="cluster">
<title>cluster_post</title>
<polygon fill="none" stroke="#e0e0ff" points="725,-8 725,-204 921,-204 921,-8 725,-8"/>
<text xml:space="preserve" text-anchor="middle" x="823" y="-182.9" font-family="Helvetica,sans-Serif" font-size="18.00">Post Ops</text>
</g>
<!-- pcie -->
<g id="node1" class="node">
<title>pcie</title>
<path fill="#eaf3ff" stroke="#2c6ebb" d="M169.88,-867C169.88,-867 120.12,-867 120.12,-867 114.12,-867 108.12,-861 108.12,-855 108.12,-855 108.12,-843 108.12,-843 108.12,-837 114.12,-831 120.12,-831 120.12,-831 169.88,-831 169.88,-831 175.88,-831 181.88,-837 181.88,-843 181.88,-843 181.88,-855 181.88,-855 181.88,-861 175.88,-867 169.88,-867"/>
<text xml:space="preserve" text-anchor="middle" x="145" y="-843.95" font-family="Times New Roman,serif" font-size="14.00">PCIe/CXL</text>
</g>
<!-- dma -->
<g id="node2" class="node">
<title>dma</title>
<path fill="#eaf3ff" stroke="#2c6ebb" d="M169.62,-752C169.62,-752 106.38,-752 106.38,-752 100.38,-752 94.38,-746 94.38,-740 94.38,-740 94.38,-728 94.38,-728 94.38,-722 100.38,-716 106.38,-716 106.38,-716 169.62,-716 169.62,-716 175.62,-716 181.62,-722 181.62,-728 181.62,-728 181.62,-740 181.62,-740 181.62,-746 175.62,-752 169.62,-752"/>
<text xml:space="preserve" text-anchor="middle" x="138" y="-728.95" font-family="Times New Roman,serif" font-size="14.00">DMA/Queue</text>
</g>
<!-- pcie&#45;&gt;dma -->
<g id="edge1" class="edge">
<title>pcie&#45;&gt;dma</title>
<path fill="none" stroke="black" d="M144.88,-830.52C144.88,-830.52 144.88,-763.94 144.88,-763.94"/>
<polygon fill="black" stroke="black" points="148.38,-763.94 144.88,-753.94 141.38,-763.94 148.38,-763.94"/>
</g>
<!-- kv -->
<g id="node7" class="node">
<title>kv</title>
<path fill="#eaf3ff" stroke="#2c6ebb" d="M631.62,-514.5C631.62,-514.5 472.38,-514.5 472.38,-514.5 466.38,-514.5 460.38,-508.5 460.38,-502.5 460.38,-502.5 460.38,-490.5 460.38,-490.5 460.38,-484.5 466.38,-478.5 472.38,-478.5 472.38,-478.5 631.62,-478.5 631.62,-478.5 637.62,-478.5 643.62,-484.5 643.62,-490.5 643.62,-490.5 643.62,-502.5 643.62,-502.5 643.62,-508.5 637.62,-514.5 631.62,-514.5"/>
<text xml:space="preserve" text-anchor="middle" x="552" y="-491.45" font-family="Times New Roman,serif" font-size="14.00">KV&#45;Cache per&#45;chan 16–32MB</text>
</g>
<!-- pcie&#45;&gt;kv -->
<g id="edge3" class="edge">
<title>pcie&#45;&gt;kv</title>
<path fill="none" stroke="black" d="M182.13,-843C277.1,-843 521.46,-843 521.46,-843 521.46,-843 521.46,-526.16 521.46,-526.16"/>
<polygon fill="black" stroke="black" points="524.96,-526.15 521.46,-516.16 517.96,-526.16 524.96,-526.15"/>
</g>
<!-- tcache -->
<g id="node8" class="node">
<title>tcache</title>
<path fill="#eaf3ff" stroke="#2c6ebb" d="M897.62,-517C897.62,-517 720.38,-517 720.38,-517 714.38,-517 708.38,-511 708.38,-505 708.38,-505 708.38,-488 708.38,-488 708.38,-482 714.38,-476 720.38,-476 720.38,-476 897.62,-476 897.62,-476 903.62,-476 909.62,-482 909.62,-488 909.62,-488 909.62,-505 909.62,-505 909.62,-511 903.62,-517 897.62,-517"/>
<text xml:space="preserve" text-anchor="middle" x="809" y="-499.7" font-family="Times New Roman,serif" font-size="14.00">Tensor&#45;Cache per&#45;chan 16–32MB</text>
<text xml:space="preserve" text-anchor="middle" x="809" y="-483.2" font-family="Times New Roman,serif" font-size="14.00">(prefetch/stream)</text>
</g>
<!-- pcie&#45;&gt;tcache -->
<g id="edge4" class="edge">
<title>pcie&#45;&gt;tcache</title>
<path fill="none" stroke="black" d="M182.27,-855C314.8,-855 755.44,-855 755.44,-855 755.44,-855 755.44,-528.84 755.44,-528.84"/>
<polygon fill="black" stroke="black" points="758.94,-528.84 755.44,-518.84 751.94,-528.84 758.94,-528.84"/>
</g>
<!-- rv -->
<g id="node3" class="node">
<title>rv</title>
<path fill="#eaf3ff" stroke="#2c6ebb" d="M170.38,-637C170.38,-637 27.62,-637 27.62,-637 21.62,-637 15.62,-631 15.62,-625 15.62,-625 15.62,-608 15.62,-608 15.62,-602 21.62,-596 27.62,-596 27.62,-596 170.38,-596 170.38,-596 176.38,-596 182.38,-602 182.38,-608 182.38,-608 182.38,-625 182.38,-625 182.38,-631 176.38,-637 170.38,-637"/>
<text xml:space="preserve" text-anchor="middle" x="99" y="-619.7" font-family="Times New Roman,serif" font-size="14.00">RISC&#45;V Cores</text>
<text xml:space="preserve" text-anchor="middle" x="99" y="-603.2" font-family="Times New Roman,serif" font-size="14.00">(RV64GCV + AME hooks)</text>
</g>
<!-- dma&#45;&gt;rv -->
<g id="edge2" class="edge">
<title>dma&#45;&gt;rv</title>
<path fill="none" stroke="black" d="M138,-715.64C138,-715.64 138,-648.61 138,-648.61"/>
<polygon fill="black" stroke="black" points="141.5,-648.61 138,-638.61 134.5,-648.61 141.5,-648.61"/>
</g>
<!-- dma&#45;&gt;kv -->
<g id="edge5" class="edge">
<title>dma&#45;&gt;kv</title>
<path fill="none" stroke="black" d="M181.98,-728C276.59,-728 490.92,-728 490.92,-728 490.92,-728 490.92,-526.18 490.92,-526.18"/>
<polygon fill="black" stroke="black" points="494.42,-526.18 490.92,-516.18 487.42,-526.18 494.42,-526.18"/>
</g>
<!-- dma&#45;&gt;tcache -->
<g id="edge6" class="edge">
<title>dma&#45;&gt;tcache</title>
<path fill="none" stroke="black" d="M181.76,-740C320.23,-740 739.75,-740 739.75,-740 739.75,-740 739.75,-528.77 739.75,-528.77"/>
<polygon fill="black" stroke="black" points="743.25,-528.77 739.75,-518.77 736.25,-528.77 743.25,-528.77"/>
</g>
<!-- rv&#45;&gt;kv -->
<g id="edge7" class="edge">
<title>rv&#45;&gt;kv</title>
<path fill="none" stroke="black" d="M99,-595.68C99,-561.45 99,-497 99,-497 99,-497 448.54,-497 448.54,-497"/>
<polygon fill="black" stroke="black" points="448.54,-500.5 458.54,-497 448.54,-493.5 448.54,-500.5"/>
</g>
<!-- rv&#45;&gt;tcache -->
<g id="edge8" class="edge">
<title>rv&#45;&gt;tcache</title>
<path fill="none" stroke="black" d="M182.65,-623C352.97,-623 724.06,-623 724.06,-623 724.06,-623 724.06,-528.9 724.06,-528.9"/>
<polygon fill="black" stroke="black" points="727.56,-528.9 724.06,-518.9 720.56,-528.9 727.56,-528.9"/>
</g>
<!-- ddr -->
<g id="node4" class="node">
<title>ddr</title>
<path fill="#eaf3ff" stroke="#2c6ebb" d="M1042.5,-637C1042.5,-637 945.5,-637 945.5,-637 939.5,-637 933.5,-631 933.5,-625 933.5,-625 933.5,-608 933.5,-608 933.5,-602 939.5,-596 945.5,-596 945.5,-596 1042.5,-596 1042.5,-596 1048.5,-596 1054.5,-602 1054.5,-608 1054.5,-608 1054.5,-625 1054.5,-625 1054.5,-631 1048.5,-637 1042.5,-637"/>
<text xml:space="preserve" text-anchor="middle" x="994" y="-619.7" font-family="Times New Roman,serif" font-size="14.00">DDR5 RDIMM x8</text>
<text xml:space="preserve" text-anchor="middle" x="994" y="-603.2" font-family="Times New Roman,serif" font-size="14.00">(512b, up to 2TB)</text>
</g>
<!-- ddr&#45;&gt;kv -->
<g id="edge11" class="edge">
<title>ddr&#45;&gt;kv</title>
<path fill="none" stroke="black" d="M993,-595.7C993,-583.32 993,-570 993,-570 993,-570 582.54,-570 582.54,-570 582.54,-570 582.54,-526.18 582.54,-526.18"/>
<polygon fill="black" stroke="black" points="586.04,-526.18 582.54,-516.18 579.04,-526.18 586.04,-526.18"/>
</g>
<!-- ddr&#45;&gt;tcache -->
<g id="edge12" class="edge">
<title>ddr&#45;&gt;tcache</title>
<path fill="none" stroke="black" d="M933.07,-617C910.02,-617 889.25,-617 889.25,-617 889.25,-617 889.25,-529 889.25,-529"/>
<polygon fill="black" stroke="black" points="892.75,-529 889.25,-519 885.75,-529 892.75,-529"/>
</g>
<!-- lpddr -->
<g id="node5" class="node">
<title>lpddr</title>
<path fill="#eaf3ff" stroke="#2c6ebb" d="M1214.38,-634.5C1214.38,-634.5 1131.62,-634.5 1131.62,-634.5 1125.62,-634.5 1119.62,-628.5 1119.62,-622.5 1119.62,-622.5 1119.62,-610.5 1119.62,-610.5 1119.62,-604.5 1125.62,-598.5 1131.62,-598.5 1131.62,-598.5 1214.38,-598.5 1214.38,-598.5 1220.38,-598.5 1226.38,-604.5 1226.38,-610.5 1226.38,-610.5 1226.38,-622.5 1226.38,-622.5 1226.38,-628.5 1220.38,-634.5 1214.38,-634.5"/>
<text xml:space="preserve" text-anchor="middle" x="1173" y="-611.45" font-family="Times New Roman,serif" font-size="14.00">LPDDR5X (Alt)</text>
</g>
<!-- lpddr&#45;&gt;kv -->
<g id="edge13" class="edge">
<title>lpddr&#45;&gt;kv</title>
<path fill="none" stroke="black" d="M1137.71,-598.33C1137.71,-576.57 1137.71,-543 1137.71,-543 1137.71,-543 613.08,-543 613.08,-543 613.08,-543 613.08,-526.39 613.08,-526.39"/>
<polygon fill="black" stroke="black" points="616.58,-526.39 613.08,-516.39 609.58,-526.39 616.58,-526.39"/>
</g>
<!-- lpddr&#45;&gt;tcache -->
<g id="edge14" class="edge">
<title>lpddr&#45;&gt;tcache</title>
<path fill="none" stroke="black" d="M1155.79,-598.09C1155.79,-564.57 1155.79,-497 1155.79,-497 1155.79,-497 921.29,-497 921.29,-497"/>
<polygon fill="black" stroke="black" points="921.29,-493.5 911.29,-497 921.29,-500.5 921.29,-493.5"/>
</g>
<!-- hbm -->
<g id="node6" class="node">
<title>hbm</title>
<path fill="#eaf3ff" stroke="#2c6ebb" d="M856.88,-637C856.88,-637 783.12,-637 783.12,-637 777.12,-637 771.12,-631 771.12,-625 771.12,-625 771.12,-608 771.12,-608 771.12,-602 777.12,-596 783.12,-596 783.12,-596 856.88,-596 856.88,-596 862.88,-596 868.88,-602 868.88,-608 868.88,-608 868.88,-625 868.88,-625 868.88,-631 862.88,-637 856.88,-637"/>
<text xml:space="preserve" text-anchor="middle" x="820" y="-619.7" font-family="Times New Roman,serif" font-size="14.00">HBM (Option)</text>
<text xml:space="preserve" text-anchor="middle" x="820" y="-603.2" font-family="Times New Roman,serif" font-size="14.00">&gt;=3.5–7 TB/s</text>
</g>
<!-- hbm&#45;&gt;kv -->
<g id="edge15" class="edge">
<title>hbm&#45;&gt;kv</title>
<path fill="none" stroke="black" d="M770.84,-610C693.48,-610 552,-610 552,-610 552,-610 552,-526.5 552,-526.5"/>
<polygon fill="black" stroke="black" points="555.5,-526.5 552,-516.5 548.5,-526.5 555.5,-526.5"/>
</g>
<!-- hbm&#45;&gt;tcache -->
<g id="edge16" class="edge">
<title>hbm&#45;&gt;tcache</title>
<path fill="none" stroke="black" d="M820,-595.6C820,-595.6 820,-528.68 820,-528.68"/>
<polygon fill="black" stroke="black" points="823.5,-528.68 820,-518.68 816.5,-528.68 823.5,-528.68"/>
</g>
<!-- spm -->
<g id="node9" class="node">
<title>spm</title>
<path fill="#eaf3ff" stroke="#2c6ebb" d="M735.75,-397C735.75,-397 490.25,-397 490.25,-397 484.25,-397 478.25,-391 478.25,-385 478.25,-385 478.25,-373 478.25,-373 478.25,-367 484.25,-361 490.25,-361 490.25,-361 735.75,-361 735.75,-361 741.75,-361 747.75,-367 747.75,-373 747.75,-373 747.75,-385 747.75,-385 747.75,-391 741.75,-397 735.75,-397"/>
<text xml:space="preserve" text-anchor="middle" x="613" y="-373.95" font-family="Times New Roman,serif" font-size="14.00">SPM Banks (multi&#45;bank, ping&#45;pong, crossbar)</text>
</g>
<!-- kv&#45;&gt;spm -->
<g id="edge9" class="edge">
<title>kv&#45;&gt;spm</title>
<path fill="none" stroke="black" d="M560.94,-478.14C560.94,-478.14 560.94,-408.74 560.94,-408.74"/>
<polygon fill="black" stroke="black" points="564.44,-408.74 560.94,-398.74 557.44,-408.74 564.44,-408.74"/>
</g>
<!-- tcache&#45;&gt;spm -->
<g id="edge10" class="edge">
<title>tcache&#45;&gt;spm</title>
<path fill="none" stroke="black" d="M728.06,-475.76C728.06,-475.76 728.06,-408.73 728.06,-408.73"/>
<polygon fill="black" stroke="black" points="731.56,-408.73 728.06,-398.73 724.56,-408.73 731.56,-408.73"/>
</g>
<!-- tile0 -->
<g id="node13" class="node">
<title>tile0</title>
<path fill="#eaf3ff" stroke="#2c6ebb" d="M863.25,-282C863.25,-282 782.75,-282 782.75,-282 776.75,-282 770.75,-276 770.75,-270 770.75,-270 770.75,-258 770.75,-258 770.75,-252 776.75,-246 782.75,-246 782.75,-246 863.25,-246 863.25,-246 869.25,-246 875.25,-252 875.25,-258 875.25,-258 875.25,-270 875.25,-270 875.25,-276 869.25,-282 863.25,-282"/>
<text xml:space="preserve" text-anchor="middle" x="823" y="-258.95" font-family="Times New Roman,serif" font-size="14.00">Tile[0] 128x128</text>
</g>
<!-- spm&#45;&gt;tile0 -->
<g id="edge20" class="edge">
<title>spm&#45;&gt;tile0</title>
<path fill="none" stroke="black" d="M744.12,-360.51C744.12,-329.41 744.12,-270 744.12,-270 744.12,-270 758.88,-270 758.88,-270"/>
<polygon fill="black" stroke="black" points="758.88,-273.5 768.88,-270 758.88,-266.5 758.88,-273.5"/>
</g>
<!-- tile1 -->
<g id="node14" class="node">
<title>tile1</title>
<path fill="#eaf3ff" stroke="#2c6ebb" d="M1033.25,-282C1033.25,-282 952.75,-282 952.75,-282 946.75,-282 940.75,-276 940.75,-270 940.75,-270 940.75,-258 940.75,-258 940.75,-252 946.75,-246 952.75,-246 952.75,-246 1033.25,-246 1033.25,-246 1039.25,-246 1045.25,-252 1045.25,-258 1045.25,-258 1045.25,-270 1045.25,-270 1045.25,-276 1039.25,-282 1033.25,-282"/>
<text xml:space="preserve" text-anchor="middle" x="993" y="-258.95" font-family="Times New Roman,serif" font-size="14.00">Tile[1] 128x128</text>
</g>
<!-- spm&#45;&gt;tile1 -->
<g id="edge21" class="edge">
<title>spm&#45;&gt;tile1</title>
<path fill="none" stroke="black" d="M736.88,-360.65C736.88,-343.99 736.88,-322 736.88,-322 736.88,-322 975.58,-322 975.58,-322 975.58,-322 975.58,-293.87 975.58,-293.87"/>
<polygon fill="black" stroke="black" points="979.08,-293.87 975.58,-283.87 972.08,-293.87 979.08,-293.87"/>
</g>
<!-- dots -->
<g id="node15" class="node">
<title>dots</title>
<path fill="#eaf3ff" stroke="#2c6ebb" d="M521,-282C521,-282 491,-282 491,-282 485,-282 479,-276 479,-270 479,-270 479,-258 479,-258 479,-252 485,-246 491,-246 491,-246 521,-246 521,-246 527,-246 533,-252 533,-258 533,-258 533,-270 533,-270 533,-276 527,-282 521,-282"/>
<text xml:space="preserve" text-anchor="middle" x="506" y="-258.95" font-family="Times New Roman,serif" font-size="14.00">...</text>
</g>
<!-- spm&#45;&gt;dots -->
<g id="edge22" class="edge">
<title>spm&#45;&gt;dots</title>
<path fill="none" stroke="black" d="M506,-360.52C506,-360.52 506,-293.94 506,-293.94"/>
<polygon fill="black" stroke="black" points="509.5,-293.94 506,-283.94 502.5,-293.94 509.5,-293.94"/>
</g>
<!-- tileN -->
<g id="node16" class="node">
<title>tileN</title>
<path fill="#eaf3ff" stroke="#2c6ebb" d="M693.75,-282C693.75,-282 610.25,-282 610.25,-282 604.25,-282 598.25,-276 598.25,-270 598.25,-270 598.25,-258 598.25,-258 598.25,-252 604.25,-246 610.25,-246 610.25,-246 693.75,-246 693.75,-246 699.75,-246 705.75,-252 705.75,-258 705.75,-258 705.75,-270 705.75,-270 705.75,-276 699.75,-282 693.75,-282"/>
<text xml:space="preserve" text-anchor="middle" x="652" y="-258.95" font-family="Times New Roman,serif" font-size="14.00">Tile[N] 128x128</text>
</g>
<!-- spm&#45;&gt;tileN -->
<g id="edge23" class="edge">
<title>spm&#45;&gt;tileN</title>
<path fill="none" stroke="black" d="M652,-360.52C652,-360.52 652,-293.94 652,-293.94"/>
<polygon fill="black" stroke="black" points="655.5,-293.94 652,-283.94 648.5,-293.94 655.5,-293.94"/>
</g>
<!-- enc -->
<g id="node10" class="node">
<title>enc</title>
<path fill="#eaf3ff" stroke="#2c6ebb" d="M861.5,-397C861.5,-397 824.5,-397 824.5,-397 818.5,-397 812.5,-391 812.5,-385 812.5,-385 812.5,-373 812.5,-373 812.5,-367 818.5,-361 824.5,-361 824.5,-361 861.5,-361 861.5,-361 867.5,-361 873.5,-367 873.5,-373 873.5,-373 873.5,-385 873.5,-385 873.5,-391 867.5,-397 861.5,-397"/>
<text xml:space="preserve" text-anchor="middle" x="843" y="-373.95" font-family="Times New Roman,serif" font-size="14.00">Encoder</text>
</g>
<!-- enc&#45;&gt;spm -->
<g id="edge17" class="edge">
<title>enc&#45;&gt;spm</title>
<path fill="none" stroke="black" d="M812.46,-379C812.46,-379 759.53,-379 759.53,-379"/>
<polygon fill="black" stroke="black" points="759.53,-375.5 749.53,-379 759.53,-382.5 759.53,-375.5"/>
</g>
<!-- dec -->
<g id="node11" class="node">
<title>dec</title>
<path fill="#eaf3ff" stroke="#2c6ebb" d="M1161.88,-397C1161.88,-397 1124.12,-397 1124.12,-397 1118.12,-397 1112.12,-391 1112.12,-385 1112.12,-385 1112.12,-373 1112.12,-373 1112.12,-367 1118.12,-361 1124.12,-361 1124.12,-361 1161.88,-361 1161.88,-361 1167.88,-361 1173.88,-367 1173.88,-373 1173.88,-373 1173.88,-385 1173.88,-385 1173.88,-391 1167.88,-397 1161.88,-397"/>
<text xml:space="preserve" text-anchor="middle" x="1143" y="-373.95" font-family="Times New Roman,serif" font-size="14.00">Decoder</text>
</g>
<!-- scale -->
<g id="node12" class="node">
<title>scale</title>
<path fill="#eaf3ff" stroke="#2c6ebb" d="M1035.5,-397C1035.5,-397 950.5,-397 950.5,-397 944.5,-397 938.5,-391 938.5,-385 938.5,-385 938.5,-373 938.5,-373 938.5,-367 944.5,-361 950.5,-361 950.5,-361 1035.5,-361 1035.5,-361 1041.5,-361 1047.5,-367 1047.5,-373 1047.5,-373 1047.5,-385 1047.5,-385 1047.5,-391 1041.5,-397 1035.5,-397"/>
<text xml:space="preserve" text-anchor="middle" x="993" y="-373.95" font-family="Times New Roman,serif" font-size="14.00">Scale Sync/Calib</text>
</g>
<!-- scale&#45;&gt;tile0 -->
<g id="edge18" class="edge">
<title>scale&#45;&gt;tile0</title>
<path fill="none" stroke="black" d="M938.29,-379C929.45,-379 923.12,-379 923.12,-379 923.12,-379 923.12,-270 923.12,-270 923.12,-270 887.21,-270 887.21,-270"/>
<polygon fill="black" stroke="black" points="887.22,-266.5 877.21,-270 887.21,-273.5 887.22,-266.5"/>
</g>
<!-- scale&#45;&gt;tile1 -->
<g id="edge19" class="edge">
<title>scale&#45;&gt;tile1</title>
<path fill="none" stroke="black" d="M1010.42,-360.52C1010.42,-360.52 1010.42,-293.94 1010.42,-293.94"/>
<polygon fill="black" stroke="black" points="1013.92,-293.94 1010.42,-283.94 1006.92,-293.94 1013.92,-293.94"/>
</g>
<!-- act -->
<g id="node17" class="node">
<title>act</title>
<path fill="#eaf3ff" stroke="#2c6ebb" d="M900.75,-167C900.75,-167 745.25,-167 745.25,-167 739.25,-167 733.25,-161 733.25,-155 733.25,-155 733.25,-143 733.25,-143 733.25,-137 739.25,-131 745.25,-131 745.25,-131 900.75,-131 900.75,-131 906.75,-131 912.75,-137 912.75,-143 912.75,-143 912.75,-155 912.75,-155 912.75,-161 906.75,-167 900.75,-167"/>
<text xml:space="preserve" text-anchor="middle" x="823" y="-143.95" font-family="Times New Roman,serif" font-size="14.00">Activation/ReLU/GELU LUT</text>
</g>
<!-- tile0&#45;&gt;act -->
<g id="edge24" class="edge">
<title>tile0&#45;&gt;act</title>
<path fill="none" stroke="black" d="M823,-245.52C823,-245.52 823,-178.94 823,-178.94"/>
<polygon fill="black" stroke="black" points="826.5,-178.94 823,-168.94 819.5,-178.94 826.5,-178.94"/>
</g>
<!-- tile1&#45;&gt;act -->
<g id="edge25" class="edge">
<title>tile1&#45;&gt;act</title>
<path fill="none" stroke="black" d="M940.36,-258C916.03,-258 892.44,-258 892.44,-258 892.44,-258 892.44,-179 892.44,-179"/>
<polygon fill="black" stroke="black" points="895.94,-179 892.44,-169 888.94,-179 895.94,-179"/>
</g>
<!-- dots&#45;&gt;act -->
<g id="edge26" class="edge">
<title>dots&#45;&gt;act</title>
<path fill="none" stroke="black" d="M506,-245.52C506,-213.02 506,-149 506,-149 506,-149 721.49,-149 721.49,-149"/>
<polygon fill="black" stroke="black" points="721.49,-152.5 731.49,-149 721.49,-145.5 721.49,-152.5"/>
</g>
<!-- tileN&#45;&gt;act -->
<g id="edge27" class="edge">
<title>tileN&#45;&gt;act</title>
<path fill="none" stroke="black" d="M706.03,-258C724.46,-258 740.5,-258 740.5,-258 740.5,-258 740.5,-179 740.5,-179"/>
<polygon fill="black" stroke="black" points="744,-179 740.5,-169 737,-179 744,-179"/>
</g>
<!-- norm -->
<g id="node18" class="node">
<title>norm</title>
<path fill="#eaf3ff" stroke="#2c6ebb" d="M885,-52C885,-52 791,-52 791,-52 785,-52 779,-46 779,-40 779,-40 779,-28 779,-28 779,-22 785,-16 791,-16 791,-16 885,-16 885,-16 891,-16 897,-22 897,-28 897,-28 897,-40 897,-40 897,-46 891,-52 885,-52"/>
<text xml:space="preserve" text-anchor="middle" x="838" y="-28.95" font-family="Times New Roman,serif" font-size="14.00">Layer/GroupNorm</text>
</g>
<!-- act&#45;&gt;norm -->
<g id="edge28" class="edge">
<title>act&#45;&gt;norm</title>
<path fill="none" stroke="black" d="M838,-130.52C838,-130.52 838,-63.94 838,-63.94"/>
<polygon fill="black" stroke="black" points="841.5,-63.94 838,-53.94 834.5,-63.94 841.5,-63.94"/>
</g>
<!-- norm&#45;&gt;dec -->
<g id="edge29" class="edge">
<title>norm&#45;&gt;dec</title>
<path fill="none" stroke="black" d="M897.17,-34C985.86,-34 1143,-34 1143,-34 1143,-34 1143,-349.42 1143,-349.42"/>
<polygon fill="black" stroke="black" points="1139.5,-349.42 1143,-359.42 1146.5,-349.42 1139.5,-349.42"/>
</g>
</g>
</svg>
