<?xml version="1.0" encoding="UTF-8" standalone="no"?>
<!DOCTYPE svg PUBLIC "-//W3C//DTD SVG 1.1//EN"
 "http://www.w3.org/Graphics/SVG/1.1/DTD/svg11.dtd">
<!-- Generated by graphviz version 13.1.2 (20250808.2320)
 -->
<!-- Title: TFusionTensor_TPU_TOP_V02 Pages: 1 -->
<svg width="1075pt" height="944pt"
 viewBox="0.00 0.00 1075.00 944.00" xmlns="http://www.w3.org/2000/svg" xmlns:xlink="http://www.w3.org/1999/xlink">
<g id="graph0" class="graph" transform="scale(1 1) rotate(0) translate(4 940)">
<title>TFusionTensor_TPU_TOP_V02</title>
<polygon fill="white" stroke="none" points="-4,4 -4,-940 1071,-940 1071,4 -4,4"/>
<text xml:space="preserve" text-anchor="middle" x="533.5" y="-914.9" font-family="Helvetica,sans-Serif" font-size="18.00">TFusionTensor_TPU SoC Top v0.2 (DDR/HBM + TFusionVCache(KV/Tensor)</text>
<g id="clust1" class="cluster">
<title>cluster_host</title>
<polygon fill="none" stroke="#ffcccc" points="8,-583 8,-899 190,-899 190,-583 8,-583"/>
<text xml:space="preserve" text-anchor="middle" x="99" y="-877.9" font-family="Helvetica,sans-Serif" font-size="18.00">Host</text>
</g>
<g id="clust2" class="cluster">
<title>cluster_mem</title>
<polygon fill="none" stroke="#ffdab9" points="501,-583 501,-669 973,-669 973,-583 501,-583"/>
<text xml:space="preserve" text-anchor="middle" x="737" y="-647.9" font-family="Helvetica,sans-Serif" font-size="18.00">External Memory</text>
</g>
<g id="clust3" class="cluster">
<title>cluster_cache</title>
<polygon fill="none" stroke="#ff7000" points="373,-468 373,-549 607,-549 607,-468 373,-468"/>
<text xml:space="preserve" text-anchor="middle" x="490" y="-527.9" font-family="Helvetica,sans-Serif" font-size="18.00">TFusionVCache</text>
</g>
<g id="clust4" class="cluster">
<title>cluster_spm</title>
<polygon fill="none" stroke="#dff7e7" points="347,-353 347,-434 633,-434 633,-353 347,-353"/>
<text xml:space="preserve" text-anchor="middle" x="490" y="-412.9" font-family="Helvetica,sans-Serif" font-size="18.00">On&#45;chip Scratchpad</text>
</g>
<g id="clust5" class="cluster">
<title>cluster_codec</title>
<polygon fill="none" stroke="#e6e6e6" points="681,-353 681,-434 1059,-434 1059,-353 681,-353"/>
<text xml:space="preserve" text-anchor="middle" x="870" y="-412.9" font-family="Helvetica,sans-Serif" font-size="18.00">TFusion Codec Cluster</text>
</g>
<g id="clust6" class="cluster">
<title>cluster_tiles</title>
<polygon fill="none" stroke="#aabbcc" points="350,-238 350,-319 932,-319 932,-238 350,-238"/>
<text xml:space="preserve" text-anchor="middle" x="641" y="-297.9" font-family="Helvetica,sans-Serif" font-size="18.00">TFTensor Core Tiles</text>
</g>
<g id="clust7" class="cluster">
<title>cluster_post</title>
<polygon fill="none" stroke="#e0e0ff" points="626,-8 626,-204 822,-204 822,-8 626,-8"/>
<text xml:space="preserve" text-anchor="middle" x="724" y="-182.9" font-family="Helvetica,sans-Serif" font-size="18.00">Post Ops</text>
</g>
<!-- pcie -->
<g id="node1" class="node">
<title>pcie</title>
<path fill="#eaf3ff" stroke="#2c6ebb" d="M165.88,-862C165.88,-862 116.12,-862 116.12,-862 110.12,-862 104.12,-856 104.12,-850 104.12,-850 104.12,-838 104.12,-838 104.12,-832 110.12,-826 116.12,-826 116.12,-826 165.88,-826 165.88,-826 171.88,-826 177.88,-832 177.88,-838 177.88,-838 177.88,-850 177.88,-850 177.88,-856 171.88,-862 165.88,-862"/>
<text xml:space="preserve" text-anchor="middle" x="141" y="-838.95" font-family="Times New Roman,serif" font-size="14.00">PCIe/CXL</text>
</g>
<!-- dma -->
<g id="node2" class="node">
<title>dma</title>
<path fill="#eaf3ff" stroke="#2c6ebb" d="M169.62,-747C169.62,-747 106.38,-747 106.38,-747 100.38,-747 94.38,-741 94.38,-735 94.38,-735 94.38,-723 94.38,-723 94.38,-717 100.38,-711 106.38,-711 106.38,-711 169.62,-711 169.62,-711 175.62,-711 181.62,-717 181.62,-723 181.62,-723 181.62,-735 181.62,-735 181.62,-741 175.62,-747 169.62,-747"/>
<text xml:space="preserve" text-anchor="middle" x="138" y="-723.95" font-family="Times New Roman,serif" font-size="14.00">DMA/Queue</text>
</g>
<!-- pcie&#45;&gt;dma -->
<g id="edge1" class="edge">
<title>pcie&#45;&gt;dma</title>
<path fill="none" stroke="black" d="M141,-825.52C141,-825.52 141,-758.94 141,-758.94"/>
<polygon fill="black" stroke="black" points="144.5,-758.94 141,-748.94 137.5,-758.94 144.5,-758.94"/>
</g>
<!-- tfvcache -->
<g id="node7" class="node">
<title>tfvcache</title>
<path fill="#eaf3ff" stroke="#2c6ebb" d="M587.25,-512C587.25,-512 392.75,-512 392.75,-512 386.75,-512 380.75,-506 380.75,-500 380.75,-500 380.75,-488 380.75,-488 380.75,-482 386.75,-476 392.75,-476 392.75,-476 587.25,-476 587.25,-476 593.25,-476 599.25,-482 599.25,-488 599.25,-488 599.25,-500 599.25,-500 599.25,-506 593.25,-512 587.25,-512"/>
<text xml:space="preserve" text-anchor="middle" x="490" y="-488.95" font-family="Times New Roman,serif" font-size="14.00">KV/Tensor (prefetch/Stream) 64MB </text>
</g>
<!-- pcie&#45;&gt;tfvcache -->
<g id="edge3" class="edge">
<title>pcie&#45;&gt;tfvcache</title>
<path fill="none" stroke="black" d="M178.28,-844C265.84,-844 477.31,-844 477.31,-844 477.31,-844 477.31,-523.84 477.31,-523.84"/>
<polygon fill="black" stroke="black" points="480.81,-523.84 477.31,-513.84 473.81,-523.84 480.81,-523.84"/>
</g>
<!-- rv -->
<g id="node3" class="node">
<title>rv</title>
<path fill="#eaf3ff" stroke="#2c6ebb" d="M170.38,-632C170.38,-632 27.62,-632 27.62,-632 21.62,-632 15.62,-626 15.62,-620 15.62,-620 15.62,-603 15.62,-603 15.62,-597 21.62,-591 27.62,-591 27.62,-591 170.38,-591 170.38,-591 176.38,-591 182.38,-597 182.38,-603 182.38,-603 182.38,-620 182.38,-620 182.38,-626 176.38,-632 170.38,-632"/>
<text xml:space="preserve" text-anchor="middle" x="99" y="-614.7" font-family="Times New Roman,serif" font-size="14.00">RISC&#45;V Cores</text>
<text xml:space="preserve" text-anchor="middle" x="99" y="-598.2" font-family="Times New Roman,serif" font-size="14.00">(RV64GCV + AME hooks)</text>
</g>
<!-- dma&#45;&gt;rv -->
<g id="edge2" class="edge">
<title>dma&#45;&gt;rv</title>
<path fill="none" stroke="black" d="M138,-710.64C138,-710.64 138,-643.61 138,-643.61"/>
<polygon fill="black" stroke="black" points="141.5,-643.61 138,-633.61 134.5,-643.61 141.5,-643.61"/>
</g>
<!-- dma&#45;&gt;tfvcache -->
<g id="edge4" class="edge">
<title>dma&#45;&gt;tfvcache</title>
<path fill="none" stroke="black" d="M182,-729C266.93,-729 445.12,-729 445.12,-729 445.12,-729 445.12,-523.95 445.12,-523.95"/>
<polygon fill="black" stroke="black" points="448.63,-523.95 445.13,-513.95 441.63,-523.95 448.63,-523.95"/>
</g>
<!-- rv&#45;&gt;tfvcache -->
<g id="edge5" class="edge">
<title>rv&#45;&gt;tfvcache</title>
<path fill="none" stroke="black" d="M182.72,-612C275.72,-612 412.94,-612 412.94,-612 412.94,-612 412.94,-523.95 412.94,-523.95"/>
<polygon fill="black" stroke="black" points="416.44,-523.95 412.94,-513.95 409.44,-523.95 416.44,-523.95"/>
</g>
<!-- ddr -->
<g id="node4" class="node">
<title>ddr</title>
<path fill="#eaf3ff" stroke="#2c6ebb" d="M618.5,-632C618.5,-632 521.5,-632 521.5,-632 515.5,-632 509.5,-626 509.5,-620 509.5,-620 509.5,-603 509.5,-603 509.5,-597 515.5,-591 521.5,-591 521.5,-591 618.5,-591 618.5,-591 624.5,-591 630.5,-597 630.5,-603 630.5,-603 630.5,-620 630.5,-620 630.5,-626 624.5,-632 618.5,-632"/>
<text xml:space="preserve" text-anchor="middle" x="570" y="-614.7" font-family="Times New Roman,serif" font-size="14.00">DDR5 RDIMM x8</text>
<text xml:space="preserve" text-anchor="middle" x="570" y="-598.2" font-family="Times New Roman,serif" font-size="14.00">(512b, up to 2TB)</text>
</g>
<!-- ddr&#45;&gt;tfvcache -->
<g id="edge7" class="edge">
<title>ddr&#45;&gt;tfvcache</title>
<path fill="none" stroke="black" d="M554.38,-590.76C554.38,-590.76 554.38,-523.73 554.38,-523.73"/>
<polygon fill="black" stroke="black" points="557.88,-523.73 554.38,-513.73 550.88,-523.73 557.88,-523.73"/>
</g>
<!-- lpddr -->
<g id="node5" class="node">
<title>lpddr</title>
<path fill="#eaf3ff" stroke="#2c6ebb" d="M790.38,-629.5C790.38,-629.5 707.62,-629.5 707.62,-629.5 701.62,-629.5 695.62,-623.5 695.62,-617.5 695.62,-617.5 695.62,-605.5 695.62,-605.5 695.62,-599.5 701.62,-593.5 707.62,-593.5 707.62,-593.5 790.38,-593.5 790.38,-593.5 796.38,-593.5 802.38,-599.5 802.38,-605.5 802.38,-605.5 802.38,-617.5 802.38,-617.5 802.38,-623.5 796.38,-629.5 790.38,-629.5"/>
<text xml:space="preserve" text-anchor="middle" x="749" y="-606.45" font-family="Times New Roman,serif" font-size="14.00">LPDDR5X (Alt)</text>
</g>
<!-- lpddr&#45;&gt;tfvcache -->
<g id="edge8" class="edge">
<title>lpddr&#45;&gt;tfvcache</title>
<path fill="none" stroke="black" d="M723.06,-593.09C723.06,-561.42 723.06,-500 723.06,-500 723.06,-500 611.22,-500 611.22,-500"/>
<polygon fill="black" stroke="black" points="611.22,-496.5 601.22,-500 611.22,-503.5 611.22,-496.5"/>
</g>
<!-- hbm -->
<g id="node6" class="node">
<title>hbm</title>
<path fill="#eaf3ff" stroke="#2c6ebb" d="M952.88,-632C952.88,-632 879.12,-632 879.12,-632 873.12,-632 867.12,-626 867.12,-620 867.12,-620 867.12,-603 867.12,-603 867.12,-597 873.12,-591 879.12,-591 879.12,-591 952.88,-591 952.88,-591 958.88,-591 964.88,-597 964.88,-603 964.88,-603 964.88,-620 964.88,-620 964.88,-626 958.88,-632 952.88,-632"/>
<text xml:space="preserve" text-anchor="middle" x="916" y="-614.7" font-family="Times New Roman,serif" font-size="14.00">HBM (Option)</text>
<text xml:space="preserve" text-anchor="middle" x="916" y="-598.2" font-family="Times New Roman,serif" font-size="14.00">&gt;=3.5–7 TB/s</text>
</g>
<!-- hbm&#45;&gt;tfvcache -->
<g id="edge9" class="edge">
<title>hbm&#45;&gt;tfvcache</title>
<path fill="none" stroke="black" d="M895.81,-590.55C895.81,-555.31 895.81,-488 895.81,-488 895.81,-488 611.06,-488 611.06,-488"/>
<polygon fill="black" stroke="black" points="611.06,-484.5 601.06,-488 611.06,-491.5 611.06,-484.5"/>
</g>
<!-- spm -->
<g id="node8" class="node">
<title>spm</title>
<path fill="#eaf3ff" stroke="#2c6ebb" d="M612.75,-397C612.75,-397 367.25,-397 367.25,-397 361.25,-397 355.25,-391 355.25,-385 355.25,-385 355.25,-373 355.25,-373 355.25,-367 361.25,-361 367.25,-361 367.25,-361 612.75,-361 612.75,-361 618.75,-361 624.75,-367 624.75,-373 624.75,-373 624.75,-385 624.75,-385 624.75,-391 618.75,-397 612.75,-397"/>
<text xml:space="preserve" text-anchor="middle" x="490" y="-373.95" font-family="Times New Roman,serif" font-size="14.00">SPM Banks (multi&#45;bank, ping&#45;pong, crossbar)</text>
</g>
<!-- tfvcache&#45;&gt;spm -->
<g id="edge6" class="edge">
<title>tfvcache&#45;&gt;spm</title>
<path fill="none" stroke="black" d="M490,-475.52C490,-475.52 490,-408.94 490,-408.94"/>
<polygon fill="black" stroke="black" points="493.5,-408.94 490,-398.94 486.5,-408.94 493.5,-408.94"/>
</g>
<!-- tile0 -->
<g id="node12" class="node">
<title>tile0</title>
<path fill="#eaf3ff" stroke="#2c6ebb" d="M450.25,-282C450.25,-282 369.75,-282 369.75,-282 363.75,-282 357.75,-276 357.75,-270 357.75,-270 357.75,-258 357.75,-258 357.75,-252 363.75,-246 369.75,-246 369.75,-246 450.25,-246 450.25,-246 456.25,-246 462.25,-252 462.25,-258 462.25,-258 462.25,-270 462.25,-270 462.25,-276 456.25,-282 450.25,-282"/>
<text xml:space="preserve" text-anchor="middle" x="410" y="-258.95" font-family="Times New Roman,serif" font-size="14.00">Tile[0] 128x128</text>
</g>
<!-- spm&#45;&gt;tile0 -->
<g id="edge15" class="edge">
<title>spm&#45;&gt;tile0</title>
<path fill="none" stroke="black" d="M392.58,-360.52C392.58,-360.52 392.58,-293.94 392.58,-293.94"/>
<polygon fill="black" stroke="black" points="396.08,-293.94 392.58,-283.94 389.08,-293.94 396.08,-293.94"/>
</g>
<!-- tile1 -->
<g id="node13" class="node">
<title>tile1</title>
<path fill="#eaf3ff" stroke="#2c6ebb" d="M620.25,-282C620.25,-282 539.75,-282 539.75,-282 533.75,-282 527.75,-276 527.75,-270 527.75,-270 527.75,-258 527.75,-258 527.75,-252 533.75,-246 539.75,-246 539.75,-246 620.25,-246 620.25,-246 626.25,-246 632.25,-252 632.25,-258 632.25,-258 632.25,-270 632.25,-270 632.25,-276 626.25,-282 620.25,-282"/>
<text xml:space="preserve" text-anchor="middle" x="580" y="-258.95" font-family="Times New Roman,serif" font-size="14.00">Tile[1] 128x128</text>
</g>
<!-- spm&#45;&gt;tile1 -->
<g id="edge16" class="edge">
<title>spm&#45;&gt;tile1</title>
<path fill="none" stroke="black" d="M552,-360.52C552,-360.52 552,-293.94 552,-293.94"/>
<polygon fill="black" stroke="black" points="555.5,-293.94 552,-283.94 548.5,-293.94 555.5,-293.94"/>
</g>
<!-- dots -->
<g id="node14" class="node">
<title>dots</title>
<path fill="#eaf3ff" stroke="#2c6ebb" d="M739,-282C739,-282 709,-282 709,-282 703,-282 697,-276 697,-270 697,-270 697,-258 697,-258 697,-252 703,-246 709,-246 709,-246 739,-246 739,-246 745,-246 751,-252 751,-258 751,-258 751,-270 751,-270 751,-276 745,-282 739,-282"/>
<text xml:space="preserve" text-anchor="middle" x="724" y="-258.95" font-family="Times New Roman,serif" font-size="14.00">...</text>
</g>
<!-- spm&#45;&gt;dots -->
<g id="edge17" class="edge">
<title>spm&#45;&gt;dots</title>
<path fill="none" stroke="black" d="M624.92,-373C651.35,-373 671.08,-373 671.08,-373 671.08,-373 671.08,-270 671.08,-270 671.08,-270 685.1,-270 685.1,-270"/>
<polygon fill="black" stroke="black" points="685.1,-273.5 695.1,-270 685.1,-266.5 685.1,-273.5"/>
</g>
<!-- tileN -->
<g id="node15" class="node">
<title>tileN</title>
<path fill="#eaf3ff" stroke="#2c6ebb" d="M911.75,-282C911.75,-282 828.25,-282 828.25,-282 822.25,-282 816.25,-276 816.25,-270 816.25,-270 816.25,-258 816.25,-258 816.25,-252 822.25,-246 828.25,-246 828.25,-246 911.75,-246 911.75,-246 917.75,-246 923.75,-252 923.75,-258 923.75,-258 923.75,-270 923.75,-270 923.75,-276 917.75,-282 911.75,-282"/>
<text xml:space="preserve" text-anchor="middle" x="870" y="-258.95" font-family="Times New Roman,serif" font-size="14.00">Tile[N] 128x128</text>
</g>
<!-- spm&#45;&gt;tileN -->
<g id="edge18" class="edge">
<title>spm&#45;&gt;tileN</title>
<path fill="none" stroke="black" d="M576.25,-360.65C576.25,-343.99 576.25,-322 576.25,-322 576.25,-322 859.25,-322 859.25,-322 859.25,-322 859.25,-293.87 859.25,-293.87"/>
<polygon fill="black" stroke="black" points="862.75,-293.87 859.25,-283.87 855.75,-293.87 862.75,-293.87"/>
</g>
<!-- enc -->
<g id="node9" class="node">
<title>enc</title>
<path fill="#eaf3ff" stroke="#2c6ebb" d="M738.5,-397C738.5,-397 701.5,-397 701.5,-397 695.5,-397 689.5,-391 689.5,-385 689.5,-385 689.5,-373 689.5,-373 689.5,-367 695.5,-361 701.5,-361 701.5,-361 738.5,-361 738.5,-361 744.5,-361 750.5,-367 750.5,-373 750.5,-373 750.5,-385 750.5,-385 750.5,-391 744.5,-397 738.5,-397"/>
<text xml:space="preserve" text-anchor="middle" x="720" y="-373.95" font-family="Times New Roman,serif" font-size="14.00">Encoder</text>
</g>
<!-- enc&#45;&gt;spm -->
<g id="edge10" class="edge">
<title>enc&#45;&gt;spm</title>
<path fill="none" stroke="black" d="M689.46,-385C689.46,-385 636.53,-385 636.53,-385"/>
<polygon fill="black" stroke="black" points="636.53,-381.5 626.53,-385 636.53,-388.5 636.53,-381.5"/>
</g>
<!-- dec -->
<g id="node10" class="node">
<title>dec</title>
<path fill="#eaf3ff" stroke="#2c6ebb" d="M1038.88,-397C1038.88,-397 1001.12,-397 1001.12,-397 995.12,-397 989.12,-391 989.12,-385 989.12,-385 989.12,-373 989.12,-373 989.12,-367 995.12,-361 1001.12,-361 1001.12,-361 1038.88,-361 1038.88,-361 1044.88,-361 1050.88,-367 1050.88,-373 1050.88,-373 1050.88,-385 1050.88,-385 1050.88,-391 1044.88,-397 1038.88,-397"/>
<text xml:space="preserve" text-anchor="middle" x="1020" y="-373.95" font-family="Times New Roman,serif" font-size="14.00">Decoder</text>
</g>
<!-- scale -->
<g id="node11" class="node">
<title>scale</title>
<path fill="#eaf3ff" stroke="#2c6ebb" d="M912.5,-397C912.5,-397 827.5,-397 827.5,-397 821.5,-397 815.5,-391 815.5,-385 815.5,-385 815.5,-373 815.5,-373 815.5,-367 821.5,-361 827.5,-361 827.5,-361 912.5,-361 912.5,-361 918.5,-361 924.5,-367 924.5,-373 924.5,-373 924.5,-385 924.5,-385 924.5,-391 918.5,-397 912.5,-397"/>
<text xml:space="preserve" text-anchor="middle" x="870" y="-373.95" font-family="Times New Roman,serif" font-size="14.00">Scale Sync/Calib</text>
</g>
<!-- scale&#45;&gt;tile0 -->
<g id="edge11" class="edge">
<title>scale&#45;&gt;tile0</title>
<path fill="none" stroke="black" d="M837.75,-360.89C837.75,-351.1 837.75,-341 837.75,-341 837.75,-341 427.42,-341 427.42,-341 427.42,-341 427.42,-293.76 427.42,-293.76"/>
<polygon fill="black" stroke="black" points="430.92,-293.76 427.42,-283.76 423.92,-293.76 430.92,-293.76"/>
</g>
<!-- scale&#45;&gt;tile1 -->
<g id="edge12" class="edge">
<title>scale&#45;&gt;tile1</title>
<path fill="none" stroke="black" d="M880.75,-360.75C880.75,-337.98 880.75,-302 880.75,-302 880.75,-302 600.5,-302 600.5,-302 600.5,-302 600.5,-293.62 600.5,-293.62"/>
<polygon fill="black" stroke="black" points="604,-293.62 600.5,-283.62 597,-293.62 604,-293.62"/>
</g>
<!-- scale&#45;&gt;dots -->
<g id="edge13" class="edge">
<title>scale&#45;&gt;dots</title>
<path fill="none" stroke="black" d="M815.04,-379C809.67,-379 806.17,-379 806.17,-379 806.17,-379 806.17,-270 806.17,-270 806.17,-270 762.87,-270 762.87,-270"/>
<polygon fill="black" stroke="black" points="762.87,-266.5 752.87,-270 762.87,-273.5 762.87,-266.5"/>
</g>
<!-- scale&#45;&gt;tileN -->
<g id="edge14" class="edge">
<title>scale&#45;&gt;tileN</title>
<path fill="none" stroke="black" d="M902.25,-360.52C902.25,-360.52 902.25,-293.94 902.25,-293.94"/>
<polygon fill="black" stroke="black" points="905.75,-293.94 902.25,-283.94 898.75,-293.94 905.75,-293.94"/>
</g>
<!-- act -->
<g id="node16" class="node">
<title>act</title>
<path fill="#eaf3ff" stroke="#2c6ebb" d="M801.75,-167C801.75,-167 646.25,-167 646.25,-167 640.25,-167 634.25,-161 634.25,-155 634.25,-155 634.25,-143 634.25,-143 634.25,-137 640.25,-131 646.25,-131 646.25,-131 801.75,-131 801.75,-131 807.75,-131 813.75,-137 813.75,-143 813.75,-143 813.75,-155 813.75,-155 813.75,-161 807.75,-167 801.75,-167"/>
<text xml:space="preserve" text-anchor="middle" x="724" y="-143.95" font-family="Times New Roman,serif" font-size="14.00">Activation/ReLU/GELU LUT</text>
</g>
<!-- tile0&#45;&gt;act -->
<g id="edge19" class="edge">
<title>tile0&#45;&gt;act</title>
<path fill="none" stroke="black" d="M410,-245.52C410,-213.02 410,-149 410,-149 410,-149 622.51,-149 622.51,-149"/>
<polygon fill="black" stroke="black" points="622.51,-152.5 632.51,-149 622.51,-145.5 622.51,-152.5"/>
</g>
<!-- tile1&#45;&gt;act -->
<g id="edge20" class="edge">
<title>tile1&#45;&gt;act</title>
<path fill="none" stroke="black" d="M632.42,-258C643.88,-258 652.67,-258 652.67,-258 652.67,-258 652.67,-179 652.67,-179"/>
<polygon fill="black" stroke="black" points="656.17,-179 652.67,-169 649.17,-179 656.17,-179"/>
</g>
<!-- dots&#45;&gt;act -->
<g id="edge21" class="edge">
<title>dots&#45;&gt;act</title>
<path fill="none" stroke="black" d="M724,-245.52C724,-245.52 724,-178.94 724,-178.94"/>
<polygon fill="black" stroke="black" points="727.5,-178.94 724,-168.94 720.5,-178.94 727.5,-178.94"/>
</g>
<!-- tileN&#45;&gt;act -->
<g id="edge22" class="edge">
<title>tileN&#45;&gt;act</title>
<path fill="none" stroke="black" d="M815.93,-258C812.25,-258 809.96,-258 809.96,-258 809.96,-258 809.96,-179 809.96,-179"/>
<polygon fill="black" stroke="black" points="813.46,-179 809.96,-169 806.46,-179 813.46,-179"/>
</g>
<!-- norm -->
<g id="node17" class="node">
<title>norm</title>
<path fill="#eaf3ff" stroke="#2c6ebb" d="M786,-52C786,-52 692,-52 692,-52 686,-52 680,-46 680,-40 680,-40 680,-28 680,-28 680,-22 686,-16 692,-16 692,-16 786,-16 786,-16 792,-16 798,-22 798,-28 798,-28 798,-40 798,-40 798,-46 792,-52 786,-52"/>
<text xml:space="preserve" text-anchor="middle" x="739" y="-28.95" font-family="Times New Roman,serif" font-size="14.00">Layer/GroupNorm</text>
</g>
<!-- act&#45;&gt;norm -->
<g id="edge23" class="edge">
<title>act&#45;&gt;norm</title>
<path fill="none" stroke="black" d="M739,-130.52C739,-130.52 739,-63.94 739,-63.94"/>
<polygon fill="black" stroke="black" points="742.5,-63.94 739,-53.94 735.5,-63.94 742.5,-63.94"/>
</g>
<!-- norm&#45;&gt;dec -->
<g id="edge24" class="edge">
<title>norm&#45;&gt;dec</title>
<path fill="none" stroke="black" d="M798.25,-34C880.69,-34 1020,-34 1020,-34 1020,-34 1020,-349.42 1020,-349.42"/>
<polygon fill="black" stroke="black" points="1016.5,-349.42 1020,-359.42 1023.5,-349.42 1016.5,-349.42"/>
</g>
</g>
</svg>
