<?xml version="1.0" encoding="UTF-8" standalone="no"?>
<!DOCTYPE svg PUBLIC "-//W3C//DTD SVG 1.1//EN"
 "http://www.w3.org/Graphics/SVG/1.1/DTD/svg11.dtd">
<!-- Generated by graphviz version 13.1.2 (20250808.2320)
 -->
<!-- Title: UE8M0_TPU_TILE_V01 Pages: 1 -->
<svg width="428pt" height="537pt"
 viewBox="0.00 0.00 428.00 537.00" xmlns="http://www.w3.org/2000/svg" xmlns:xlink="http://www.w3.org/1999/xlink">
<g id="graph0" class="graph" transform="scale(1 1) rotate(0) translate(4 533)">
<title>UE8M0_TPU_TILE_V01</title>
<polygon fill="white" stroke="none" points="-4,4 -4,-533 424,-533 424,4 -4,4"/>
<text xml:space="preserve" text-anchor="middle" x="210" y="-507.9" font-family="Helvetica,sans-Serif" font-size="18.00">Tensor Core Tile v0.1</text>
<g id="clust1" class="cluster">
<title>cluster_array</title>
<path fill="#cce5ff" stroke="#cce5ff" d="M20,-101C20,-101 400,-101 400,-101 406,-101 412,-107 412,-113 412,-113 412,-282.5 412,-282.5 412,-288.5 406,-294.5 400,-294.5 400,-294.5 20,-294.5 20,-294.5 14,-294.5 8,-288.5 8,-282.5 8,-282.5 8,-113 8,-113 8,-107 14,-101 20,-101"/>
<text xml:space="preserve" text-anchor="middle" x="210" y="-273.4" font-family="Helvetica,sans-Serif" font-size="18.00">Systolic Array</text>
</g>
<!-- spm_in -->
<g id="node1" class="node">
<title>spm_in</title>
<path fill="#e6f2ff" stroke="#2c6ebb" stroke-width="1.2" d="M169.62,-500C169.62,-500 76.38,-500 76.38,-500 70.38,-500 64.38,-494 64.38,-488 64.38,-488 64.38,-476 64.38,-476 64.38,-470 70.38,-464 76.38,-464 76.38,-464 169.62,-464 169.62,-464 175.62,-464 181.62,-470 181.62,-476 181.62,-476 181.62,-488 181.62,-488 181.62,-494 175.62,-500 169.62,-500"/>
<text xml:space="preserve" text-anchor="middle" x="123" y="-476.57" font-family="Helvetica,sans-Serif" font-size="14.00">Local SPM Ports</text>
</g>
<!-- sched -->
<g id="node2" class="node">
<title>sched</title>
<path fill="#e6e6e6" stroke="#2c6ebb" stroke-width="1.2" d="M162.12,-391C162.12,-391 83.88,-391 83.88,-391 77.88,-391 71.88,-385 71.88,-379 71.88,-379 71.88,-367 71.88,-367 71.88,-361 77.88,-355 83.88,-355 83.88,-355 162.12,-355 162.12,-355 168.12,-355 174.12,-361 174.12,-367 174.12,-367 174.12,-379 174.12,-379 174.12,-385 168.12,-391 162.12,-391"/>
<text xml:space="preserve" text-anchor="middle" x="123" y="-367.57" font-family="Helvetica,sans-Serif" font-size="14.00">Tile Scheduler</text>
</g>
<!-- spm_in&#45;&gt;sched -->
<g id="edge1" class="edge">
<title>spm_in&#45;&gt;sched</title>
<path fill="none" stroke="#333333" stroke-width="1.1" d="M123,-463.51C123,-463.51 123,-401.25 123,-401.25"/>
<polygon fill="#333333" stroke="#333333" stroke-width="1.1" points="125.8,-401.25 123,-393.25 120.2,-401.25 125.8,-401.25"/>
</g>
<!-- row -->
<g id="node3" class="node">
<title>row</title>
<path fill="#ffffff" stroke="#2c6ebb" stroke-width="1.2" d="M174.25,-257.5C174.25,-257.5 27.75,-257.5 27.75,-257.5 21.75,-257.5 15.75,-251.5 15.75,-245.5 15.75,-245.5 15.75,-233.5 15.75,-233.5 15.75,-227.5 21.75,-221.5 27.75,-221.5 27.75,-221.5 174.25,-221.5 174.25,-221.5 180.25,-221.5 186.25,-227.5 186.25,-233.5 186.25,-233.5 186.25,-245.5 186.25,-245.5 186.25,-251.5 180.25,-257.5 174.25,-257.5"/>
<text xml:space="preserve" text-anchor="middle" x="101" y="-234.07" font-family="Helvetica,sans-Serif" font-size="14.00">Row Broadcast (q_a,E_a)</text>
</g>
<!-- sched&#45;&gt;row -->
<g id="edge2" class="edge">
<title>sched&#45;&gt;row</title>
<path fill="none" stroke="#333333" stroke-width="1.1" d="M123,-354.44C123,-354.44 123,-267.57 123,-267.57"/>
<polygon fill="#333333" stroke="#333333" stroke-width="1.1" points="125.8,-267.57 123,-259.57 120.2,-267.57 125.8,-267.57"/>
</g>
<!-- col -->
<g id="node4" class="node">
<title>col</title>
<path fill="#ffffff" stroke="#2c6ebb" stroke-width="1.2" d="M391.75,-257.5C391.75,-257.5 248.25,-257.5 248.25,-257.5 242.25,-257.5 236.25,-251.5 236.25,-245.5 236.25,-245.5 236.25,-233.5 236.25,-233.5 236.25,-227.5 242.25,-221.5 248.25,-221.5 248.25,-221.5 391.75,-221.5 391.75,-221.5 397.75,-221.5 403.75,-227.5 403.75,-233.5 403.75,-233.5 403.75,-245.5 403.75,-245.5 403.75,-251.5 397.75,-257.5 391.75,-257.5"/>
<text xml:space="preserve" text-anchor="middle" x="320" y="-234.07" font-family="Helvetica,sans-Serif" font-size="14.00">Col Broadcast (q_w,E_w)</text>
</g>
<!-- sched&#45;&gt;col -->
<g id="edge3" class="edge">
<title>sched&#45;&gt;col</title>
<path fill="none" stroke="#333333" stroke-width="1.1" d="M174.6,-367C206.52,-367 241.44,-367 241.44,-367 241.44,-367 241.44,-267.7 241.44,-267.7"/>
<polygon fill="#333333" stroke="#333333" stroke-width="1.1" points="244.24,-267.7 241.44,-259.7 238.64,-267.7 244.24,-267.7"/>
</g>
<!-- pe -->
<g id="node5" class="node">
<title>pe</title>
<path fill="#ffffff" stroke="#2c6ebb" stroke-width="1.2" d="M339.88,-148.5C339.88,-148.5 80.12,-148.5 80.12,-148.5 74.12,-148.5 68.12,-142.5 68.12,-136.5 68.12,-136.5 68.12,-121 68.12,-121 68.12,-115 74.12,-109 80.12,-109 80.12,-109 339.88,-109 339.88,-109 345.88,-109 351.88,-115 351.88,-121 351.88,-121 351.88,-136.5 351.88,-136.5 351.88,-142.5 345.88,-148.5 339.88,-148.5"/>
<text xml:space="preserve" text-anchor="middle" x="210" y="-131.2" font-family="Helvetica,sans-Serif" font-size="14.00">PE: &#160;E_adder + MantissaUnit(8x8 MUL/LUT)</text>
<text xml:space="preserve" text-anchor="middle" x="210" y="-115.45" font-family="Helvetica,sans-Serif" font-size="14.00"> &#160;&#160;&#160;&#160;&#160;+ Shifter(&lt;&lt;E_sum) + ACC(24b)</text>
</g>
<!-- row&#45;&gt;pe -->
<g id="edge6" class="edge">
<title>row&#45;&gt;pe</title>
<path fill="none" stroke="#333333" stroke-width="1.1" d="M127.19,-221.21C127.19,-221.21 127.19,-158.61 127.19,-158.61"/>
<polygon fill="#333333" stroke="#333333" stroke-width="1.1" points="129.99,-158.61 127.19,-150.61 124.39,-158.61 129.99,-158.61"/>
</g>
<!-- col&#45;&gt;pe -->
<g id="edge7" class="edge">
<title>col&#45;&gt;pe</title>
<path fill="none" stroke="#333333" stroke-width="1.1" d="M294.06,-221.21C294.06,-221.21 294.06,-158.61 294.06,-158.61"/>
<polygon fill="#333333" stroke="#333333" stroke-width="1.1" points="296.86,-158.61 294.06,-150.61 291.26,-158.61 296.86,-158.61"/>
</g>
<!-- post -->
<g id="node7" class="node">
<title>post</title>
<path fill="#eaf7ea" stroke="#2c6ebb" stroke-width="1.2" d="M269.75,-36C269.75,-36 150.25,-36 150.25,-36 144.25,-36 138.25,-30 138.25,-24 138.25,-24 138.25,-12 138.25,-12 138.25,-6 144.25,0 150.25,0 150.25,0 269.75,0 269.75,0 275.75,0 281.75,-6 281.75,-12 281.75,-12 281.75,-24 281.75,-24 281.75,-30 275.75,-36 269.75,-36"/>
<text xml:space="preserve" text-anchor="middle" x="210" y="-12.57" font-family="Helvetica,sans-Serif" font-size="14.00">Activation/Norm local</text>
</g>
<!-- pe&#45;&gt;post -->
<g id="edge8" class="edge">
<title>pe&#45;&gt;post</title>
<path fill="none" stroke="#333333" stroke-width="1.1" d="M210,-108.44C210,-108.44 210,-46.01 210,-46.01"/>
<polygon fill="#333333" stroke="#333333" stroke-width="1.1" points="212.8,-46.01 210,-38.01 207.2,-46.01 212.8,-46.01"/>
</g>
<!-- scale -->
<g id="node6" class="node">
<title>scale</title>
<path fill="#fff7e6" stroke="#2c6ebb" stroke-width="1.2" d="M347.38,-391C347.38,-391 258.62,-391 258.62,-391 252.62,-391 246.62,-385 246.62,-379 246.62,-379 246.62,-367 246.62,-367 246.62,-361 252.62,-355 258.62,-355 258.62,-355 347.38,-355 347.38,-355 353.38,-355 359.38,-361 359.38,-367 359.38,-367 359.38,-379 359.38,-379 359.38,-385 353.38,-391 347.38,-391"/>
<text xml:space="preserve" text-anchor="middle" x="303" y="-367.57" font-family="Helvetica,sans-Serif" font-size="14.00">E Header Buffer</text>
</g>
<!-- scale&#45;&gt;row -->
<g id="edge4" class="edge">
<title>scale&#45;&gt;row</title>
<path fill="none" stroke="#333333" stroke-width="1.1" stroke-dasharray="5,2" d="M246.3,-379C213.19,-379 177.88,-379 177.88,-379 177.88,-379 177.88,-267.69 177.88,-267.69"/>
<polygon fill="#333333" stroke="#333333" stroke-width="1.1" points="180.68,-267.69 177.88,-259.69 175.08,-267.69 180.68,-267.69"/>
<text xml:space="preserve" text-anchor="middle" x="251.38" y="-305.7" font-family="Times New Roman,serif" font-size="14.00">E sync</text>
</g>
<!-- scale&#45;&gt;col -->
<g id="edge5" class="edge">
<title>scale&#45;&gt;col</title>
<path fill="none" stroke="#333333" stroke-width="1.1" stroke-dasharray="5,2" d="M303,-354.44C303,-354.44 303,-267.57 303,-267.57"/>
<polygon fill="#333333" stroke="#333333" stroke-width="1.1" points="305.8,-267.57 303,-259.57 300.2,-267.57 305.8,-267.57"/>
<text xml:space="preserve" text-anchor="middle" x="343.38" y="-305.7" font-family="Times New Roman,serif" font-size="14.00">E sync</text>
</g>
</g>
</svg>
