<?xml version="1.0" encoding="UTF-8" standalone="no"?>
<!DOCTYPE svg PUBLIC "-//W3C//DTD SVG 1.1//EN"
 "http://www.w3.org/Graphics/SVG/1.1/DTD/svg11.dtd">
<!-- Generated by graphviz version 13.1.2 (20250808.2320)
 -->
<!-- Title: UE8M0_TPU_TOP_V01 Pages: 1 -->
<svg width="1578pt" height="751pt"
 viewBox="0.00 0.00 1578.00 751.00" xmlns="http://www.w3.org/2000/svg" xmlns:xlink="http://www.w3.org/1999/xlink">
<g id="graph0" class="graph" transform="scale(1 1) rotate(0) translate(4 747)">
<title>UE8M0_TPU_TOP_V01</title>
<polygon fill="white" stroke="none" points="-4,4 -4,-747 1574,-747 1574,4 -4,4"/>
<text xml:space="preserve" text-anchor="middle" x="785" y="-721.9" font-family="Helvetica,sans-Serif" font-size="18.00">UE8M0&#45;TPU SoC Top v0.1</text>
<g id="clust1" class="cluster">
<title>cluster_host</title>
<path fill="#ffcccc" stroke="#ffcccc" d="M630,-473C630,-473 883,-473 883,-473 889,-473 895,-479 895,-485 895,-485 895,-694 895,-694 895,-700 889,-706 883,-706 883,-706 630,-706 630,-706 624,-706 618,-700 618,-694 618,-694 618,-485 618,-485 618,-479 624,-473 630,-473"/>
<text xml:space="preserve" text-anchor="middle" x="756.5" y="-684.9" font-family="Helvetica,sans-Serif" font-size="18.00">Host/Runtime</text>
</g>
<g id="clust2" class="cluster">
<title>cluster_mem</title>
<path fill="#ffdab9" stroke="#ffdab9" d="M997,-473C997,-473 1124,-473 1124,-473 1130,-473 1136,-479 1136,-485 1136,-485 1136,-694 1136,-694 1136,-700 1130,-706 1124,-706 1124,-706 997,-706 997,-706 991,-706 985,-700 985,-694 985,-694 985,-485 985,-485 985,-479 991,-473 997,-473"/>
<text xml:space="preserve" text-anchor="middle" x="1060.5" y="-684.9" font-family="Helvetica,sans-Serif" font-size="18.00">External Memory</text>
</g>
<g id="clust3" class="cluster">
<title>cluster_spm</title>
<path fill="#dff7e7" stroke="#dff7e7" d="M936,-303.5C936,-303.5 1184,-303.5 1184,-303.5 1190,-303.5 1196,-309.5 1196,-315.5 1196,-315.5 1196,-401.5 1196,-401.5 1196,-407.5 1190,-413.5 1184,-413.5 1184,-413.5 936,-413.5 936,-413.5 930,-413.5 924,-407.5 924,-401.5 924,-401.5 924,-315.5 924,-315.5 924,-309.5 930,-303.5 936,-303.5"/>
<text xml:space="preserve" text-anchor="middle" x="1060" y="-392.4" font-family="Helvetica,sans-Serif" font-size="18.00">On&#45;chip Scratchpad (Multi&#45;bank)</text>
</g>
<g id="clust4" class="cluster">
<title>cluster_codec</title>
<path fill="#e6e6e6" stroke="#e6e6e6" d="M20,-303.5C20,-303.5 871,-303.5 871,-303.5 877,-303.5 883,-309.5 883,-315.5 883,-315.5 883,-401.5 883,-401.5 883,-407.5 877,-413.5 871,-413.5 871,-413.5 20,-413.5 20,-413.5 14,-413.5 8,-407.5 8,-401.5 8,-401.5 8,-315.5 8,-315.5 8,-309.5 14,-303.5 20,-303.5"/>
<text xml:space="preserve" text-anchor="middle" x="445.5" y="-392.4" font-family="Helvetica,sans-Serif" font-size="18.00">UE8M0 Codec Cluster</text>
</g>
<g id="clust5" class="cluster">
<title>cluster_tiles</title>
<path fill="#cce5ff" stroke="#cce5ff" d="M613,-130.5C613,-130.5 1029,-130.5 1029,-130.5 1035,-130.5 1041,-136.5 1041,-142.5 1041,-142.5 1041,-232 1041,-232 1041,-238 1035,-244 1029,-244 1029,-244 613,-244 613,-244 607,-244 601,-238 601,-232 601,-232 601,-142.5 601,-142.5 601,-136.5 607,-130.5 613,-130.5"/>
<text xml:space="preserve" text-anchor="middle" x="821" y="-222.9" font-family="Helvetica,sans-Serif" font-size="18.00">Tensor Core Tiles</text>
</g>
<g id="clust6" class="cluster">
<title>cluster_post</title>
<path fill="#e6f2ff" stroke="#e6f2ff" d="M1193,-596C1193,-596 1550,-596 1550,-596 1556,-596 1562,-602 1562,-608 1562,-608 1562,-694 1562,-694 1562,-700 1556,-706 1550,-706 1550,-706 1193,-706 1193,-706 1187,-706 1181,-700 1181,-694 1181,-694 1181,-608 1181,-608 1181,-602 1187,-596 1193,-596"/>
<text xml:space="preserve" text-anchor="middle" x="1371.5" y="-684.9" font-family="Helvetica,sans-Serif" font-size="18.00">Post/Activations</text>
</g>
<!-- pcie -->
<g id="node1" class="node">
<title>pcie</title>
<path fill="#eaf3ff" stroke="#2c6ebb" stroke-width="1.4" d="M875,-640C875,-640 823,-640 823,-640 817,-640 811,-634 811,-628 811,-628 811,-616 811,-616 811,-610 817,-604 823,-604 823,-604 875,-604 875,-604 881,-604 887,-610 887,-616 887,-616 887,-628 887,-628 887,-634 881,-640 875,-640"/>
<text xml:space="preserve" text-anchor="middle" x="849" y="-616.58" font-family="Helvetica,sans-Serif" font-size="14.00">PCIe/CXL</text>
</g>
<!-- dma -->
<g id="node3" class="node">
<title>dma</title>
<path fill="#eaf3ff" stroke="#2c6ebb" stroke-width="1.4" d="M875.25,-517C875.25,-517 800.75,-517 800.75,-517 794.75,-517 788.75,-511 788.75,-505 788.75,-505 788.75,-493 788.75,-493 788.75,-487 794.75,-481 800.75,-481 800.75,-481 875.25,-481 875.25,-481 881.25,-481 887.25,-487 887.25,-493 887.25,-493 887.25,-505 887.25,-505 887.25,-511 881.25,-517 875.25,-517"/>
<text xml:space="preserve" text-anchor="middle" x="838" y="-493.57" font-family="Helvetica,sans-Serif" font-size="14.00">DMA Engines</text>
</g>
<!-- pcie&#45;&gt;dma -->
<g id="edge1" class="edge">
<title>pcie&#45;&gt;dma</title>
<path fill="none" stroke="#333333" stroke-width="1.2" d="M849,-603.32C849,-603.32 849,-527.27 849,-527.27"/>
<polygon fill="#333333" stroke="#333333" stroke-width="1.2" points="851.8,-527.27 849,-519.27 846.2,-527.27 851.8,-527.27"/>
</g>
<!-- ucode -->
<g id="node2" class="node">
<title>ucode</title>
<path fill="#eaf3ff" stroke="#2c6ebb" stroke-width="1.4" d="M734.12,-640C734.12,-640 637.88,-640 637.88,-640 631.88,-640 625.88,-634 625.88,-628 625.88,-628 625.88,-616 625.88,-616 625.88,-610 631.88,-604 637.88,-604 637.88,-604 734.12,-604 734.12,-604 740.12,-604 746.12,-610 746.12,-616 746.12,-616 746.12,-628 746.12,-628 746.12,-634 740.12,-640 734.12,-640"/>
<text xml:space="preserve" text-anchor="middle" x="686" y="-616.58" font-family="Helvetica,sans-Serif" font-size="14.00">uCode Scheduler</text>
</g>
<!-- ucode&#45;&gt;dma -->
<g id="edge5" class="edge">
<title>ucode&#45;&gt;dma</title>
<path fill="none" stroke="#333333" stroke-width="1.2" stroke-dasharray="5,2" d="M737.12,-603.32C737.12,-568.91 737.12,-499 737.12,-499 737.12,-499 778.34,-499 778.34,-499"/>
<polygon fill="#333333" stroke="#333333" stroke-width="1.2" points="778.34,-501.8 786.34,-499 778.34,-496.2 778.34,-501.8"/>
</g>
<!-- enc -->
<g id="node7" class="node">
<title>enc</title>
<path fill="#eaf3ff" stroke="#2c6ebb" stroke-width="1.4" d="M171.75,-347.5C171.75,-347.5 28.25,-347.5 28.25,-347.5 22.25,-347.5 16.25,-341.5 16.25,-335.5 16.25,-335.5 16.25,-323.5 16.25,-323.5 16.25,-317.5 22.25,-311.5 28.25,-311.5 28.25,-311.5 171.75,-311.5 171.75,-311.5 177.75,-311.5 183.75,-317.5 183.75,-323.5 183.75,-323.5 183.75,-335.5 183.75,-335.5 183.75,-341.5 177.75,-347.5 171.75,-347.5"/>
<text xml:space="preserve" text-anchor="middle" x="100" y="-324.07" font-family="Helvetica,sans-Serif" font-size="14.00">Encoder (FP32→FP8+E)</text>
</g>
<!-- ucode&#45;&gt;enc -->
<g id="edge6" class="edge">
<title>ucode&#45;&gt;enc</title>
<path fill="none" stroke="#333333" stroke-width="1.2" stroke-dasharray="5,2" d="M625.21,-628C480.57,-628 127.92,-628 127.92,-628 127.92,-628 127.92,-357.99 127.92,-357.99"/>
<polygon fill="#333333" stroke="#333333" stroke-width="1.2" points="130.72,-357.99 127.92,-349.99 125.12,-357.99 130.72,-357.99"/>
</g>
<!-- dec -->
<g id="node8" class="node">
<title>dec</title>
<path fill="#eaf3ff" stroke="#2c6ebb" stroke-width="1.4" d="M441.12,-347.5C441.12,-347.5 260.88,-347.5 260.88,-347.5 254.88,-347.5 248.88,-341.5 248.88,-335.5 248.88,-335.5 248.88,-323.5 248.88,-323.5 248.88,-317.5 254.88,-311.5 260.88,-311.5 260.88,-311.5 441.12,-311.5 441.12,-311.5 447.12,-311.5 453.12,-317.5 453.12,-323.5 453.12,-323.5 453.12,-335.5 453.12,-335.5 453.12,-341.5 447.12,-347.5 441.12,-347.5"/>
<text xml:space="preserve" text-anchor="middle" x="351" y="-324.07" font-family="Helvetica,sans-Serif" font-size="14.00">Decoder (FP8+E→FP16/FP32)</text>
</g>
<!-- ucode&#45;&gt;dec -->
<g id="edge7" class="edge">
<title>ucode&#45;&gt;dec</title>
<path fill="none" stroke="#333333" stroke-width="1.2" stroke-dasharray="5,2" d="M625.47,-616C520.78,-616 316.96,-616 316.96,-616 316.96,-616 316.96,-357.67 316.96,-357.67"/>
<polygon fill="#333333" stroke="#333333" stroke-width="1.2" points="319.76,-357.67 316.96,-349.67 314.16,-357.67 319.76,-357.67"/>
</g>
<!-- scale -->
<g id="node9" class="node">
<title>scale</title>
<path fill="#eaf3ff" stroke="#2c6ebb" stroke-width="1.4" d="M716.12,-347.5C716.12,-347.5 529.88,-347.5 529.88,-347.5 523.88,-347.5 517.88,-341.5 517.88,-335.5 517.88,-335.5 517.88,-323.5 517.88,-323.5 517.88,-317.5 523.88,-311.5 529.88,-311.5 529.88,-311.5 716.12,-311.5 716.12,-311.5 722.12,-311.5 728.12,-317.5 728.12,-323.5 728.12,-323.5 728.12,-335.5 728.12,-335.5 728.12,-341.5 722.12,-347.5 716.12,-347.5"/>
<text xml:space="preserve" text-anchor="middle" x="623" y="-324.07" font-family="Helvetica,sans-Serif" font-size="14.00">Scale Controller (E sync/update)</text>
</g>
<!-- ucode&#45;&gt;scale -->
<g id="edge8" class="edge">
<title>ucode&#45;&gt;scale</title>
<path fill="none" stroke="#333333" stroke-width="1.2" stroke-dasharray="5,2" d="M677,-603.7C677,-603.7 677,-357.98 677,-357.98"/>
<polygon fill="#333333" stroke="#333333" stroke-width="1.2" points="679.8,-357.98 677,-349.98 674.2,-357.98 679.8,-357.98"/>
</g>
<!-- spm -->
<g id="node6" class="node">
<title>spm</title>
<path fill="#eaf3ff" stroke="#2c6ebb" stroke-width="1.4" d="M1168.12,-347.5C1168.12,-347.5 951.88,-347.5 951.88,-347.5 945.88,-347.5 939.88,-341.5 939.88,-335.5 939.88,-335.5 939.88,-323.5 939.88,-323.5 939.88,-317.5 945.88,-311.5 951.88,-311.5 951.88,-311.5 1168.12,-311.5 1168.12,-311.5 1174.12,-311.5 1180.12,-317.5 1180.12,-323.5 1180.12,-323.5 1180.12,-335.5 1180.12,-335.5 1180.12,-341.5 1174.12,-347.5 1168.12,-347.5"/>
<text xml:space="preserve" text-anchor="middle" x="1060" y="-324.07" font-family="Helvetica,sans-Serif" font-size="14.00">SPM Banks + Prefetch/Double&#45;Buffer</text>
</g>
<!-- dma&#45;&gt;spm -->
<g id="edge2" class="edge">
<title>dma&#45;&gt;spm</title>
<path fill="none" stroke="#333333" stroke-width="1.2" d="M880.94,-480.33C880.94,-438.13 880.94,-339 880.94,-339 880.94,-339 929.75,-339 929.75,-339"/>
<polygon fill="#333333" stroke="#333333" stroke-width="1.2" points="929.75,-341.8 937.75,-339 929.75,-336.2 929.75,-341.8"/>
</g>
<!-- dram -->
<g id="node4" class="node">
<title>dram</title>
<path fill="#eaf3ff" stroke="#2c6ebb" stroke-width="1.4" d="M1111.88,-640C1111.88,-640 1008.12,-640 1008.12,-640 1002.12,-640 996.12,-634 996.12,-628 996.12,-628 996.12,-616 996.12,-616 996.12,-610 1002.12,-604 1008.12,-604 1008.12,-604 1111.88,-604 1111.88,-604 1117.88,-604 1123.88,-610 1123.88,-616 1123.88,-616 1123.88,-628 1123.88,-628 1123.88,-634 1117.88,-640 1111.88,-640"/>
<text xml:space="preserve" text-anchor="middle" x="1060" y="-616.58" font-family="Helvetica,sans-Serif" font-size="14.00">HBM3 / LPDDR5X</text>
</g>
<!-- mc -->
<g id="node5" class="node">
<title>mc</title>
<path fill="#eaf3ff" stroke="#2c6ebb" stroke-width="1.4" d="M1112.25,-517C1112.25,-517 1007.75,-517 1007.75,-517 1001.75,-517 995.75,-511 995.75,-505 995.75,-505 995.75,-493 995.75,-493 995.75,-487 1001.75,-481 1007.75,-481 1007.75,-481 1112.25,-481 1112.25,-481 1118.25,-481 1124.25,-487 1124.25,-493 1124.25,-493 1124.25,-505 1124.25,-505 1124.25,-511 1118.25,-517 1112.25,-517"/>
<text xml:space="preserve" text-anchor="middle" x="1060" y="-493.57" font-family="Helvetica,sans-Serif" font-size="14.00">Memory Controller</text>
</g>
<!-- dram&#45;&gt;mc -->
<g id="edge4" class="edge">
<title>dram&#45;&gt;mc</title>
<path fill="none" stroke="#333333" stroke-width="1.2" d="M1060,-603.32C1060,-603.32 1060,-527.27 1060,-527.27"/>
<polygon fill="#333333" stroke="#333333" stroke-width="1.2" points="1062.8,-527.27 1060,-519.27 1057.2,-527.27 1062.8,-527.27"/>
</g>
<!-- mc&#45;&gt;spm -->
<g id="edge3" class="edge">
<title>mc&#45;&gt;spm</title>
<path fill="none" stroke="#333333" stroke-width="1.2" d="M1060,-480.54C1060,-480.54 1060,-358.01 1060,-358.01"/>
<polygon fill="#333333" stroke="#333333" stroke-width="1.2" points="1062.8,-358.01 1060,-350.01 1057.2,-358.01 1062.8,-358.01"/>
<text xml:space="preserve" text-anchor="middle" x="1078.75" y="-424.7" font-family="Times New Roman,serif" font-size="14.00">LD/ST</text>
</g>
<!-- spm&#45;&gt;dec -->
<g id="edge20" class="edge">
<title>spm&#45;&gt;dec</title>
<path fill="none" stroke="#333333" stroke-width="1.2" stroke-dasharray="5,2" d="M977.12,-347.91C977.12,-366.35 977.12,-392 977.12,-392 977.12,-392 385.04,-392 385.04,-392 385.04,-392 385.04,-357.73 385.04,-357.73"/>
<polygon fill="#333333" stroke="#333333" stroke-width="1.2" points="387.84,-357.73 385.04,-349.73 382.24,-357.73 387.84,-357.73"/>
<text xml:space="preserve" text-anchor="middle" x="584" y="-424.7" font-family="Times New Roman,serif" font-size="14.00">for debug/host readback</text>
</g>
<!-- tile0 -->
<g id="node11" class="node">
<title>tile0</title>
<path fill="#eaf3ff" stroke="#2c6ebb" stroke-width="1.4" d="M857.88,-178C857.88,-178 784.12,-178 784.12,-178 778.12,-178 772.12,-172 772.12,-166 772.12,-166 772.12,-150.5 772.12,-150.5 772.12,-144.5 778.12,-138.5 784.12,-138.5 784.12,-138.5 857.88,-138.5 857.88,-138.5 863.88,-138.5 869.88,-144.5 869.88,-150.5 869.88,-150.5 869.88,-166 869.88,-166 869.88,-172 863.88,-178 857.88,-178"/>
<text xml:space="preserve" text-anchor="middle" x="821" y="-160.7" font-family="Helvetica,sans-Serif" font-size="14.00">Tile[0]</text>
<text xml:space="preserve" text-anchor="middle" x="821" y="-144.95" font-family="Helvetica,sans-Serif" font-size="14.00">Systolic Array</text>
</g>
<!-- spm&#45;&gt;tile0 -->
<g id="edge9" class="edge">
<title>spm&#45;&gt;tile0</title>
<path fill="none" stroke="#333333" stroke-width="1.2" d="M939.29,-330C915.35,-330 897.42,-330 897.42,-330 897.42,-330 897.42,-168 897.42,-168 897.42,-168 880.08,-168 880.08,-168"/>
<polygon fill="#333333" stroke="#333333" stroke-width="1.2" points="880.08,-165.2 872.08,-168 880.08,-170.8 880.08,-165.2"/>
</g>
<!-- tile1 -->
<g id="node12" class="node">
<title>tile1</title>
<path fill="#eaf3ff" stroke="#2c6ebb" stroke-width="1.4" d="M694.88,-178C694.88,-178 621.12,-178 621.12,-178 615.12,-178 609.12,-172 609.12,-166 609.12,-166 609.12,-150.5 609.12,-150.5 609.12,-144.5 615.12,-138.5 621.12,-138.5 621.12,-138.5 694.88,-138.5 694.88,-138.5 700.88,-138.5 706.88,-144.5 706.88,-150.5 706.88,-150.5 706.88,-166 706.88,-166 706.88,-172 700.88,-178 694.88,-178"/>
<text xml:space="preserve" text-anchor="middle" x="658" y="-160.7" font-family="Helvetica,sans-Serif" font-size="14.00">Tile[1]</text>
<text xml:space="preserve" text-anchor="middle" x="658" y="-144.95" font-family="Helvetica,sans-Serif" font-size="14.00">Systolic Array</text>
</g>
<!-- spm&#45;&gt;tile1 -->
<g id="edge10" class="edge">
<title>spm&#45;&gt;tile1</title>
<path fill="none" stroke="#333333" stroke-width="1.2" d="M963.12,-311.09C963.12,-292.65 963.12,-267 963.12,-267 963.12,-267 674.29,-267 674.29,-267 674.29,-267 674.29,-188.27 674.29,-188.27"/>
<polygon fill="#333333" stroke="#333333" stroke-width="1.2" points="677.09,-188.27 674.29,-180.27 671.49,-188.27 677.09,-188.27"/>
</g>
<!-- tileN -->
<g id="node13" class="node">
<title>tileN</title>
<path fill="#eaf3ff" stroke="#2c6ebb" stroke-width="1.4" d="M1020.88,-178C1020.88,-178 947.12,-178 947.12,-178 941.12,-178 935.12,-172 935.12,-166 935.12,-166 935.12,-150.5 935.12,-150.5 935.12,-144.5 941.12,-138.5 947.12,-138.5 947.12,-138.5 1020.88,-138.5 1020.88,-138.5 1026.88,-138.5 1032.88,-144.5 1032.88,-150.5 1032.88,-150.5 1032.88,-166 1032.88,-166 1032.88,-172 1026.88,-178 1020.88,-178"/>
<text xml:space="preserve" text-anchor="middle" x="984" y="-160.7" font-family="Helvetica,sans-Serif" font-size="14.00">Tile[N]</text>
<text xml:space="preserve" text-anchor="middle" x="984" y="-144.95" font-family="Helvetica,sans-Serif" font-size="14.00">Systolic Array</text>
</g>
<!-- spm&#45;&gt;tileN -->
<g id="edge11" class="edge">
<title>spm&#45;&gt;tileN</title>
<path fill="none" stroke="#333333" stroke-width="1.2" d="M1009.62,-310.85C1009.62,-310.85 1009.62,-188.28 1009.62,-188.28"/>
<polygon fill="#333333" stroke="#333333" stroke-width="1.2" points="1012.43,-188.28 1009.63,-180.28 1006.83,-188.28 1012.43,-188.28"/>
</g>
<!-- enc&#45;&gt;spm -->
<g id="edge19" class="edge">
<title>enc&#45;&gt;spm</title>
<path fill="none" stroke="#333333" stroke-width="1.2" d="M72.08,-347.74C72.08,-378.41 72.08,-437 72.08,-437 72.08,-437 958.5,-437 958.5,-437 958.5,-437 958.5,-357.55 958.5,-357.55"/>
<polygon fill="#333333" stroke="#333333" stroke-width="1.2" points="961.3,-357.55 958.5,-349.55 955.7,-357.55 961.3,-357.55"/>
<text xml:space="preserve" text-anchor="middle" x="462" y="-424.7" font-family="Times New Roman,serif" font-size="14.00">packed FP8+E</text>
</g>
<!-- scale&#45;&gt;tile0 -->
<g id="edge12" class="edge">
<title>scale&#45;&gt;tile0</title>
<path fill="none" stroke="#333333" stroke-width="1.2" stroke-dasharray="5,2" d="M728.45,-330C757.13,-330 780.44,-330 780.44,-330 780.44,-330 780.44,-188.44 780.44,-188.44"/>
<polygon fill="#333333" stroke="#333333" stroke-width="1.2" points="783.24,-188.44 780.44,-180.44 777.64,-188.44 783.24,-188.44"/>
<text xml:space="preserve" text-anchor="middle" x="730.62" y="-255.2" font-family="Times New Roman,serif" font-size="14.00">E headers</text>
</g>
<!-- scale&#45;&gt;tile1 -->
<g id="edge13" class="edge">
<title>scale&#45;&gt;tile1</title>
<path fill="none" stroke="#333333" stroke-width="1.2" stroke-dasharray="5,2" d="M641.71,-310.85C641.71,-310.85 641.71,-188.28 641.71,-188.28"/>
<polygon fill="#333333" stroke="#333333" stroke-width="1.2" points="644.51,-188.28 641.71,-180.28 638.91,-188.28 644.51,-188.28"/>
<text xml:space="preserve" text-anchor="middle" x="607.62" y="-255.2" font-family="Times New Roman,serif" font-size="14.00">E headers</text>
</g>
<!-- scale&#45;&gt;tileN -->
<g id="edge14" class="edge">
<title>scale&#45;&gt;tileN</title>
<path fill="none" stroke="#333333" stroke-width="1.2" stroke-dasharray="5,2" d="M717.5,-310.95C717.5,-280.44 717.5,-223 717.5,-223 717.5,-223 986.38,-223 986.38,-223 986.38,-223 986.38,-188.2 986.38,-188.2"/>
<polygon fill="#333333" stroke="#333333" stroke-width="1.2" points="989.18,-188.2 986.38,-180.2 983.58,-188.2 989.18,-188.2"/>
<text xml:space="preserve" text-anchor="middle" x="853.62" y="-255.2" font-family="Times New Roman,serif" font-size="14.00">E headers</text>
</g>
<!-- stats -->
<g id="node10" class="node">
<title>stats</title>
<path fill="#eaf3ff" stroke="#2c6ebb" stroke-width="1.4" d="M862.62,-347.5C862.62,-347.5 805.38,-347.5 805.38,-347.5 799.38,-347.5 793.38,-341.5 793.38,-335.5 793.38,-335.5 793.38,-323.5 793.38,-323.5 793.38,-317.5 799.38,-311.5 805.38,-311.5 805.38,-311.5 862.62,-311.5 862.62,-311.5 868.62,-311.5 874.62,-317.5 874.62,-323.5 874.62,-323.5 874.62,-335.5 874.62,-335.5 874.62,-341.5 868.62,-347.5 862.62,-347.5"/>
<text xml:space="preserve" text-anchor="middle" x="834" y="-324.07" font-family="Helvetica,sans-Serif" font-size="14.00">Calib Stats</text>
</g>
<!-- post -->
<g id="node16" class="node">
<title>post</title>
<path fill="#eaf3ff" stroke="#2c6ebb" stroke-width="1.4" d="M930,-36C930,-36 900,-36 900,-36 894,-36 888,-30 888,-24 888,-24 888,-12 888,-12 888,-6 894,0 900,0 900,0 930,0 930,0 936,0 942,-6 942,-12 942,-12 942,-24 942,-24 942,-30 936,-36 930,-36"/>
<text xml:space="preserve" text-anchor="middle" x="915" y="-12.57" font-family="Helvetica,sans-Serif" font-size="14.00">post</text>
</g>
<!-- tile0&#45;&gt;post -->
<g id="edge15" class="edge">
<title>tile0&#45;&gt;post</title>
<path fill="none" stroke="#333333" stroke-width="1.2" d="M870.44,-158C889.53,-158 906.85,-158 906.85,-158 906.85,-158 906.85,-46.41 906.85,-46.41"/>
<polygon fill="#333333" stroke="#333333" stroke-width="1.2" points="909.65,-46.41 906.85,-38.41 904.05,-46.41 909.65,-46.41"/>
<text xml:space="preserve" text-anchor="middle" x="853.88" y="-82.2" font-family="Times New Roman,serif" font-size="14.00">outputs</text>
</g>
<!-- tile1&#45;&gt;post -->
<g id="edge16" class="edge">
<title>tile1&#45;&gt;post</title>
<path fill="none" stroke="#333333" stroke-width="1.2" d="M658,-137.86C658,-98.96 658,-18 658,-18 658,-18 877.68,-18 877.68,-18"/>
<polygon fill="#333333" stroke="#333333" stroke-width="1.2" points="877.68,-20.8 885.68,-18 877.68,-15.2 877.68,-20.8"/>
<text xml:space="preserve" text-anchor="middle" x="717.88" y="-82.2" font-family="Times New Roman,serif" font-size="14.00">outputs</text>
</g>
<!-- tileN&#45;&gt;post -->
<g id="edge17" class="edge">
<title>tileN&#45;&gt;post</title>
<path fill="none" stroke="#333333" stroke-width="1.2" d="M934.81,-148C929.34,-148 925.7,-148 925.7,-148 925.7,-148 925.7,-46.44 925.7,-46.44"/>
<polygon fill="#333333" stroke="#333333" stroke-width="1.2" points="928.5,-46.44 925.7,-38.44 922.9,-46.44 928.5,-46.44"/>
<text xml:space="preserve" text-anchor="middle" x="977.88" y="-82.2" font-family="Times New Roman,serif" font-size="14.00">outputs</text>
</g>
<!-- act -->
<g id="node14" class="node">
<title>act</title>
<path fill="#eaf3ff" stroke="#2c6ebb" stroke-width="1.4" d="M1346.88,-640C1346.88,-640 1201.12,-640 1201.12,-640 1195.12,-640 1189.12,-634 1189.12,-628 1189.12,-628 1189.12,-616 1189.12,-616 1189.12,-610 1195.12,-604 1201.12,-604 1201.12,-604 1346.88,-604 1346.88,-604 1352.88,-604 1358.88,-610 1358.88,-616 1358.88,-616 1358.88,-628 1358.88,-628 1358.88,-634 1352.88,-640 1346.88,-640"/>
<text xml:space="preserve" text-anchor="middle" x="1274" y="-616.58" font-family="Helvetica,sans-Serif" font-size="14.00">ReLU/SiLU/GELU approx</text>
</g>
<!-- norm -->
<g id="node15" class="node">
<title>norm</title>
<path fill="#eaf3ff" stroke="#2c6ebb" stroke-width="1.4" d="M1541.62,-640C1541.62,-640 1436.38,-640 1436.38,-640 1430.38,-640 1424.38,-634 1424.38,-628 1424.38,-628 1424.38,-616 1424.38,-616 1424.38,-610 1430.38,-604 1436.38,-604 1436.38,-604 1541.62,-604 1541.62,-604 1547.62,-604 1553.62,-610 1553.62,-616 1553.62,-616 1553.62,-628 1553.62,-628 1553.62,-634 1547.62,-640 1541.62,-640"/>
<text xml:space="preserve" text-anchor="middle" x="1489" y="-616.58" font-family="Helvetica,sans-Serif" font-size="14.00">Layer/Group Norm</text>
</g>
<!-- post&#45;&gt;spm -->
<g id="edge18" class="edge">
<title>post&#45;&gt;spm</title>
<path fill="none" stroke="#333333" stroke-width="1.2" d="M916.27,-36.5C916.27,-102.28 916.27,-321 916.27,-321 916.27,-321 929.55,-321 929.55,-321"/>
<polygon fill="#333333" stroke="#333333" stroke-width="1.2" points="929.55,-323.8 937.55,-321 929.55,-318.2 929.55,-323.8"/>
</g>
</g>
</svg>
