<?xml version="1.0" encoding="UTF-8" standalone="no"?>
<!DOCTYPE svg PUBLIC "-//W3C//DTD SVG 1.1//EN"
 "http://www.w3.org/Graphics/SVG/1.1/DTD/svg11.dtd">
<!-- Generated by graphviz version 13.1.2 (20250808.2320)
 -->
<!-- Title: UE8M0_TPU_TOP_V02 Pages: 1 -->
<svg width="1250pt" height="949pt"
 viewBox="0.00 0.00 1250.00 949.00" xmlns="http://www.w3.org/2000/svg" xmlns:xlink="http://www.w3.org/1999/xlink">
<g id="graph0" class="graph" transform="scale(1 1) rotate(0) translate(4 945)">
<title>UE8M0_TPU_TOP_V02</title>
<polygon fill="white" stroke="none" points="-4,4 -4,-945 1246,-945 1246,4 -4,4"/>
<text xml:space="preserve" text-anchor="middle" x="621" y="-919.9" font-family="Helvetica,sans-Serif" font-size="18.00">UE8M0&#45;TPU SoC Top v0.2 (DDR/HBM + KV/Tensor&#45;Cache)</text>
<g id="clust1" class="cluster">
<title>cluster_host</title>
<polygon fill="none" stroke="#ffcccc" points="8,-588 8,-904 190,-904 190,-588 8,-588"/>
<text xml:space="preserve" text-anchor="middle" x="99" y="-882.9" font-family="Helvetica,sans-Serif" font-size="18.00">Host</text>
</g>
<g id="clust2" class="cluster">
<title>cluster_mem</title>
<polygon fill="none" stroke="#ffdab9" points="763,-588 763,-674 1234,-674 1234,-588 763,-588"/>
<text xml:space="preserve" text-anchor="middle" x="998.5" y="-652.9" font-family="Helvetica,sans-Serif" font-size="18.00">External Memory</text>
</g>
<g id="clust3" class="cluster">
<title>cluster_cache</title>
<polygon fill="none" stroke="#fff0b3" points="446,-468 446,-554 925,-554 925,-468 446,-468"/>
<text xml:space="preserve" text-anchor="middle" x="685.5" y="-532.9" font-family="Helvetica,sans-Serif" font-size="18.00">Front&#45;side Caches</text>
</g>
<g id="clust4" class="cluster">
<title>cluster_spm</title>
<polygon fill="none" stroke="#dff7e7" points="467,-353 467,-434 753,-434 753,-353 467,-353"/>
<text xml:space="preserve" text-anchor="middle" x="610" y="-412.9" font-family="Helvetica,sans-Serif" font-size="18.00">On&#45;chip Scratchpad</text>
</g>
<g id="clust5" class="cluster">
<title>cluster_codec</title>
<polygon fill="none" stroke="#e6e6e6" points="801,-353 801,-434 1179,-434 1179,-353 801,-353"/>
<text xml:space="preserve" text-anchor="middle" x="990" y="-412.9" font-family="Helvetica,sans-Serif" font-size="18.00">UE8M0 Codec Cluster</text>
</g>
<g id="clust6" class="cluster">
<title>cluster_tiles</title>
<polygon fill="none" stroke="#cce5ff" points="469,-238 469,-319 1051,-319 1051,-238 469,-238"/>
<text xml:space="preserve" text-anchor="middle" x="760" y="-297.9" font-family="Helvetica,sans-Serif" font-size="18.00">Tensor Core Tiles</text>
</g>
<g id="clust7" class="cluster">
<title>cluster_post</title>
<polygon fill="none" stroke="#e0e0ff" points="720,-8 720,-204 916,-204 916,-8 720,-8"/>
<text xml:space="preserve" text-anchor="middle" x="818" y="-182.9" font-family="Helvetica,sans-Serif" font-size="18.00">Post Ops</text>
</g>
<!-- pcie -->
<g id="node1" class="node">
<title>pcie</title>
<path fill="#eaf3ff" stroke="#2c6ebb" d="M169.88,-867C169.88,-867 120.12,-867 120.12,-867 114.12,-867 108.12,-861 108.12,-855 108.12,-855 108.12,-843 108.12,-843 108.12,-837 114.12,-831 120.12,-831 120.12,-831 169.88,-831 169.88,-831 175.88,-831 181.88,-837 181.88,-843 181.88,-843 181.88,-855 181.88,-855 181.88,-861 175.88,-867 169.88,-867"/>
<text xml:space="preserve" text-anchor="middle" x="145" y="-843.95" font-family="Times New Roman,serif" font-size="14.00">PCIe/CXL</text>
</g>
<!-- dma -->
<g id="node2" class="node">
<title>dma</title>
<path fill="#eaf3ff" stroke="#2c6ebb" d="M169.62,-752C169.62,-752 106.38,-752 106.38,-752 100.38,-752 94.38,-746 94.38,-740 94.38,-740 94.38,-728 94.38,-728 94.38,-722 100.38,-716 106.38,-716 106.38,-716 169.62,-716 169.62,-716 175.62,-716 181.62,-722 181.62,-728 181.62,-728 181.62,-740 181.62,-740 181.62,-746 175.62,-752 169.62,-752"/>
<text xml:space="preserve" text-anchor="middle" x="138" y="-728.95" font-family="Times New Roman,serif" font-size="14.00">DMA/Queue</text>
</g>
<!-- pcie&#45;&gt;dma -->
<g id="edge1" class="edge">
<title>pcie&#45;&gt;dma</title>
<path fill="none" stroke="black" d="M144.88,-830.52C144.88,-830.52 144.88,-763.94 144.88,-763.94"/>
<polygon fill="black" stroke="black" points="148.38,-763.94 144.88,-753.94 141.38,-763.94 148.38,-763.94"/>
</g>
<!-- kv -->
<g id="node7" class="node">
<title>kv</title>
<path fill="#eaf3ff" stroke="#2c6ebb" d="M632,-514.5C632,-514.5 466,-514.5 466,-514.5 460,-514.5 454,-508.5 454,-502.5 454,-502.5 454,-490.5 454,-490.5 454,-484.5 460,-478.5 466,-478.5 466,-478.5 632,-478.5 632,-478.5 638,-478.5 644,-484.5 644,-490.5 644,-490.5 644,-502.5 644,-502.5 644,-508.5 638,-514.5 632,-514.5"/>
<text xml:space="preserve" text-anchor="middle" x="549" y="-491.45" font-family="Times New Roman,serif" font-size="14.00">KV&#45;Cache per&#45;chan 64–128MB</text>
</g>
<!-- pcie&#45;&gt;kv -->
<g id="edge3" class="edge">
<title>pcie&#45;&gt;kv</title>
<path fill="none" stroke="black" d="M182.06,-843C276.24,-843 517.33,-843 517.33,-843 517.33,-843 517.33,-526.16 517.33,-526.16"/>
<polygon fill="black" stroke="black" points="520.83,-526.15 517.33,-516.16 513.83,-526.16 520.83,-526.15"/>
</g>
<!-- tcache -->
<g id="node8" class="node">
<title>tcache</title>
<path fill="#eaf3ff" stroke="#2c6ebb" d="M905,-517C905,-517 721,-517 721,-517 715,-517 709,-511 709,-505 709,-505 709,-488 709,-488 709,-482 715,-476 721,-476 721,-476 905,-476 905,-476 911,-476 917,-482 917,-488 917,-488 917,-505 917,-505 917,-511 911,-517 905,-517"/>
<text xml:space="preserve" text-anchor="middle" x="813" y="-499.7" font-family="Times New Roman,serif" font-size="14.00">Tensor&#45;Cache per&#45;chan 64–128MB</text>
<text xml:space="preserve" text-anchor="middle" x="813" y="-483.2" font-family="Times New Roman,serif" font-size="14.00">(prefetch/stream)</text>
</g>
<!-- pcie&#45;&gt;tcache -->
<g id="edge4" class="edge">
<title>pcie&#45;&gt;tcache</title>
<path fill="none" stroke="black" d="M182.28,-855C314.85,-855 755.59,-855 755.59,-855 755.59,-855 755.59,-528.84 755.59,-528.84"/>
<polygon fill="black" stroke="black" points="759.09,-528.84 755.59,-518.84 752.09,-528.84 759.09,-528.84"/>
</g>
<!-- rv -->
<g id="node3" class="node">
<title>rv</title>
<path fill="#eaf3ff" stroke="#2c6ebb" d="M170.38,-637C170.38,-637 27.62,-637 27.62,-637 21.62,-637 15.62,-631 15.62,-625 15.62,-625 15.62,-608 15.62,-608 15.62,-602 21.62,-596 27.62,-596 27.62,-596 170.38,-596 170.38,-596 176.38,-596 182.38,-602 182.38,-608 182.38,-608 182.38,-625 182.38,-625 182.38,-631 176.38,-637 170.38,-637"/>
<text xml:space="preserve" text-anchor="middle" x="99" y="-619.7" font-family="Times New Roman,serif" font-size="14.00">RISC&#45;V Cores</text>
<text xml:space="preserve" text-anchor="middle" x="99" y="-603.2" font-family="Times New Roman,serif" font-size="14.00">(RV64GCV + AME hooks)</text>
</g>
<!-- dma&#45;&gt;rv -->
<g id="edge2" class="edge">
<title>dma&#45;&gt;rv</title>
<path fill="none" stroke="black" d="M138,-715.64C138,-715.64 138,-648.61 138,-648.61"/>
<polygon fill="black" stroke="black" points="141.5,-648.61 138,-638.61 134.5,-648.61 141.5,-648.61"/>
</g>
<!-- dma&#45;&gt;kv -->
<g id="edge5" class="edge">
<title>dma&#45;&gt;kv</title>
<path fill="none" stroke="black" d="M182.03,-728C275.58,-728 485.67,-728 485.67,-728 485.67,-728 485.67,-526.18 485.67,-526.18"/>
<polygon fill="black" stroke="black" points="489.17,-526.18 485.67,-516.18 482.17,-526.18 489.17,-526.18"/>
</g>
<!-- dma&#45;&gt;tcache -->
<g id="edge6" class="edge">
<title>dma&#45;&gt;tcache</title>
<path fill="none" stroke="black" d="M181.78,-740C320.33,-740 740.06,-740 740.06,-740 740.06,-740 740.06,-528.77 740.06,-528.77"/>
<polygon fill="black" stroke="black" points="743.56,-528.77 740.06,-518.77 736.56,-528.77 743.56,-528.77"/>
</g>
<!-- rv&#45;&gt;kv -->
<g id="edge7" class="edge">
<title>rv&#45;&gt;kv</title>
<path fill="none" stroke="black" d="M99,-595.68C99,-561.45 99,-497 99,-497 99,-497 442.05,-497 442.05,-497"/>
<polygon fill="black" stroke="black" points="442.05,-500.5 452.05,-497 442.05,-493.5 442.05,-500.5"/>
</g>
<!-- rv&#45;&gt;tcache -->
<g id="edge8" class="edge">
<title>rv&#45;&gt;tcache</title>
<path fill="none" stroke="black" d="M182.71,-623C353.16,-623 724.53,-623 724.53,-623 724.53,-623 724.53,-528.9 724.53,-528.9"/>
<polygon fill="black" stroke="black" points="728.03,-528.9 724.53,-518.9 721.03,-528.9 728.03,-528.9"/>
</g>
<!-- ddr -->
<g id="node4" class="node">
<title>ddr</title>
<path fill="#eaf3ff" stroke="#2c6ebb" d="M1042.5,-637C1042.5,-637 945.5,-637 945.5,-637 939.5,-637 933.5,-631 933.5,-625 933.5,-625 933.5,-608 933.5,-608 933.5,-602 939.5,-596 945.5,-596 945.5,-596 1042.5,-596 1042.5,-596 1048.5,-596 1054.5,-602 1054.5,-608 1054.5,-608 1054.5,-625 1054.5,-625 1054.5,-631 1048.5,-637 1042.5,-637"/>
<text xml:space="preserve" text-anchor="middle" x="994" y="-619.7" font-family="Times New Roman,serif" font-size="14.00">DDR5 RDIMM x8</text>
<text xml:space="preserve" text-anchor="middle" x="994" y="-603.2" font-family="Times New Roman,serif" font-size="14.00">(512b, up to 2TB)</text>
</g>
<!-- ddr&#45;&gt;kv -->
<g id="edge11" class="edge">
<title>ddr&#45;&gt;kv</title>
<path fill="none" stroke="black" d="M990,-595.7C990,-583.32 990,-570 990,-570 990,-570 580.67,-570 580.67,-570 580.67,-570 580.67,-526.18 580.67,-526.18"/>
<polygon fill="black" stroke="black" points="584.17,-526.18 580.67,-516.18 577.17,-526.18 584.17,-526.18"/>
</g>
<!-- ddr&#45;&gt;tcache -->
<g id="edge12" class="edge">
<title>ddr&#45;&gt;tcache</title>
<path fill="none" stroke="black" d="M933.17,-617C911.77,-617 892.94,-617 892.94,-617 892.94,-617 892.94,-529 892.94,-529"/>
<polygon fill="black" stroke="black" points="896.44,-529 892.94,-519 889.44,-529 896.44,-529"/>
</g>
<!-- lpddr -->
<g id="node5" class="node">
<title>lpddr</title>
<path fill="#eaf3ff" stroke="#2c6ebb" d="M1214.38,-634.5C1214.38,-634.5 1131.62,-634.5 1131.62,-634.5 1125.62,-634.5 1119.62,-628.5 1119.62,-622.5 1119.62,-622.5 1119.62,-610.5 1119.62,-610.5 1119.62,-604.5 1125.62,-598.5 1131.62,-598.5 1131.62,-598.5 1214.38,-598.5 1214.38,-598.5 1220.38,-598.5 1226.38,-604.5 1226.38,-610.5 1226.38,-610.5 1226.38,-622.5 1226.38,-622.5 1226.38,-628.5 1220.38,-634.5 1214.38,-634.5"/>
<text xml:space="preserve" text-anchor="middle" x="1173" y="-611.45" font-family="Times New Roman,serif" font-size="14.00">LPDDR5X (Alt)</text>
</g>
<!-- lpddr&#45;&gt;kv -->
<g id="edge13" class="edge">
<title>lpddr&#45;&gt;kv</title>
<path fill="none" stroke="black" d="M1136.71,-598.33C1136.71,-576.57 1136.71,-543 1136.71,-543 1136.71,-543 612.33,-543 612.33,-543 612.33,-543 612.33,-526.39 612.33,-526.39"/>
<polygon fill="black" stroke="black" points="615.83,-526.39 612.33,-516.39 608.83,-526.39 615.83,-526.39"/>
</g>
<!-- lpddr&#45;&gt;tcache -->
<g id="edge14" class="edge">
<title>lpddr&#45;&gt;tcache</title>
<path fill="none" stroke="black" d="M1153.79,-598.09C1153.79,-564.57 1153.79,-497 1153.79,-497 1153.79,-497 928.61,-497 928.61,-497"/>
<polygon fill="black" stroke="black" points="928.61,-493.5 918.61,-497 928.61,-500.5 928.61,-493.5"/>
</g>
<!-- hbm -->
<g id="node6" class="node">
<title>hbm</title>
<path fill="#eaf3ff" stroke="#2c6ebb" d="M856.88,-637C856.88,-637 783.12,-637 783.12,-637 777.12,-637 771.12,-631 771.12,-625 771.12,-625 771.12,-608 771.12,-608 771.12,-602 777.12,-596 783.12,-596 783.12,-596 856.88,-596 856.88,-596 862.88,-596 868.88,-602 868.88,-608 868.88,-608 868.88,-625 868.88,-625 868.88,-631 862.88,-637 856.88,-637"/>
<text xml:space="preserve" text-anchor="middle" x="820" y="-619.7" font-family="Times New Roman,serif" font-size="14.00">HBM (Option)</text>
<text xml:space="preserve" text-anchor="middle" x="820" y="-603.2" font-family="Times New Roman,serif" font-size="14.00">&gt;=3.5–7 TB/s</text>
</g>
<!-- hbm&#45;&gt;kv -->
<g id="edge15" class="edge">
<title>hbm&#45;&gt;kv</title>
<path fill="none" stroke="black" d="M770.92,-610C692.83,-610 549,-610 549,-610 549,-610 549,-526.5 549,-526.5"/>
<polygon fill="black" stroke="black" points="552.5,-526.5 549,-516.5 545.5,-526.5 552.5,-526.5"/>
</g>
<!-- hbm&#45;&gt;tcache -->
<g id="edge16" class="edge">
<title>hbm&#45;&gt;tcache</title>
<path fill="none" stroke="black" d="M820,-595.6C820,-595.6 820,-528.68 820,-528.68"/>
<polygon fill="black" stroke="black" points="823.5,-528.68 820,-518.68 816.5,-528.68 823.5,-528.68"/>
</g>
<!-- spm -->
<g id="node9" class="node">
<title>spm</title>
<path fill="#eaf3ff" stroke="#2c6ebb" d="M732.75,-397C732.75,-397 487.25,-397 487.25,-397 481.25,-397 475.25,-391 475.25,-385 475.25,-385 475.25,-373 475.25,-373 475.25,-367 481.25,-361 487.25,-361 487.25,-361 732.75,-361 732.75,-361 738.75,-361 744.75,-367 744.75,-373 744.75,-373 744.75,-385 744.75,-385 744.75,-391 738.75,-397 732.75,-397"/>
<text xml:space="preserve" text-anchor="middle" x="610" y="-373.95" font-family="Times New Roman,serif" font-size="14.00">SPM Banks (multi&#45;bank, ping&#45;pong, crossbar)</text>
</g>
<!-- kv&#45;&gt;spm -->
<g id="edge9" class="edge">
<title>kv&#45;&gt;spm</title>
<path fill="none" stroke="black" d="M559.62,-478.14C559.62,-478.14 559.62,-408.74 559.62,-408.74"/>
<polygon fill="black" stroke="black" points="563.13,-408.74 559.63,-398.74 556.13,-408.74 563.13,-408.74"/>
</g>
<!-- tcache&#45;&gt;spm -->
<g id="edge10" class="edge">
<title>tcache&#45;&gt;spm</title>
<path fill="none" stroke="black" d="M726.88,-475.76C726.88,-475.76 726.88,-408.73 726.88,-408.73"/>
<polygon fill="black" stroke="black" points="730.38,-408.73 726.88,-398.73 723.38,-408.73 730.38,-408.73"/>
</g>
<!-- tile0 -->
<g id="node13" class="node">
<title>tile0</title>
<path fill="#eaf3ff" stroke="#2c6ebb" d="M688.25,-282C688.25,-282 607.75,-282 607.75,-282 601.75,-282 595.75,-276 595.75,-270 595.75,-270 595.75,-258 595.75,-258 595.75,-252 601.75,-246 607.75,-246 607.75,-246 688.25,-246 688.25,-246 694.25,-246 700.25,-252 700.25,-258 700.25,-258 700.25,-270 700.25,-270 700.25,-276 694.25,-282 688.25,-282"/>
<text xml:space="preserve" text-anchor="middle" x="648" y="-258.95" font-family="Times New Roman,serif" font-size="14.00">Tile[0] 128x128</text>
</g>
<!-- spm&#45;&gt;tile0 -->
<g id="edge21" class="edge">
<title>spm&#45;&gt;tile0</title>
<path fill="none" stroke="black" d="M630.58,-360.52C630.58,-360.52 630.58,-293.94 630.58,-293.94"/>
<polygon fill="black" stroke="black" points="634.08,-293.94 630.58,-283.94 627.08,-293.94 634.08,-293.94"/>
</g>
<!-- tile1 -->
<g id="node14" class="node">
<title>tile1</title>
<path fill="#eaf3ff" stroke="#2c6ebb" d="M858.25,-282C858.25,-282 777.75,-282 777.75,-282 771.75,-282 765.75,-276 765.75,-270 765.75,-270 765.75,-258 765.75,-258 765.75,-252 771.75,-246 777.75,-246 777.75,-246 858.25,-246 858.25,-246 864.25,-246 870.25,-252 870.25,-258 870.25,-258 870.25,-270 870.25,-270 870.25,-276 864.25,-282 858.25,-282"/>
<text xml:space="preserve" text-anchor="middle" x="818" y="-258.95" font-family="Times New Roman,serif" font-size="14.00">Tile[1] 128x128</text>
</g>
<!-- spm&#45;&gt;tile1 -->
<g id="edge22" class="edge">
<title>spm&#45;&gt;tile1</title>
<path fill="none" stroke="black" d="M740.62,-360.51C740.62,-329.41 740.62,-270 740.62,-270 740.62,-270 754.02,-270 754.02,-270"/>
<polygon fill="black" stroke="black" points="754.02,-273.5 764.02,-270 754.02,-266.5 754.02,-273.5"/>
</g>
<!-- dots -->
<g id="node15" class="node">
<title>dots</title>
<path fill="#eaf3ff" stroke="#2c6ebb" d="M519,-282C519,-282 489,-282 489,-282 483,-282 477,-276 477,-270 477,-270 477,-258 477,-258 477,-252 483,-246 489,-246 489,-246 519,-246 519,-246 525,-246 531,-252 531,-258 531,-258 531,-270 531,-270 531,-276 525,-282 519,-282"/>
<text xml:space="preserve" text-anchor="middle" x="504" y="-258.95" font-family="Times New Roman,serif" font-size="14.00">...</text>
</g>
<!-- spm&#45;&gt;dots -->
<g id="edge23" class="edge">
<title>spm&#45;&gt;dots</title>
<path fill="none" stroke="black" d="M504,-360.52C504,-360.52 504,-293.94 504,-293.94"/>
<polygon fill="black" stroke="black" points="507.5,-293.94 504,-283.94 500.5,-293.94 507.5,-293.94"/>
</g>
<!-- tileN -->
<g id="node16" class="node">
<title>tileN</title>
<path fill="#eaf3ff" stroke="#2c6ebb" d="M1030.75,-282C1030.75,-282 947.25,-282 947.25,-282 941.25,-282 935.25,-276 935.25,-270 935.25,-270 935.25,-258 935.25,-258 935.25,-252 941.25,-246 947.25,-246 947.25,-246 1030.75,-246 1030.75,-246 1036.75,-246 1042.75,-252 1042.75,-258 1042.75,-258 1042.75,-270 1042.75,-270 1042.75,-276 1036.75,-282 1030.75,-282"/>
<text xml:space="preserve" text-anchor="middle" x="989" y="-258.95" font-family="Times New Roman,serif" font-size="14.00">Tile[N] 128x128</text>
</g>
<!-- spm&#45;&gt;tileN -->
<g id="edge24" class="edge">
<title>spm&#45;&gt;tileN</title>
<path fill="none" stroke="black" d="M732.38,-360.59C732.38,-348.54 732.38,-335 732.38,-335 732.38,-335 962.31,-335 962.31,-335 962.31,-335 962.31,-293.8 962.31,-293.8"/>
<polygon fill="black" stroke="black" points="965.81,-293.8 962.31,-283.8 958.81,-293.8 965.81,-293.8"/>
</g>
<!-- enc -->
<g id="node10" class="node">
<title>enc</title>
<path fill="#eaf3ff" stroke="#2c6ebb" d="M858.5,-397C858.5,-397 821.5,-397 821.5,-397 815.5,-397 809.5,-391 809.5,-385 809.5,-385 809.5,-373 809.5,-373 809.5,-367 815.5,-361 821.5,-361 821.5,-361 858.5,-361 858.5,-361 864.5,-361 870.5,-367 870.5,-373 870.5,-373 870.5,-385 870.5,-385 870.5,-391 864.5,-397 858.5,-397"/>
<text xml:space="preserve" text-anchor="middle" x="840" y="-373.95" font-family="Times New Roman,serif" font-size="14.00">Encoder</text>
</g>
<!-- enc&#45;&gt;spm -->
<g id="edge17" class="edge">
<title>enc&#45;&gt;spm</title>
<path fill="none" stroke="black" d="M809.46,-379C809.46,-379 756.53,-379 756.53,-379"/>
<polygon fill="black" stroke="black" points="756.53,-375.5 746.53,-379 756.53,-382.5 756.53,-375.5"/>
</g>
<!-- dec -->
<g id="node11" class="node">
<title>dec</title>
<path fill="#eaf3ff" stroke="#2c6ebb" d="M1158.88,-397C1158.88,-397 1121.12,-397 1121.12,-397 1115.12,-397 1109.12,-391 1109.12,-385 1109.12,-385 1109.12,-373 1109.12,-373 1109.12,-367 1115.12,-361 1121.12,-361 1121.12,-361 1158.88,-361 1158.88,-361 1164.88,-361 1170.88,-367 1170.88,-373 1170.88,-373 1170.88,-385 1170.88,-385 1170.88,-391 1164.88,-397 1158.88,-397"/>
<text xml:space="preserve" text-anchor="middle" x="1140" y="-373.95" font-family="Times New Roman,serif" font-size="14.00">Decoder</text>
</g>
<!-- scale -->
<g id="node12" class="node">
<title>scale</title>
<path fill="#eaf3ff" stroke="#2c6ebb" d="M1032.5,-397C1032.5,-397 947.5,-397 947.5,-397 941.5,-397 935.5,-391 935.5,-385 935.5,-385 935.5,-373 935.5,-373 935.5,-367 941.5,-361 947.5,-361 947.5,-361 1032.5,-361 1032.5,-361 1038.5,-361 1044.5,-367 1044.5,-373 1044.5,-373 1044.5,-385 1044.5,-385 1044.5,-391 1038.5,-397 1032.5,-397"/>
<text xml:space="preserve" text-anchor="middle" x="990" y="-373.95" font-family="Times New Roman,serif" font-size="14.00">Scale Sync/Calib</text>
</g>
<!-- scale&#45;&gt;tile0 -->
<g id="edge18" class="edge">
<title>scale&#45;&gt;tile0</title>
<path fill="none" stroke="black" d="M989.12,-360.72C989.12,-339.68 989.12,-308 989.12,-308 989.12,-308 665.42,-308 665.42,-308 665.42,-308 665.42,-293.92 665.42,-293.92"/>
<polygon fill="black" stroke="black" points="668.92,-293.92 665.42,-283.92 661.92,-293.92 668.92,-293.92"/>
</g>
<!-- scale&#45;&gt;tile1 -->
<g id="edge19" class="edge">
<title>scale&#45;&gt;tile1</title>
<path fill="none" stroke="black" d="M935.25,-379C922.4,-379 912.38,-379 912.38,-379 912.38,-379 912.38,-270 912.38,-270 912.38,-270 882.22,-270 882.22,-270"/>
<polygon fill="black" stroke="black" points="882.22,-266.5 872.22,-270 882.22,-273.5 882.22,-266.5"/>
</g>
<!-- scale&#45;&gt;tileN -->
<g id="edge20" class="edge">
<title>scale&#45;&gt;tileN</title>
<path fill="none" stroke="black" d="M1015.94,-360.52C1015.94,-360.52 1015.94,-293.94 1015.94,-293.94"/>
<polygon fill="black" stroke="black" points="1019.44,-293.94 1015.94,-283.94 1012.44,-293.94 1019.44,-293.94"/>
</g>
<!-- act -->
<g id="node17" class="node">
<title>act</title>
<path fill="#eaf3ff" stroke="#2c6ebb" d="M895.75,-167C895.75,-167 740.25,-167 740.25,-167 734.25,-167 728.25,-161 728.25,-155 728.25,-155 728.25,-143 728.25,-143 728.25,-137 734.25,-131 740.25,-131 740.25,-131 895.75,-131 895.75,-131 901.75,-131 907.75,-137 907.75,-143 907.75,-143 907.75,-155 907.75,-155 907.75,-161 901.75,-167 895.75,-167"/>
<text xml:space="preserve" text-anchor="middle" x="818" y="-143.95" font-family="Times New Roman,serif" font-size="14.00">Activation/ReLU/GELU LUT</text>
</g>
<!-- tile0&#45;&gt;act -->
<g id="edge25" class="edge">
<title>tile0&#45;&gt;act</title>
<path fill="none" stroke="black" d="M700.5,-258C719.56,-258 736.5,-258 736.5,-258 736.5,-258 736.5,-179 736.5,-179"/>
<polygon fill="black" stroke="black" points="740,-179 736.5,-169 733,-179 740,-179"/>
</g>
<!-- tile1&#45;&gt;act -->
<g id="edge26" class="edge">
<title>tile1&#45;&gt;act</title>
<path fill="none" stroke="black" d="M818,-245.52C818,-245.52 818,-178.94 818,-178.94"/>
<polygon fill="black" stroke="black" points="821.5,-178.94 818,-168.94 814.5,-178.94 821.5,-178.94"/>
</g>
<!-- dots&#45;&gt;act -->
<g id="edge27" class="edge">
<title>dots&#45;&gt;act</title>
<path fill="none" stroke="black" d="M504,-245.52C504,-213.02 504,-149 504,-149 504,-149 716.51,-149 716.51,-149"/>
<polygon fill="black" stroke="black" points="716.51,-152.5 726.51,-149 716.51,-145.5 716.51,-152.5"/>
</g>
<!-- tileN&#45;&gt;act -->
<g id="edge28" class="edge">
<title>tileN&#45;&gt;act</title>
<path fill="none" stroke="black" d="M934.97,-258C911.44,-258 889.12,-258 889.12,-258 889.12,-258 889.12,-179 889.12,-179"/>
<polygon fill="black" stroke="black" points="892.63,-179 889.13,-169 885.63,-179 892.63,-179"/>
</g>
<!-- norm -->
<g id="node18" class="node">
<title>norm</title>
<path fill="#eaf3ff" stroke="#2c6ebb" d="M880,-52C880,-52 786,-52 786,-52 780,-52 774,-46 774,-40 774,-40 774,-28 774,-28 774,-22 780,-16 786,-16 786,-16 880,-16 880,-16 886,-16 892,-22 892,-28 892,-28 892,-40 892,-40 892,-46 886,-52 880,-52"/>
<text xml:space="preserve" text-anchor="middle" x="833" y="-28.95" font-family="Times New Roman,serif" font-size="14.00">Layer/GroupNorm</text>
</g>
<!-- act&#45;&gt;norm -->
<g id="edge29" class="edge">
<title>act&#45;&gt;norm</title>
<path fill="none" stroke="black" d="M833,-130.52C833,-130.52 833,-63.94 833,-63.94"/>
<polygon fill="black" stroke="black" points="836.5,-63.94 833,-53.94 829.5,-63.94 836.5,-63.94"/>
</g>
<!-- norm&#45;&gt;dec -->
<g id="edge30" class="edge">
<title>norm&#45;&gt;dec</title>
<path fill="none" stroke="black" d="M892.19,-34C981.4,-34 1140,-34 1140,-34 1140,-34 1140,-349.42 1140,-349.42"/>
<polygon fill="black" stroke="black" points="1136.5,-349.42 1140,-359.42 1143.5,-349.42 1136.5,-349.42"/>
</g>
</g>
</svg>
